<svg width="500" height="500" viewBox="0 0 500 500" fill="none" xmlns="http://www.w3.org/2000/svg">
<rect width="500" height="500" rx="250" fill="#6B3BA9"/>
<path fill-rule="evenodd" clip-rule="evenodd" d="M115.028 356.702C120.818 354.709 124.522 355.216 127.648 359.478C133.527 367.498 139.596 375.385 145.844 383.118C146.923 384.452 149.627 385.812 150.993 385.367C162.489 381.611 173.849 377.438 185.929 373.149C183.606 367.56 181.395 362.24 179.182 356.915C185.887 354.563 187.604 355.188 190.661 360.882C195.658 370.193 195.661 370.217 206.057 369.054C218.255 367.688 230.456 366.361 242.621 364.749C243.817 364.59 245.525 362.638 245.673 361.366C246.018 358.369 245.687 355.747 250.123 355.804C254.25 355.855 255.497 357.741 255.359 361.396C255.336 362.037 255.577 362.688 255.778 363.786C264.929 364.829 274.095 365.761 283.226 366.957C289.558 367.785 295.868 368.836 302.133 370.072C305.075 370.652 306.905 370.137 307.978 367.16C308.715 365.115 309.895 363.229 310.856 361.263C313.734 355.381 314.554 355.019 322.295 356.757C320.322 362.094 318.378 367.352 316.247 373.114C327.698 377.217 338.862 381.369 350.173 385.065C351.533 385.51 354.26 383.929 355.402 382.516C361.126 375.448 366.805 368.309 371.954 360.819C375.302 355.951 379.325 355.17 386.121 356.81C377.647 368.356 369.677 379.218 361.244 390.707C368.224 394.654 374.812 398.655 381.704 402.033C382.99 402.664 385.853 401.257 387.383 400.034C401.589 388.693 413.349 375.03 423.895 360.332C427.107 355.854 430.827 355.213 436.447 356.594C423.889 377.89 407.833 395.356 389.053 410.366C355.447 437.225 317.166 453.092 274.389 457.514C168.286 468.484 92.0566 404.635 65.0591 356.944C70.8613 354.538 73.304 355.2 77.211 360.72C87.5991 375.402 99.8614 388.303 113.588 399.896C116.963 402.747 119.817 403.083 123.525 400.665C128.692 397.292 134.119 394.316 139.885 390.902C131.444 379.289 123.409 368.234 115.028 356.702ZM255.722 420.443C260.356 421.192 264.663 421.855 268.958 422.594C272.1 423.135 274.393 422.243 276.23 419.447C282.702 409.599 289.413 399.908 295.872 390.052C297.938 386.899 299.493 383.413 302.097 378.563C285.929 376.711 271.039 375.006 255.722 373.251C255.722 389.608 255.722 404.704 255.722 420.443ZM200.143 379.339C201.555 382.131 202.351 384.151 203.512 385.929C210.607 396.777 217.687 407.637 225.025 418.317C226.307 420.182 228.828 422.446 230.719 422.395C235.518 422.267 240.299 420.995 245.039 419.963C245.458 419.872 245.728 418.181 245.732 417.233C245.782 403.913 245.735 390.593 245.816 377.274C245.833 374.597 244.861 373.722 242.194 373.965C234.651 374.654 227.059 374.886 219.547 375.802C213.285 376.564 207.114 378.039 200.143 379.339ZM156.544 393.662C157.616 395.211 158.07 396.369 158.914 397.015C172.128 407.141 185.175 417.506 198.733 427.152C205.906 432.257 210.833 431.225 217.537 425.617C208.94 411.669 200.434 397.741 191.696 383.959C191.064 382.962 188.524 382.329 187.245 382.727C180.349 384.876 173.561 387.382 166.753 389.814C163.493 390.98 160.272 392.253 156.544 393.662ZM344.279 394.235C344.196 393.633 344.113 393.032 344.031 392.43C334.865 389.4 325.673 386.448 316.551 383.299C313.117 382.115 311.104 382.956 309.109 386.082C301.504 398.002 293.593 409.726 285.825 421.543C284.942 422.887 284.248 424.355 283.422 425.846C289.902 430.046 295.697 431.842 302.312 426.876C309.162 421.734 316.801 417.631 323.556 412.379C330.792 406.752 337.398 400.317 344.279 394.235ZM205.352 444.479C235.951 450.985 265.825 451.038 296.454 444.519C277.188 425.949 224.818 425.187 205.352 444.479ZM304.86 436.908C307.133 440.249 309.393 441.127 312.913 440.109C333.798 434.063 353.105 424.778 370.954 412.41C372.142 411.587 373.177 410.543 374.894 409.083C369.815 406.165 365.079 403.931 360.904 400.921C355.912 397.321 352.609 398.897 348.361 402.517C337.1 412.108 325.363 421.141 313.775 430.343C310.924 432.606 307.912 434.669 304.86 436.908ZM196.863 438.238C195.935 436.656 195.887 436.457 195.761 436.375C179.237 425.637 163.192 414.293 149.388 400.065C148.606 399.259 146.647 398.572 145.823 398.99C139.642 402.117 133.609 405.535 127.462 408.898C128.29 410.254 128.45 410.808 128.817 411.074C147.399 424.5 167.702 434.382 189.9 440.151C191.786 440.643 194.223 439.016 196.863 438.238Z" fill="white"/>
<path fill-rule="evenodd" clip-rule="evenodd" d="M385.089 147.595C379.724 149.642 376.155 149.141 373.13 145.056C367.214 137.067 361.161 129.172 354.917 121.438C353.766 120.014 351.059 118.372 349.716 118.81C338.092 122.612 326.617 126.867 314.589 131.168C316.971 136.867 319.146 142.071 321.311 147.249C315.642 149.996 313.05 149.245 310.422 144.353C304.662 133.627 304.681 133.767 292.366 135.503C281.544 137.028 270.689 138.411 259.807 139.395C255.861 139.754 253.775 140.681 254.443 144.971C254.565 145.751 254.297 146.591 254.216 147.329C247.276 148.857 247.379 148.825 245.394 142.443C245.059 141.367 243.466 140.109 242.314 139.948C227.342 137.851 212.351 135.88 197.341 134.082C196.084 133.932 194.209 134.919 193.395 135.976C191.982 137.808 190.86 140.009 190.168 142.228C188.364 148.014 184.462 149.026 178.278 147.397C180.207 142.168 182.083 137.089 184.137 131.525C182.844 130.906 181.591 130.175 180.249 129.685C170.928 126.282 161.537 123.064 152.284 119.487C149.038 118.233 147.04 118.748 144.998 121.543C139.729 128.751 134.193 135.762 128.821 142.894C124.506 148.62 123.543 148.996 115.195 147.167C117.797 143.182 120.074 139.319 122.72 135.729C127.318 129.49 132.048 123.341 136.919 117.315C139.086 114.637 138.809 113.098 135.774 111.488C130.717 108.808 125.702 106.014 120.877 102.943C118.086 101.167 116.141 101.623 113.726 103.599C99.6641 115.105 87.6681 128.525 77.1595 143.264C73.9113 147.82 70.1278 148.968 64.2668 147.368C75.9067 127.607 90.7331 111.08 108.013 96.7115C143.348 67.3353 184.009 50.3781 229.73 46.3187C329.275 37.4813 405.516 95.4394 435.499 147.33C429.782 149.666 427.106 148.932 423.536 143.873C412.977 128.906 400.588 115.663 386.489 103.971C383.494 101.487 381 100.795 377.535 103.19C373.39 106.054 368.924 108.48 364.467 110.851C361.18 112.601 361.157 114.38 363.302 117.189C369.335 125.092 375.188 133.134 381.049 141.166C382.409 143.031 383.518 145.079 385.089 147.595ZM198.534 124.612C214.606 128.214 229.397 130.299 244.83 130.006C244.83 118.269 244.829 107.322 244.83 96.3756C244.83 83.8401 244.787 84.0799 232.342 81.7299C228.29 80.9648 226.023 82.0224 223.892 85.1791C219.467 91.7373 214.658 98.0414 210.362 104.68C206.374 110.839 202.847 117.297 198.534 124.612ZM300.724 125.603C298.87 121.912 298.123 120.05 297.068 118.384C291.398 109.447 285.404 100.707 280.009 91.6117C275.314 83.6943 269.616 79.1947 260.083 83.0365C259.934 83.0972 259.747 83.0912 259.582 83.077C255.158 82.7096 254.343 85.1355 254.42 89.0016C254.619 99.0899 254.487 109.184 254.487 119.277C254.487 122.752 254.487 126.225 254.487 131.058C270.008 129.227 284.689 127.495 300.724 125.603ZM344.213 110.558C336.315 100.554 307.109 78.3223 296.386 73.9157C295.399 73.5109 294.047 73.267 293.105 73.6101C289.509 74.9197 286.012 76.4996 282.627 77.9165C282.682 78.7484 282.588 79.1492 282.741 79.3921C291.362 93.0165 299.963 106.653 308.725 120.185C309.348 121.148 311.428 122.091 312.401 121.764C322.857 118.247 333.228 114.472 344.213 110.558ZM156.017 109.879C156.121 110.543 156.224 111.208 156.328 111.874C166.504 115.093 176.663 118.368 186.886 121.423C187.723 121.673 189.433 120.71 190.02 119.831C198.619 106.95 207.126 94.0063 215.537 81.0012C216.11 80.1146 216.261 78.2252 215.704 77.4702C213.772 74.854 205.128 73.434 202.134 75.2639C194.676 79.8252 186.985 84.1205 180.049 89.3933C171.681 95.7511 163.997 103.01 156.017 109.879ZM294.457 60.2508C278.689 53.0428 218.942 53.0904 204.696 60.1607C218.168 78.1178 279.982 78.4093 294.457 60.2508ZM125.161 94.906C131.127 98.2944 136.304 100.95 141.167 104.09C144.832 106.456 147.237 105.655 150.476 102.985C163.461 92.2848 176.755 81.9577 189.945 71.506C191.738 70.0851 193.594 68.7421 195.553 67.2634C192.826 62.8943 189.498 63.5269 185.956 64.5774C167.423 70.078 150.076 78.1168 133.956 88.7911C131.344 90.5218 128.807 92.3657 125.161 94.906ZM303.224 65.6694C304.505 67.6662 304.619 68.0518 304.873 68.2097C321.701 78.6148 337.455 90.3902 351.438 104.457C352.153 105.176 353.825 105.912 354.488 105.565C360.67 102.322 366.73 98.844 373.218 95.2137C371.875 93.6966 371.346 92.8151 370.578 92.2726C352.526 79.5358 332.833 70.1751 311.585 64.2171C309.353 63.5926 306.541 65.0369 303.224 65.6694Z" fill="white"/>
<path fill-rule="evenodd" clip-rule="evenodd" d="M288.278 291.596C287.778 295.946 287.594 300.338 286.727 304.591C283.446 320.679 270.895 329.888 254.428 328.546C237.06 327.131 226.613 316.957 225.632 299.478C225.203 291.847 225.287 283.918 226.877 276.497C230.307 260.512 241.22 253.182 258.838 253.593C273.185 253.927 283.805 263.124 286.708 278.039C287.569 282.468 287.767 287.027 288.278 291.596ZM239.955 290.593C240.472 290.686 240.988 290.779 241.506 290.872C241.506 294.578 241.266 298.304 241.581 301.983C241.838 304.976 242.568 307.968 243.423 310.86C245.528 317.967 250.11 321.98 256.034 322.21C261.776 322.433 266.839 318.547 269.02 311.428C270.388 306.965 271.248 302.269 271.687 297.617C272.647 287.465 272.068 277.379 267.878 267.89C265.78 263.136 262.269 260.101 256.565 260.078C250.897 260.057 246.855 262.759 245.31 267.759C243.008 275.209 241.691 282.965 239.955 290.593Z" fill="white"/>
<path fill-rule="evenodd" clip-rule="evenodd" d="M326.785 253.58C342.858 253.597 353.08 261.699 356.637 277.393C358.748 286.705 358.9 296.065 356.657 305.386C352.815 321.345 340.681 329.956 324.208 328.495C307.898 327.048 299.379 319.504 296.217 303.13C294.312 293.27 294.573 283.346 297.588 273.693C301.736 260.411 311.842 253.564 326.785 253.58ZM342.945 291.334C341.533 283.935 340.671 276.564 338.613 269.544C336.981 263.971 333.121 259.922 326.411 260.109C320.758 260.265 316.454 263.155 314.33 269.778C309.79 283.926 309.711 298.249 314.182 312.464C316.02 318.308 320.117 321.84 326.387 322.18C331.708 322.469 336.792 318.973 338.644 312.637C340.647 305.772 341.533 298.58 342.945 291.334Z" fill="white"/>
<path fill-rule="evenodd" clip-rule="evenodd" d="M301.731 243.205C282.225 243.139 269.609 231.005 268.245 210.318C267.348 196.718 269.861 183.901 281.397 174.958C292.101 166.661 304.302 166.483 316.352 171.148C328.171 175.723 333.811 185.697 335.18 197.768C335.908 204.184 335.833 210.988 334.516 217.28C330.901 234.559 319.391 243.265 301.731 243.205ZM283.593 205.557C285.003 212.855 285.817 220.057 287.875 226.884C289.921 233.676 295.674 237.473 301.894 237.265C308.576 237.041 313.599 233.78 315.912 227.494C321.276 212.911 321.349 198.188 315.645 183.667C313.166 177.356 307.932 174.309 301.306 174.5C294.808 174.688 289.858 178.232 288.014 184.389C285.968 191.226 285.037 198.396 283.593 205.557Z" fill="white"/>
<path fill-rule="evenodd" clip-rule="evenodd" d="M204.853 242.97C204.853 235.18 204.853 228.358 204.853 220.337C207.818 222.467 210.1 223.967 212.228 225.661C219.156 231.171 226.363 236.076 235.599 236.561C243.257 236.962 246.792 235.006 248.015 229.916C249.385 224.209 247.157 219.997 240.386 216.88C235.209 214.497 229.564 213.098 224.47 210.567C218.82 207.759 212.944 204.86 208.282 200.738C202.23 195.387 201.082 187.953 204.149 180.35C207.237 172.694 213.323 168.47 221.402 168.739C227.12 168.93 233.141 170.11 238.348 172.394C242.497 174.213 245.685 174.902 249.498 172.499C250.855 171.644 252.464 171.187 254.669 170.244C254.669 177.713 254.669 184.428 254.669 192.239C252.255 190.436 250.479 189.086 248.679 187.769C243.932 184.3 239.42 180.41 234.33 177.547C231.269 175.824 227.34 175.32 223.733 174.975C220.186 174.634 216.405 175.964 216.048 179.9C215.767 183.017 216.376 187.602 218.428 189.253C222.624 192.629 227.998 194.587 232.989 196.913C238.765 199.604 244.928 201.574 250.422 204.729C259.63 210.015 262.923 218.338 260.473 227.798C258.269 236.297 250.311 242.873 240.63 242.908C234.346 242.929 227.828 242.155 221.846 240.321C217.504 238.99 214.024 238.327 210.158 240.898C208.837 241.777 207.147 242.101 204.853 242.97Z" fill="white"/>
<path fill-rule="evenodd" clip-rule="evenodd" d="M186.754 312.726C198.809 314.872 209.113 314.487 215.67 302.542C215.962 302.915 216.252 303.287 216.544 303.66C216.544 311.247 216.544 318.835 216.544 327.032C199.202 327.032 181.694 327.032 162.533 327.032C166.406 323.435 169.397 320.693 172.349 317.911C177.746 312.823 183.411 307.98 188.438 302.551C197.18 293.112 202.229 282.188 199.32 268.93C197.831 262.146 193.953 259.427 187.416 259.959C181.536 260.435 178.185 264.05 177.436 270.667C177.17 273.01 176.924 275.362 176.5 277.679C175.869 281.129 173.655 283.104 170.191 283.02C166.517 282.932 164.288 280.761 163.806 277.079C162.785 269.294 165.609 263.017 172.125 258.856C182.712 252.09 194.103 251.487 205.384 256.686C215.582 261.387 219.084 273.44 214.21 284.46C210.537 292.767 203.901 298.503 197.177 304.159C193.9 306.918 190.561 309.602 186.754 312.726Z" fill="white"/>
<path fill-rule="evenodd" clip-rule="evenodd" d="M128.692 327.07C130.594 321.945 132.298 317.356 134.512 311.394C121.156 311.394 109.2 311.394 95.906 311.394C101.128 303.874 105.392 297.682 109.711 291.528C117.545 280.368 125.406 269.224 133.275 258.088C135.34 255.167 144.437 253.117 146.857 255.332C147.848 256.238 148.067 258.341 148.079 259.904C148.172 272.876 148.359 285.856 148.016 298.819C147.888 303.646 149.56 305.204 154.045 304.661C155.199 304.52 156.626 304.352 157.514 304.886C158.579 305.528 159.83 306.897 159.843 307.967C159.856 309.055 158.685 310.643 157.627 311.134C156.358 311.722 154.623 311.2 153.154 311.492C151.498 311.821 148.702 312.286 148.543 313.105C148.174 315.026 148.604 317.464 149.584 319.198C151.034 321.758 153.242 323.887 155.84 327.071C146.214 327.07 137.687 327.07 128.692 327.07ZM133.394 269.07C124.693 281.439 116.888 292.533 108.402 304.594C116.612 304.594 123.342 304.746 130.051 304.447C131.209 304.396 133.221 302.452 133.247 301.346C133.496 291.127 133.394 280.9 133.394 269.07Z" fill="white"/>
<path fill-rule="evenodd" clip-rule="evenodd" d="M164.228 169.968C173.725 169.968 182.204 169.968 190.876 169.968C190.817 170.937 191.013 171.739 190.704 172.215C185.485 180.278 186.735 189.326 186.699 198.169C186.663 207.091 186.953 216.025 186.59 224.931C186.384 229.968 187.355 234.143 191.157 237.581C192.219 238.54 192.934 239.881 194.272 241.666C185.079 241.666 176.64 241.666 167.873 241.666C167.957 240.882 167.785 239.953 168.157 239.376C172.453 232.742 172.015 225.33 171.94 217.925C171.834 207.656 171.648 197.377 172.023 187.121C172.215 181.879 171.082 177.605 167.205 174.043C166.258 173.173 165.643 171.938 164.228 169.968Z" fill="white"/>
<path fill-rule="evenodd" clip-rule="evenodd" d="M392.048 254.63C392.048 256.408 392.048 258.185 392.048 259.961C392.048 276.62 392.185 293.28 391.965 309.936C391.898 315.049 392.446 319.554 396.62 323.038C397.602 323.859 398.209 325.127 399.583 326.997C390.258 326.997 381.772 326.997 373.213 326.997C373.213 326.28 373.046 325.72 373.237 325.338C381.465 308.806 375.037 291.25 377.84 273.917C373.294 274.182 369.755 274.387 366.215 274.593C366.083 274.198 365.95 273.804 365.817 273.408C374.08 266.964 382.342 260.518 390.603 254.072C391.086 254.259 391.566 254.445 392.048 254.63Z" fill="white"/>
<path fill-rule="evenodd" clip-rule="evenodd" d="M255.722 420.444C255.722 404.703 255.722 389.607 255.722 373.251C271.04 375.006 285.93 376.711 302.097 378.563C299.493 383.413 297.938 386.899 295.873 390.052C289.414 399.909 282.701 409.598 276.231 419.448C274.394 422.244 272.101 423.137 268.958 422.594C264.664 421.856 260.356 421.194 255.722 420.444Z" fill="#6B3BA9"/>
<path fill-rule="evenodd" clip-rule="evenodd" d="M200.143 379.339C207.114 378.039 213.285 376.564 219.547 375.802C227.059 374.886 234.652 374.653 242.194 373.965C244.861 373.722 245.833 374.597 245.816 377.274C245.735 390.593 245.783 403.913 245.732 417.233C245.728 418.182 245.458 419.871 245.039 419.963C240.298 420.996 235.518 422.267 230.719 422.394C228.828 422.446 226.308 420.181 225.025 418.317C217.687 407.637 210.607 396.777 203.512 385.929C202.351 384.151 201.555 382.131 200.143 379.339Z" fill="#6B3BA9"/>
<path fill-rule="evenodd" clip-rule="evenodd" d="M156.544 393.662C160.272 392.252 163.493 390.98 166.752 389.815C173.56 387.383 180.348 384.877 187.244 382.728C188.524 382.329 191.063 382.963 191.696 383.96C200.433 397.742 208.939 411.67 217.536 425.618C210.833 431.226 205.906 432.258 198.732 427.153C185.175 417.507 172.127 407.142 158.913 397.016C158.07 396.369 157.616 395.213 156.544 393.662Z" fill="#6B3BA9"/>
<path fill-rule="evenodd" clip-rule="evenodd" d="M344.279 394.235C337.397 400.318 330.792 406.752 323.556 412.378C316.801 417.63 309.161 421.733 302.312 426.875C295.698 431.841 289.903 430.046 283.422 425.845C284.248 424.354 284.942 422.887 285.826 421.543C293.593 409.725 301.504 398.001 309.109 386.081C311.104 382.955 313.117 382.115 316.551 383.299C325.674 386.447 334.866 389.399 344.031 392.429C344.113 393.032 344.196 393.633 344.279 394.235Z" fill="#6B3BA9"/>
<path fill-rule="evenodd" clip-rule="evenodd" d="M205.352 444.479C224.817 425.186 277.187 425.948 296.454 444.52C265.825 451.04 235.952 450.985 205.352 444.479Z" fill="#6B3BA9"/>
<path fill-rule="evenodd" clip-rule="evenodd" d="M304.86 436.907C307.912 434.669 310.923 432.606 313.775 430.343C325.363 421.14 337.1 412.107 348.361 402.516C352.609 398.897 355.914 397.32 360.904 400.92C365.079 403.932 369.816 406.166 374.894 409.083C373.178 410.543 372.142 411.587 370.954 412.409C353.104 424.778 333.797 434.063 312.913 440.109C309.394 441.127 307.133 440.248 304.86 436.907Z" fill="#6B3BA9"/>
<path fill-rule="evenodd" clip-rule="evenodd" d="M196.864 438.238C194.224 439.016 191.787 440.643 189.901 440.152C167.702 434.383 147.4 424.5 128.817 411.075C128.45 410.808 128.29 410.254 127.462 408.899C133.609 405.536 139.642 402.118 145.823 398.99C146.647 398.574 148.606 399.261 149.388 400.066C163.194 414.294 179.237 425.638 195.762 436.376C195.887 436.458 195.936 436.657 196.864 438.238Z" fill="#6B3BA9"/>
<path fill-rule="evenodd" clip-rule="evenodd" d="M198.534 124.612C202.846 117.297 206.374 110.84 210.362 104.679C214.658 98.0411 219.467 91.738 223.892 85.1787C226.022 82.0221 228.29 80.9645 232.342 81.7296C244.787 84.0786 244.83 83.8398 244.83 96.3752C244.829 107.322 244.83 118.269 244.83 130.005C229.397 130.299 214.606 128.213 198.534 124.612Z" fill="#6B3BA9"/>
<path fill-rule="evenodd" clip-rule="evenodd" d="M300.724 125.603C284.688 127.494 270.008 129.227 254.487 131.059C254.487 126.227 254.487 122.753 254.487 119.277C254.487 109.185 254.619 99.0904 254.42 89.0021C254.343 85.136 255.158 82.7091 259.582 83.0775C259.747 83.0917 259.934 83.0978 260.083 83.037C269.617 79.1952 275.315 83.6939 280.009 91.6123C285.404 100.708 291.399 109.448 297.068 118.385C298.123 120.049 298.87 121.912 300.724 125.603Z" fill="#6B3BA9"/>
<path fill-rule="evenodd" clip-rule="evenodd" d="M344.213 110.557C333.228 114.472 322.858 118.247 312.401 121.763C311.429 122.09 309.348 121.148 308.725 120.184C299.963 106.652 291.363 93.0151 282.741 79.3906C282.588 79.1477 282.682 78.747 282.627 77.9151C286.013 76.4992 289.51 74.9184 293.105 73.6087C294.048 73.2657 295.4 73.5085 296.386 73.9144C307.109 78.3219 336.315 100.554 344.213 110.557Z" fill="#6B3BA9"/>
<path fill-rule="evenodd" clip-rule="evenodd" d="M156.017 109.878C163.998 103.009 171.681 95.7508 180.049 89.392C186.984 84.1191 194.676 79.8239 202.133 75.2625C205.128 73.4317 213.771 74.8526 215.703 77.4688C216.261 78.2238 216.109 80.1134 215.536 81C207.125 94.006 198.618 106.949 190.019 119.83C189.432 120.708 187.722 121.672 186.885 121.422C176.661 118.367 166.502 115.091 156.327 111.873C156.224 111.209 156.12 110.543 156.017 109.878Z" fill="#6B3BA9"/>
<path fill-rule="evenodd" clip-rule="evenodd" d="M294.457 60.2505C279.982 78.409 218.168 78.1175 204.696 60.1604C218.942 53.0901 278.689 53.0425 294.457 60.2505Z" fill="#6B3BA9"/>
<path fill-rule="evenodd" clip-rule="evenodd" d="M125.161 94.9059C128.807 92.3656 131.343 90.5216 133.956 88.791C150.076 78.1167 167.422 70.0779 185.956 64.5773C189.497 63.5268 192.826 62.8942 195.553 67.2633C193.594 68.7419 191.738 70.085 189.945 71.5059C176.755 81.9565 163.461 92.2837 150.476 102.985C147.236 105.655 144.832 106.456 141.167 104.089C136.304 100.95 131.128 98.2943 125.161 94.9059Z" fill="#6B3BA9"/>
<path fill-rule="evenodd" clip-rule="evenodd" d="M303.224 65.6689C306.541 65.0364 309.353 63.5912 311.584 64.2166C332.832 70.1747 352.525 79.5353 370.577 92.2722C371.346 92.8146 371.874 93.6961 373.217 95.2132C366.729 98.8435 360.67 102.321 354.487 105.565C353.825 105.912 352.153 105.176 351.437 104.456C337.455 90.3897 321.7 78.6143 304.873 68.2092C304.62 68.0524 304.505 67.6657 303.224 65.6689Z" fill="#6B3BA9"/>
<path fill-rule="evenodd" clip-rule="evenodd" d="M239.955 290.593C241.691 282.966 243.009 275.21 245.311 267.758C246.856 262.759 250.898 260.056 256.566 260.077C262.271 260.099 265.78 263.135 267.879 267.888C272.069 277.378 272.648 287.464 271.688 297.616C271.249 302.269 270.389 306.964 269.021 311.427C266.84 318.545 261.777 322.432 256.035 322.209C250.112 321.979 245.529 317.966 243.424 310.859C242.568 307.967 241.839 304.975 241.582 301.982C241.267 298.303 241.507 294.578 241.507 290.87C240.988 290.778 240.471 290.685 239.955 290.593Z" fill="#6B3BA9"/>
<path fill-rule="evenodd" clip-rule="evenodd" d="M342.945 291.334C341.533 298.58 340.647 305.772 338.643 312.636C336.791 318.972 331.707 322.468 326.386 322.178C320.117 321.838 316.02 318.308 314.181 312.463C309.711 298.248 309.789 283.926 314.329 269.777C316.454 263.154 320.758 260.265 326.41 260.107C333.12 259.921 336.979 263.969 338.612 269.543C340.671 276.563 341.534 283.935 342.945 291.334Z" fill="#6B3BA9"/>
<path fill-rule="evenodd" clip-rule="evenodd" d="M283.593 205.557C285.038 198.396 285.969 191.226 288.015 184.39C289.858 178.234 294.809 174.688 301.307 174.501C307.932 174.311 313.167 177.356 315.646 183.668C321.35 198.19 321.276 212.912 315.913 227.496C313.601 233.782 308.577 237.044 301.895 237.266C295.675 237.475 289.922 233.678 287.876 226.886C285.817 220.057 285.002 212.855 283.593 205.557Z" fill="#6B3BA9"/>
<path fill-rule="evenodd" clip-rule="evenodd" d="M133.394 269.07C133.394 280.9 133.496 291.127 133.247 301.346C133.221 302.453 131.208 304.397 130.05 304.447C123.342 304.746 116.611 304.594 108.402 304.594C116.889 292.533 124.693 281.439 133.394 269.07Z" fill="#6B3BA9"/>
</svg>
