<svg width="500" height="500" viewBox="0 0 500 500" fill="none" xmlns="http://www.w3.org/2000/svg">
<rect width="500" height="500" rx="250" fill="#6B3BA9"/>
<path fill-rule="evenodd" clip-rule="evenodd" d="M82 168.245C89.9713 168.245 97.0723 168.245 102.961 168.245C101.908 181.754 100.86 195.201 99.7641 209.272C105.795 209.272 110.371 209.272 116.004 209.272C114.675 195.677 119.777 181.737 110.445 168.227C119.534 168.227 126.646 168.227 134.319 168.227C134.162 170.128 134.689 172.537 133.768 173.399C129.292 177.588 130.355 182.858 130.343 187.91C130.293 207.691 130.294 227.472 130.342 247.253C130.355 252.308 129.296 257.583 133.884 261.71C134.795 262.53 134.227 264.993 134.384 267.335C127.748 267.335 121.715 267.323 115.681 267.338C111.75 267.349 110.311 264.588 112.517 262.228C117.064 257.365 115.871 251.792 115.956 246.326C116.096 237.392 115.994 228.456 115.994 219.102C110.733 219.102 106.147 219.102 100.603 219.102C102.234 235.038 96.6823 251.099 106.421 267.337C98.3822 267.337 92.415 267.32 86.4477 267.343C81.4751 267.361 81.5981 265.007 83.1834 261.259C84.5933 257.926 86.1359 254.302 86.1786 250.791C86.447 228.54 86.4505 206.283 86.1716 184.033C86.1275 180.546 84.1557 177.093 83.1575 173.602C82.7053 172.021 82.4536 170.381 82 168.245Z" fill="white"/>
<path fill-rule="evenodd" clip-rule="evenodd" d="M240.672 267.144C231.596 267.144 224.476 267.144 216.829 267.144C216.993 265.051 216.447 262.562 217.376 261.742C222.048 257.621 220.792 252.313 220.811 247.297C220.885 226.842 221.026 206.383 220.687 185.932C220.62 181.796 218.509 177.707 217.467 173.566C217.05 171.906 216.975 170.161 216.746 168.468C226.176 168.468 235.23 167.523 244.001 168.698C255.749 170.273 262.593 177.632 263.9 187.529C265.67 200.935 261.383 210.155 250.692 215.901C249.918 216.318 249.096 216.644 247.044 217.586C258.736 223.468 258.341 234.791 261.339 244.598C263.066 250.246 265.669 255.621 267.657 261.197C268.23 262.807 268.036 264.691 268.284 267.448C263.708 267.448 259.43 268.031 255.454 267.186C253.652 266.804 251.707 263.797 251.103 261.626C248.04 250.624 245.578 239.454 242.488 228.461C241.647 225.469 239.36 222.884 236.668 220.595C236.908 236.268 232.205 251.827 240.672 267.144ZM235.876 212.95C242.181 212.626 246.763 210.137 247.529 204.757C248.518 197.817 248.657 190.577 247.865 183.613C247.142 177.262 242.162 175.316 235.876 176.034C235.876 188.427 235.876 200.463 235.876 212.95Z" fill="white"/>
<path fill-rule="evenodd" clip-rule="evenodd" d="M270.553 168.127C278.485 168.127 285.606 168.127 293.073 168.127C293.073 169.788 293.63 171.64 292.986 172.277C287.556 177.649 289.337 184.409 289.286 190.719C289.14 208.933 289.189 227.149 289.253 245.364C289.287 255.141 292.078 259.465 298.049 259.442C303.897 259.42 307.409 254.547 307.464 245.527C307.596 224.163 307.603 202.8 307.41 181.438C307.388 179.016 305.734 176.618 304.888 174.19C304.272 172.419 303.741 170.616 302.966 168.176C309.19 168.176 314.495 168.176 320.477 168.176C320.477 169.73 321.186 172.152 320.361 172.916C315.24 177.658 316.795 183.701 316.759 189.358C316.637 208.247 316.894 227.14 316.633 246.026C316.407 262.298 304.299 271.637 289.244 267.607C280.433 265.248 274.614 257.272 274.439 245.963C274.147 227.078 274.378 208.184 274.28 189.296C274.251 183.602 275.608 177.587 270.657 172.816C269.912 172.098 270.553 169.94 270.553 168.127Z" fill="white"/>
<path fill-rule="evenodd" clip-rule="evenodd" d="M370.697 167.089C386.893 167.089 402.034 167.089 417.959 167.089C417.959 172.969 418.102 178.979 417.854 184.974C417.796 186.363 416.405 187.697 415.627 189.055C414.235 187.948 412.495 187.071 411.557 185.662C410.76 184.465 410.971 182.632 410.593 181.115C409.529 176.848 407.299 174.265 401.66 175.974C401.66 180.169 401.66 184.595 401.66 189.022C401.66 209.017 401.474 229.014 401.813 249.003C401.883 253.132 403.965 257.214 405 261.349C405.414 263.006 405.507 264.745 405.823 267C397.935 267 390.654 267 382.904 267C383.01 265.098 382.406 262.604 383.321 261.764C388.281 257.207 386.816 251.409 386.843 245.969C386.947 225.076 386.886 204.184 386.886 183.291C386.886 180.849 386.886 178.407 386.886 176.069C381.619 174.255 379.166 176.529 377.973 180.826C377.435 182.764 377.43 184.913 376.58 186.677C376.058 187.759 374.337 188.964 373.262 188.871C372.33 188.792 370.854 186.99 370.813 185.903C370.577 179.666 370.697 173.415 370.697 167.089Z" fill="white"/>
<path fill-rule="evenodd" clip-rule="evenodd" d="M178.113 267.027C178.113 265.194 177.464 262.996 178.217 262.286C183.284 257.509 181.675 251.442 181.706 245.786C181.825 224.865 181.754 203.945 181.754 183.025C181.754 180.605 181.754 178.185 181.754 175.832C174.12 174.27 173.741 179.555 172.198 183.984C171.536 185.884 169.77 187.4 168.506 189.091C167.529 187.198 165.854 185.356 165.71 183.402C165.319 178.076 165.576 172.704 165.576 167.09C181.512 167.09 196.809 167.09 212.471 167.09C212.471 173.998 212.471 181.117 212.471 188.231C207.445 188.879 207.286 188.912 206.079 183.061C205.081 178.214 203.738 174.192 196.583 175.89C196.583 178.116 196.583 180.493 196.583 182.871C196.583 204.467 196.551 226.06 196.609 247.656C196.621 252.473 195.48 257.547 200.041 261.451C201.002 262.274 200.512 264.792 200.741 267.029C192.975 267.027 185.706 267.027 178.113 267.027Z" fill="white"/>
<path fill-rule="evenodd" clip-rule="evenodd" d="M361.465 169.467C361.465 177.321 361.465 184.875 361.465 192.427C360.992 192.912 360.518 193.396 360.047 193.88C358.414 192.431 356.202 191.276 355.282 189.466C353.793 186.531 353.849 182.642 351.958 180.129C350.063 177.613 345.964 174.295 343.946 174.922C341.089 175.809 337.224 180.137 337.41 182.734C337.788 187.993 339.646 193.73 342.624 198.088C347.4 205.079 353.869 210.883 359.099 217.598C366.329 226.88 369.029 237.404 366.687 249.208C363.674 264.396 352.423 271.516 337.578 267.237C336.519 266.931 335.232 266.064 334.439 266.394C325.825 269.976 326.357 264.334 326.497 258.798C326.629 253.634 326.306 248.446 326.682 243.306C326.788 241.86 328.649 240.541 329.705 239.163C330.867 240.411 332.543 241.469 333.091 242.946C334.56 246.906 334.728 251.59 336.969 254.948C338.924 257.877 343.096 261.184 346.112 261.023C349.115 260.863 353.105 257.145 354.538 254.013C357.974 246.508 356.111 238.94 351.095 232.6C345.531 225.566 339.257 219.1 333.555 212.169C325.822 202.774 324.042 191.99 327.755 180.562C330.767 171.292 340.012 163.473 351.532 168.656C354.149 169.832 357.577 169.207 361.465 169.467Z" fill="white"/>
<path fill-rule="evenodd" clip-rule="evenodd" d="M139.756 168.105C147.241 168.105 153.932 168.105 161.184 168.105C161.184 169.927 161.899 172.308 161.066 173.14C156.217 177.978 157.537 183.966 157.513 189.662C157.431 208.753 157.25 227.85 157.643 246.933C157.743 251.765 159.895 256.542 160.983 261.372C161.361 263.046 161.371 264.8 161.594 266.956C154.167 266.956 147.307 266.956 140.001 266.956C139.913 265.332 139.558 263.805 139.802 262.381C140.827 256.387 142.864 250.445 143.013 244.446C143.451 226.712 143.265 208.96 143.118 191.218C143.065 184.889 144.704 178.196 139.846 172.582C139.194 171.829 139.756 170.026 139.756 168.105Z" fill="white"/>
<path fill-rule="evenodd" clip-rule="evenodd" d="M115.73 319.283C119.97 319.283 122.4 319.283 125.296 319.283C125.546 320.099 125.574 321.333 126.203 322.003C127.551 323.441 129.06 325.187 130.801 325.624C131.825 325.881 134.392 323.996 134.54 322.853C134.786 320.937 134.291 317.988 132.968 317.004C130.167 314.918 126.571 313.935 123.41 312.289C117.435 309.18 115.189 303.346 117.322 296.919C119.146 291.425 125.877 288.334 133.665 289.414C140.601 290.376 143.311 293.35 143.636 300.713C139.717 301.061 135.448 303.343 133.458 297.15C133.244 296.487 128.848 296.072 127.9 297.03C126.836 298.108 126.604 301.762 127.572 302.729C129.668 304.821 132.631 306.252 135.473 307.343C141.225 309.55 145.193 312.957 144.986 319.582C144.822 324.846 143.097 329.365 137.521 331.079C131.061 333.064 124.448 333.519 119.224 328.513C117.305 326.673 117.078 323.063 115.73 319.283Z" fill="white"/>
<path fill-rule="evenodd" clip-rule="evenodd" d="M218.46 315.597C221.594 315.597 224.205 315.597 226.774 315.597C227.957 325.681 224.201 331.101 215.545 332.156C205.629 333.363 200.298 329.644 199.296 319.941C198.68 313.982 198.632 307.852 199.271 301.901C200.266 292.638 204.93 289.055 214.148 289.335C222.867 289.6 226.017 292.935 227.068 303.413C225.641 303.632 224.196 303.934 222.734 304.056C221.412 304.165 220.074 304.078 219.065 304.078C218.435 303.412 218.09 303.134 217.852 302.783C216.277 300.46 214.726 298.122 213.168 295.79C211.652 298.416 209.202 300.916 208.824 303.697C208.136 308.765 208.224 314.062 208.905 319.14C209.224 321.516 211.681 323.606 213.168 325.825C214.755 323.73 216.47 321.716 217.866 319.5C218.407 318.641 218.227 317.329 218.46 315.597Z" fill="white"/>
<path fill-rule="evenodd" clip-rule="evenodd" d="M110.762 303.747C108.179 303.747 105.56 303.747 102.439 303.747C102.227 302.517 102.38 301.001 101.715 300.064C100.566 298.449 98.9093 297.194 97.4652 295.788C96.1944 297.342 93.929 298.833 93.8263 300.461C93.402 307.167 93.3495 313.934 93.8116 320.631C93.936 322.437 96.3538 324.084 97.7189 325.804C99.1644 324.109 100.897 322.572 101.953 320.663C102.643 319.416 102.354 317.625 102.539 315.7C105.302 315.7 107.895 315.7 110.489 315.7C112.499 324.669 109.426 330.201 101.499 331.914C91.7943 334.014 84.494 329.861 83.5455 320.856C82.8423 314.187 82.8332 307.316 83.5756 300.653C84.5164 292.21 91.1023 288.216 100.457 289.384C108.365 290.373 111.597 294.76 110.762 303.747Z" fill="white"/>
<path fill-rule="evenodd" clip-rule="evenodd" d="M417.373 330.383C412.009 331.01 406.874 331.716 401.719 332.182C396.939 332.615 393.387 329.937 392.863 325.665C392.058 319.095 391.789 312.233 392.8 305.728C393.806 299.247 399.494 298.155 408.305 301.922C408.39 300.069 408.503 298.307 408.543 296.541C408.584 294.79 408.552 293.036 408.552 290.883C411.67 290.883 414.276 290.883 417.373 290.883C417.373 304.104 417.373 317.443 417.373 330.383ZM410.558 315.796C408.213 312.202 406.31 309.289 404.409 306.375C403.128 309.579 400.805 312.802 400.858 315.983C400.911 319.203 403.318 322.383 404.694 325.581C406.434 322.678 408.174 319.774 410.558 315.796Z" fill="white"/>
<path fill-rule="evenodd" clip-rule="evenodd" d="M386.825 317.389C380.861 317.389 375.786 317.389 370.469 317.389C370.469 319.646 370.165 321.281 370.556 322.727C370.926 324.09 371.799 325.945 372.874 326.301C373.849 326.624 375.426 325.269 376.685 324.562C379.148 323.18 381.575 321.736 385.18 319.639C386.015 328.463 382.1 331.096 376.587 332.065C368.659 333.46 362.484 330.092 361.502 323.476C360.817 318.87 360.817 314.051 361.303 309.41C362.009 302.684 366.049 299.728 373.444 299.6C381.345 299.463 384.433 301.736 385.774 308.865C386.224 311.263 386.383 313.715 386.825 317.389Z" fill="white"/>
<path fill-rule="evenodd" clip-rule="evenodd" d="M257.327 317.33C251.646 317.33 246.785 317.33 241.042 317.33C241.471 320.051 241.462 322.242 242.195 324.148C243.367 327.19 245.172 327.413 247.785 325.122C250.042 323.142 252.893 321.839 256.741 319.457C257.342 327.798 253.921 330.692 248.756 331.944C241.52 333.7 234.622 330.901 233.319 324.954C232.196 319.835 231.877 314.256 232.616 309.082C233.689 301.574 238.395 298.986 247.01 299.717C254.285 300.334 256.881 303.163 257.312 311.05C257.41 312.819 257.327 314.597 257.327 317.33ZM240.5 309.759C240.93 310.366 241.361 310.972 241.791 311.579C244.034 311.579 246.279 311.579 250.505 311.579C248.164 308.591 246.847 306.91 245.53 305.229C243.853 306.739 242.176 308.25 240.5 309.759Z" fill="white"/>
<path fill-rule="evenodd" clip-rule="evenodd" d="M175.818 290.976C175.818 293.044 175.818 294.923 175.818 297.527C171.068 297.527 166.676 297.527 161.861 297.527C161.861 300.807 161.861 303.353 161.861 306.52C166.16 306.52 170.121 306.52 174.501 306.52C174.982 309.968 177.138 313.348 171.632 313.676C168.551 313.861 165.449 313.709 161.591 313.709C161.591 319.836 161.591 325.119 161.591 330.808C158.229 330.808 155.631 330.808 152.516 330.808C152.516 317.774 152.516 304.632 152.516 290.976C160.146 290.976 167.855 290.976 175.818 290.976Z" fill="white"/>
<path fill-rule="evenodd" clip-rule="evenodd" d="M335.49 298.909C342.044 301.716 342.077 302.589 336.969 306.901C335.924 307.783 335.643 309.97 335.604 311.569C335.454 317.813 335.543 324.061 335.543 330.769C332.451 330.769 329.878 330.769 326.302 330.769C326.302 325.143 326.311 319.409 326.298 313.673C326.293 311.88 326.946 309.073 326.078 308.46C320.795 304.733 323.155 302.626 325.813 297.94C330.569 289.56 330.085 288.59 341.82 290.194C339.454 293.452 337.629 295.964 335.49 298.909Z" fill="white"/>
<path fill-rule="evenodd" clip-rule="evenodd" d="M288.915 290.97C291.981 290.97 294.413 290.97 296.955 290.97C299.171 294.077 295.269 300.383 302.111 300.825C301.939 302.65 302.475 305.21 301.473 306.176C296.55 310.925 296.125 321.388 300.911 325.797C301.84 326.654 302.579 328.342 302.435 329.529C302.332 330.374 300.7 331.4 299.58 331.692C292.883 333.435 288.768 330.232 288.566 323.19C288.455 319.369 289.905 314.765 288.259 311.879C284.614 305.487 286.054 299.973 288.522 294.076C288.843 293.307 288.753 292.364 288.915 290.97Z" fill="white"/>
<path fill-rule="evenodd" clip-rule="evenodd" d="M264.128 331.308C264.128 320.667 264.128 310.898 264.128 299.945C267.398 300.476 270.358 300.955 273.319 301.435C273.209 301.79 273.098 302.143 272.989 302.497C275.709 301.414 278.43 300.332 281.927 298.94C281.927 302.447 281.927 304.782 281.927 307.782C276.122 307.283 272.453 309.283 272.975 315.979C273.338 320.629 273.045 325.33 273.045 330.778C270.117 330.952 267.573 331.104 264.128 331.308Z" fill="white"/>
<path fill-rule="evenodd" clip-rule="evenodd" d="M308.884 300.381C312.004 300.381 314.435 300.381 317.287 300.381C317.287 310.521 317.287 320.461 317.287 330.823C314.484 330.823 311.916 330.823 308.884 330.823C308.884 320.756 308.884 310.823 308.884 300.381Z" fill="white"/>
<path fill-rule="evenodd" clip-rule="evenodd" d="M345.438 300.502C348.268 300.502 350.87 300.502 353.897 300.502C353.897 310.518 353.897 320.501 353.897 330.867C351.095 330.867 348.503 330.867 345.438 330.867C345.438 320.779 345.438 310.808 345.438 300.502Z" fill="white"/>
<path fill-rule="evenodd" clip-rule="evenodd" d="M317.461 289.783C317.461 292.151 317.461 293.888 317.461 296.083C314.651 296.083 312.071 296.083 308.965 296.083C308.965 294.166 308.965 292.116 308.965 289.783C311.72 289.783 314.33 289.783 317.461 289.783Z" fill="white"/>
<path fill-rule="evenodd" clip-rule="evenodd" d="M353.938 296.337C351.056 296.337 348.435 296.337 345.366 296.337C345.236 294.281 345.115 292.379 344.962 289.977C348.083 289.977 350.819 289.977 353.938 289.977C353.938 291.985 353.938 294.056 353.938 296.337Z" fill="white"/>
<path fill-rule="evenodd" clip-rule="evenodd" d="M240.5 309.759C242.176 308.249 243.853 306.739 245.53 305.229C246.846 306.91 248.164 308.591 250.505 311.579C246.279 311.579 244.034 311.579 241.791 311.579C241.361 310.973 240.93 310.366 240.5 309.759Z" fill="#6B3BA9"/>
<path fill-rule="evenodd" clip-rule="evenodd" d="M371.24 309.759C372.916 308.249 374.593 306.739 376.269 305.229C377.586 306.91 378.903 308.591 381.244 311.579C377.018 311.579 374.774 311.579 372.53 311.579C372.1 310.973 371.669 310.366 371.24 309.759Z" fill="#6B3BA9"/>
<path fill-rule="evenodd" clip-rule="evenodd" d="M254.825 470.254C215.698 470.167 183.547 462.942 153.623 447.213C103.099 420.658 68.1113 380.549 49.8117 326.249C49.2555 324.601 47.9981 322.464 50.5029 321.533C53.1787 320.54 53.5638 323.103 54.242 324.788C65.2184 352.014 80.9332 376.163 101.735 396.869C130.434 425.438 164.418 444.622 204.057 453.568C222.619 457.757 241.432 459.385 260.363 458.229C310.643 455.158 354.765 436.955 392.172 403.095C416.342 381.216 434.084 354.809 446.137 324.552C446.199 324.398 446.242 324.237 446.301 324.081C446.915 322.461 447.635 320.69 449.795 321.504C451.806 322.261 451.231 324.045 450.734 325.576C446.762 337.785 441.782 349.553 435.589 360.815C419.283 390.471 397.18 414.886 369.23 433.941C345.693 449.986 319.809 460.541 291.894 466.098C277.903 468.883 263.775 470.419 254.825 470.254Z" fill="white"/>
<path fill-rule="evenodd" clip-rule="evenodd" d="M249.814 28.7896C283.558 28.9396 315.768 36.0593 345.806 51.4665C396.594 77.5172 431.383 117.71 450.124 171.683C450.397 172.468 450.631 173.265 450.885 174.057C451.356 175.522 451.488 176.98 449.728 177.6C448.014 178.204 447.165 177.104 446.551 175.632C444.794 171.411 443.087 167.164 441.159 163.02C425.468 129.31 402.573 101.535 372.295 79.9121C347.071 61.898 319.13 50.1586 288.734 44.2629C272.484 41.111 256.034 39.8201 239.525 40.7521C181.867 44.0099 133.634 67.3836 94.6065 109.726C77.1191 128.7 63.829 150.426 54.2121 174.384C53.5619 176.002 53.1688 178.447 50.656 177.605C47.9321 176.691 49.2615 174.513 49.8477 172.77C67.7132 119.62 101.805 80.136 150.813 53.3173C171.133 42.1959 192.886 35.0253 215.752 31.5684C226.994 29.8695 238.402 29.2635 249.734 28.1626C249.761 28.3706 249.788 28.5807 249.814 28.7896Z" fill="white"/>
</svg>
