<svg width="500" height="500" viewBox="0 0 500 500" fill="none" xmlns="http://www.w3.org/2000/svg">
<rect width="500" height="500" rx="250" fill="#6B3BA9"/>
<path fill-rule="evenodd" clip-rule="evenodd" d="M499 229.789C499 242.862 499 255.935 499 269.008C497.166 280.247 495.894 291.614 493.413 302.713C464.821 430.736 345.697 514.383 216.186 497.562C102.616 482.809 13.1228 390.177 1.8246 275.672C-10.1764 154.048 65.988 42.644 183.831 10.1676C199.199 5.93193 215.205 4.00023 230.917 1C243.447 1 255.981 1 268.512 1C274.923 2.03603 281.356 2.94789 287.738 4.13099C389.781 23.0214 457.089 81.8199 488.934 180.485C494.05 196.348 495.731 213.324 499 229.789ZM248.132 130.307C184.92 130.317 132.999 182.083 132.95 245.15C132.898 309.07 185.106 360.976 249.165 360.692C312.221 360.407 363.523 308.397 363.373 244.911C363.216 181.651 311.573 130.301 248.132 130.307ZM251.983 100.109C259.901 101.272 267.897 102.913 275.975 103.531C289.863 104.586 299.641 97.2166 303.05 83.9182C306.954 68.6817 302.037 55.5208 288.895 50.5433C279.48 46.9776 269.192 45.7224 259.806 43.5556C263.006 63.7435 257.501 81.2806 251.983 100.109ZM204.636 103.766C211.488 103.766 217.405 104.126 223.257 103.652C228.043 103.263 233.777 103.211 237.22 100.573C241.25 97.4881 245.464 91.7785 245.52 87.1604C245.572 82.5326 241.414 76.9275 237.556 73.4795C234.431 70.6885 229.03 70.404 224.601 69.1261C220.168 67.845 215.186 67.5476 211.406 65.2435C208.837 63.6748 206.63 59.3247 206.777 56.3441C206.859 54.6511 212.194 51.6835 214.852 51.9875C219.808 52.5562 224.594 54.9551 229.341 56.8703C231.871 57.8932 234.17 59.4949 237.779 61.5081C236.755 55.2985 236.026 50.8503 235.624 48.3893C229.154 48.0331 223.636 47.7193 218.121 47.4187C216.222 47.3174 214.313 47.0557 212.43 47.1865C204.518 47.729 197.99 52.7492 197.143 59.5209C196.192 67.1163 199.529 72.9566 206.493 75.9634C211.429 78.0976 216.84 79.1301 222.028 80.6858C225.653 81.7774 229.756 82.2186 232.721 84.2776C234.964 85.8333 237.154 89.7129 236.772 92.151C236.393 94.5727 232.852 98.1645 230.547 98.2789C225.303 98.5436 219.847 97.4357 214.711 96.0304C210.913 94.9911 207.487 92.5954 202.809 90.2651C203.564 95.8276 204.168 100.305 204.636 103.766ZM322.312 98.452C330.698 100.37 336.902 102.452 343.248 103.064C350.721 103.783 356.289 100.034 359.231 92.9221C362.16 85.8399 359.904 79.5093 354.281 75.509C345.608 69.3353 336.095 64.3382 327.373 59.0992C323.476 79.2511 313.077 94.5921 301.756 110.015C307.075 112.692 312.407 115.378 316.571 117.473C318.726 110.335 320.593 104.158 322.312 98.452ZM133.721 78.4505C137.883 84.4215 141.855 89.5952 145.242 95.1284C148.635 100.675 151.081 106.815 154.599 112.273C160.45 121.339 168.78 123.611 178.633 119.493C192.275 113.793 195.858 103.926 189.245 89.6571C184.429 79.2641 179.379 68.9793 174.083 57.9163C172.105 58.9164 168.737 60.6191 165.298 62.3611C168.822 65.4953 172.327 67.4496 174.109 70.4335C178.277 77.4046 181.847 84.7678 185.247 92.1605C189.539 101.491 187.689 107.989 180.242 111.525C173.171 114.885 167.093 112.505 162.467 103.593C157.077 93.2033 152.31 82.4901 147.057 71.4664C142.709 73.7476 137.556 76.4438 133.721 78.4505ZM113.234 375.199C113.812 366.342 123.447 360.979 119.723 352.083C114.381 359.544 110.086 367.323 106.209 375.307C105.499 376.768 105.859 379.876 106.925 380.749C107.99 381.618 110.851 381.17 112.433 380.35C117.294 377.83 121.923 374.859 126.647 372.065C124.65 378.056 121.691 382.879 119.174 387.919C118.504 389.259 118.654 391.553 119.393 392.87C119.939 393.838 122.492 394.75 123.401 394.273C131.793 389.825 140.021 385.069 148.295 380.399C147.769 379.281 147.243 378.16 146.717 377.046C140.077 380.236 133.434 383.425 125.088 387.435C128.726 381.007 131.551 376.418 133.921 371.604C134.712 369.996 134.356 367.82 134.522 365.901C132.335 365.97 129.792 365.329 128.033 366.231C123.224 368.682 118.749 371.787 113.234 375.199ZM366.299 362.404C382.396 378.092 387.254 381.245 392.269 378.735C386.901 374.042 381.752 369.542 374.795 363.466C382.174 364.345 387.143 365.211 392.141 365.45C396.767 365.669 402.439 369.323 405.862 361.567C397.996 355.704 391.307 348.178 382.654 343.409C381.931 344.308 381.209 345.203 380.487 346.099C385.423 350.603 390.359 355.106 395.593 359.881C385.73 362.44 375.626 353.649 366.299 362.404ZM262.941 411.64C264.533 422.121 265.972 431.596 267.498 441.655C272.847 440.691 277.204 440.306 281.307 439.077C288.715 436.858 290.14 431.861 285.923 425.386C285.054 424.056 284.828 421.902 285.139 420.284C286.348 414.003 283.697 410.042 277.234 409.999C272.955 409.967 268.675 410.937 262.941 411.64ZM360.764 405.692C361.581 405.757 362.399 405.819 363.216 405.885C363.451 403.901 363.487 401.868 363.971 399.949C364.72 397.001 364.952 393.125 366.93 391.501C368.956 389.831 372.811 390.295 375.881 390.021C377.96 389.834 380.065 389.985 382.16 389.985C382.134 389.161 382.105 388.334 382.082 387.507C373.448 382.49 364.821 377.471 354.478 371.454C353.422 374.944 351.277 378.131 351.953 380.513C354.373 389.05 357.75 397.322 360.764 405.692ZM114.097 345.772C114.306 338.075 107.578 330.807 100.079 330.63C91.6413 330.434 83.1151 337.931 82.7751 345.84C82.4515 353.37 89.3234 360.773 96.7967 360.953C105.221 361.152 113.881 353.553 114.097 345.772ZM219.027 440.256C228.203 441.015 237.298 444.152 242.316 435.524C244.925 431.037 245.654 423.549 243.774 418.774C240.139 409.529 230.629 411.231 221.818 410.738C220.9 420.474 220.017 429.824 219.027 440.256ZM181.88 430.52C180.382 424.909 179.163 420.343 177.944 415.774C178.584 416.251 179.228 416.735 179.869 417.212C183.269 414.222 189.376 411.395 189.562 408.212C190.157 398.191 180.366 398.047 173.344 394.09C170.414 400.525 167.492 406.29 165.174 412.29C163.942 415.48 163.749 419.069 163.088 422.474C165.269 419.948 167.436 417.409 169.64 414.902C170.137 414.33 170.764 413.869 171.34 413.346C175.544 418.294 172.726 427.184 181.88 430.52ZM423.826 332.712C427.219 325.411 414.93 322.133 421.384 316.224C425.117 312.806 429.625 310.236 433.787 307.282C433.512 306.521 433.234 305.752 432.96 304.988C424.035 304.988 415.101 304.818 406.189 305.135C404.489 305.197 402.027 306.841 401.435 308.351C400.857 309.815 401.638 312.674 402.857 313.838C409.317 320.008 416.107 325.842 423.826 332.712ZM152.261 380.987C146.635 389.651 141.41 397.701 135.918 406.165C141.986 409.649 146.265 414.82 152.65 415.8C153.124 415.065 153.598 414.33 154.072 413.591C150.411 410.836 146.752 408.078 142.79 405.097C144.627 402.518 146.148 400.381 147.625 398.299C151.78 400.4 155.481 402.27 159.185 404.139C159.594 403.293 160.005 402.446 160.417 401.603C157.08 399.09 153.745 396.58 150.002 393.76C151.81 391.485 153.212 389.713 154.441 388.164C158.907 390.452 162.69 392.393 166.475 394.331C167.051 393.37 167.623 392.41 168.195 391.449C163.101 388.099 158.001 384.755 152.261 380.987ZM198.026 404.244C195.332 414.588 192.916 423.853 190.34 433.753C197.225 435.344 203.08 436.701 208.938 438.054C209.223 437.028 209.504 435.998 209.788 434.972C205.509 433.361 201.23 431.753 196.503 429.971C197.526 427.053 198.369 424.644 199.167 422.379C203.946 423.046 207.908 423.602 211.874 424.157C212.05 423.415 212.224 422.677 212.4 421.938C208.395 420.307 204.391 418.677 200.344 417.029C201.462 403.339 212.201 416.814 217.137 409.751C210.743 407.911 205.071 406.274 198.026 404.244ZM78.0645 315.721C84.7401 327.375 88.653 329.846 94.6944 326.215C100.909 322.473 100.17 313.704 92.4553 302.958C83.7266 306.668 74.9 310.416 66.0766 314.168C66.3381 315.325 66.6028 316.482 66.8644 317.642C70.3721 317.038 73.8768 316.44 78.0645 315.721ZM322.94 394.57C322.58 395.456 322.217 396.338 321.858 397.224C328.697 402.976 335.474 408.803 342.391 414.454C346.419 417.748 350.345 415.143 349.966 411.607C348.943 401.953 346.373 392.465 344.418 382.912C343.107 383.131 341.793 383.353 340.482 383.569C341.731 391.665 342.98 399.753 344.251 408.009C335.961 405.254 332.329 394.639 322.94 394.57ZM288.146 406.689C287.613 407.672 287.081 408.659 286.548 409.643C294.119 415.627 303.541 420.108 304.721 431.305C304.786 431.903 306.794 432.295 307.892 432.782C308.275 431.168 309.494 429.095 308.905 428.004C305.084 420.944 307.425 414.359 309.733 407.643C310.406 405.675 310.534 403.522 310.909 401.449C310.03 401.152 309.154 400.855 308.274 400.564C306.231 405.188 304.191 409.816 302.207 414.31C297.254 411.627 292.7 409.156 288.146 406.689ZM393.949 334.32C400.02 337.772 406.038 341.353 412.246 344.586C413.489 345.233 415.434 344.53 417.055 344.452C416.3 343.004 415.918 340.961 414.721 340.2C408.66 336.353 402.39 332.843 396.44 329.362C397.823 325.888 398.882 323.231 399.941 320.574C398.984 320.139 398.022 319.705 397.065 319.27C393.168 326.169 389.271 333.068 385.377 339.967C386.188 340.503 387.002 341.04 387.816 341.576C389.758 339.275 391.7 336.981 393.949 334.32Z" fill="#6B3BA9"/>
<path fill-rule="evenodd" clip-rule="evenodd" d="M248.132 130.307C311.574 130.297 363.216 181.651 363.37 244.908C363.524 308.393 312.221 360.404 249.162 360.688C185.103 360.976 132.898 309.066 132.947 245.146C133 182.083 184.92 130.317 248.132 130.307ZM223.64 217.749C221.293 211.356 219.187 207.447 218.462 203.297C216.35 191.26 215.124 179.063 212.819 167.072C212.129 163.493 209.396 158.019 206.931 157.63C203.623 157.107 199.471 160.372 196.078 162.614C194.427 163.705 193.407 166.049 192.57 168.019C186.257 182.916 185.309 197.463 192.269 212.902C205.061 241.297 207.843 270.668 197.418 300.886C208.026 307.74 207.967 307.723 204.247 322.303C202.606 328.738 201.269 335.248 199.778 341.801C228.341 359.76 280.409 357.047 304.914 337.238C304.332 330.486 303.848 324.793 303.358 319.1C302.838 312.998 302.345 306.887 301.789 300.785C301.174 294.075 299.772 287.3 304.852 281.447C314.002 270.903 314.669 257.654 305.741 246.826C299.471 239.224 292.416 232.195 285.185 225.478C279.091 219.821 272.242 214.974 265.711 209.755C273.403 198.803 271.275 171.98 261.807 162.388C255.799 156.303 249.649 157.741 247.155 165.974C246.213 169.082 245.945 172.386 245.229 175.569C242.581 187.387 239.875 199.192 237.034 211.702C233.356 209.539 231.443 208.412 229.39 207.202C227.703 210.291 226.34 212.801 223.64 217.749Z" fill="white"/>
<path fill-rule="evenodd" clip-rule="evenodd" d="M251.983 100.109C257.501 81.2807 263.006 63.7435 259.806 43.5557C269.192 45.7225 279.483 46.9777 288.895 50.5433C302.04 55.5176 306.954 68.6817 303.05 83.9182C299.641 97.2166 289.863 104.586 275.975 103.531C267.897 102.916 259.901 101.276 251.983 100.109ZM273.707 51.8603C272.412 59.4524 271.127 66.8877 269.878 74.3262C268.603 81.9346 267.364 89.5497 266.132 97.0306C274.736 99.9851 281.611 99.0078 286.136 92.3373C292.723 82.6274 294.616 71.7735 290.124 60.6321C287.378 53.8276 281.507 51.4714 273.707 51.8603Z" fill="white"/>
<path fill-rule="evenodd" clip-rule="evenodd" d="M204.636 103.766C204.168 100.302 203.564 95.8244 202.808 90.2684C207.487 92.5986 210.913 94.9911 214.711 96.0337C219.844 97.4423 225.3 98.5502 230.547 98.2822C232.852 98.1678 236.393 94.576 236.772 92.1542C237.154 89.7161 234.961 85.8337 232.721 84.2813C229.756 82.2223 225.653 81.7811 222.028 80.6895C216.84 79.1306 211.429 78.1009 206.493 75.9667C199.529 72.9599 196.192 67.1196 197.143 59.5242C197.99 52.7524 204.518 47.7327 212.43 47.1902C214.313 47.0594 216.222 47.3206 218.121 47.422C223.639 47.7226 229.154 48.0364 235.624 48.3926C236.026 50.8536 236.759 55.2985 237.779 61.5114C234.169 59.4982 231.871 57.8965 229.341 56.8736C224.597 54.9584 219.808 52.5598 214.852 51.9912C212.194 51.6872 206.862 54.6548 206.777 56.3477C206.63 59.3284 208.837 63.6748 211.406 65.2468C215.185 67.5509 220.168 67.8515 224.601 69.1294C229.027 70.4073 234.431 70.695 237.556 73.4828C241.414 76.9308 245.569 82.5359 245.52 87.1637C245.464 91.7785 241.25 97.4881 237.22 100.577C233.777 103.217 228.043 103.266 223.257 103.655C217.405 104.129 211.488 103.766 204.636 103.766Z" fill="white"/>
<path fill-rule="evenodd" clip-rule="evenodd" d="M322.312 98.4514C320.592 104.158 318.725 110.335 316.571 117.472C312.406 115.374 307.074 112.691 301.755 110.014C313.076 94.5915 323.476 79.2505 327.373 59.0986C336.098 64.3409 345.608 69.338 354.281 75.5084C359.904 79.512 362.16 85.8393 359.23 92.9215C356.291 100.033 350.721 103.779 343.247 103.063C336.902 102.452 330.697 100.37 322.312 98.4514ZM326.062 93.0328C336.549 98.8013 344.241 97.4023 347.994 89.4638C351.957 81.0939 348.825 75.306 337.713 71.2272C333.953 78.267 330.155 85.3688 326.062 93.0328Z" fill="white"/>
<path fill-rule="evenodd" clip-rule="evenodd" d="M133.721 78.4507C137.556 76.444 142.709 73.7478 147.063 71.4666C152.313 82.4903 157.08 93.2034 162.474 103.593C167.096 112.506 173.174 114.885 180.248 111.525C187.695 107.989 189.549 101.495 185.253 92.1607C181.853 84.7647 178.283 77.4015 174.115 70.4337C172.334 67.4498 168.829 65.4955 165.305 62.3612C168.744 60.6193 172.108 58.9133 174.089 57.9165C179.385 68.9795 184.436 79.2643 189.251 89.6573C195.862 103.926 192.282 113.793 178.639 119.493C168.786 123.611 160.457 121.34 154.605 112.274C151.087 106.816 148.642 100.675 145.248 95.1285C141.858 89.5954 137.886 84.4217 133.721 78.4507Z" fill="white"/>
<path fill-rule="evenodd" clip-rule="evenodd" d="M113.234 375.199C118.753 371.787 123.225 368.682 128.027 366.224C129.786 365.326 132.329 365.963 134.516 365.894C134.35 367.813 134.709 369.989 133.915 371.597C131.542 376.411 128.72 381 125.082 387.429C133.428 383.419 140.071 380.229 146.71 377.039C147.237 378.156 147.763 379.277 148.289 380.392C140.015 385.062 131.787 389.817 123.395 394.266C122.489 394.743 119.933 393.831 119.387 392.864C118.645 391.55 118.498 389.255 119.168 387.912C121.688 382.873 124.644 378.049 126.641 372.058C121.921 374.853 117.291 377.826 112.427 380.343C110.848 381.163 107.987 381.611 106.918 380.742C105.853 379.869 105.493 376.761 106.202 375.3C110.08 367.316 114.375 359.538 119.717 352.076C123.447 360.982 113.813 366.342 113.234 375.199Z" fill="white"/>
<path fill-rule="evenodd" clip-rule="evenodd" d="M366.299 362.404C375.625 353.649 385.731 362.44 395.597 359.885C390.36 355.11 385.426 350.606 380.49 346.102C381.212 345.207 381.935 344.311 382.657 343.413C391.308 348.181 397.996 355.708 405.865 361.571C402.442 369.326 396.77 365.676 392.144 365.454C387.149 365.215 382.177 364.345 374.798 363.47C381.755 369.545 386.904 374.046 392.272 378.739C387.254 381.245 382.396 378.092 366.299 362.404Z" fill="white"/>
<path fill-rule="evenodd" clip-rule="evenodd" d="M262.941 411.639C268.675 410.937 272.955 409.966 277.231 409.995C283.694 410.041 286.345 414.002 285.135 420.281C284.825 421.895 285.054 424.049 285.92 425.382C290.137 431.856 288.712 436.857 281.304 439.073C277.201 440.302 272.843 440.687 267.495 441.651C265.972 431.595 264.533 422.121 262.941 411.639ZM272.428 437.939C276.806 435.367 279.957 433.514 283.112 431.657C282.049 429.997 281.147 427.095 279.899 426.931C276.976 426.555 273.886 427.503 270.647 427.945C271.206 431.089 271.578 433.18 272.428 437.939ZM270.673 425.046C274.831 422.366 277.685 420.526 280.536 418.689C279.519 417.287 278.663 414.875 277.466 414.692C274.776 414.283 271.915 414.986 268.584 415.283C269.247 418.395 269.679 420.418 270.673 425.046Z" fill="white"/>
<path fill-rule="evenodd" clip-rule="evenodd" d="M360.764 405.692C357.75 397.319 354.372 389.05 351.953 380.514C351.276 378.131 353.421 374.945 354.477 371.454C364.821 377.471 373.451 382.491 382.082 387.508C382.108 388.334 382.137 389.162 382.16 389.985C380.065 389.985 377.96 389.835 375.88 390.021C372.811 390.296 368.956 389.831 366.929 391.502C364.952 393.126 364.716 397.002 363.971 399.95C363.487 401.868 363.451 403.901 363.216 405.885C362.398 405.82 361.581 405.758 360.764 405.692Z" fill="white"/>
<path fill-rule="evenodd" clip-rule="evenodd" d="M114.097 345.772C113.884 353.554 105.221 361.152 96.7965 360.956C89.3232 360.776 82.4513 353.374 82.7749 345.844C83.1149 337.935 91.6411 330.438 100.079 330.634C107.575 330.807 114.306 338.075 114.097 345.772ZM103.465 335.902C94.668 335.745 87.2634 341.919 87.7309 347.135C88.1919 352.296 91.1048 355.691 96.7147 355.688C102.364 355.688 109.919 349.606 108.948 344.857C108.189 341.144 104.812 337.968 103.465 335.902Z" fill="white"/>
<path fill-rule="evenodd" clip-rule="evenodd" d="M219.027 440.257C220.017 429.825 220.9 420.471 221.818 410.738C230.626 411.232 240.139 409.529 243.774 418.775C245.651 423.55 244.925 431.037 242.316 435.524C237.298 444.156 228.203 441.018 219.027 440.257ZM226.543 415.86C226 422.546 225.454 429.279 224.911 435.953C235.425 437.394 239.309 434.848 240.011 426.841C240.701 419.004 237.272 416.026 226.543 415.86Z" fill="white"/>
<path fill-rule="evenodd" clip-rule="evenodd" d="M181.879 430.52C172.726 427.183 175.544 418.293 171.336 413.349C170.761 413.868 170.136 414.333 169.636 414.905C167.433 417.415 165.265 419.951 163.085 422.477C163.745 419.072 163.938 415.479 165.17 412.293C167.488 406.292 170.411 400.524 173.34 394.092C180.362 398.05 190.153 398.194 189.558 408.214C189.372 411.398 183.265 414.225 179.865 417.215C179.224 416.738 178.58 416.254 177.94 415.777C179.162 420.343 180.382 424.908 181.879 430.52ZM176.684 398.871C174.942 403.158 174.072 405.28 172.608 408.881C176.743 409.322 179.921 409.848 183.098 409.839C183.71 409.835 185.089 407.031 184.789 406.685C182.67 404.273 180.199 402.162 176.684 398.871Z" fill="white"/>
<path fill-rule="evenodd" clip-rule="evenodd" d="M423.826 332.712C416.111 325.839 409.318 320.009 402.855 313.838C401.635 312.678 400.857 309.818 401.433 308.351C402.024 306.841 404.489 305.194 406.186 305.135C415.101 304.818 424.032 304.988 432.957 304.988C433.232 305.753 433.509 306.521 433.784 307.282C429.626 310.237 425.114 312.806 421.381 316.224C414.931 322.133 427.22 325.411 423.826 332.712ZM416.036 319.313C417.174 315.518 417.827 313.332 418.606 310.737C414.47 310.737 411.021 310.737 405.993 310.737C409.805 313.995 412.371 316.185 416.036 319.313Z" fill="white"/>
<path fill-rule="evenodd" clip-rule="evenodd" d="M152.261 380.987C158.001 384.756 163.098 388.102 168.198 391.449C167.623 392.41 167.05 393.371 166.478 394.332C162.696 392.393 158.914 390.452 154.445 388.164C153.216 389.714 151.81 391.485 150.005 393.76C153.748 396.58 157.079 399.093 160.421 401.603C160.009 402.45 159.597 403.296 159.188 404.139C155.484 402.27 151.784 400.397 147.628 398.299C146.151 400.381 144.627 402.519 142.793 405.097C146.756 408.078 150.414 410.836 154.075 413.591C153.601 414.33 153.127 415.065 152.653 415.8C146.268 414.82 141.989 409.65 135.922 406.166C141.411 397.701 146.638 389.651 152.261 380.987Z" fill="white"/>
<path fill-rule="evenodd" clip-rule="evenodd" d="M198.026 404.243C205.067 406.273 210.743 407.91 217.137 409.753C212.201 416.812 201.462 403.338 200.343 417.032C204.391 418.679 208.399 420.31 212.4 421.94C212.224 422.679 212.05 423.418 211.874 424.16C207.908 423.604 203.946 423.048 199.167 422.382C198.369 424.646 197.526 427.058 196.502 429.974C201.23 431.755 205.512 433.363 209.788 434.974C209.504 436 209.223 437.03 208.938 438.056C203.08 436.703 197.225 435.347 190.34 433.755C192.919 423.852 195.332 414.587 198.026 404.243Z" fill="white"/>
<path fill-rule="evenodd" clip-rule="evenodd" d="M78.0645 315.721C73.8767 316.44 70.3688 317.039 66.8643 317.64C66.6028 316.483 66.3381 315.323 66.0765 314.166C74.9 310.417 83.7266 306.665 92.4552 302.956C100.167 313.702 100.909 322.473 94.6943 326.212C88.653 329.846 84.7401 327.376 78.0645 315.721ZM82.8341 312.738C82.3535 313.803 81.8697 314.865 81.3891 315.934C84.7694 317.859 88.153 319.787 91.5365 321.712C92.1708 317.901 92.8113 314.087 93.7921 308.188C88.143 310.531 85.4919 311.636 82.8341 312.738Z" fill="white"/>
<path fill-rule="evenodd" clip-rule="evenodd" d="M322.94 394.57C332.329 394.638 335.958 405.257 344.255 408.006C342.98 399.753 341.734 391.661 340.485 383.566C341.796 383.35 343.111 383.128 344.421 382.909C346.38 392.462 348.949 401.949 349.969 411.604C350.345 415.14 346.422 417.745 342.395 414.45C335.477 408.8 328.7 402.969 321.861 397.22C322.221 396.338 322.58 395.452 322.94 394.57Z" fill="white"/>
<path fill-rule="evenodd" clip-rule="evenodd" d="M288.146 406.688C292.704 409.156 297.254 411.627 302.204 414.31C304.188 409.816 306.228 405.188 308.271 400.563C309.151 400.858 310.027 401.155 310.906 401.449C310.53 403.521 310.403 405.675 309.729 407.643C307.421 414.362 305.081 420.944 308.902 428.004C309.494 429.095 308.274 431.167 307.889 432.782C306.79 432.295 304.783 431.899 304.718 431.304C303.541 420.108 294.119 415.627 286.545 409.643C287.081 408.656 287.614 407.672 288.146 406.688Z" fill="white"/>
<path fill-rule="evenodd" clip-rule="evenodd" d="M393.949 334.32C391.7 336.977 389.758 339.274 387.816 341.572C387.002 341.036 386.188 340.5 385.377 339.964C389.271 333.065 393.168 326.165 397.065 319.266C398.023 319.704 398.984 320.139 399.942 320.57C398.882 323.227 397.823 325.888 396.44 329.358C402.387 332.839 408.66 336.353 414.721 340.196C415.918 340.954 416.297 342.997 417.055 344.448C415.434 344.527 413.489 345.229 412.246 344.582C406.038 341.356 400.02 337.771 393.949 334.32Z" fill="white"/>
<path fill-rule="evenodd" clip-rule="evenodd" d="M223.639 217.749C226.336 212.798 227.703 210.291 229.39 207.2C231.443 208.409 233.355 209.536 237.033 211.7C239.874 199.189 242.581 187.387 245.229 175.566C245.945 172.383 246.213 169.082 247.154 165.971C249.652 157.738 255.801 156.3 261.807 162.386C271.274 171.981 273.402 198.804 265.71 209.752C272.242 214.971 279.091 219.815 285.184 225.475C292.416 232.195 299.47 239.221 305.741 246.823C314.665 257.651 313.999 270.9 304.852 281.444C299.771 287.297 301.177 294.072 301.788 300.782C302.347 306.884 302.838 312.995 303.357 319.097C303.845 324.79 304.332 330.48 304.914 337.236C280.408 357.048 228.34 359.76 199.778 341.798C201.269 335.245 202.606 328.735 204.247 322.3C207.967 307.721 208.026 307.737 197.417 300.883C207.84 270.665 205.061 241.297 192.269 212.899C185.309 197.457 186.257 182.91 192.57 168.017C193.407 166.043 194.426 163.703 196.077 162.611C199.471 160.366 203.626 157.101 206.931 157.627C209.396 158.016 212.129 163.49 212.819 167.069C215.123 179.06 216.349 191.257 218.461 203.294C219.187 207.448 221.295 211.356 223.639 217.749ZM301.674 270.59C296.188 265.969 291.216 261.779 286.24 257.586C290.327 255.645 293.858 255.563 297.388 255.667C301.347 255.785 305.437 253.04 302.374 250.412C295.43 244.441 287.012 240.078 278.793 235.826C277.59 235.205 273.396 238.271 272 240.513C268.139 246.709 264.706 253.229 261.695 259.887C255.572 273.433 262.997 287.97 277.057 289.529C281.209 289.99 285.616 288.111 290.389 287.212C288.702 279.496 278.237 278.895 277.064 271.443C291.821 281.284 298.941 282.202 305.973 274.264C309.314 270.489 310.618 266.537 305.365 261.972C303.975 265.233 302.864 267.825 301.674 270.59ZM230.796 318.62C229.88 327.908 232.943 332.19 239.877 334.138C243.82 335.245 247.736 337.036 251.166 339.285C259.126 344.504 267.257 345.432 275.815 341.341C282.88 337.965 286.705 332.062 286.937 324.794C276.351 342.063 265.851 343.642 250.227 330.454C248.972 329.399 246.628 328.359 245.337 328.823C236.52 331.997 233.133 326.807 230.796 318.62ZM202.527 171.069C191.922 181.675 193.334 203.372 202.527 213.131C202.527 200.274 202.527 186.681 202.527 171.069ZM257.115 243.029C253.686 234.996 248.779 233.45 242.908 236.829C238.583 239.316 235.556 243.17 239.671 248.994C242.996 238.398 245.896 237.284 257.115 243.029Z" fill="#6B3BA9"/>
<path fill-rule="evenodd" clip-rule="evenodd" d="M273.706 51.8604C281.506 51.4748 287.381 53.831 290.124 60.6354C294.616 71.7768 292.723 82.6308 286.135 92.3407C281.611 99.0111 274.736 99.9884 266.131 97.034C267.364 89.553 268.603 81.9379 269.878 74.3295C271.127 66.8845 272.408 59.4525 273.706 51.8604Z" fill="#6B3BA9"/>
<path fill-rule="evenodd" clip-rule="evenodd" d="M326.062 93.0341C330.155 85.3701 333.953 78.265 337.713 71.2285C348.821 75.3073 351.953 81.0984 347.994 89.4651C344.241 97.4036 336.549 98.8026 326.062 93.0341Z" fill="#6B3BA9"/>
<path fill-rule="evenodd" clip-rule="evenodd" d="M272.428 437.94C271.578 433.182 271.206 431.087 270.643 427.943C273.883 427.502 276.976 426.554 279.895 426.929C281.147 427.093 282.046 429.995 283.109 431.656C279.957 433.515 276.806 435.368 272.428 437.94Z" fill="#6B3BA9"/>
<path fill-rule="evenodd" clip-rule="evenodd" d="M270.673 425.047C269.679 420.419 269.247 418.396 268.58 415.284C271.911 414.987 274.772 414.284 277.462 414.693C278.659 414.876 279.519 417.288 280.532 418.69C277.685 420.527 274.834 422.367 270.673 425.047Z" fill="#6B3BA9"/>
<path fill-rule="evenodd" clip-rule="evenodd" d="M103.466 335.902C104.813 337.971 108.19 341.145 108.952 344.854C109.923 349.603 102.364 355.685 96.7187 355.685C91.1088 355.688 88.1962 352.292 87.7353 347.132C87.2645 341.919 94.6655 335.745 103.466 335.902Z" fill="#6B3BA9"/>
<path fill-rule="evenodd" clip-rule="evenodd" d="M226.543 415.859C237.272 416.029 240.701 419.007 240.011 426.841C239.309 434.848 235.425 437.394 224.911 435.952C225.454 429.279 226 422.543 226.543 415.859Z" fill="#6B3BA9"/>
<path fill-rule="evenodd" clip-rule="evenodd" d="M176.685 398.872C180.199 402.163 182.671 404.271 184.789 406.69C185.093 407.033 183.71 409.84 183.099 409.843C179.921 409.853 176.744 409.327 172.608 408.886C174.073 405.281 174.942 403.16 176.685 398.872Z" fill="#6B3BA9"/>
<path fill-rule="evenodd" clip-rule="evenodd" d="M416.036 319.312C412.371 316.185 409.805 313.991 405.993 310.736C411.021 310.736 414.473 310.736 418.605 310.736C417.827 313.331 417.173 315.518 416.036 319.312Z" fill="#6B3BA9"/>
<path fill-rule="evenodd" clip-rule="evenodd" d="M82.8345 312.738C85.4924 311.637 88.1434 310.532 93.7925 308.185C92.8085 314.084 92.1712 317.898 91.537 321.709C88.1567 319.784 84.7731 317.856 81.3895 315.931C81.8701 314.865 82.354 313.803 82.8345 312.738Z" fill="#6B3BA9"/>
<path fill-rule="evenodd" clip-rule="evenodd" d="M301.674 270.59C302.861 267.822 303.972 265.23 305.368 261.972C310.618 266.534 309.317 270.486 305.976 274.264C298.947 282.203 291.824 281.281 277.067 271.443C278.241 278.895 288.709 279.496 290.392 287.212C285.619 288.111 281.209 289.99 277.061 289.53C263 287.967 255.576 273.43 261.699 259.887C264.71 253.23 268.146 246.713 272.003 240.513C273.399 238.271 277.594 235.205 278.797 235.826C287.015 240.078 295.433 244.441 302.377 250.412C305.44 253.043 301.35 255.788 297.391 255.668C293.861 255.563 290.33 255.645 286.244 257.586C291.216 261.779 296.191 265.969 301.674 270.59Z" fill="white"/>
<path fill-rule="evenodd" clip-rule="evenodd" d="M230.796 318.62C233.133 326.81 236.52 332 245.34 328.827C246.635 328.363 248.975 329.402 250.231 330.458C265.851 343.642 276.351 342.066 286.94 324.797C286.708 332.066 282.883 337.965 275.819 341.344C267.26 345.436 259.129 344.508 251.169 339.289C247.74 337.04 243.823 335.249 239.881 334.141C232.944 332.19 229.881 327.905 230.796 318.62Z" fill="white"/>
<path fill-rule="evenodd" clip-rule="evenodd" d="M202.527 171.069C202.527 186.682 202.527 200.274 202.527 213.131C193.338 203.372 191.922 181.675 202.527 171.069Z" fill="white"/>
<path fill-rule="evenodd" clip-rule="evenodd" d="M257.115 243.029C245.895 237.284 242.999 238.398 239.671 248.99C235.555 243.169 238.582 239.313 242.907 236.826C248.779 233.45 253.686 234.996 257.115 243.029Z" fill="white"/>
</svg>
