<svg width="500" height="500" viewBox="0 0 500 500" fill="none" xmlns="http://www.w3.org/2000/svg">
<g clip-path="url(#clip0_584_11018)">
<rect width="500" height="500" rx="250" fill="#6B3BA9"/>
<path fill-rule="evenodd" clip-rule="evenodd" d="M0 257C0 252.5 0 248.001 0 243.501C0.179055 242.277 0.479145 241.058 0.517157 239.83C0.892272 227.668 2.28769 215.623 4.5824 203.679C15.0786 149.059 40.8015 102.776 81.9011 65.4357C126.613 24.8147 179.466 3.21186 239.935 0.519993C240.991 0.472996 242.036 0.178991 243.085 0C247.587 0 252.088 0 256.591 0C257.98 0.185991 259.365 0.498915 260.76 0.538913C274.02 0.919894 287.149 2.53492 300.11 5.24778C353.1 16.3392 398.173 41.6819 434.581 81.6929C476.588 127.858 498.098 182.534 499.907 244.885C500.408 262.145 498.866 279.295 495.605 296.275C485.114 350.904 459.398 397.198 418.296 434.548C373.513 475.244 320.566 496.848 259.994 499.49C259.02 499.533 258.058 499.824 257.091 500C252.589 500 248.088 500 243.586 500C242.113 499.811 240.645 499.497 239.168 499.451C225.075 499.008 211.138 497.224 197.391 494.18C142.754 482.078 96.9107 454.977 60.5026 412.512C23.0321 368.809 3.11595 317.967 0.529154 260.404C0.479139 259.264 0.182056 258.134 0 257ZM335.823 166.388C312.902 166.388 289.981 166.32 267.06 166.41C249.869 166.478 237.558 183.223 242.453 199.675C245.667 210.476 255.792 218.102 267.087 218.126C284.007 218.161 300.927 218.125 317.846 218.144C321.996 218.149 324.728 221.02 324.182 224.697C323.681 228.071 321.367 229.842 317.371 229.842C291.199 229.85 265.028 229.848 238.856 229.846C234.813 229.846 234.662 229.695 234.662 225.583C234.66 206.836 234.629 188.089 234.702 169.341C234.71 167.105 234.133 166.251 231.762 166.335C226.934 166.508 222.092 166.487 217.262 166.342C215.063 166.276 214.41 166.972 214.419 169.175C214.495 188.672 214.425 208.169 214.477 227.665C214.509 239.731 224.061 249.617 236.089 249.675C263.844 249.807 291.6 249.87 319.354 249.659C336.148 249.532 348.001 233.101 343.396 216.908C340.17 205.562 330.146 198.132 317.776 198.085C301.689 198.023 285.604 198.071 269.517 198.063C268.435 198.063 267.343 198.063 266.275 197.921C263.576 197.562 261.67 195.494 261.371 192.716C261.122 190.402 262.651 187.709 264.927 186.959C266.155 186.556 267.545 186.539 268.862 186.538C295.868 186.517 322.873 186.521 349.878 186.522C353.509 186.522 353.511 186.525 353.511 190.143C353.512 208.89 353.511 227.638 353.512 246.385C353.512 249.72 353.518 249.723 356.95 249.725C361.368 249.727 365.786 249.727 370.203 249.725C373.643 249.723 373.654 249.72 373.654 246.359C373.658 227.612 373.655 208.865 373.657 190.117C373.657 186.525 373.661 186.523 377.364 186.522C386.448 186.52 395.535 186.431 404.618 186.578C407.199 186.619 407.916 185.795 407.811 183.295C407.62 178.804 407.76 174.298 407.756 169.799C407.753 166.394 407.749 166.388 404.335 166.388C381.498 166.387 358.66 166.388 335.823 166.388ZM185.401 166.471C185.401 167.777 185.401 168.771 185.401 169.766C185.401 188.425 185.401 207.085 185.4 225.745C185.4 226.411 185.563 227.141 185.345 227.727C185.078 228.448 184.607 229.416 184.01 229.605C183.295 229.831 182.321 229.437 181.525 229.135C181.105 228.977 180.825 228.446 180.489 228.075C164.129 210.082 147.744 192.111 131.423 174.083C124.868 166.844 116.208 164.546 106.96 167.814C98.6672 170.745 92.5384 178.882 92.4744 187.812C92.3313 207.72 92.4443 227.63 92.3913 247.539C92.3863 249.366 93.1125 249.776 94.764 249.75C99.5125 249.671 104.264 249.724 109.013 249.723C112.555 249.721 112.562 249.72 112.563 246.207C112.566 227.464 112.543 208.721 112.623 189.978C112.627 188.91 113.207 187.261 113.964 186.944C114.718 186.627 116.348 187.358 117.057 188.125C126.441 198.277 135.725 208.522 145.044 218.733C152.568 226.976 159.987 235.319 167.678 243.403C173.913 249.957 183.314 251.584 191.878 248.077C200.072 244.721 205.233 236.94 205.236 227.899C205.242 208.406 205.238 188.913 205.238 169.42C205.238 168.459 205.238 167.496 205.238 166.47C198.476 166.471 192.097 166.471 185.401 166.471ZM254.71 470.254C263.661 470.419 277.788 468.884 291.776 466.1C319.692 460.542 345.576 449.988 369.112 433.943C397.063 414.888 419.165 390.473 435.471 360.817C441.664 349.554 446.645 337.787 450.616 325.578C451.114 324.047 451.689 322.263 449.678 321.506C447.517 320.693 446.799 322.463 446.184 324.083C446.125 324.238 446.081 324.399 446.02 324.554C433.967 354.811 416.225 381.218 392.054 403.097C354.648 436.956 310.525 455.159 260.246 458.231C241.316 459.387 222.502 457.759 203.94 453.57C164.3 444.624 130.317 425.44 101.617 396.871C80.8158 376.165 65.101 352.016 54.1246 324.79C53.4454 323.105 53.0613 320.542 50.3854 321.535C47.8807 322.466 49.138 324.602 49.6942 326.251C67.9928 380.551 102.982 420.66 153.506 447.216C183.432 462.942 215.583 470.167 254.71 470.254ZM249.7 28.7896C249.674 28.5806 249.647 28.3706 249.62 28.1606C238.287 29.2625 226.88 29.8675 215.637 31.5664C192.771 35.0232 171.019 42.1939 150.698 53.3153C101.691 80.134 67.5997 119.618 49.7332 172.768C49.1471 174.511 47.8177 176.689 50.5415 177.603C53.0543 178.446 53.4474 176 54.0976 174.382C63.7145 150.424 77.0036 128.697 94.492 109.724C133.52 67.3816 181.753 44.0077 239.41 40.7499C255.919 39.817 272.369 41.1079 288.619 44.2607C319.016 50.1564 346.956 61.8968 372.18 79.9099C402.458 101.533 425.354 129.308 441.044 163.018C442.973 167.163 444.679 171.41 446.437 175.63C447.049 177.102 447.898 178.202 449.614 177.598C451.373 176.978 451.24 175.52 450.77 174.055C450.516 173.263 450.282 172.466 450.01 171.68C431.268 117.708 396.48 77.5152 345.692 51.4645C315.654 36.0592 283.444 28.9396 249.7 28.7896ZM306.511 326.708C305.988 325.574 305.624 324.855 305.318 324.112C301.829 315.66 298.449 307.162 294.81 298.776C293.489 295.731 292.623 292.898 294.253 289.757C294.528 289.227 294.511 288.546 294.652 287.815C286.879 287.815 279.366 287.815 271.303 287.815C272.998 289.875 274.246 291.631 275.741 293.147C277.43 294.862 278.008 296.737 277.986 299.149C277.874 311.476 277.968 323.806 277.891 336.133C277.882 337.648 277.459 339.225 276.918 340.655C276.024 343.02 274.876 345.29 273.712 347.872C279.101 347.872 283.995 347.872 289.518 347.872C287.786 345.789 286.515 344.058 285.033 342.531C283.359 340.804 282.746 338.915 282.775 336.484C282.898 325.991 282.825 315.493 282.833 304.998C282.834 304.321 282.91 303.644 282.952 302.966C283.072 302.957 283.192 302.948 283.313 302.939C289.88 318.143 296.448 333.345 303.015 348.55C303.229 348.529 303.443 348.507 303.657 348.486C309.155 334.001 314.651 319.517 320.149 305.034C320.503 315.149 320.596 325.192 320.432 335.231C320.394 337.548 319.618 339.895 318.916 342.146C318.319 344.061 317.34 345.858 316.457 347.875C324.195 347.875 331.448 347.875 339.261 347.875C337.517 345.748 336.219 343.935 334.681 342.354C333.173 340.806 332.674 339.128 332.69 336.988C332.777 324.91 332.787 312.83 332.69 300.753C332.668 298.013 333.103 295.511 334.372 293.089C335.227 291.459 335.87 289.718 336.664 287.899C329.739 287.899 323.337 287.899 316.698 287.899C317.11 288.872 317.286 289.528 317.636 290.073C319.106 292.366 319.144 294.575 317.986 297.109C316.331 300.731 315.056 304.527 313.621 308.25C311.296 314.273 308.978 320.3 306.511 326.708ZM215.616 287.84C217.241 289.816 218.427 291.512 219.87 292.951C221.666 294.742 222.13 296.762 222.108 299.242C221.999 311.317 222.135 323.397 221.99 335.472C221.963 337.706 221.173 339.97 220.495 342.146C219.899 344.056 218.968 345.862 218.132 347.84C225.848 347.84 233.083 347.84 240.587 347.84C240.135 347.104 239.968 346.576 239.609 346.286C234.471 342.128 233.456 336.591 234.232 330.436C234.274 330.108 234.237 329.77 234.237 329.437C234.237 326.726 234.237 324.014 234.237 321.343C239.267 321.031 243.318 323.127 245.525 327.342C246.748 329.676 247.543 332.239 248.463 334.725C249.529 337.601 250.249 340.639 251.606 343.364C253.781 347.73 257.42 349.335 262.188 348.577C265.954 347.979 268.335 345.288 267.852 342.067C264.469 341.802 263.229 339.226 262.205 336.528C259.513 329.428 256.366 322.712 248.738 319.763C251.888 318.145 255.077 316.878 257.853 315C263.113 311.442 265.098 306.176 264.142 299.994C263.254 294.257 259.319 291.025 254.044 289.427C251.364 288.614 248.53 287.986 245.747 287.904C236.675 287.636 227.594 287.653 218.516 287.58C217.721 287.576 216.924 287.719 215.616 287.84ZM126.976 347.937C125.303 345.907 124.212 344.201 122.757 342.901C120.114 340.541 119.88 338.054 121.371 334.972C122.003 333.666 122.557 333.026 124.07 333.048C129.485 333.127 134.901 333.069 140.316 333.093C140.959 333.096 141.739 333.095 142.218 333.433C143.372 334.249 144.411 339.758 143.803 341.109C142.827 343.275 141.851 345.442 140.751 347.885C148.843 347.885 156.489 347.885 164.762 347.885C163.545 346.379 162.607 345.359 161.83 344.227C160.059 341.652 157.78 339.235 156.744 336.377C151.22 321.153 145.949 305.835 140.77 290.488C139.966 288.105 138.816 287.409 136.488 287.529C133.33 287.692 130.158 287.551 126.992 287.584C126.148 287.593 125.304 287.759 124.084 287.894C125.766 291.035 127.275 293.704 128.615 296.455C129.003 297.248 129.255 298.407 128.97 299.18C123.352 314.459 117.646 329.707 111.957 344.96C111.62 345.864 111.278 346.768 110.839 347.938C116.21 347.937 121.229 347.937 126.976 347.937ZM388.516 304.754C388.615 303.198 388.706 302.41 388.709 301.62C388.724 297.955 388.576 294.282 388.764 290.627C388.891 288.17 387.986 287.511 385.628 287.527C373.045 287.621 360.461 287.566 347.879 287.58C347.027 287.581 346.175 287.717 344.762 287.837C346.592 290.018 347.962 291.785 349.477 293.418C350.906 294.956 351.531 296.589 351.512 298.765C351.404 311.092 351.506 323.422 351.408 335.75C351.394 337.508 350.862 339.323 350.256 340.999C349.429 343.288 348.302 345.469 347.209 347.906C354.957 347.906 362.218 347.906 370.028 347.906C368.771 346.315 367.957 344.954 366.832 343.931C364.077 341.425 363.206 338.416 363.511 334.772C363.762 331.793 363.533 328.779 363.568 325.781C363.64 319.619 362.812 320.79 368.897 320.46C372.141 320.283 374.699 321.2 376.984 323.392C377.968 324.336 379.159 325.065 380.525 326.093C380.525 320.435 380.525 315.23 380.525 309.703C379.732 310.264 379.173 310.51 378.824 310.93C375.453 314.986 371.044 315.935 366.075 315.277C365.993 315.266 365.908 315.266 365.825 315.277C364.044 315.499 363.522 314.633 363.539 312.95C363.602 306.953 363.601 300.955 363.54 294.957C363.523 293.298 363.973 292.476 365.796 292.64C367.284 292.774 368.829 292.877 370.286 292.629C375.821 291.688 379.812 293.684 382.834 298.37C384.234 300.535 386.28 302.282 388.516 304.754ZM190.696 287.992C186.341 287.03 169.958 287.424 168.683 288.51C169.911 289.974 171.044 291.533 172.392 292.879C174.171 294.656 174.706 296.665 174.683 299.162C174.57 311.237 174.714 323.315 174.56 335.389C174.531 337.705 173.718 340.053 173.012 342.306C172.433 344.153 171.477 345.881 170.582 347.899C178.331 347.899 185.583 347.899 193.474 347.899C191.658 345.698 190.288 343.849 188.72 342.19C187.244 340.63 186.73 338.941 186.749 336.795C186.846 326.386 186.964 315.97 186.723 305.566C186.595 300.042 187.069 294.809 189.976 289.987C190.305 289.441 190.423 288.768 190.696 287.992Z" fill="#6B3BA9"/>
<path fill-rule="evenodd" clip-rule="evenodd" d="M335.823 166.388C358.661 166.388 381.499 166.387 404.336 166.389C407.75 166.389 407.754 166.395 407.757 169.8C407.76 174.299 407.62 178.805 407.812 183.296C407.917 185.796 407.2 186.62 404.619 186.579C395.536 186.433 386.449 186.521 377.365 186.523C373.663 186.524 373.659 186.526 373.658 190.119C373.657 208.866 373.659 227.613 373.655 246.36C373.655 249.721 373.644 249.724 370.204 249.726C365.787 249.728 361.369 249.728 356.951 249.726C353.52 249.724 353.514 249.721 353.513 246.386C353.511 227.639 353.513 208.892 353.512 190.145C353.512 186.526 353.511 186.523 349.879 186.523C322.874 186.522 295.869 186.517 268.863 186.539C267.546 186.54 266.155 186.557 264.928 186.96C262.652 187.71 261.124 190.403 261.372 192.717C261.671 195.495 263.577 197.563 266.276 197.922C267.344 198.064 268.436 198.064 269.518 198.064C285.605 198.073 301.69 198.025 317.777 198.086C330.147 198.133 340.171 205.564 343.397 216.909C348.003 233.102 336.149 249.533 319.355 249.66C291.601 249.87 263.845 249.807 236.09 249.676C224.062 249.618 214.51 239.733 214.478 227.666C214.426 208.17 214.496 188.673 214.42 169.176C214.411 166.973 215.064 166.277 217.263 166.343C222.093 166.489 226.935 166.509 231.763 166.336C234.134 166.252 234.711 167.106 234.703 169.342C234.63 188.09 234.661 206.837 234.663 225.584C234.663 229.695 234.814 229.847 238.857 229.847C265.029 229.849 291.2 229.85 317.372 229.843C321.368 229.842 323.682 228.072 324.183 224.698C324.729 221.021 321.997 218.15 317.847 218.145C300.927 218.126 284.008 218.163 267.088 218.127C255.793 218.103 245.668 210.477 242.454 199.676C237.559 183.225 249.87 166.48 267.061 166.411C289.981 166.32 312.902 166.388 335.823 166.388Z" fill="white"/>
<path fill-rule="evenodd" clip-rule="evenodd" d="M185.401 166.471C192.097 166.471 198.475 166.471 205.239 166.471C205.239 167.497 205.239 168.46 205.239 169.422C205.239 188.915 205.243 208.407 205.237 227.9C205.234 236.941 200.073 244.721 191.879 248.078C183.315 251.585 173.914 249.958 167.679 243.404C159.987 235.32 152.569 226.977 145.045 218.734C135.725 208.523 126.441 198.278 117.058 188.126C116.349 187.359 114.719 186.628 113.965 186.945C113.208 187.262 112.628 188.911 112.624 189.979C112.545 208.722 112.567 227.465 112.564 246.208C112.563 249.722 112.555 249.723 109.014 249.725C104.264 249.726 99.5135 249.673 94.7651 249.752C93.1146 249.778 92.3883 249.367 92.3924 247.54C92.4454 227.631 92.3323 207.721 92.4754 187.813C92.5394 178.883 98.6683 170.747 106.961 167.815C116.209 164.546 124.869 166.844 131.424 174.084C147.745 192.113 164.13 210.083 180.49 228.076C180.826 228.446 181.107 228.977 181.526 229.137C182.321 229.439 183.296 229.832 184.011 229.607C184.608 229.419 185.079 228.449 185.346 227.728C185.564 227.141 185.401 226.412 185.401 225.746C185.402 207.086 185.402 188.426 185.402 169.767C185.401 168.771 185.401 167.777 185.401 166.471Z" fill="white"/>
<path fill-rule="evenodd" clip-rule="evenodd" d="M254.71 470.254C215.583 470.167 183.432 462.942 153.509 447.213C102.985 420.658 67.9968 380.549 49.6972 326.249C49.141 324.601 47.8836 322.464 50.3884 321.533C53.0642 320.54 53.4493 323.103 54.1275 324.788C65.1039 352.014 80.8187 376.163 101.62 396.869C130.32 425.438 164.303 444.622 203.942 453.568C222.504 457.757 241.318 459.385 260.249 458.229C310.528 455.158 354.651 436.955 392.057 403.095C416.228 381.216 433.97 354.809 446.023 324.552C446.085 324.398 446.128 324.237 446.187 324.081C446.801 322.461 447.52 320.69 449.681 321.504C451.691 322.261 451.116 324.045 450.619 325.576C446.648 337.785 441.667 349.553 435.474 360.815C419.168 390.471 397.066 414.886 369.115 433.941C345.579 449.986 319.695 460.541 291.779 466.098C277.788 468.883 263.661 470.419 254.71 470.254Z" fill="white"/>
<path fill-rule="evenodd" clip-rule="evenodd" d="M249.7 28.7896C283.444 28.9396 315.654 36.0593 345.692 51.4665C396.48 77.5172 431.268 117.71 450.01 171.683C450.282 172.468 450.516 173.265 450.77 174.057C451.241 175.522 451.373 176.98 449.614 177.6C447.899 178.204 447.05 177.104 446.437 175.632C444.679 171.411 442.973 167.164 441.044 163.02C425.353 129.31 402.458 101.535 372.18 79.9121C346.956 61.898 319.016 50.1586 288.619 44.2629C272.369 41.111 255.919 39.8201 239.41 40.7521C181.753 44.0099 133.52 67.3836 94.492 109.726C77.0046 128.7 63.7145 150.426 54.0976 174.384C53.4474 176.002 53.0543 178.447 50.5415 177.605C47.8176 176.691 49.147 174.513 49.7332 172.77C67.5987 119.62 101.69 80.136 150.698 53.3173C171.018 42.1959 192.771 35.0253 215.637 31.5684C226.88 29.8695 238.287 29.2635 249.62 28.1626C249.647 28.3706 249.673 28.5807 249.7 28.7896Z" fill="white"/>
<path fill-rule="evenodd" clip-rule="evenodd" d="M306.511 326.708C308.978 320.301 311.296 314.273 313.617 308.248C315.052 304.526 316.327 300.73 317.983 297.108C319.141 294.574 319.102 292.365 317.632 290.071C317.283 289.526 317.107 288.871 316.694 287.897C323.334 287.897 329.735 287.897 336.66 287.897C335.867 289.717 335.224 291.459 334.369 293.088C333.099 295.51 332.664 298.012 332.686 300.752C332.783 312.829 332.773 324.909 332.686 336.987C332.67 339.128 333.169 340.805 334.677 342.353C336.215 343.933 337.514 345.747 339.257 347.873C331.444 347.873 324.191 347.873 316.453 347.873C317.336 345.857 318.315 344.061 318.912 342.145C319.613 339.894 320.39 337.547 320.428 335.23C320.592 325.191 320.498 315.148 320.145 305.033C314.647 319.516 309.151 334 303.653 348.484C303.439 348.505 303.225 348.527 303.011 348.548C296.444 333.344 289.876 318.142 283.309 302.938C283.188 302.948 283.068 302.957 282.948 302.965C282.906 303.643 282.83 304.32 282.829 304.997C282.822 315.492 282.894 325.99 282.771 336.483C282.742 338.914 283.354 340.803 285.029 342.53C286.511 344.056 287.782 345.788 289.514 347.87C283.991 347.87 279.097 347.87 273.708 347.87C274.872 345.289 276.02 343.019 276.914 340.654C277.455 339.223 277.878 337.646 277.887 336.132C277.964 323.805 277.87 311.475 277.982 299.148C278.004 296.736 277.427 294.861 275.737 293.146C274.242 291.63 272.994 289.874 271.299 287.813C279.362 287.813 286.875 287.813 294.648 287.813C294.506 288.544 294.523 289.226 294.249 289.756C292.619 292.897 293.485 295.73 294.806 298.775C298.447 307.161 301.825 315.659 305.314 324.111C305.624 324.855 305.988 325.574 306.511 326.708Z" fill="white"/>
<path fill-rule="evenodd" clip-rule="evenodd" d="M215.616 287.839C216.924 287.718 217.721 287.574 218.515 287.58C227.593 287.653 236.674 287.637 245.746 287.904C248.529 287.986 251.364 288.615 254.043 289.427C259.319 291.027 263.253 294.258 264.141 299.995C265.097 306.176 263.113 311.443 257.852 315.001C255.076 316.879 251.887 318.146 248.737 319.764C256.365 322.712 259.512 329.428 262.204 336.529C263.227 339.227 264.467 341.803 267.851 342.068C268.334 345.288 265.954 347.979 262.187 348.577C257.419 349.335 253.78 347.73 251.605 343.364C250.248 340.64 249.527 337.602 248.462 334.726C247.542 332.241 246.748 329.676 245.524 327.342C243.317 323.128 239.266 321.032 234.236 321.344C234.236 324.014 234.236 326.726 234.236 329.438C234.236 329.771 234.272 330.109 234.231 330.437C233.456 336.591 234.47 342.128 239.608 346.286C239.967 346.576 240.134 347.103 240.586 347.84C233.082 347.84 225.847 347.84 218.131 347.84C218.967 345.861 219.898 344.056 220.494 342.146C221.172 339.971 221.962 337.708 221.989 335.473C222.134 323.397 221.998 311.318 222.107 299.243C222.129 296.763 221.666 294.743 219.869 292.952C218.427 291.512 217.241 289.816 215.616 287.839ZM234.25 292.309C234.25 300.303 234.226 307.675 234.314 315.046C234.319 315.459 235.24 316.205 235.743 316.213C239.591 316.271 243.403 315.919 246.774 313.818C251.467 310.895 252.611 306.428 251.985 301.278C251.492 297.218 249.239 294.382 245.305 293.52C241.81 292.755 238.156 292.707 234.25 292.309Z" fill="white"/>
<path fill-rule="evenodd" clip-rule="evenodd" d="M126.976 347.937C121.23 347.937 116.21 347.937 110.84 347.937C111.279 346.767 111.621 345.864 111.958 344.959C117.647 329.705 123.353 314.458 128.97 299.179C129.254 298.407 129.002 297.247 128.616 296.454C127.276 293.703 125.766 291.034 124.085 287.893C125.305 287.758 126.149 287.592 126.993 287.583C130.159 287.551 133.331 287.691 136.489 287.528C138.816 287.408 139.967 288.103 140.771 290.487C145.95 305.834 151.221 321.152 156.745 336.376C157.781 339.233 160.06 341.65 161.83 344.226C162.608 345.358 163.546 346.378 164.762 347.884C156.49 347.884 148.844 347.884 140.752 347.884C141.853 345.441 142.829 343.274 143.804 341.108C144.412 339.757 143.373 334.249 142.218 333.432C141.74 333.094 140.96 333.095 140.317 333.092C134.901 333.068 129.485 333.126 124.071 333.047C122.557 333.025 122.004 333.665 121.372 334.971C119.881 338.053 120.115 340.539 122.757 342.9C124.212 344.201 125.303 345.907 126.976 347.937ZM140.398 327.742C137.681 320.096 135.046 312.679 132.216 304.716C129.381 312.735 126.764 320.135 124.073 327.742C129.674 327.742 134.879 327.742 140.398 327.742Z" fill="white"/>
<path fill-rule="evenodd" clip-rule="evenodd" d="M388.516 304.754C386.28 302.282 384.234 300.535 382.836 298.369C379.814 293.682 375.822 291.686 370.288 292.628C368.831 292.876 367.286 292.773 365.798 292.639C363.974 292.475 363.525 293.297 363.542 294.956C363.603 300.954 363.605 306.952 363.541 312.949C363.523 314.633 364.045 315.498 365.827 315.276C365.909 315.265 365.995 315.265 366.077 315.276C371.045 315.934 375.455 314.985 378.826 310.929C379.175 310.509 379.733 310.264 380.527 309.702C380.527 315.228 380.527 320.433 380.527 326.092C379.161 325.064 377.97 324.335 376.986 323.391C374.701 321.2 372.142 320.283 368.899 320.459C362.814 320.789 363.642 319.618 363.57 325.78C363.535 328.778 363.763 331.793 363.513 334.771C363.208 338.416 364.079 341.424 366.834 343.93C367.959 344.952 368.773 346.314 370.03 347.905C362.221 347.905 354.959 347.905 347.211 347.905C348.304 345.467 349.432 343.287 350.258 340.998C350.864 339.322 351.396 337.507 351.41 335.749C351.508 323.421 351.406 311.092 351.514 298.764C351.533 296.588 350.908 294.955 349.479 293.417C347.964 291.784 346.593 290.018 344.764 287.836C346.177 287.716 347.029 287.58 347.881 287.579C360.464 287.565 373.047 287.62 385.63 287.526C387.988 287.509 388.893 288.169 388.766 290.627C388.578 294.281 388.726 297.954 388.711 301.619C388.706 302.41 388.615 303.198 388.516 304.754Z" fill="white"/>
<path fill-rule="evenodd" clip-rule="evenodd" d="M190.697 287.992C190.424 288.768 190.306 289.442 189.976 289.988C187.07 294.81 186.594 300.042 186.723 305.566C186.964 315.971 186.846 326.386 186.749 336.796C186.729 338.941 187.245 340.63 188.72 342.19C190.288 343.849 191.659 345.698 193.474 347.899C185.582 347.899 178.33 347.899 170.582 347.899C171.477 345.881 172.434 344.153 173.012 342.306C173.718 340.053 174.532 337.705 174.561 335.39C174.714 323.315 174.57 311.238 174.683 299.162C174.706 296.666 174.172 294.657 172.392 292.88C171.044 291.534 169.91 289.974 168.683 288.51C169.957 287.424 186.341 287.03 190.697 287.992Z" fill="white"/>
<path fill-rule="evenodd" clip-rule="evenodd" d="M234.25 292.31C238.156 292.707 241.81 292.755 245.305 293.522C249.239 294.383 251.492 297.219 251.985 301.279C252.611 306.43 251.467 310.897 246.774 313.819C243.403 315.92 239.591 316.271 235.743 316.214C235.24 316.206 234.319 315.46 234.314 315.047C234.226 307.676 234.25 300.303 234.25 292.31Z" fill="#6B3BA9"/>
<path fill-rule="evenodd" clip-rule="evenodd" d="M140.398 327.742C134.879 327.742 129.674 327.742 124.073 327.742C126.764 320.135 129.381 312.734 132.216 304.716C135.046 312.679 137.681 320.096 140.398 327.742Z" fill="#6B3BA9"/>
</g>
<defs>
<clipPath id="clip0_584_11018">
<rect width="500" height="500" rx="250" fill="white"/>
</clipPath>
</defs>
</svg>
