<svg width="500" height="500" viewBox="0 0 500 500" fill="none" xmlns="http://www.w3.org/2000/svg">
<g clip-path="url(#clip0_584_11345)">
<path d="M250 500C388.071 500 500 388.071 500 250C500 111.929 388.071 0 250 0C111.929 0 0 111.929 0 250C0 388.071 111.929 500 250 500Z" fill="#6B3BA9"/>
<path d="M445.884 176.797C392.026 37.224 214.626 -5.13667 105.255 97.8524C81.896 119.759 63.7819 146.854 52.0903 176.797C51.6868 177.838 50.5088 178.346 49.476 177.943C48.4836 177.555 47.9752 176.466 48.2819 175.465C54.7287 154.535 64.8148 134.67 77.6923 116.766C93.8701 94.3587 114.574 75.1955 138.111 60.6797C220.258 9.52419 331.01 22.4421 398.843 91.5508C406.63 99.4016 413.811 107.833 420.282 116.766C433.159 134.662 443.238 154.535 449.693 175.457C450.305 177.902 447.014 179.217 445.884 176.789V176.797Z" fill="#F8F4F3"/>
<path d="M445.884 323.203C392.026 462.775 214.626 505.136 105.255 402.147C81.896 380.24 63.7819 353.145 52.0903 323.203C51.6868 322.161 50.5088 321.653 49.476 322.057C48.4836 322.445 47.9752 323.533 48.2819 324.535C54.7287 345.464 64.8148 365.331 77.6923 383.234C93.8701 405.642 114.574 424.805 138.111 439.321C220.258 490.476 331.01 477.557 398.843 408.449C406.63 400.598 413.811 392.167 420.282 383.234C433.159 365.338 443.238 345.464 449.693 324.543C450.305 322.098 447.014 320.783 445.884 323.21V323.203Z" fill="#F8F4F3"/>
<path d="M247.996 70.8662C302.898 70.8662 347.406 60.2902 347.406 47.2441C347.406 34.198 302.898 23.6221 247.996 23.6221C193.094 23.6221 148.587 34.198 148.587 47.2441C148.587 60.2902 193.094 70.8662 247.996 70.8662Z" fill="#6B3BA9"/>
<mask id="mask0_584_11345" style="mask-type:luminance" maskUnits="userSpaceOnUse" x="94" y="21" width="312" height="295">
<path d="M405.512 21.8838H94.4882V315.191H405.512V21.8838Z" fill="white"/>
</mask>
<g mask="url(#mask0_584_11345)">
<path d="M291.256 41.583C280.888 39.1657 274.12 56.5198 274.12 56.5198V87.1994C312.772 90.0257 312.38 79.5265 312.38 79.5265C349.439 79.1173 372.545 48.9336 372.545 48.9336C338.278 58.7015 301.608 44.0001 291.256 41.583Z" fill="#6B3BA9" stroke="#F8F4F3" stroke-width="5" stroke-linejoin="round"/>
<path d="M225.358 87.1858V56.5063C225.358 56.5063 218.579 39.1522 208.224 41.5693C197.87 43.9864 161.202 58.688 126.933 48.9201C126.933 48.9201 150.04 79.1038 187.1 79.5128C187.1 79.5128 186.708 89.9996 225.358 87.1858Z" fill="#6B3BA9" stroke="#F8F4F3" stroke-width="5" stroke-linejoin="round"/>
<path d="M244.26 51.4549V138.957C246.026 139.187 247.913 139.418 250 139.662C252.033 139.431 253.88 139.201 255.62 138.984V51.4549C261.134 49.1779 265.028 43.7157 265.028 37.3185C265.028 28.8881 258.283 22.0435 249.947 22.0435C241.61 22.0435 234.864 28.8746 234.864 37.3185C234.864 43.7157 238.76 49.1915 244.272 51.4549H244.26Z" fill="#F8F4F3"/>
<path d="M249.99 191.371V191.367C250.537 191.15 251.073 190.947 251.606 190.704C252.581 190.305 253.549 189.869 254.535 189.386C255.197 189.062 255.606 188.385 255.606 187.648V173.318C255.606 172.385 254.953 171.575 254.032 171.421C252.795 171.215 251.512 171.054 250.171 170.931C250.057 170.921 249.943 170.921 249.829 170.931C248.437 171.056 247.104 171.225 245.827 171.443C244.909 171.6 244.26 172.408 244.26 173.338V187.607C244.26 188.344 244.669 189.021 245.329 189.347C246.343 189.847 247.329 190.299 248.301 190.691C248.872 190.946 249.429 191.161 249.986 191.377C249.99 191.378 249.99 191.371 249.99 191.371Z" fill="#F8F4F3"/>
<path d="M255.386 253.823V253.819C255.467 253.772 255.528 253.724 255.587 253.667C255.6 253.655 255.606 253.638 255.606 253.618V251.835C255.606 251.092 255.193 250.405 254.502 250.136C253.876 249.892 253.1 249.634 252.195 249.405C251.614 249.25 251.006 249.104 250.388 248.966C250.114 248.905 249.833 248.907 249.559 248.966C248.959 249.1 248.378 249.236 247.833 249.392C246.821 249.648 245.982 249.929 245.319 250.199C244.652 250.47 244.26 251.142 244.26 251.862V253.134C244.26 253.405 244.384 253.665 244.606 253.823C245.866 254.677 247.514 255.51 249.307 256.368C249.746 256.577 250.256 256.579 250.693 256.37C252.482 255.52 254.118 254.679 255.388 253.827L255.386 253.823Z" fill="#F8F4F3"/>
<path d="M250.008 229.081C250.008 229.081 250.008 229.087 250.012 229.087C250.087 229.073 250.152 229.047 250.228 229.034C251.124 228.831 251.994 228.642 252.85 228.437C253.309 228.329 253.76 228.219 254.203 228.106C255.047 227.892 255.62 227.12 255.62 226.25V217.443C255.62 216.732 255.24 216.073 254.608 215.752C253.374 215.128 252.063 214.577 250.75 214.069C250.293 213.894 249.787 213.898 249.337 214.085C247.86 214.699 246.49 215.354 245.248 216.036C244.638 216.37 244.272 217.018 244.272 217.715V226.199C244.272 227.075 244.85 227.849 245.701 228.067C246.988 228.398 248.356 228.707 249.772 229.02C249.85 229.034 249.929 229.059 250.006 229.073C250.01 229.075 250.01 229.077 250.008 229.081Z" fill="#F8F4F3"/>
<path d="M274.783 216.388C273.659 213.325 271.774 210.614 269.016 208.012C268.533 207.579 268.053 207.171 267.557 206.766C264.748 208.242 262.018 209.49 259.421 210.464C258.939 210.655 258.417 210.844 257.923 211.022C261 212.675 263.823 214.898 265.604 218.232C265.858 218.707 266.059 219.207 266.232 219.709H266.219C266.219 219.709 266.26 219.817 266.274 219.872C266.313 219.98 266.352 220.088 266.394 220.197C266.553 220.752 266.661 221.321 266.701 221.905C266.795 223.043 266.673 224.236 266.352 225.388C266.327 225.455 266.299 225.537 266.285 225.604C266.207 225.89 266.073 226.173 265.965 226.445C265.872 226.689 265.805 226.947 265.683 227.191C265.63 227.327 265.563 227.474 265.482 227.596L265.323 227.868L265.27 227.962C265.161 228.126 265.041 228.275 264.921 228.423C263.703 230.051 262.325 231.189 260.612 232.016C260.532 232.057 260.439 232.083 260.344 232.124C259.943 232.301 259.541 232.49 259.1 232.64C258.15 232.978 257.146 233.262 256.116 233.533C255.955 233.575 255.807 233.614 255.648 233.655C255.634 233.655 255.62 233.655 255.594 233.669C254.295 233.994 252.931 234.307 251.526 234.618C251.512 234.618 251.486 234.618 251.472 234.618C250.99 234.726 250.508 234.835 250.028 234.943C248.167 235.364 246.28 235.811 244.313 236.38C244.313 236.38 244.313 236.38 244.285 236.38C241.904 237.098 239.335 238.02 236.752 239.781C236.591 239.89 236.445 239.984 236.283 240.094C235.587 240.594 234.906 241.205 234.289 241.882C233.754 242.453 233.26 243.061 232.831 243.699C232.724 243.862 232.616 244.051 232.51 244.228C231.801 245.407 231.238 246.789 230.864 248.335C230.77 248.848 230.596 249.797 230.53 250.624L230.463 252.346L230.502 253.01L230.555 253.864C230.622 254.366 230.717 254.88 230.823 255.368C231.037 256.344 231.291 256.968 231.693 257.89C233.031 260.695 235.132 262.512 236.992 263.799C239.067 262.212 241.276 260.925 243.482 259.773C242.774 259.38 242.091 258.974 241.463 258.553C240.406 257.835 238.545 256.372 237.915 254.624C237.915 254.61 237.862 254.461 237.848 254.447C237.823 254.352 237.782 254.23 237.742 254.067C237.648 253.756 237.622 253.403 237.581 253.01C237.581 252.888 237.569 252.793 237.555 252.671C237.555 252.618 237.555 252.549 237.555 252.496C237.555 252.399 237.555 252.305 237.555 252.211C237.555 252.183 237.555 252.155 237.555 252.144C237.555 252.061 237.555 251.994 237.555 251.925C237.555 251.695 237.594 251.451 237.648 251.207C237.689 250.909 237.728 250.665 237.781 250.449L237.823 250.258C237.848 250.096 237.89 249.947 237.943 249.783C238.398 248.443 238.961 247.588 239.951 246.748C240.163 246.573 240.364 246.396 240.62 246.207C241.463 245.638 242.533 245.122 243.738 244.675C243.911 244.606 244.112 244.539 244.299 244.47C244.982 244.228 245.691 243.996 246.441 243.807C247.565 243.496 248.77 243.238 250.028 242.98C250.817 242.817 251.593 242.669 252.409 242.506C253.467 242.303 254.549 242.1 255.648 241.87C257.575 241.476 259.541 241.016 261.642 240.364C262.177 240.203 262.726 239.998 263.289 239.795C264.252 239.443 265.256 239.01 266.274 238.466C267.116 238.02 267.959 237.504 268.789 236.882C269.217 236.569 269.632 236.23 270.047 235.864L271.024 234.903C271.372 234.523 271.719 234.063 272.041 233.628C272.348 233.236 272.455 233.045 272.563 232.884L273.339 231.583C274.156 230.023 274.758 228.52 275.199 226.947C275.854 224.642 275.988 222.067 275.64 219.681C275.467 218.516 275.199 217.378 274.797 216.36L274.783 216.388Z" fill="#F8F4F3"/>
<path d="M283.522 175.863C283.496 175.443 283.429 174.914 283.362 174.399C283.307 174.087 283.24 173.762 283.173 173.45C282.839 171.932 282.278 170.401 281.514 168.991C281.059 168.151 280.551 167.365 279.988 166.592C275.319 167.731 270.675 168.517 266.165 169.167C268.6 170.374 270.38 171.81 271.531 173.45C271.947 174.033 272.295 174.643 272.535 175.294C273.138 176.893 273.486 179.455 271.732 182.599C269.685 186.259 265.925 189.661 260.545 192.71C259.528 193.279 258.537 193.808 257.575 194.282C256.906 194.621 256.262 194.919 255.606 195.217C255.071 195.462 254.537 195.705 254.002 195.922C253.935 195.949 253.868 195.977 253.801 196.004C252.555 196.559 251.297 197.006 249.986 197.494C249.919 197.522 249.866 197.535 249.799 197.563C248.756 197.941 247.632 198.348 246.319 198.864C245.638 199.148 244.941 199.433 244.26 199.73C242.118 200.665 239.937 201.722 237.756 203.024C236.819 203.581 235.868 204.177 234.945 204.841C234.102 205.437 233.26 206.087 232.429 206.766C231.935 207.171 231.439 207.592 230.957 208.039C228.215 210.614 226.341 213.339 225.217 216.335C224.815 217.378 224.533 218.529 224.36 219.709C224.012 222.108 224.146 224.683 224.801 226.961C225.242 228.545 225.858 230.063 226.661 231.596L227.01 232.232C227.01 232.232 227.049 232.301 227.063 232.301L227.451 232.923C227.559 233.087 227.665 233.262 227.959 233.642C228.293 234.077 228.656 234.537 229.004 234.929L230.075 235.986C230.449 236.325 230.837 236.624 231.224 236.921C231.787 236.407 232.376 235.905 232.978 235.459C235.173 233.886 237.341 232.815 239.388 232.03C236.163 230.498 233.902 227.787 233.272 224.575C232.951 222.935 233.085 221.281 233.62 219.722C234.236 217.905 235.386 216.199 237.033 214.734C238.598 213.352 240.431 212.159 242.305 211.13C242.961 210.764 243.616 210.425 244.26 210.112C244.807 209.842 245.356 209.585 245.892 209.341C247.244 208.744 248.528 208.228 249.679 207.809C249.772 207.768 249.894 207.74 249.986 207.701C250.709 207.443 251.553 207.157 252.502 206.846C253.492 206.522 254.549 206.155 255.606 205.776C256.209 205.559 256.797 205.356 257.36 205.126C258.953 204.516 260.571 203.825 262.218 203.037C263.209 202.563 264.213 202.075 265.228 201.533C265.27 201.52 265.295 201.492 265.337 201.48C266.193 201.006 267.075 200.49 267.972 199.935C271.894 197.535 276.055 194.391 279.374 189.674C280.364 188.237 281.193 186.747 281.837 185.229C281.862 185.174 281.876 185.134 281.904 185.093C282.116 184.659 282.305 184.063 282.506 183.44C282.585 183.168 282.679 182.884 282.774 182.626C283 181.949 283.201 180.702 283.362 179.712C283.415 179.333 283.429 179.211 283.441 179.089C283.441 178.94 283.455 178.804 283.482 178.601L283.563 177.178C283.563 177.178 283.563 177.069 283.563 177.015L283.522 175.89V175.863Z" fill="#F8F4F3"/>
<path d="M222.085 156.725C224.762 154.801 227.665 153.242 231.224 151.792C231.988 151.494 232.791 151.236 233.595 150.952C225.11 149.352 218.364 147.306 213.52 144.852C212.785 144.473 212.075 144.08 211.406 143.673C209.224 142.331 207.539 140.841 206.709 139.499C206.441 139.092 206.173 138.618 205.972 138.089C205.852 137.845 205.772 137.588 205.719 137.303C205.665 136.951 205.665 136.652 205.679 136.368C205.679 136.368 205.679 136.192 205.679 136.178V135.568C205.679 135.406 205.693 135.256 205.705 135.107C205.705 135.067 205.705 135.04 205.705 135.012V134.877C205.76 134.497 205.839 134.158 205.961 133.874C206.106 133.223 206.335 132.519 206.656 131.963C206.709 131.881 206.762 131.787 206.817 131.705C207.152 131.244 207.512 130.919 207.967 130.675C208.931 130.106 210.402 129.835 211.461 129.754C211.835 129.727 212.262 129.713 212.705 129.713C213.575 129.713 214.431 129.781 215.274 129.876C219.783 135.785 228.095 137.168 230.878 137.52C234.142 137.94 245.959 133.603 237.407 121.432C232.014 113.774 224.226 114.519 219.167 116.132C218.74 116.065 218.297 116.01 217.829 115.956C215.957 115.753 212.878 115.563 209.921 115.888C206.963 116.254 203.03 117.068 199.161 120.171C197.315 121.649 195.709 123.682 194.625 125.864C193.635 127.856 192.993 130.079 192.645 132.641L192.43 135.053L192.578 138.17C192.644 138.753 192.752 139.621 192.859 139.973C192.885 140.054 192.912 140.136 192.926 140.231C193.166 141.369 193.568 142.535 194.103 143.687C194.705 145.015 195.468 146.343 196.392 147.563C199.803 152.063 204.02 154.516 208.061 156.481C211.327 157.986 214.685 159.179 218.085 160.141C219.276 158.935 220.612 157.796 222.112 156.725H222.085Z" fill="#F8F4F3"/>
<path d="M248.48 270.982C248.854 270.797 249.24 270.614 249.638 270.427C249.76 270.372 249.88 270.319 249.986 270.264C251.071 269.75 252.22 269.262 253.439 268.746C254.161 268.449 254.87 268.136 255.606 267.811C255.799 267.724 255.992 267.638 256.185 267.553C256.596 267.37 257.012 267.187 257.441 266.984C258.378 266.537 259.354 266.049 260.344 265.506C260.431 265.458 260.518 265.409 260.604 265.36C261.15 265.057 261.707 264.746 262.272 264.395C262.512 264.246 262.754 264.082 263.008 263.907C264.841 262.634 266.969 260.789 268.333 257.903C268.681 257.104 268.949 256.439 269.163 255.476C269.27 254.976 269.364 254.474 269.431 253.972L269.484 253.118L269.537 252.468L269.47 250.651C269.417 249.933 269.244 249.025 269.11 248.334C268.762 246.897 268.199 245.529 267.49 244.336C265.978 245.041 264.545 245.555 263.287 245.962C262.177 246.301 261.12 246.586 260.077 246.842C261.094 247.724 261.642 248.565 262.085 249.894C262.138 250.041 262.163 250.191 262.191 250.354L262.23 250.557C262.285 250.801 262.325 251.045 262.364 251.317C262.445 251.655 262.459 251.966 262.459 252.224V252.455C262.459 252.535 262.459 252.618 262.431 252.712L262.406 253.132L262.378 253.579C262.352 254 262.244 254.394 262.071 254.746C261.455 256.508 259.569 257.97 258.512 258.689C257.882 259.11 257.199 259.516 256.49 259.909C256.343 259.99 256.193 260.069 256.041 260.145C255.892 260.224 255.74 260.301 255.594 260.384C254.87 260.775 254.122 261.142 253.333 261.521C252.543 261.901 251.74 262.281 250.923 262.661L250.886 262.679C250.589 262.823 250.268 262.978 249.972 263.108C249.835 263.173 249.695 263.238 249.555 263.303C248.648 263.726 247.732 264.153 246.815 264.612C245.972 265.031 245.102 265.506 244.232 265.994C243.657 266.321 243.081 266.645 242.52 267.012C242.413 267.079 242.307 267.145 242.203 267.216L248.48 270.982Z" fill="#F8F4F3"/>
</g>
<path d="M307.374 132.559L307.561 134.403L307.494 134.43V134.498L307.522 134.985L307.374 138.171C307.307 138.767 307.201 139.675 307.093 140.027C307.081 140.109 307.053 140.19 307.039 140.271C306.585 142.399 305.581 144.636 304.203 146.682C304.002 146.994 303.815 147.306 303.587 147.604C300.161 152.131 295.947 154.57 291.972 156.522C288.679 158.04 285.293 159.246 281.896 160.209C280.811 160.52 279.726 160.791 278.644 161.062C277.465 161.347 276.287 161.618 275.11 161.862C271.657 162.581 268.246 163.123 264.9 163.611C262.116 164.004 259.065 164.343 255.587 164.681C253.967 164.83 252.254 164.993 250.419 165.142C250.26 165.142 250.126 165.183 249.978 165.183C249.028 165.251 248.104 165.346 247.195 165.467C246.177 165.603 245.201 165.766 244.238 165.942C242.632 166.24 241.079 166.606 239.594 167.04C238.831 167.27 238.069 167.487 237.346 167.758H237.333C237.293 167.772 237.266 167.799 237.226 167.799C236.691 167.988 236.128 168.219 235.567 168.463C235.433 168.517 235.311 168.585 235.177 168.639C234.803 168.802 234.455 168.978 234.081 169.168C234.028 169.195 233.986 169.222 233.933 169.249C233.785 169.317 233.652 169.385 233.506 169.466C231.431 170.604 229.504 172.014 228.419 173.505C225.77 177.151 226.854 180.254 229.089 183.724C231.03 186.801 234.711 189.999 239.447 192.751C240.478 193.334 241.455 193.849 242.417 194.337C239.112 195.76 235.553 197.535 232.02 199.974C228.073 197.563 223.937 194.418 220.632 189.728C219.628 188.278 218.799 186.774 218.156 185.269C218.13 185.215 218.116 185.174 218.089 185.12C217.876 184.686 217.687 184.104 217.5 183.48C217.407 183.196 217.327 182.924 217.232 182.653C217.006 181.989 216.805 180.756 216.63 179.685C216.577 179.36 216.563 179.238 216.563 179.102C216.563 178.953 216.537 178.818 216.537 178.709L216.443 177.191V177.151L216.484 176.012C216.524 175.497 216.591 174.982 216.644 174.521C216.697 174.183 216.778 173.844 216.844 173.505C217.193 171.96 217.742 170.442 218.49 169.046C218.945 168.205 219.467 167.406 220.03 166.647C220.659 165.779 221.368 164.966 222.157 164.18C222.974 163.38 223.884 162.608 224.888 161.849C225.061 161.713 225.234 161.591 225.409 161.456C227.711 159.802 230.226 158.447 233.344 157.186C236.677 155.858 240.356 154.855 244.291 154.15C245.923 153.866 247.596 153.608 249.323 153.432C249.563 153.405 249.791 153.378 250.031 153.35C252.053 153.12 253.913 152.89 255.64 152.673L255.854 152.645C257.313 152.452 258.687 152.27 259.988 152.076C261.087 151.914 262.144 151.751 263.187 151.575C264.297 151.385 265.382 151.196 266.439 150.992C274.909 149.406 281.654 147.36 286.498 144.907C287.248 144.527 287.943 144.121 288.612 143.714C290.793 142.359 292.48 140.881 293.27 139.594C293.551 139.146 293.833 138.672 294.031 138.143C294.165 137.872 294.26 137.56 294.313 137.235C294.313 137.1 294.341 136.761 294.313 136.409V134.985C294.287 134.511 294.193 134.104 294.031 133.766C293.9 133.169 293.685 132.519 293.376 131.99C293.323 131.895 293.256 131.8 293.203 131.719C292.854 131.245 292.494 130.919 292.039 130.675C291.075 130.106 289.616 129.835 288.598 129.767C287.341 129.672 286.004 129.74 284.746 129.889C280.236 135.799 271.939 137.181 269.142 137.534C265.89 137.954 254.073 133.616 262.624 121.445C268.004 113.774 275.805 114.533 280.85 116.146C281.28 116.092 281.707 116.024 282.175 115.97C284.077 115.753 287.207 115.577 290.057 115.888C293.055 116.254 296.99 117.067 300.858 120.171C302.705 121.649 304.309 123.682 305.394 125.864C306.384 127.856 307.026 130.079 307.374 132.559Z" fill="#F8F4F3"/>
<path d="M128.222 366.457H101.647L106.569 355.729V304.351L98.7931 295.099H125.269L120.447 305.827V327.185H150.762V304.351L142.986 295.099H169.462L164.64 305.827V357.205L172.415 366.457H145.939L150.762 355.729V332.697H120.447V357.205L128.222 366.457ZM208.169 366.457H181.595L186.516 355.729V304.351L178.741 295.099H205.217L200.394 305.827V357.205L208.169 366.457ZM243.904 366.457H217.329L222.25 355.729V304.351L214.474 295.099H245.085C263.293 295.099 273.628 302.579 273.628 315.768C273.628 330.729 260.242 339.292 236.128 339.488V357.205L243.904 366.457ZM242.821 300.512H236.128V334.37C251.778 333.977 259.159 328.071 259.159 316.654C259.159 306.319 253.254 300.512 242.821 300.512ZM291.866 366.457H273.264L278.087 355.433L295.606 307.106L289.11 295.099H307.22L328.382 356.122L336.846 366.457H308.992L313.52 356.516L310.665 348.544H286.354L283.5 356.516L291.866 366.457ZM298.559 314.292L288.323 343.13H308.795L298.559 314.292ZM358.74 366.457H340.138L344.961 355.433L362.48 307.106L355.984 295.099H374.094L395.256 356.122L403.72 366.457H375.866L380.394 356.516L377.539 348.544H353.228L350.374 356.516L358.74 366.457ZM365.433 314.292L355.197 343.13H375.669L365.433 314.292Z" fill="white"/>
</g>
<defs>
<clipPath id="clip0_584_11345">
<rect width="500" height="500" fill="white"/>
</clipPath>
</defs>
</svg>
