<svg width="500" height="500" viewBox="0 0 500 500" fill="none" xmlns="http://www.w3.org/2000/svg">
<g clip-path="url(#clip0_578_10877)">
<rect width="500" height="500" rx="250" fill="#6B3BA9"/>
<path fill-rule="evenodd" clip-rule="evenodd" d="M257.564 0C260.913 0.60369 264.247 1.31813 267.614 1.7914C279.382 3.44417 291.279 4.42929 302.914 6.72676C333.297 12.7267 361.294 24.7546 387.16 41.6095C417.697 61.5099 442.763 86.8215 462.231 117.563C474.136 136.366 483.333 156.425 489.889 177.646C492.016 184.531 493.494 191.617 495.176 198.633C496.454 203.96 497.878 209.279 498.7 214.682C499.485 219.855 499.577 225.132 500 230.728C480.539 230.728 460.576 230.728 440.941 230.728C438.756 220.247 437.085 209.722 434.332 199.484C425.05 164.963 406.861 135.629 380.743 111.18C353.311 85.4976 320.947 69.0142 283.89 62.6238C233.133 53.8703 185.93 63.7311 143.341 92.7649C101.47 121.309 75.3146 160.7 64.1311 209.89C62.8018 215.739 61.8809 221.707 61.2348 227.671C60.9113 230.65 59.6761 231.126 57.057 231.112C39.5941 231.014 22.1287 230.926 4.66828 231.136C0.549067 231.186 -0.481549 229.629 0.188483 226.067C3.05757 210.821 4.90922 195.295 9.03503 180.391C16.7833 152.402 30.0503 126.838 47.1963 103.313C63.2895 81.2332 82.5875 62.4245 104.977 46.6244C124.391 32.9241 145.301 22.307 167.752 14.5558C184.776 8.67889 202.308 4.98702 220.121 2.60753C225.826 1.84553 231.646 1.97432 237.397 1.49858C238.925 1.37227 240.392 0.519206 241.888 0C247.113 0 252.338 0 257.564 0ZM221.764 37.0982C222.282 37.9439 222.528 38.3967 222.822 38.8158C223.7 40.0634 224.598 41.2962 225.487 42.5356C225.952 40.973 226.493 39.4261 226.845 37.8381C226.983 37.2123 226.714 36.4905 226.604 35.8171C226.085 32.6255 227.116 30.4921 231.585 29.8663C232.104 32.9143 232.532 36.0204 233.218 39.0701C233.403 39.8928 234.37 40.5416 234.978 41.2708C235.616 40.5432 236.655 39.8911 236.81 39.0742C237.108 37.4903 236.942 35.8138 236.911 34.1774C236.828 29.854 234.842 27.1784 231.42 26.7223C227.477 26.1966 222.467 28.599 221.404 31.524C211.214 27.7927 206.668 28.4465 207.293 33.5508C209.821 33.0652 212.367 32.5763 214.914 32.0891C215.004 32.4902 215.095 32.8921 215.185 33.294C213.067 34.3677 210.616 35.0846 208.943 36.6323C207.709 37.7749 206.947 40.0273 207.025 41.7375C207.072 42.7537 209.194 44.5296 210.314 44.4787C213.347 44.3401 216.454 43.697 219.285 42.6143C220.135 42.2895 220.14 39.8526 220.603 38.4057C220.711 38.0677 221.107 37.82 221.764 37.0982ZM465.942 205.609C466.468 205.586 466.993 205.563 467.519 205.54C467.519 206.852 467.366 208.189 467.574 209.467C467.702 210.249 468.382 210.942 468.812 211.675C469.55 211.197 470.953 210.656 470.912 210.255C470.684 207.936 470.561 205.404 469.479 203.451C468.89 202.388 465.91 201.448 465.007 202.017C463.578 202.92 462.884 205.087 462.074 206.811C461.525 207.98 461.311 209.305 460.948 210.56C460.606 210.522 460.264 210.484 459.923 210.447C459.019 206.721 458.116 202.995 457.111 198.846C459.602 198.037 462.139 197.212 464.053 196.59C465.847 198.095 467.097 199.142 467.779 199.714C469.329 197.58 470.597 196.298 471.236 194.758C471.554 193.994 470.695 191.863 470.406 191.87C467.366 191.948 466.96 190.083 466.503 187.7C465.087 180.327 464.945 180.322 457.765 182.428C456.714 182.737 455.514 182.724 454.586 183.229C453.094 184.04 451.773 185.16 450.379 186.148C452.106 186.349 453.832 186.554 455.559 186.744C455.682 186.758 455.818 186.66 455.949 186.621C461.816 184.824 463.882 186.391 463.916 192.774C461.486 193.544 459.027 194.339 456.558 195.104C453.111 196.172 452.703 198.398 453.75 201.524C454.399 203.46 454.712 205.57 454.789 207.616C454.907 210.71 457.535 214.179 460.309 214.289C463.9 214.432 464.936 211.998 465.393 209.063C465.574 207.911 465.759 206.76 465.942 205.609ZM164.581 35.7375C157.828 35.6948 152.545 40.5826 152.426 46.9829C152.309 53.2929 157.755 59.1854 163.754 59.2371C170.787 59.2986 176.566 53.8383 176.674 47.0304C176.769 40.9796 171.202 35.7801 164.581 35.7375ZM191.515 51.8173C192.226 52.996 192.499 54.0007 193.158 54.451C197.457 57.3916 205.425 53.8465 205.548 48.6799C205.631 45.2111 204.63 41.694 203.924 38.2376C203.493 36.1214 203.294 33.3547 201.893 32.2261C200.742 31.2984 197.973 32.3589 195.92 32.5287C195.51 32.5632 195.091 32.5173 194.685 32.5747C189.656 33.2793 186.938 37.6043 188.174 42.9137C189.093 46.8565 194.201 49.4591 198.376 48.0623C199.484 47.6915 200.528 47.1289 201.681 46.6195C201.889 51.1931 201.889 51.1931 191.515 51.8173ZM435.273 127.491C439.373 127.411 442.581 124.66 441.651 121.566C440.596 118.057 438.242 114.916 436.297 111.707C436.076 111.343 434.618 111.25 434.125 111.591C429.064 115.092 424.052 118.669 419.127 122.355C418.609 122.743 418.733 123.976 418.559 124.817C419.424 124.906 420.411 125.3 421.128 125.017C422.379 124.523 423.405 123.492 424.635 122.917C425.63 122.454 426.786 122.333 427.871 122.059C427.797 123.035 427.913 124.073 427.611 124.973C426.962 126.903 425.863 128.705 425.404 130.664C425.089 132.013 425.542 133.539 425.652 134.985C426.807 134.062 428.687 133.326 428.987 132.181C429.977 128.41 430.67 124.877 435.273 127.491ZM43.5574 214.33C43.8949 214.061 44.2323 213.793 44.5698 213.525C43.7529 212.332 42.9484 211.13 42.115 209.948C41.4573 209.015 40.0397 207.94 40.2072 207.213C41.0909 203.385 40.0554 198.279 46.1682 197.436C46.9282 197.331 47.4752 195.7 48.1213 194.775C47.1831 194.464 46.1756 193.755 45.3174 193.903C39.2393 194.949 33.1793 196.111 27.1465 197.39C26.054 197.622 24.5423 198.375 24.27 199.22C24.0249 199.983 24.9631 201.525 25.8073 202.166C31.0355 206.14 36.3743 209.969 41.7106 213.799C42.2008 214.148 42.9369 214.161 43.5574 214.33ZM437.519 155.03C437.806 156.281 437.954 157.087 438.176 157.871C439.233 161.594 441.865 163.556 445.59 163.963C449.176 164.354 451.529 162.3 453.251 159.45C455.263 156.121 452.604 147.692 449.059 146.211C448.534 145.99 447.7 146.169 447.132 146.432C441.794 148.901 436.459 151.38 431.195 154C430.569 154.312 430.373 155.474 429.976 156.242C430.888 156.53 431.892 157.209 432.692 157.022C434.259 156.657 435.712 155.81 437.519 155.03ZM109.376 87.3325C103.217 83.0894 99.9638 82.854 96.0698 86.7706C94.3849 88.466 91.7641 91.9643 92.2691 92.6353C95.0045 96.2714 98.5849 99.2791 101.875 102.503C102.364 102.111 102.854 101.718 103.343 101.326C102.747 100.149 102.296 98.8649 101.519 97.8208C100.47 96.41 98.4711 95.3297 98.1542 93.8393C97.7532 91.9512 98.632 89.794 98.9596 87.7533C100.314 88.0042 101.754 88.0469 103.007 88.5497C105.545 89.5676 107.903 91.0661 110.483 91.9364C113.378 92.9133 114.44 91.5501 113.877 88.5325C113.555 86.8092 113.888 84.971 113.854 83.1862C113.839 82.4275 113.91 81.417 113.476 80.9626C111.933 79.3508 110.189 77.9302 108.234 76.179C105.034 80.4967 109.905 83.4446 109.376 87.3325ZM63.5906 153.336C64.0849 153.131 64.5784 152.924 65.0718 152.717C64.915 151.634 65.146 150.197 64.5321 149.528C62.2357 147.029 63.4528 144.913 64.6155 142.485C66.0867 139.411 67.7775 137.212 71.7127 137.911C72.4529 138.042 73.4109 136.965 74.2682 136.444C73.5734 135.777 72.9406 134.617 72.1723 134.521C65.9217 133.738 59.6522 133.089 53.3735 132.571C52.3156 132.484 50.3171 133.129 50.2659 133.598C50.1388 134.765 50.6215 136.208 51.3271 137.216C54.0633 141.13 56.9613 144.933 59.8436 148.744C61.0351 150.319 62.3388 151.808 63.5906 153.336ZM98.1748 100.833C95.7175 99.4571 94.148 98.3539 92.4144 97.651C87.7902 95.7768 83.9961 97.4443 82.066 102.015C80.4206 105.914 82.4423 110.289 86.6836 112.009C90.9571 113.742 95.0095 112.147 96.6863 107.687C97.202 106.314 96.6037 104.527 96.5154 102.93C95.611 104.118 94.7133 105.312 93.7949 106.489C93.6529 106.672 93.4112 106.777 93.2148 106.915C91.6585 103.048 92.3195 102.054 98.1748 100.833ZM133.557 70.9475C132.341 72.4879 131.709 73.7659 130.681 74.4737C129.348 75.3907 127.05 76.8089 126.319 76.3168C124.71 75.2365 123.19 73.195 122.887 71.3437C122.711 70.2659 124.954 68.792 126.118 67.5042C126.883 66.6585 127.664 65.8277 128.438 64.991C127.237 64.7384 125.889 64.0043 124.859 64.3151C118.809 66.1377 117.445 70.7384 121.035 77.5971C118.714 76.1544 116.751 74.7878 114.64 73.7035C113.942 73.345 112.806 73.5477 111.991 73.8331C111.658 73.9496 111.302 75.2489 111.538 75.5343C114.493 79.1064 117.555 82.5924 120.59 86.1013C121.029 85.8495 121.468 85.5985 121.906 85.3475C121.472 83.6849 121.038 82.0215 120.364 79.4451C123.679 79.4451 126.943 80.0488 129.852 79.2959C133.715 78.2952 135.001 75.2119 133.557 70.9475ZM40.4762 163.337C40.1494 162.831 39.8235 162.325 39.4967 161.818C38.0032 162.599 36.1688 163.062 35.0771 164.217C30.9703 168.563 31.0628 174.992 35.0202 179.011C39.6403 183.704 47.1064 184.783 51.4368 181.041C54.7515 178.177 56.9539 174.497 55.8003 169.88C55.5189 168.754 54.0262 167.927 53.0896 166.963C52.7678 168.115 51.988 169.363 52.2059 170.404C53.0343 174.356 51.4773 177.14 48.156 178.884C45.0625 180.509 39.2319 178.86 37.2597 176.161C35.2785 173.449 35.6317 169.111 38.0222 166.37C38.8779 165.391 39.6609 164.35 40.4762 163.337ZM76.2065 126.092C81.2103 126.668 84.6256 124.5 86.0293 120.873C87.418 117.283 86.328 114.458 83.1965 112.391C79.678 110.07 77.1712 112.608 74.2352 114.038C72.8027 114.736 70.6128 113.896 68.7661 113.753C69.3173 112.171 69.7537 110.537 70.4543 109.023C71.0509 107.734 71.9495 106.582 72.7144 105.371C71.1747 105.784 69.5302 105.989 68.1323 106.684C67.242 107.127 66.6083 108.233 66.0504 109.156C64.396 111.89 63.6311 114.549 66.2625 117.318C68.785 119.972 71.527 119.907 74.472 118.489C75.8113 117.843 76.9022 116.657 78.2645 116.102C79.2506 115.701 80.8052 115.496 81.5454 116.007C82.3119 116.535 82.9943 118.288 82.6618 119.052C82.0099 120.546 80.6715 121.766 79.5303 123.021C78.7315 123.898 77.7884 124.645 76.2065 126.092ZM51.3807 158.455C52.3635 156.26 53.357 154.719 53.7415 153.04C54.5114 149.682 53.7415 146.769 50.2494 145.206C47.0486 143.774 44.6061 145.081 42.7669 147.623C41.6611 149.151 40.9985 150.989 40.0091 152.611C38.5519 155 38.9893 156.601 41.624 157.785C46.4892 159.97 51.2553 162.377 56.1427 164.508C57.0124 164.887 58.2725 164.383 59.3518 164.287C58.7205 163.283 58.3154 161.935 57.4102 161.352C55.6154 160.195 53.5443 159.46 51.3807 158.455ZM352.097 62.395C351.906 61.7683 351.715 61.1425 351.525 60.515C350.071 60.515 348.616 60.57 347.164 60.5052C342.835 60.3108 340.73 58.4653 339.867 54.1787C339.119 50.4705 341.205 46.2529 344.6 44.6116C347.998 42.9678 351.264 43.9709 354.023 47.2125C354.747 48.0631 356.076 48.4043 357.128 48.9785C356.927 47.6374 357.163 45.9772 356.448 45.0102C353.228 40.6482 347.487 39.3194 342.861 41.5685C337.96 43.9521 334.595 50.888 336.015 55.6855C337.39 60.3337 343.551 64.6449 348.407 64.1068C349.684 63.9649 350.869 62.9888 352.097 62.395ZM432.919 139.094C433.525 138.779 434.131 138.463 434.735 138.148C436.179 140.364 437.471 142.705 439.15 144.728C439.757 145.461 442.115 145.931 442.268 145.677C443.535 143.59 445.28 141.321 445.326 139.078C445.4 135.293 442.052 132.592 438.364 132.378C434.427 132.149 430.572 134.859 429.71 138.465C428.824 142.172 430.662 146.151 434.153 147.583C434.98 147.923 436.129 147.488 437.13 147.409C436.788 146.424 436.564 145.375 436.08 144.465C435.103 142.635 433.981 140.88 432.919 139.094ZM137.791 68.0972C137.604 67.7388 137.418 67.382 137.231 67.0244C138.682 66.1377 140.292 65.4266 141.543 64.3168C142.928 63.0881 143.985 61.4936 145.186 60.059C142.963 58.7483 140.818 56.5336 138.498 56.3351C134.763 56.016 131.347 60.1295 131.2 63.8427C131.07 67.1359 134.154 70.9722 137.66 71.8818C141.361 72.8415 145.257 70.9968 146.722 67.3008C147.057 66.4584 146.383 65.2207 146.174 64.1651C145.336 64.6424 144.041 64.9271 143.74 65.63C142.451 68.6501 140.088 68.1686 137.791 68.0972ZM269.515 29.8884C269.488 30.4404 269.463 30.9916 269.436 31.5428C267.589 31.7249 265.714 31.7659 263.9 32.1194C260.857 32.7141 259.411 34.713 259.838 37.7545C260.235 40.5785 262.035 41.9269 264.941 42.0647C273.187 42.4576 273.539 42.164 273.459 34.0183C273.454 33.4728 273.402 32.9249 273.427 32.3811C273.667 27.203 268.387 24.7415 263.26 26.9446C262.6 27.2284 262.308 28.3579 261.845 29.0953C262.642 29.3594 263.428 29.7982 264.24 29.8531C265.991 29.9696 267.756 29.8884 269.515 29.8884ZM453.536 164.337C449.08 164.281 444.947 167.859 444.814 171.887C444.67 176.244 448.975 180.681 453.349 180.685C457.557 180.688 461.312 177.114 461.408 173.02C461.517 168.211 458.056 164.394 453.536 164.337ZM301.361 31.6642C296.742 31.6503 293.254 35.3577 293.361 40.1675C293.452 44.2293 297.552 47.7727 302.079 47.7022C306.142 47.6382 309.801 43.8791 309.855 39.7132C309.914 35.0977 306.307 31.679 301.361 31.6642ZM413.781 98.5581C413.732 93.8918 410.335 90.6675 405.578 90.77C401.256 90.8635 397.599 94.667 397.646 99.0208C397.69 103.035 401.843 106.947 406.102 106.987C410.328 107.025 413.829 103.183 413.781 98.5581ZM370.07 64.4185C370.143 60.0967 366.131 55.9701 361.799 55.9127C357.95 55.8619 353.78 60.0836 353.602 64.2094C353.421 68.4557 357.473 72.2082 362.244 72.2123C366.502 72.2164 369.997 68.7354 370.07 64.4185ZM311.252 50.1489C311.729 50.185 312.207 50.2203 312.684 50.2564C313.824 47.7038 315.144 45.2128 316.051 42.5799C316.911 40.0798 318.746 39.6697 320.519 40.6704C321.418 41.1773 321.908 43.2697 321.758 44.55C321.511 46.6794 320.469 48.7045 320.038 50.8289C319.89 51.5589 320.573 52.453 320.876 53.2724C321.595 52.8032 322.66 52.4915 322.965 51.8329C323.76 50.1112 324.228 48.2402 324.816 46.4243C326.512 41.1863 325.516 38.3073 321.583 37.0613C314.96 34.9632 314.561 35.1477 312.323 41.5382C311.739 43.2032 311.038 44.865 310.762 46.5867C310.582 47.7202 311.066 48.9571 311.252 50.1489ZM375.288 63.9723C372.867 67.4148 370.42 70.7622 368.165 74.235C367.786 74.819 368.247 75.9428 368.32 76.8163C369.218 76.4808 370.355 76.3799 370.965 75.7631C372.584 74.1251 373.758 71.9835 375.547 70.6047C376.509 69.8632 378.868 69.6753 379.687 70.343C380.469 70.9787 380.583 73.2746 380.069 74.4385C379.205 76.3939 377.477 77.954 376.395 79.8405C375.977 80.5664 376.332 81.7295 376.334 82.6924C377.18 82.4661 378.377 82.5128 378.811 81.9641C380.587 79.7175 382.516 77.4585 383.664 74.8846C385.025 71.8276 384.181 68.997 380.932 67.2581C379.285 66.378 377.701 65.3839 375.288 63.9723ZM253.687 29.028C251.15 32.1563 249.082 34.6818 247.042 37.2278C245.397 39.2817 245.634 40.8844 248.467 41.1469C251.183 41.3996 253.948 41.3233 256.675 41.1469C257.319 41.1051 257.899 40.0863 258.509 39.5179C257.788 39.0816 257.1 38.3548 256.339 38.2679C254.667 38.0768 252.957 38.2088 250.94 38.2088C253.791 34.2012 256.294 30.6799 259.009 26.8642C251.86 25.0318 247.64 25.7052 246.686 28.7155C248.88 28.8131 250.982 28.9066 253.687 29.028ZM286.506 31.0728C284.748 28.6884 283.255 26.5583 281.608 24.5545C281.393 24.2936 280.185 24.4552 279.775 24.8087C278.264 26.1104 276.895 27.5753 275.224 29.2248C279.076 30.4371 278.204 33.2251 277.645 36.0492C277.361 37.4846 277.346 39.0438 277.569 40.4915C277.985 43.1835 279.961 43.9981 282.422 43.7077C283.109 43.6257 283.725 42.9498 284.373 42.547C283.977 41.9442 283.686 40.9337 283.171 40.8049C280.424 40.1134 280.853 38.1301 281.135 36.2403C281.369 34.6655 281.784 33.1168 282.095 31.67C283.716 31.4501 285.019 31.2738 286.506 31.0728ZM391.049 79.5747C392.395 80.0324 393.568 80.4311 394.536 80.7592C394.722 78.2099 395.009 76.0461 394.936 73.8938C394.92 73.4058 393.558 72.4724 392.983 72.5847C391.135 72.9473 389.366 73.7035 387.063 74.4778C389.743 77.5709 387.039 79.7068 385.105 82.0633C384.586 82.6949 383.8 83.251 383.603 83.9687C383.234 85.318 382.609 87.0987 383.176 88.0789C383.944 89.4044 385.736 90.145 387.087 91.1367C387.682 91.0014 388.278 90.866 388.873 90.7315C384.12 85.4459 388.491 82.9311 391.049 79.5747ZM30.1361 183.082C29.542 183.414 28.6896 183.892 27.8372 184.368C28.3092 185.074 28.6425 186.224 29.2738 186.42C35.2908 188.278 41.3459 190.023 47.4315 191.649C48.08 191.823 48.9885 191.033 49.7758 190.691C49.3021 189.968 48.9729 188.798 48.3317 188.592C42.4698 186.712 36.5534 184.999 30.1361 183.082ZM427.048 97.2983C426.646 97.0071 426.244 96.7159 425.841 96.4248C420.55 100.853 415.207 105.226 410.023 109.776C409.282 110.426 409.301 111.934 408.968 113.043C410.041 112.744 411.359 112.741 412.146 112.097C416.795 108.29 421.369 104.39 425.837 100.377C426.572 99.7155 426.66 98.3425 427.048 97.2983ZM182.6 52.4538C183.168 52.2873 183.738 52.12 184.306 51.9535C183.953 49.9529 183.686 47.9319 183.225 45.9551C182.568 43.1352 181.534 40.334 185.064 38.4869C185.517 38.249 185.503 37.1278 185.706 36.4158C184.968 36.2231 184.113 35.6916 183.512 35.8966C181.376 36.6258 179.325 37.606 176.835 38.6641C179.263 43.2147 178.718 48.7627 182.6 52.4538ZM397.615 81.7664C394.972 84.8357 392.116 88.0649 389.412 91.4131C389.097 91.8011 389.62 92.8559 389.755 93.6007C390.48 93.4186 391.346 93.4235 391.897 93.0118C392.76 92.3687 393.504 91.5099 394.132 90.6257C396.063 87.9116 398.191 86.1735 401.732 88.1387C402.283 88.4439 403.359 87.8148 404.19 87.6179C403.806 86.7354 403.656 85.5567 402.987 85.0293C401.533 83.881 399.813 83.0648 397.615 81.7664ZM291.877 31.98C291.508 31.2828 290.99 30.3059 290.472 29.3282C289.686 30.2403 288.473 31.0409 288.196 32.0858C287.395 35.1043 286.832 38.2064 286.483 41.3093C286.373 42.2838 287.238 43.3656 287.655 44.3991C288.452 43.6412 289.731 43.0047 289.96 42.1041C290.764 38.9438 291.208 35.694 291.877 31.98ZM243.737 34.8082C243.796 34.8016 243.856 34.795 243.915 34.7885C243.665 32.6304 243.535 30.4478 243.096 28.3284C242.949 27.6123 242.02 27.0553 241.449 26.4262C240.853 27.0504 239.75 27.6681 239.742 28.2988C239.694 31.9718 239.818 35.6547 240.109 39.3162C240.159 39.9494 241.272 40.9353 241.922 40.9574C242.506 40.9771 243.527 39.9715 243.654 39.2891C243.924 37.8397 243.737 36.3075 243.737 34.8082Z" fill="#6B3BA9"/>
<path fill-rule="evenodd" clip-rule="evenodd" d="M499.838 279.637C493.896 328.873 475.292 372.42 443.597 410.051C402.048 459.379 348.889 490.237 284.712 497.885C201.435 507.811 128.302 484.173 68.9747 423.519C29.7564 383.424 7.36641 335.285 0.0810547 279.287C3.07309 279.287 5.35877 279.29 7.64365 279.286C24.42 279.256 41.1973 279.314 57.972 279.121C61.6431 279.079 63.1012 280.032 63.8174 283.9C78.4277 362.701 142.263 424.566 222.514 435.533C296.077 445.585 356.277 420.219 402.32 362.544C420.905 339.262 432.069 312.259 437.523 283.014C438.031 280.293 438.859 279.088 441.951 279.117C459.964 279.288 477.977 279.221 495.99 279.257C497.043 279.26 498.096 279.459 499.838 279.637ZM337.19 451.669C337.654 451.28 338.118 450.892 338.582 450.503C341.428 452.398 344.371 454.165 347.094 456.22C349.783 458.248 351.917 458.001 354.303 455.199C351.017 452.893 347.965 450.753 344.961 448.646C345.332 447.89 345.452 447.477 345.7 447.168C348.268 443.985 347.834 440.841 345.489 437.817C343.157 434.808 340.053 435 336.901 436.154C334.202 437.14 331.593 438.375 328.908 439.406C326.805 440.214 326.262 441.308 327.312 443.478C330.108 449.25 332.598 455.17 335.453 460.912C335.996 462.003 337.871 463.399 338.755 463.177C340.985 462.616 340.744 460.834 339.857 458.923C338.776 456.592 338.062 454.094 337.19 451.669ZM112.084 434.996C114.386 432.248 116.238 429.475 118.68 427.378C119.754 426.457 122.027 426.917 123.756 426.75C123.835 428.228 124.436 429.949 123.878 431.128C122.907 433.178 121.312 434.97 119.814 436.73C117.322 439.659 118.753 440.909 121.806 441.854C124.129 438.819 126.623 436.053 128.543 432.938C131.394 428.312 129.155 423.794 123.827 422.816C122.92 422.649 121.989 422.605 121.046 422.503C120.313 418.958 118.44 416.74 114.968 415.868C114.07 415.642 113.042 414.832 112.621 414.012C111.117 411.089 109.678 411.767 108.069 413.826C105.798 416.736 103.57 419.683 101.22 422.529C98.9742 425.247 100.264 426.522 103.092 427.581C105.297 425.009 107.176 422.241 109.658 420.194C110.715 419.323 113.033 419.961 114.777 419.912C114.723 421.456 115.201 423.311 114.508 424.48C112.939 427.128 110.793 429.436 108.702 432.112C109.97 433.194 110.952 434.031 112.084 434.996ZM218.11 478.516C221.457 479.802 223.544 479.557 224.551 476.717C225.774 473.264 228.597 474.017 231.109 474.207C233.835 474.413 237.191 473.598 238.118 477.569C238.951 481.136 241.291 481.414 244.764 480.496C241.769 472.217 239.017 464.11 235.86 456.162C234.841 453.594 231.664 453.985 230.064 456.727C227.31 461.449 224.671 466.237 222.03 471.023C220.738 473.362 219.548 475.758 218.11 478.516ZM319.453 463.011C318.076 459.227 317.089 455.239 315.225 451.709C312.843 447.197 309.388 446.17 304.446 447.566C300.509 448.677 297.909 451.974 298.43 456.601C298.862 460.438 299.888 464.377 301.516 467.872C303.745 472.657 307.255 473.929 311.969 472.72C316.433 471.579 318.698 468.408 319.453 463.011ZM380.307 438.776C381.176 438.447 381.644 438.228 382.136 438.089C386.82 436.771 389.374 433.997 389.563 430.004C389.738 426.313 386.802 421.778 383.474 420.597C379.537 419.202 375.626 420.682 372.706 424.399C371.865 425.469 370.316 425.971 369.404 427.006C368.663 427.847 367.67 429.592 368.018 430.09C372.067 435.896 376.298 441.583 380.643 447.176C381.15 447.829 382.629 447.737 383.657 447.99C383.874 446.848 384.603 445.472 384.204 444.614C383.305 442.679 381.846 441.001 380.307 438.776ZM427.295 389.619C425.335 393.75 422.977 392.891 420.463 390.613C419.965 390.16 419.235 389.961 418.732 389.513C417.398 388.326 415.776 387.254 417.999 385.258C418.504 384.805 417.989 383.23 417.945 382.172C416.998 382.352 416.045 382.51 415.105 382.719C413.908 382.984 412.734 383.378 411.525 383.556C410.373 383.724 409.192 383.685 408.022 383.738C408.175 384.91 407.902 386.485 408.564 387.174C410.306 388.989 409.723 390.152 408.226 391.632C405.97 393.862 403.774 396.17 401.768 398.621C401.258 399.244 401.107 400.994 401.564 401.43C405.276 404.982 409.173 408.345 412.958 411.717C415.895 409.636 416.069 407.879 413.558 405.893C412.06 404.707 410.545 403.457 409.357 401.981C406.511 398.447 409.261 395.985 411.262 393.404C413.409 390.637 415.115 392.106 417.001 393.796C418.421 395.069 419.986 396.245 421.654 397.166C424.424 398.697 426.388 397.084 427.983 395.03C429.241 393.406 430.505 391.609 427.295 389.619ZM253.53 481.397C259.949 481.526 263.573 479.131 264.56 474.798C265.427 470.997 263.616 467.986 259.335 466.282C257.818 465.679 256.057 465.525 254.717 464.681C253.639 464.002 253.025 462.592 252.206 461.507C253.457 460.639 254.608 459.358 255.989 459.03C257.159 458.752 258.627 459.924 259.903 459.808C261.039 459.703 262.093 458.712 263.184 458.113C262.613 457.228 262.231 455.84 261.437 455.542C257.526 454.082 253.561 454.232 250.021 456.587C245.312 459.721 245.733 465.995 250.767 468.531C252.337 469.322 254.328 469.435 255.696 470.437C257.117 471.478 258.016 473.22 259.143 474.655C257.279 475.408 255.465 476.389 253.529 476.809C252.662 476.996 251.525 475.667 250.554 475.727C249.353 475.8 248.196 476.598 247.019 477.084C247.665 478.129 248.07 479.641 249.009 480.118C250.664 480.96 252.643 481.169 253.53 481.397ZM207.6 478.113C212.257 477.655 215.442 475.689 216.564 472.142C217.776 468.311 216.575 465.666 212.36 463.004C211.204 462.273 209.751 461.852 208.87 460.893C208.005 459.951 206.949 458.154 207.325 457.371C207.789 456.404 209.61 455.726 210.906 455.614C211.981 455.52 213.126 456.741 214.273 456.808C215.633 456.887 217.029 456.352 218.41 456.084C217.786 454.963 217.322 453.021 216.51 452.864C213.126 452.214 209.487 451.385 206.25 452.066C204.385 452.459 202.215 455.455 201.835 457.572C201.492 459.475 203.04 462.066 204.432 463.821C205.634 465.337 207.939 465.933 209.469 467.262C210.469 468.129 210.957 469.577 211.674 470.765C210.217 471.566 208.784 472.936 207.295 472.999C205.89 473.058 204.489 471.488 202.968 471.106C201.776 470.808 200.402 471.228 199.109 471.329C199.359 472.467 199.239 474.226 199.925 474.629C202.333 476.045 205.02 476.991 207.6 478.113ZM63.503 382.998C65.3308 381.763 67.0957 380.717 68.69 379.457C70.9707 377.654 72.5749 378.086 73.9851 380.525C74.9398 382.177 75.9918 383.821 77.2832 385.208C77.8047 385.769 79.3503 386.063 79.9337 385.698C80.4931 385.346 80.862 383.752 80.5269 383.109C79.4625 381.062 77.7247 379.327 76.8698 377.222C76.4333 376.146 76.9136 374.195 77.7123 373.252C78.9624 371.775 80.7035 371.401 82.0733 373.59C83.3036 375.554 84.5661 377.548 86.1405 379.226C86.8435 379.975 88.347 379.983 89.4874 380.326C89.5443 379.245 90.0469 377.896 89.5815 377.129C87.4567 373.628 85.1866 370.193 82.6625 366.972C82.103 366.259 79.9139 365.912 79.1316 366.411C73.8258 369.8 68.7709 373.577 63.4799 376.99C60.4111 378.969 60.1067 380.677 63.503 382.998ZM171.892 449.352C172.196 454.702 172.533 459.702 172.749 464.706C172.976 469.985 172.104 470.746 166.891 470.708C166.044 470.701 165.189 471.644 164.339 472.148C164.82 472.877 165.137 473.863 165.812 474.292C168.948 476.289 171.929 475.686 174.335 473.062C178.489 468.531 182.486 463.855 186.528 459.222C187.538 458.065 188.472 456.845 189.801 455.211C182.181 452.287 182.121 460.819 177.463 462.027C177.214 459.419 176.805 456.995 176.799 454.571C176.79 451.592 175.992 449.528 171.892 449.352ZM406.434 414.648C406.434 409.62 402.661 405.939 397.555 405.985C392.359 406.033 387.26 411.059 387.184 416.207C387.111 421.156 390.889 424.954 395.923 424.992C401.483 425.035 406.433 420.162 406.434 414.648ZM145.196 448.1C145.896 445.362 146.929 443.221 146.891 441.097C146.798 436.021 143.058 432.931 137.584 432.872C132.613 432.818 129.02 435.9 128.675 440.516C128.27 445.94 131.755 450.387 137.291 451.032C138.552 451.179 139.96 450.089 141.301 449.568C140.202 448.867 139.178 447.762 137.99 447.546C134.564 446.923 132.724 445.289 132.799 440.917C137.047 443.378 140.733 445.514 145.196 448.1ZM369.194 439.066C366.221 433.193 362.642 431.473 358.18 433.403C353.061 435.614 350.494 441.044 352.304 445.828C353.794 449.767 359.075 452.201 363.282 450.885C368.313 449.313 370.639 446.173 369.609 442.063C365.426 441.984 364.45 450.834 357.904 445.974C361.899 443.529 365.449 441.358 369.194 439.066ZM94.5679 398.239C94.4821 392.881 89.5517 388.383 83.9159 388.524C79.3857 388.637 75.6123 392.782 75.6948 397.555C75.7839 402.702 80.7538 407.646 85.7518 407.557C90.9099 407.466 94.6521 403.51 94.5679 398.239ZM289.172 456.146C286.92 463.786 284.862 470.768 282.758 477.904C286.05 478.902 287.922 477.908 288.748 475.048C290.64 468.491 292.603 461.948 294.29 455.337C295.195 451.789 294.099 450.747 290.527 451.322C286.734 451.933 282.929 452.562 279.213 453.504C278.1 453.786 277.264 455.147 276.301 456.014C277.487 456.534 278.7 457.54 279.853 457.476C282.786 457.317 285.691 456.679 289.172 456.146ZM424.4 379.271C423.994 378.948 423.586 378.627 423.18 378.304C424.11 376.931 425.177 375.629 425.921 374.163C426.447 373.129 426.535 371.874 426.819 370.718C425.639 370.949 424.074 370.794 423.36 371.493C421.948 372.881 420.799 374.642 419.918 376.431C418.693 378.913 419.263 381.183 421.524 382.96C423.947 384.864 425.848 383.214 427.869 382.141C429.665 381.188 431.002 377.088 433.257 379.907C435.131 382.248 431.762 383.506 429.906 384.802C429.292 385.231 429.295 386.533 429.014 387.436C429.972 387.639 431.341 388.338 431.811 387.954C433.455 386.601 435.088 385.053 436.173 383.25C437.779 380.584 438.642 377.618 435.626 375.161C432.428 372.556 430.057 374.896 427.648 376.648C426.524 377.465 425.48 378.393 424.4 379.271ZM173.448 439.772C172.827 439.185 172.04 437.915 171.447 437.998C170.34 438.154 168.792 438.855 168.394 439.753C165.456 446.366 162.667 453.049 160.095 459.809C159.755 460.702 160.908 462.158 161.371 463.353C162.359 462.714 163.817 462.299 164.255 461.396C166.335 457.098 168.165 452.679 170.031 448.28C171.149 445.641 172.171 442.962 173.448 439.772ZM147.896 458.501C149.362 456.886 150.077 456.321 150.501 455.588C151.591 453.706 152.507 451.726 153.574 449.829C154.867 447.528 156.533 446.337 159.266 447.896C159.928 448.274 161.386 448.374 161.722 447.974C162.343 447.233 162.736 445.974 162.579 445.04C162.486 444.495 161.164 444.106 160.352 443.74C158.725 443.006 157.12 442.116 155.405 441.719C154.326 441.469 152.362 441.606 152.002 442.245C149.864 446.025 147.92 449.941 146.297 453.965C145.931 454.869 147.101 456.385 147.896 458.501ZM108.847 410.524C108.201 409.369 108.073 408.944 107.794 408.673C105.737 406.674 103.722 404.618 101.51 402.802C101.071 402.443 99.542 402.738 99.0188 403.244C95.8815 406.282 92.7889 409.383 89.9429 412.686C89.4189 413.294 89.7911 415.109 90.3489 415.993C90.6055 416.399 92.4431 416.166 93.3252 415.738C94.2535 415.287 94.8856 414.245 95.6678 413.482C98.442 410.777 101.054 407.562 105.288 411.621C105.699 412.014 107.509 410.963 108.847 410.524Z" fill="#6B3BA9"/>
<path fill-rule="evenodd" clip-rule="evenodd" d="M398.123 228.288C389.176 229.904 389.177 229.878 385.721 222.828C383.497 218.291 381.067 213.851 378.94 209.27C377.809 206.832 376.273 205.899 373.535 205.965C365.986 206.148 358.425 206.192 350.878 205.977C347.662 205.885 345.822 206.985 344.482 209.841C342.164 214.78 339.328 219.486 337.136 224.474C335.743 227.644 334.127 229.419 330.406 228.62C329.034 228.326 327.519 228.692 325.122 228.8C337.53 204.109 349.557 180.174 362.001 155.414C374.249 180.125 386.099 204.03 398.123 228.288ZM350.621 197.836C358.565 197.836 365.355 197.836 373.008 197.836C369.316 190.42 365.969 183.695 362.621 176.971C362.144 177.054 361.667 177.137 361.19 177.221C357.829 183.775 354.468 190.331 350.621 197.836Z" fill="white"/>
<path fill-rule="evenodd" clip-rule="evenodd" d="M101.202 228.079C113.278 204.002 125.308 180.017 137.665 155.378C149.869 180.028 161.674 203.872 173.48 227.719C167.838 230.357 164.668 229.349 162.155 224.321C159.588 219.184 157.187 213.95 154.306 208.993C153.489 207.585 151.277 206.215 149.658 206.158C141.693 205.878 133.71 206.158 125.739 205.996C122.931 205.94 121.499 207.138 120.368 209.464C118.097 214.134 115.685 218.738 113.269 223.336C110.231 229.118 108.543 229.795 101.202 228.079ZM148.755 198.138C145.268 190.959 142.334 184.859 139.341 178.788C138.182 176.439 136.856 176.959 135.855 178.881C133.027 184.313 130.221 189.761 127.628 195.305C127.347 195.907 128.482 197.995 129.005 198.012C135.23 198.206 141.465 198.138 148.755 198.138Z" fill="white"/>
<path fill-rule="evenodd" clip-rule="evenodd" d="M244.941 229.957C225.927 229.909 213.025 224.578 206.555 209.878C194.583 182.677 212.369 160.78 235.214 157.934C244.51 156.777 253.358 157.633 261.629 161.935C264.969 163.672 268.024 166.152 270.785 168.741C274.407 172.14 274.136 172.685 270.238 175.531C268.217 177.007 267.057 176.937 265.18 174.918C253.88 162.762 232.978 161.908 220.812 173.201C212.231 181.166 209.263 191.208 212.898 202.337C216.681 213.925 225.441 220.305 237.442 222.071C248.159 223.648 257.659 220.774 265.312 213.039C268.569 209.747 269.992 212.817 272.016 214.289C274.57 216.145 272.815 217.525 271.464 218.88C263.182 227.18 252.857 230.018 244.941 229.957Z" fill="white"/>
<path fill-rule="evenodd" clip-rule="evenodd" d="M296.407 228.41C293.87 228.579 291.477 228.739 288.777 228.919C288.777 205.388 288.777 182.384 288.777 158.402C299.908 158.919 310.904 158.757 321.699 160.143C330.341 161.253 335.717 169.019 335.596 177.456C335.455 187.215 330.44 193.725 320.862 195.316C314.527 196.368 308.018 196.603 301.578 196.705C297.881 196.764 296.798 198.311 296.805 201.587C296.823 209.647 296.745 217.707 296.684 225.767C296.678 226.561 296.522 227.353 296.407 228.41ZM296.925 178.313C296.872 178.313 296.819 178.313 296.767 178.313C296.767 180.362 296.866 182.416 296.744 184.457C296.546 187.804 298.087 189.193 301.386 189.041C306.046 188.826 310.73 188.924 315.37 188.513C322.275 187.9 326.576 183.584 326.579 177.715C326.582 171.72 321.941 167.21 314.948 166.822C310.152 166.555 305.333 166.763 300.525 166.692C298.116 166.656 296.958 167.798 296.932 170.124C296.903 172.853 296.925 175.583 296.925 178.313Z" fill="white"/>
<path fill-rule="evenodd" clip-rule="evenodd" d="M181.471 159.045C184.156 159.045 186.581 159.045 189.339 159.045C189.339 182.115 189.339 205.22 189.339 228.575C186.686 228.575 184.278 228.575 181.471 228.575C181.471 205.553 181.471 182.566 181.471 159.045Z" fill="white"/>
<path fill-rule="evenodd" clip-rule="evenodd" d="M190.708 275.53C185.2 270.433 179.363 269.124 172.787 271.383C169.469 272.523 167.596 274.851 167.288 278.344C166.987 281.761 168.576 284.308 171.579 285.61C176.348 287.678 181.29 289.352 186.143 291.232C195.869 295.002 200.188 300.869 199.882 309.837C199.553 319.489 193.863 327.114 184.27 329.657C173.697 332.462 163.573 331.578 154.676 324.338C152.753 322.774 152.382 321.617 154.368 319.781C156.656 317.666 158.658 315.246 160.16 313.628C164.412 315.941 167.657 318.254 171.273 319.478C173.695 320.299 176.743 320.011 179.338 319.441C183.34 318.56 186.256 316.054 186.869 311.729C187.477 307.437 185.223 304.55 181.523 302.971C176.739 300.93 171.715 299.451 166.906 297.465C154.613 292.388 150.428 278.715 158.23 268.504C160.139 266.007 162.982 263.856 165.854 262.51C176.108 257.703 186.335 258.121 196.232 263.815C198.798 265.291 199.512 266.85 196.9 269.127C194.752 271 192.913 273.222 190.708 275.53Z" fill="white"/>
<path fill-rule="evenodd" clip-rule="evenodd" d="M349.735 319.022C341.31 330.207 325.579 334.008 310.764 328.883C295.733 323.683 287.729 310.786 288.329 292.732C288.856 276.885 298.326 264.91 313.647 260.724C327.412 256.964 341.579 260.808 347.847 270.436C345.282 272.303 342.748 274.308 340.022 276.009C339.415 276.388 337.931 275.98 337.191 275.457C323.319 265.665 306.704 271.093 301.864 287.054C296.938 303.294 307.401 319.349 323.36 320.173C329.331 320.482 334.091 318.134 337.934 313.897C339.532 312.135 340.719 312.123 342.419 313.48C344.746 315.335 347.16 317.079 349.735 319.022Z" fill="white"/>
<path fill-rule="evenodd" clip-rule="evenodd" d="M208.194 294.792C208.615 272.995 223.689 258.782 245.855 259.28C267.223 259.762 281.37 274.592 280.873 295.989C280.387 316.892 264.577 331.489 242.876 331.072C222.195 330.674 207.791 315.606 208.194 294.792ZM268.03 295.897C268.016 285.602 264.503 277.818 255.834 273.064C245.263 267.269 231.493 270.577 225.044 280.183C217.93 290.78 219.962 307.265 229.534 314.921C236.909 320.819 245.343 322.001 253.905 318.261C263.773 313.953 267.73 305.565 268.03 295.897Z" fill="white"/>
<path fill-rule="evenodd" clip-rule="evenodd" d="M285.348 344.971C285.348 350.025 285.876 355.457 285.214 360.743C284.389 367.33 275.991 370.157 270.781 365.951C270.249 365.522 270.203 364.5 269.806 363.409C280.127 366.122 281.108 365.765 283.415 358.355C281.912 358.822 280.749 359.307 279.536 359.538C275.765 360.256 272.188 359.749 270.213 356.145C268.474 352.97 268.511 349.49 271.173 346.647C273.863 343.776 276.986 342.836 280.782 344.89C281.772 345.427 283.305 344.971 285.348 344.971ZM277.443 346.347C273.922 346.4 271.785 348.476 271.735 351.889C271.684 355.316 274.143 357.614 277.785 357.541C280.78 357.481 282.802 355.136 282.744 351.79C282.685 348.475 280.568 346.3 277.443 346.347Z" fill="white"/>
<path fill-rule="evenodd" clip-rule="evenodd" d="M246.905 360.084C242.263 360.048 238.858 356.648 238.917 352.106C238.98 347.273 242.426 343.814 247.16 343.834C251.596 343.851 255.264 347.564 255.155 351.928C255.031 356.961 251.832 360.123 246.905 360.084ZM252.601 352.015C252.519 348.727 250.021 346.247 246.917 346.371C243.615 346.502 241.367 348.861 241.369 352.192C241.371 355.651 243.865 357.905 247.491 357.723C250.449 357.576 252.677 355.085 252.601 352.015Z" fill="white"/>
<path fill-rule="evenodd" clip-rule="evenodd" d="M322.976 360.112C318.41 360.037 314.933 356.494 315.051 352.035C315.177 347.259 318.815 343.682 323.408 343.818C327.843 343.95 331.336 347.602 331.289 352.059C331.237 357.019 327.96 360.193 322.976 360.112ZM323.349 346.399C319.745 346.417 317.275 348.797 317.52 352.322C317.747 355.564 319.419 357.651 322.96 357.731C326.352 357.806 328.792 355.521 328.794 352.281C328.794 348.894 326.47 346.383 323.349 346.399Z" fill="white"/>
<path fill-rule="evenodd" clip-rule="evenodd" d="M311.318 347.493C308.236 347.675 305.158 344.577 303.094 349.085C305.053 349.822 307.131 350.164 308.613 351.285C310.173 352.466 311.162 354.391 312.401 355.991C310.554 357.362 308.888 359.32 306.814 359.953C304.341 360.706 301.809 359.842 300.489 356.215C302.926 356.883 304.665 357.7 306.407 357.711C307.459 357.717 308.52 356.474 309.576 355.792C308.869 354.911 308.288 353.869 307.416 353.2C306.698 352.65 305.485 352.741 304.76 352.196C303.438 351.205 301.345 349.982 301.308 348.802C301.228 346.218 302.782 344.272 305.892 344.075C308.364 343.92 310.508 343.918 311.318 347.493Z" fill="white"/>
<path fill-rule="evenodd" clip-rule="evenodd" d="M347.667 347.413C343.755 346.582 339.445 344.654 337.497 349.626C336.808 351.383 337.336 355.108 338.535 355.784C340.947 357.144 344.201 357.027 347.689 357.616C346.915 359.711 344.524 360.114 342.009 360.116C338.28 360.12 335.004 357.277 334.523 353.797C333.886 349.183 336.235 345.063 340.249 344.227C343.196 343.613 346.068 343.756 347.667 347.413Z" fill="white"/>
<path fill-rule="evenodd" clip-rule="evenodd" d="M299.575 336.022C296.193 344.382 292.812 352.743 289.429 361.103C288.849 360.87 288.27 360.636 287.69 360.402C291 351.97 294.309 343.537 297.62 335.104C298.272 335.41 298.924 335.716 299.575 336.022Z" fill="white"/>
<path fill-rule="evenodd" clip-rule="evenodd" d="M267.712 344.5C262.058 349.084 262.074 349.086 261.556 356.818C261.484 357.894 261.168 358.954 260.965 360.02C260.557 359.99 260.148 359.961 259.74 359.932C259.74 354.858 259.74 349.785 259.74 344.956C262.282 344.811 264.997 344.656 267.712 344.5Z" fill="white"/>
<path fill-rule="evenodd" clip-rule="evenodd" d="M196.261 358.292C196.072 361.692 195.915 364.528 195.758 367.365C195.25 367.349 194.743 367.334 194.234 367.319C194.234 359.841 194.234 352.362 194.234 345.299C196.081 344.97 197.915 344.753 199.69 344.304C203.267 343.398 206.297 344.296 208.385 347.234C210.539 350.266 210.736 353.674 208.452 356.744C206.339 359.585 203.418 360.907 199.798 359.757C198.66 359.395 197.584 358.846 196.261 358.292ZM202.059 357.815C205.041 357.783 207.291 355.35 207.299 352.148C207.307 349.059 204.9 346.273 202.181 346.22C198.903 346.157 196.069 348.986 196.193 352.197C196.319 355.475 198.798 357.85 202.059 357.815Z" fill="white"/>
<path fill-rule="evenodd" clip-rule="evenodd" d="M226.233 358.811C224.136 359.108 222.732 359.507 221.343 359.459C219.008 359.379 216.467 359.485 214.45 358.565C213.506 358.134 212.731 354.868 213.382 353.985C214.6 352.337 216.818 351.272 218.811 350.392C220.085 349.829 221.702 350.033 223.195 349.892C222.346 346.095 222.346 346.095 214.554 347.47C215.015 344.879 216.54 343.878 219.961 343.963C223.454 344.048 225.847 345.684 226.171 349.221C226.465 352.435 226.233 355.697 226.233 358.811ZM223.484 352.188C220.411 352.739 216.942 351.021 215.706 355.038C215.493 355.728 217.365 357.875 218.407 357.975C221.774 358.297 223.737 356.568 223.484 352.188Z" fill="white"/>
<path fill-rule="evenodd" clip-rule="evenodd" d="M154.031 347.619C154.615 345.077 156.774 343.694 159.72 343.909C162.723 344.129 165.167 345.409 165.411 348.706C165.659 352.065 165.465 355.456 165.465 358.687C163.401 359.155 161.622 359.698 159.803 359.941C156.803 360.34 153.807 360.203 152.768 356.658C151.906 353.716 154.043 351.192 157.765 350.453C159.455 350.117 161.184 349.978 162.943 349.744C161.677 345.779 161.363 345.71 154.031 347.619ZM163.628 353.357C163.229 352.806 162.83 352.255 162.431 351.705C160.216 352.482 157.933 353.124 155.845 354.153C155.439 354.353 155.497 356.816 155.833 356.943C157.28 357.487 159.289 358.224 160.378 357.618C161.813 356.823 162.576 354.833 163.628 353.357Z" fill="white"/>
<path fill-rule="evenodd" clip-rule="evenodd" d="M190.274 346.238C186.994 347.019 183.566 347.139 181.109 348.736C180.007 349.453 180.093 353.463 180.961 355.389C182.996 359.901 186.845 357.416 190.262 356.636C188.993 360.211 186.274 360.467 183.478 359.961C179.624 359.262 177.668 356.573 177.174 352.856C176.691 349.224 179.27 345.068 182.668 344.218C185.847 343.422 188.954 343.403 190.274 346.238Z" fill="white"/>
<path fill-rule="evenodd" clip-rule="evenodd" d="M171.322 359.616C171.322 354.573 171.322 349.527 171.322 344.484C171.712 344.495 172.1 344.506 172.49 344.518C172.49 349.576 172.49 354.634 172.49 359.693C172.1 359.666 171.711 359.642 171.322 359.616Z" fill="white"/>
<path fill-rule="evenodd" clip-rule="evenodd" d="M221.764 37.0975C221.107 37.8193 220.712 38.067 220.603 38.4049C220.141 39.8518 220.136 42.2879 219.286 42.6135C216.455 43.6963 213.348 44.3393 210.315 44.4779C209.195 44.5296 207.072 42.753 207.026 41.7367C206.948 40.0265 207.709 37.7742 208.944 36.6316C210.617 35.083 213.069 34.3661 215.186 33.2932C215.096 32.8913 215.006 32.4902 214.915 32.0883C212.368 32.5764 209.822 33.0644 207.294 33.55C206.669 28.4457 211.215 27.792 221.405 31.5232C222.468 28.5983 227.478 26.1958 231.421 26.7216C234.843 27.1776 236.83 29.8532 236.912 34.1766C236.943 35.813 237.11 37.4895 236.81 39.0734C236.656 39.8903 235.617 40.5425 234.979 41.27C234.371 40.5408 233.404 39.892 233.219 39.0693C232.533 36.0197 232.105 32.9135 231.586 29.8655C227.117 30.4914 226.086 32.6248 226.605 35.8163C226.715 36.4897 226.984 37.2115 226.846 37.8373C226.494 39.4253 225.953 40.9714 225.488 42.5348C224.598 41.2954 223.7 40.0618 222.823 38.815C222.528 38.3959 222.282 37.9439 221.764 37.0975ZM210.514 40.1135C210.913 40.7565 211.312 41.4004 211.711 42.0443C213.044 41.3053 214.377 40.5646 215.71 39.8256C215.202 39.1899 214.44 37.9325 214.227 38.0194C212.92 38.5493 211.738 39.3818 210.514 40.1135Z" fill="white"/>
<path fill-rule="evenodd" clip-rule="evenodd" d="M465.942 205.609C465.759 206.759 465.575 207.91 465.394 209.061C464.936 211.996 463.9 214.43 460.31 214.287C457.535 214.177 454.907 210.709 454.79 207.614C454.713 205.568 454.4 203.459 453.751 201.522C452.704 198.396 453.113 196.17 456.559 195.102C459.028 194.337 461.487 193.543 463.916 192.772C463.883 186.389 461.817 184.822 455.949 186.619C455.818 186.659 455.684 186.756 455.56 186.742C453.832 186.553 452.106 186.348 450.38 186.146C451.773 185.158 453.095 184.039 454.587 183.227C455.515 182.723 456.714 182.735 457.766 182.426C464.945 180.32 465.088 180.324 466.504 187.698C466.962 190.081 467.368 191.946 470.407 191.868C470.696 191.861 471.555 193.993 471.237 194.756C470.598 196.297 469.329 197.578 467.78 199.712C467.098 199.141 465.848 198.093 464.053 196.589C462.14 197.21 459.602 198.035 457.111 198.844C458.117 202.993 459.02 206.719 459.923 210.445C460.265 210.482 460.607 210.52 460.948 210.558C461.311 209.303 461.526 207.977 462.075 206.809C462.884 205.085 463.578 202.918 465.008 202.015C465.911 201.446 468.89 202.386 469.48 203.449C470.563 205.402 470.684 207.934 470.913 210.253C470.953 210.654 469.551 211.195 468.813 211.673C468.383 210.939 467.702 210.247 467.575 209.465C467.367 208.187 467.52 206.85 467.52 205.538C466.993 205.563 466.467 205.586 465.942 205.609Z" fill="white"/>
<path fill-rule="evenodd" clip-rule="evenodd" d="M164.581 35.7376C171.202 35.7802 176.77 40.9797 176.673 47.0314C176.566 53.8393 170.787 59.2995 163.753 59.238C157.755 59.1863 152.308 53.2938 152.425 46.9838C152.544 40.5835 157.828 35.6957 164.581 35.7376ZM163.896 55.5699C169.107 55.6126 172.298 52.759 172.238 48.1132C172.174 43.1139 168.52 38.9603 164.146 38.9127C159.826 38.8668 156.255 42.6095 156.27 47.1675C156.286 51.9962 159.498 55.5339 163.896 55.5699Z" fill="white"/>
<path fill-rule="evenodd" clip-rule="evenodd" d="M191.515 51.8172C201.89 51.193 201.89 51.193 201.681 46.6194C200.528 47.1287 199.484 47.6914 198.376 48.0621C194.201 49.459 189.093 46.8556 188.175 42.9136C186.938 37.6034 189.657 33.2792 194.685 32.5746C195.091 32.518 195.51 32.5631 195.92 32.5286C197.973 32.3588 200.742 31.2983 201.893 32.2259C203.294 33.3546 203.493 36.1213 203.924 38.2374C204.629 41.6947 205.63 45.211 205.548 48.6798C205.426 53.8464 197.457 57.3915 193.158 54.4509C192.499 54.0006 192.225 52.995 191.515 51.8172ZM191.217 38.9379C192.059 42.6528 193.082 45.2545 196.116 44.7361C197.693 44.4671 199.723 42.1671 200.058 40.4898C200.53 38.1308 198.95 35.6324 196.086 35.9736C194.369 36.1787 192.834 37.8987 191.217 38.9379Z" fill="white"/>
<path fill-rule="evenodd" clip-rule="evenodd" d="M435.273 127.491C430.67 124.877 429.977 128.409 428.987 132.182C428.688 133.328 426.808 134.063 425.653 134.986C425.543 133.54 425.09 132.014 425.405 130.666C425.864 128.706 426.963 126.903 427.612 124.974C427.914 124.075 427.798 123.037 427.872 122.061C426.787 122.334 425.631 122.455 424.635 122.919C423.406 123.492 422.379 124.525 421.129 125.019C420.411 125.302 419.425 124.907 418.56 124.818C418.734 123.978 418.61 122.745 419.128 122.357C424.053 118.67 429.065 115.094 434.126 111.592C434.619 111.251 436.077 111.344 436.298 111.709C438.243 114.917 440.597 118.057 441.652 121.568C442.581 124.659 439.373 127.411 435.273 127.491ZM435.126 115.921C431.786 117.35 430.941 119.671 432.729 122.167C433.449 123.173 436.776 123.834 437.156 123.334C439.356 120.429 437.351 118.183 435.126 115.921Z" fill="white"/>
<path fill-rule="evenodd" clip-rule="evenodd" d="M43.5574 214.33C42.9369 214.161 42.2008 214.148 41.7115 213.798C36.3743 209.968 31.0355 206.139 25.8081 202.165C24.964 201.524 24.0257 199.982 24.2708 199.219C24.5431 198.374 26.0548 197.621 27.1474 197.389C33.1801 196.111 39.2401 194.948 45.3182 193.902C46.1764 193.754 47.1839 194.464 48.1222 194.774C47.4761 195.699 46.929 197.33 46.169 197.435C40.0562 198.278 41.0918 203.384 40.208 207.212C40.0405 207.939 41.4573 209.014 42.1158 209.947C42.9484 211.129 43.7529 212.331 44.5706 213.524C44.2323 213.792 43.8957 214.061 43.5574 214.33ZM30.193 200.669C32.8608 202.687 34.6093 204.009 36.6087 205.522C37.1945 203.313 37.6277 201.682 38.301 199.146C35.3808 199.695 33.2816 200.089 30.193 200.669Z" fill="white"/>
<path fill-rule="evenodd" clip-rule="evenodd" d="M437.519 155.03C435.712 155.81 434.259 156.656 432.692 157.021C431.892 157.208 430.888 156.528 429.976 156.241C430.372 155.473 430.569 154.311 431.195 154C436.46 151.381 441.795 148.9 447.132 146.431C447.7 146.17 448.534 145.991 449.059 146.211C452.603 147.692 455.263 156.121 453.251 159.449C451.529 162.3 449.176 164.353 445.59 163.962C441.864 163.555 439.232 161.593 438.176 157.87C437.954 157.086 437.806 156.281 437.519 155.03ZM445.635 159.988C448.556 160.204 450.265 158.823 450.275 156.033C450.285 153.581 449.253 150.897 446.394 151.42C444.663 151.736 442.55 153.85 441.975 155.6C441.18 158.024 442.47 160.174 445.635 159.988Z" fill="white"/>
<path fill-rule="evenodd" clip-rule="evenodd" d="M109.376 87.3319C109.905 83.4448 105.035 80.4961 108.232 76.1792C110.188 77.9304 111.931 79.351 113.474 80.9628C113.909 81.4172 113.838 82.4277 113.852 83.1864C113.887 84.9712 113.554 86.8094 113.875 88.5327C114.439 91.5511 113.377 92.9144 110.481 91.9367C107.903 91.0664 105.544 89.5678 103.005 88.5499C101.753 88.0479 100.313 88.0044 98.9581 87.7534C98.6313 89.7942 97.7517 91.9514 98.1527 93.8396C98.4696 95.3291 100.469 96.4102 101.518 97.821C102.294 98.8652 102.746 100.15 103.341 101.327C102.852 101.719 102.363 102.111 101.873 102.503C98.5835 99.2785 95.003 96.2707 92.2676 92.6355C91.7626 91.9645 94.3834 88.4662 96.0683 86.7708C99.9631 82.8534 103.217 83.0888 109.376 87.3319Z" fill="white"/>
<path fill-rule="evenodd" clip-rule="evenodd" d="M63.5905 153.337C62.3388 151.809 61.035 150.318 59.8443 148.744C56.962 144.933 54.0649 141.131 51.3278 137.217C50.6223 136.209 50.1396 134.765 50.2667 133.598C50.3178 133.13 52.3164 132.484 53.3742 132.571C59.6529 133.089 65.9224 133.738 72.173 134.521C72.9404 134.617 73.5734 135.777 74.269 136.444C73.4116 136.965 72.4536 138.043 71.7134 137.911C67.7782 137.212 66.0883 139.412 64.6162 142.485C63.4536 144.913 62.2365 147.029 64.5329 149.528C65.1476 150.197 64.9158 151.633 65.0725 152.717C64.5783 152.924 64.084 153.131 63.5905 153.337ZM64.0567 137.006C60.6596 136.766 58.1857 136.59 55.7119 136.415C55.6162 136.785 55.5204 137.155 55.4247 137.526C56.882 139.422 58.3392 141.316 60.1356 143.653C61.3667 141.566 62.3808 139.847 64.0567 137.006Z" fill="white"/>
<path fill-rule="evenodd" clip-rule="evenodd" d="M98.1748 100.833C92.3186 102.054 91.6585 103.048 93.2148 106.916C93.4112 106.777 93.6521 106.672 93.7949 106.489C94.7141 105.312 95.611 104.118 96.5154 102.93C96.6037 104.527 97.202 106.314 96.6863 107.687C95.0095 112.147 90.9571 113.742 86.6836 112.009C82.4423 110.289 80.4215 105.914 82.066 102.015C83.9952 97.4439 87.7902 95.7764 92.4144 97.6507C94.1481 98.3528 95.7175 99.4568 98.1748 100.833ZM85.7619 105.714C87.0566 104.12 88.3521 102.524 89.8316 100.703C85.9039 100.372 85.5391 100.768 85.7619 105.714Z" fill="white"/>
<path fill-rule="evenodd" clip-rule="evenodd" d="M133.557 70.948C135.001 75.2124 133.714 78.2957 129.85 79.2963C126.942 80.0493 123.677 79.4456 120.363 79.4456C121.036 82.0228 121.47 83.6854 121.905 85.348C121.466 85.599 121.028 85.85 120.589 86.1018C117.554 82.5937 114.492 79.1077 111.537 75.5348C111.3 75.2485 111.656 73.9492 111.989 73.8336C112.804 73.5473 113.94 73.3455 114.639 73.704C116.749 74.7883 118.713 76.1548 121.034 77.5976C117.443 70.7388 118.808 66.1373 124.857 64.3156C125.887 64.0047 127.235 64.7397 128.437 64.9915C127.663 65.829 126.881 66.659 126.117 67.5047C124.952 68.7916 122.709 70.2656 122.885 71.3442C123.188 73.1963 124.709 75.237 126.317 76.3173C127.048 76.8094 129.346 75.3912 130.68 74.4742C131.709 73.7663 132.342 72.4884 133.557 70.948Z" fill="white"/>
<path fill-rule="evenodd" clip-rule="evenodd" d="M40.4762 163.337C39.6609 164.35 38.877 165.391 38.023 166.37C35.6325 169.112 35.2793 173.45 37.2605 176.161C39.2327 178.861 45.0641 180.51 48.1568 178.885C51.4773 177.14 53.0352 174.356 52.2067 170.404C51.9889 169.363 52.7686 168.116 53.0905 166.963C54.0262 167.927 55.5189 168.754 55.8011 169.88C56.9547 174.497 54.7523 178.178 51.4377 181.042C47.1072 184.784 39.6419 183.704 35.021 179.012C31.0636 174.993 30.9712 168.564 35.078 164.217C36.1697 163.062 38.004 162.6 39.4975 161.819C39.8235 162.325 40.1503 162.831 40.4762 163.337Z" fill="white"/>
<path fill-rule="evenodd" clip-rule="evenodd" d="M76.2064 126.092C77.7883 124.643 78.7315 123.896 79.5294 123.019C80.6714 121.764 82.009 120.545 82.6609 119.05C82.9934 118.287 82.311 116.534 81.5444 116.006C80.8042 115.495 79.2497 115.7 78.2636 116.101C76.9013 116.656 75.8104 117.842 74.4711 118.488C71.5261 119.906 68.7841 119.971 66.2616 117.316C63.6301 114.547 64.3951 111.889 66.0495 109.154C66.6074 108.231 67.241 107.126 68.1314 106.683C69.5292 105.987 71.1738 105.782 72.7135 105.37C71.9486 106.582 71.0492 107.733 70.4534 109.021C69.7529 110.535 69.3163 112.169 68.7651 113.752C70.6118 113.895 72.8027 114.733 74.2343 114.036C77.1703 112.607 79.6771 110.069 83.1956 112.39C86.3271 114.456 87.4171 117.282 86.0284 120.871C84.6256 124.499 81.2102 126.669 76.2064 126.092Z" fill="white"/>
<path fill-rule="evenodd" clip-rule="evenodd" d="M51.3807 158.455C53.5451 159.461 55.6154 160.195 57.411 161.353C58.3162 161.936 58.7213 163.284 59.3526 164.288C58.2733 164.383 57.0133 164.887 56.1435 164.509C51.2561 162.377 46.4899 159.971 41.6248 157.786C38.99 156.603 38.5527 155.001 40.01 152.612C40.9993 150.989 41.6619 149.152 42.7676 147.624C44.6069 145.081 47.0494 143.775 50.2502 145.207C53.7423 146.77 54.5122 149.683 53.7423 153.04C53.3561 154.719 52.3634 156.26 51.3807 158.455ZM49.0876 157.524C49.4242 154.215 49.77 151.918 49.7559 149.624C49.7543 149.326 47.4017 148.483 46.9974 148.845C45.536 150.151 44.4402 151.863 43.1629 153.476C45.2217 154.883 46.5254 155.774 49.0876 157.524Z" fill="white"/>
<path fill-rule="evenodd" clip-rule="evenodd" d="M352.097 62.3947C350.869 62.9886 349.684 63.9647 348.406 64.1066C343.55 64.6447 337.389 60.3335 336.014 55.6852C334.594 50.8877 337.958 43.9518 342.86 41.5683C347.485 39.32 353.227 40.6479 356.447 45.0099C357.162 45.977 356.926 47.6371 357.127 48.9782C356.076 48.4041 354.746 48.0628 354.022 47.2122C351.264 43.9707 347.998 42.9676 344.599 44.6113C341.204 46.2526 339.117 50.4702 339.866 54.1785C340.73 58.465 342.834 60.3106 347.164 60.505C348.615 60.5698 350.071 60.5148 351.524 60.5148C351.715 61.1422 351.907 61.7689 352.097 62.3947Z" fill="white"/>
<path fill-rule="evenodd" clip-rule="evenodd" d="M432.919 139.094C433.981 140.88 435.103 142.635 436.08 144.466C436.565 145.375 436.788 146.424 437.13 147.41C436.128 147.489 434.981 147.924 434.153 147.584C430.663 146.152 428.824 142.172 429.71 138.466C430.573 134.86 434.427 132.15 438.365 132.379C442.052 132.593 445.399 135.294 445.326 139.078C445.28 141.322 443.535 143.591 442.268 145.678C442.114 145.931 439.757 145.461 439.15 144.729C437.472 142.705 436.18 140.364 434.736 138.149C434.131 138.464 433.526 138.779 432.919 139.094ZM440.65 141.527C442.844 137.75 442.175 136.562 437.792 136.066C438.717 137.831 439.577 139.474 440.65 141.527Z" fill="white"/>
<path fill-rule="evenodd" clip-rule="evenodd" d="M137.791 68.097C140.089 68.1683 142.451 68.6498 143.741 65.6297C144.042 64.9268 145.337 64.6422 146.175 64.1648C146.384 65.2204 147.058 66.4581 146.723 67.3005C145.258 70.9965 141.361 72.8412 137.661 71.8815C134.154 70.9727 131.071 67.1357 131.201 63.8424C131.348 60.1292 134.763 56.0158 138.499 56.3348C140.819 56.5333 142.964 58.748 145.187 60.0587C143.986 61.4933 142.929 63.0878 141.544 64.3165C140.293 65.4263 138.683 66.1375 137.232 67.0241C137.417 67.3817 137.604 67.7394 137.791 68.097ZM134.584 64.4634C137.153 63.0107 139.044 61.9403 141.101 60.7772C137.744 58.8874 136.043 59.7552 134.584 64.4634Z" fill="white"/>
<path fill-rule="evenodd" clip-rule="evenodd" d="M269.515 29.8886C267.756 29.8886 265.991 29.9697 264.239 29.8533C263.428 29.7991 262.641 29.3595 261.844 29.0954C262.307 28.358 262.6 27.2286 263.259 26.9448C268.386 24.7408 273.666 27.2031 273.426 32.3812C273.401 32.9251 273.453 33.4729 273.458 34.0184C273.539 42.1641 273.186 42.4578 264.94 42.0649C262.034 41.9271 260.234 40.5787 259.837 37.7546C259.41 34.7132 260.857 32.7134 263.9 32.1196C265.713 31.766 267.588 31.725 269.436 31.5429C269.463 30.9917 269.489 30.4406 269.515 29.8886ZM269.468 37.625C269.347 36.8843 269.225 36.1428 269.104 35.4021C267.436 35.6654 265.766 35.9304 264.097 36.1937C264.264 36.8597 264.448 38.1056 264.595 38.1015C266.222 38.0548 267.844 37.8136 269.468 37.625Z" fill="white"/>
<path fill-rule="evenodd" clip-rule="evenodd" d="M453.536 164.336C458.057 164.393 461.518 168.211 461.407 173.019C461.312 177.114 457.556 180.687 453.349 180.684C448.974 180.68 444.669 176.243 444.813 171.886C444.946 167.858 449.079 164.28 453.536 164.336ZM454.243 176.924C455.009 176.028 457.454 174.419 457.405 172.889C457.351 171.155 455.289 168.391 453.688 168.063C451.452 167.604 448.668 169.033 448.797 172.215C448.893 174.596 449.7 176.856 454.243 176.924Z" fill="white"/>
<path fill-rule="evenodd" clip-rule="evenodd" d="M301.361 31.6641C306.307 31.6789 309.914 35.0976 309.855 39.7131C309.802 43.879 306.142 47.6381 302.079 47.7021C297.552 47.7735 293.451 44.23 293.361 40.1674C293.253 35.3576 296.741 31.651 301.361 31.6641ZM307.819 39.7475C305.012 37.4952 303.476 35.3248 301.594 34.9688C298.618 34.4045 297.372 36.8488 297.342 39.6162C297.311 42.4665 298.765 44.7206 301.648 44.2826C303.45 44.0102 304.973 41.9351 307.819 39.7475Z" fill="white"/>
<path fill-rule="evenodd" clip-rule="evenodd" d="M413.781 98.5583C413.83 103.183 410.328 107.026 406.101 106.986C401.842 106.946 397.689 103.034 397.645 99.0201C397.598 94.6664 401.255 90.8638 405.577 90.7694C410.335 90.6677 413.732 93.892 413.781 98.5583ZM412.247 98.4271C409.335 96.3429 407.488 94.0282 406.08 94.2677C404.358 94.5605 402.013 96.8285 401.725 98.5411C401.293 101.102 403.468 103.412 406.269 102.939C408.013 102.646 409.462 100.623 412.247 98.4271Z" fill="white"/>
<path fill-rule="evenodd" clip-rule="evenodd" d="M370.07 64.4184C369.997 68.7352 366.502 72.2163 362.244 72.2122C357.474 72.208 353.421 68.4555 353.602 64.2092C353.779 60.0834 357.95 55.8617 361.799 55.9126C366.13 55.97 370.143 60.0974 370.07 64.4184ZM366.366 63.416C366.143 60.5993 364.09 59.4641 361.676 59.4896C358.702 59.5199 357.508 61.609 357.549 64.4364C357.588 67.2317 358.935 68.7196 361.823 68.654C365.215 68.5769 366.077 66.3139 366.366 63.416Z" fill="white"/>
<path fill-rule="evenodd" clip-rule="evenodd" d="M311.252 50.1486C311.066 48.9576 310.582 47.7199 310.763 46.5871C311.039 44.8646 311.74 43.2037 312.324 41.5386C314.562 35.1482 314.96 34.9636 321.584 37.0618C325.517 38.3077 326.513 41.1867 324.817 46.4247C324.229 48.2407 323.761 50.1117 322.966 51.8333C322.661 52.492 321.596 52.8037 320.877 53.2728C320.574 52.4534 319.892 51.5585 320.039 50.8294C320.469 48.705 321.512 46.679 321.759 44.5505C321.909 43.2693 321.419 41.1777 320.52 40.6708C318.747 39.6701 316.912 40.0802 316.052 42.5803C315.145 45.2132 313.825 47.7043 312.685 50.2568C312.207 50.2199 311.729 50.1846 311.252 50.1486Z" fill="white"/>
<path fill-rule="evenodd" clip-rule="evenodd" d="M375.288 63.9727C377.701 65.3843 379.285 66.3784 380.931 67.2585C384.18 68.9974 385.024 71.828 383.663 74.885C382.515 77.4589 380.587 79.7178 378.81 81.9644C378.376 82.5132 377.179 82.4656 376.333 82.6928C376.331 81.7298 375.976 80.5668 376.394 79.8409C377.477 77.9543 379.204 76.3942 380.068 74.4388C380.582 73.2749 380.468 70.979 379.686 70.3434C378.868 69.6765 376.508 69.8636 375.546 70.605C373.757 71.9839 372.583 74.1255 370.964 75.7635C370.355 76.3803 369.217 76.4812 368.319 76.8167C368.246 75.9431 367.786 74.8185 368.164 74.2354C370.42 70.7625 372.868 67.4152 375.288 63.9727Z" fill="white"/>
<path fill-rule="evenodd" clip-rule="evenodd" d="M253.687 29.0281C250.983 28.9075 248.879 28.8131 246.686 28.7147C247.64 25.7045 251.861 25.0311 259.009 26.8635C256.294 30.6792 253.791 34.2005 250.94 38.2081C252.957 38.2081 254.667 38.0761 256.339 38.2672C257.1 38.3541 257.788 39.0808 258.509 39.5172C257.9 40.0856 257.32 41.1051 256.675 41.1461C253.947 41.3225 251.183 41.3988 248.467 41.1461C245.635 40.8837 245.397 39.281 247.042 37.2271C249.083 34.6811 251.15 32.1564 253.687 29.0281Z" fill="white"/>
<path fill-rule="evenodd" clip-rule="evenodd" d="M286.506 31.0731C285.019 31.2741 283.716 31.4504 282.095 31.6695C281.784 33.1172 281.368 34.6649 281.134 36.2397C280.853 38.1304 280.424 40.1137 283.171 40.8043C283.686 40.9331 283.978 41.9437 284.372 42.5465C283.724 42.9493 283.109 43.6251 282.421 43.7071C279.961 43.9975 277.984 43.183 277.569 40.491C277.345 39.0433 277.361 37.4841 277.644 36.0487C278.203 33.2246 279.075 30.4358 275.223 29.2243C276.894 27.5748 278.263 26.1099 279.774 24.8082C280.184 24.4547 281.392 24.2931 281.607 24.5539C283.256 26.5586 284.748 28.6887 286.506 31.0731Z" fill="white"/>
<path fill-rule="evenodd" clip-rule="evenodd" d="M391.049 79.5751C388.491 82.9323 384.12 85.4463 388.873 90.7319C388.278 90.8664 387.682 91.0017 387.087 91.1371C385.735 90.1454 383.943 89.4055 383.176 88.0792C382.608 87.0999 383.233 85.3183 383.603 83.9691C383.8 83.2514 384.586 82.6944 385.105 82.0637C387.039 79.7071 389.743 77.5705 387.063 74.4782C389.365 73.7047 391.135 72.9485 392.983 72.5851C393.558 72.4719 394.92 73.4062 394.936 73.8942C395.009 76.0465 394.721 78.2103 394.536 80.7595C393.568 80.4314 392.395 80.032 391.049 79.5751Z" fill="white"/>
<path fill-rule="evenodd" clip-rule="evenodd" d="M30.1361 183.083C36.5534 184.999 42.4697 186.712 48.3317 188.593C48.9737 188.799 49.3021 189.969 49.7757 190.693C48.9877 191.035 48.0792 191.824 47.4314 191.651C41.3459 190.024 35.2916 188.28 29.2737 186.421C28.6417 186.226 28.3092 185.076 27.8372 184.369C28.6896 183.892 29.542 183.415 30.1361 183.083Z" fill="white"/>
<path fill-rule="evenodd" clip-rule="evenodd" d="M427.048 97.2984C426.66 98.3425 426.572 99.7156 425.836 100.377C421.368 104.39 416.794 108.29 412.145 112.097C411.359 112.741 410.04 112.744 408.967 113.043C409.3 111.933 409.281 110.426 410.023 109.776C415.206 105.226 420.549 100.853 425.84 96.4248C426.244 96.716 426.646 97.0072 427.048 97.2984Z" fill="white"/>
<path fill-rule="evenodd" clip-rule="evenodd" d="M182.6 52.4535C178.717 48.7624 179.263 43.2136 176.836 38.6629C179.326 37.6048 181.376 36.6246 183.513 35.8954C184.114 35.6904 184.969 36.2211 185.707 36.4147C185.504 37.1266 185.518 38.2479 185.064 38.4858C181.535 40.3337 182.569 43.134 183.226 45.9539C183.686 47.9299 183.953 49.951 184.307 51.9523C183.738 52.1197 183.169 52.287 182.6 52.4535Z" fill="white"/>
<path fill-rule="evenodd" clip-rule="evenodd" d="M397.615 81.7661C399.813 83.0645 401.533 83.8807 402.987 85.029C403.657 85.5572 403.806 86.7351 404.19 87.6177C403.358 87.8145 402.282 88.4436 401.732 88.1385C398.192 86.1732 396.063 87.9121 394.133 90.6254C393.504 91.5097 392.76 92.3684 391.897 93.0115C391.346 93.4233 390.48 93.4183 389.755 93.6004C389.62 92.8557 389.097 91.8008 389.412 91.4128C392.116 88.0638 394.972 84.8354 397.615 81.7661Z" fill="white"/>
<path fill-rule="evenodd" clip-rule="evenodd" d="M291.877 31.9794C291.207 35.6926 290.764 38.9432 289.96 42.1035C289.731 43.0042 288.452 43.6406 287.655 44.3985C287.237 43.365 286.373 42.2832 286.483 41.3087C286.832 38.2058 287.395 35.1037 288.196 32.0853C288.473 31.0403 289.687 30.2397 290.472 29.3276C290.991 30.3054 291.508 31.283 291.877 31.9794Z" fill="white"/>
<path fill-rule="evenodd" clip-rule="evenodd" d="M243.737 34.808C243.737 36.3066 243.924 37.8388 243.654 39.2882C243.527 39.9706 242.507 40.977 241.922 40.9565C241.272 40.9344 240.159 39.9484 240.109 39.3152C239.817 35.6537 239.694 31.9708 239.742 28.2978C239.75 27.6663 240.853 27.0495 241.449 26.4253C242.02 27.0552 242.949 27.6113 243.097 28.3274C243.535 30.4469 243.664 32.6295 243.915 34.7876C243.857 34.7958 243.796 34.8023 243.737 34.808Z" fill="white"/>
<path fill-rule="evenodd" clip-rule="evenodd" d="M112.085 434.997C110.952 434.031 109.97 433.195 108.703 432.114C110.794 429.438 112.939 427.13 114.509 424.482C115.202 423.312 114.724 421.457 114.778 419.914C113.033 419.963 110.716 419.325 109.659 420.196C107.176 422.243 105.298 425.011 103.093 427.583C100.266 426.524 98.976 425.249 101.22 422.531C103.571 419.685 105.798 416.738 108.07 413.828C109.678 411.769 111.118 411.09 112.622 414.014C113.043 414.834 114.07 415.643 114.969 415.87C118.441 416.742 120.314 418.96 121.047 422.505C121.99 422.607 122.921 422.651 123.828 422.818C129.156 423.795 131.395 428.314 128.544 432.94C126.624 436.055 124.13 438.821 121.807 441.856C118.754 440.911 117.323 439.661 119.815 436.732C121.313 434.972 122.908 433.18 123.879 431.13C124.436 429.951 123.836 428.23 123.756 426.752C122.028 426.919 119.754 426.459 118.681 427.38C116.238 429.475 114.386 432.248 112.085 434.997Z" fill="white"/>
<path fill-rule="evenodd" clip-rule="evenodd" d="M218.111 478.516C219.549 475.759 220.739 473.363 222.03 471.023C224.671 466.237 227.31 461.449 230.064 456.727C231.663 453.984 234.841 453.594 235.861 456.162C239.017 464.11 241.77 472.217 244.764 480.496C241.291 481.414 238.952 481.135 238.118 477.569C237.191 473.598 233.835 474.413 231.109 474.207C228.598 474.017 225.776 473.264 224.551 476.717C223.543 479.556 221.457 479.802 218.111 478.516ZM235.768 470.79C234.666 467.174 233.854 464.511 232.723 460.802C230.969 464.429 229.765 466.917 228.305 469.935C230.792 470.219 232.732 470.442 235.768 470.79Z" fill="white"/>
<path fill-rule="evenodd" clip-rule="evenodd" d="M319.453 463.012C318.698 468.408 316.433 471.578 311.97 472.721C307.256 473.929 303.746 472.657 301.517 467.872C299.888 464.377 298.862 460.439 298.431 456.601C297.909 451.975 300.51 448.678 304.447 447.566C309.388 446.17 312.844 447.197 315.226 451.71C317.089 455.24 318.076 459.227 319.453 463.012ZM314.745 464.069C313.423 460.234 312.746 456.951 311.152 454.19C310.345 452.791 307.804 451.555 306.196 451.715C305.059 451.83 303.268 454.471 303.358 455.884C303.568 459.202 304.292 462.664 305.696 465.654C306.383 467.116 309.21 468.6 310.784 468.344C312.285 468.101 313.417 465.611 314.745 464.069Z" fill="white"/>
<path fill-rule="evenodd" clip-rule="evenodd" d="M380.307 438.776C381.845 441.001 383.305 442.679 384.205 444.613C384.604 445.471 383.875 446.848 383.658 447.99C382.63 447.735 381.151 447.828 380.644 447.175C376.299 441.582 372.068 435.895 368.019 430.089C367.671 429.592 368.663 427.847 369.405 427.005C370.316 425.97 371.866 425.468 372.707 424.398C375.627 420.681 379.537 419.201 383.475 420.596C386.803 421.776 389.739 426.312 389.564 430.004C389.375 433.997 386.821 436.771 382.137 438.089C381.645 438.228 381.177 438.447 380.307 438.776ZM379.555 424.906C376.803 424.963 374.608 427.135 374.596 429.811C374.582 432.566 377.099 434.995 379.951 434.821C382.862 434.644 384.438 433.011 384.518 430.096C384.604 426.92 382.579 424.843 379.555 424.906Z" fill="white"/>
<path fill-rule="evenodd" clip-rule="evenodd" d="M427.295 389.62C430.506 391.609 429.241 393.406 427.982 395.03C426.387 397.085 424.423 398.698 421.653 397.167C419.985 396.245 418.42 395.068 417 393.796C415.114 392.107 413.407 390.637 411.261 393.404C409.26 395.985 406.51 398.447 409.355 401.981C410.543 403.457 412.058 404.706 413.557 405.893C416.068 407.879 415.894 409.636 412.957 411.717C409.171 408.345 405.275 404.982 401.562 401.43C401.106 400.995 401.256 399.244 401.767 398.621C403.773 396.171 405.969 393.862 408.225 391.632C409.722 390.152 410.305 388.989 408.562 387.174C407.9 386.485 408.173 384.909 408.021 383.738C409.19 383.686 410.373 383.724 411.524 383.556C412.733 383.378 413.907 382.985 415.103 382.719C416.045 382.51 416.997 382.352 417.944 382.172C417.989 383.23 418.503 384.805 417.997 385.258C415.775 387.254 417.396 388.325 418.731 389.513C419.233 389.961 419.963 390.16 420.462 390.613C422.976 392.891 425.335 393.75 427.295 389.62Z" fill="white"/>
<path fill-rule="evenodd" clip-rule="evenodd" d="M253.531 481.397C252.644 481.169 250.663 480.96 249.009 480.118C248.071 479.641 247.665 478.129 247.019 477.084C248.196 476.598 249.353 475.8 250.554 475.727C251.525 475.667 252.663 476.996 253.529 476.808C255.466 476.389 257.279 475.408 259.143 474.655C258.016 473.22 257.117 471.478 255.697 470.437C254.329 469.434 252.337 469.322 250.767 468.531C245.733 465.995 245.312 459.721 250.021 456.587C253.561 454.232 257.526 454.081 261.437 455.542C262.231 455.839 262.612 457.228 263.184 458.113C262.094 458.712 261.04 459.703 259.903 459.808C258.627 459.924 257.159 458.752 255.989 459.03C254.608 459.357 253.457 460.639 252.206 461.507C253.026 462.592 253.639 464.002 254.717 464.681C256.058 465.525 257.818 465.679 259.336 466.282C263.617 467.986 265.427 470.997 264.561 474.798C263.573 479.131 259.95 481.526 253.531 481.397Z" fill="white"/>
<path fill-rule="evenodd" clip-rule="evenodd" d="M207.601 478.113C205.02 476.99 202.334 476.044 199.926 474.631C199.239 474.228 199.36 472.468 199.11 471.331C200.403 471.23 201.777 470.809 202.968 471.108C204.49 471.49 205.89 473.06 207.295 473.001C208.784 472.939 210.217 471.568 211.674 470.767C210.957 469.579 210.469 468.13 209.47 467.264C207.939 465.935 205.633 465.338 204.433 463.823C203.04 462.067 201.493 459.477 201.835 457.573C202.216 455.456 204.386 452.461 206.25 452.068C209.488 451.387 213.127 452.216 216.51 452.866C217.322 453.022 217.786 454.965 218.41 456.086C217.03 456.354 215.634 456.889 214.274 456.81C213.126 456.743 211.981 455.522 210.906 455.616C209.611 455.728 207.789 456.405 207.325 457.373C206.949 458.156 208.005 459.953 208.87 460.895C209.752 461.854 211.205 462.276 212.36 463.006C216.574 465.667 217.776 468.313 216.564 472.144C215.442 475.688 212.258 477.655 207.601 478.113Z" fill="white"/>
<path fill-rule="evenodd" clip-rule="evenodd" d="M63.5032 382.998C60.106 380.677 60.4105 378.969 63.4776 376.991C68.7694 373.578 73.8235 369.8 79.1293 366.411C79.9115 365.912 82.1016 366.258 82.6602 366.972C85.1844 370.193 87.4543 373.628 89.5791 377.129C90.0445 377.897 89.542 379.245 89.4851 380.326C88.3447 379.983 86.8413 379.975 86.1382 379.227C84.5638 377.548 83.3013 375.553 82.071 373.59C80.7012 371.401 78.9601 371.776 77.71 373.252C76.9121 374.194 76.4319 376.147 76.8675 377.222C77.7232 379.327 79.461 381.062 80.5247 383.109C80.8597 383.753 80.4908 385.347 79.9314 385.698C79.348 386.063 77.8024 385.769 77.2809 385.208C75.9895 383.821 74.9375 382.177 73.9827 380.525C72.5734 378.086 70.9684 377.654 68.6877 379.457C67.0968 380.717 65.3318 381.763 63.5032 382.998Z" fill="white"/>
<path fill-rule="evenodd" clip-rule="evenodd" d="M171.892 449.352C175.993 449.528 176.791 451.592 176.8 454.571C176.806 456.995 177.215 459.419 177.464 462.027C182.123 460.819 182.182 452.287 189.802 455.211C188.473 456.844 187.538 458.065 186.529 459.222C182.487 463.855 178.49 468.531 174.336 473.062C171.93 475.686 168.95 476.289 165.813 474.292C165.138 473.863 164.821 472.876 164.34 472.148C165.19 471.644 166.044 470.701 166.892 470.708C172.104 470.746 172.977 469.984 172.75 464.706C172.533 459.702 172.195 454.702 171.892 449.352Z" fill="white"/>
<path fill-rule="evenodd" clip-rule="evenodd" d="M406.434 414.648C406.433 420.163 401.483 425.035 395.923 424.992C390.89 424.954 387.111 421.156 387.185 416.207C387.261 411.059 392.359 406.033 397.555 405.985C402.661 405.939 406.434 409.62 406.434 414.648ZM401.901 415.995C401.807 412.994 400.302 411.063 397.365 410.496C394.906 410.022 391.896 412.735 391.799 415.427C391.682 418.662 393.906 420.252 396.602 420.599C399.688 420.996 401.288 418.87 401.901 415.995Z" fill="white"/>
<path fill-rule="evenodd" clip-rule="evenodd" d="M145.196 448.1C140.733 445.515 137.047 443.378 132.799 440.917C132.724 445.289 134.564 446.923 137.99 447.546C139.178 447.761 140.203 448.867 141.301 449.568C139.96 450.088 138.552 451.179 137.291 451.032C131.755 450.387 128.27 445.94 128.675 440.516C129.019 435.9 132.612 432.817 137.584 432.872C143.058 432.931 146.798 436.021 146.891 441.097C146.929 443.22 145.896 445.362 145.196 448.1ZM141.748 441.883C142.211 441.598 142.675 441.315 143.138 441.031C142.243 439.709 141.621 437.911 140.373 437.199C139.118 436.482 137.24 436.847 135.634 436.738C135.537 437.24 135.441 437.742 135.343 438.244C137.478 439.457 139.614 440.671 141.748 441.883Z" fill="white"/>
<path fill-rule="evenodd" clip-rule="evenodd" d="M369.194 439.067C365.449 441.358 361.899 443.529 357.904 445.974C364.451 450.835 365.425 441.985 369.61 442.063C370.639 446.173 368.313 449.313 363.282 450.885C359.076 452.201 353.794 449.767 352.304 445.829C350.495 441.044 353.062 435.614 358.18 433.403C362.641 431.474 366.221 433.194 369.194 439.067ZM363.09 438.942C363.061 438.382 363.031 437.821 363.001 437.26C361.637 437.178 359.882 436.531 358.996 437.139C357.512 438.157 356.582 439.974 355.42 441.454C355.809 441.809 356.196 442.162 356.584 442.516C358.753 441.324 360.921 440.133 363.09 438.942Z" fill="white"/>
<path fill-rule="evenodd" clip-rule="evenodd" d="M94.5681 398.238C94.6523 403.51 90.9102 407.466 85.7513 407.557C80.7541 407.644 75.7842 402.702 75.6942 397.555C75.6109 392.783 79.3852 388.636 83.9153 388.523C89.552 388.383 94.4823 392.879 94.5681 398.238ZM90.2501 398.128C89.9291 395.4 88.6584 393.171 85.342 392.865C82.5678 392.61 79.9925 395.047 80.0593 397.883C80.1278 400.816 81.5322 402.823 84.6472 403.131C87.5229 403.414 90.1717 401.097 90.2501 398.128Z" fill="white"/>
<path fill-rule="evenodd" clip-rule="evenodd" d="M289.172 456.145C285.692 456.678 282.786 457.317 279.854 457.476C278.7 457.539 277.488 456.533 276.302 456.013C277.265 455.146 278.101 453.786 279.214 453.503C282.93 452.561 286.735 451.932 290.528 451.322C294.1 450.747 295.196 451.788 294.291 455.337C292.604 461.949 290.642 468.49 288.748 475.048C287.923 477.908 286.051 478.902 282.759 477.904C284.862 470.768 286.919 463.787 289.172 456.145Z" fill="white"/>
<path fill-rule="evenodd" clip-rule="evenodd" d="M424.4 379.27C425.481 378.393 426.524 377.465 427.65 376.647C430.059 374.895 432.43 372.556 435.627 375.16C438.644 377.618 437.781 380.584 436.175 383.25C435.09 385.052 433.457 386.601 431.813 387.953C431.344 388.338 429.974 387.638 429.016 387.436C429.297 386.533 429.294 385.231 429.908 384.802C431.764 383.506 435.132 382.249 433.259 379.907C431.004 377.087 429.667 381.188 427.871 382.14C425.85 383.214 423.948 384.864 421.525 382.96C419.265 381.182 418.694 378.913 419.92 376.431C420.801 374.642 421.95 372.881 423.362 371.493C424.076 370.792 425.641 370.948 426.821 370.718C426.537 371.873 426.448 373.128 425.923 374.163C425.178 375.628 424.112 376.931 423.182 378.304C423.587 378.626 423.994 378.949 424.4 379.27Z" fill="white"/>
<path fill-rule="evenodd" clip-rule="evenodd" d="M173.449 439.772C172.171 442.963 171.149 445.641 170.03 448.28C168.164 452.679 166.334 457.098 164.254 461.396C163.817 462.299 162.359 462.713 161.371 463.353C160.908 462.158 159.754 460.703 160.094 459.809C162.666 453.049 165.456 446.365 168.393 439.753C168.791 438.855 170.339 438.155 171.446 437.998C172.04 437.916 172.827 439.185 173.449 439.772Z" fill="white"/>
<path fill-rule="evenodd" clip-rule="evenodd" d="M147.896 458.501C147.101 456.385 145.931 454.868 146.296 453.964C147.919 449.94 149.863 446.024 152.001 442.244C152.361 441.606 154.326 441.469 155.405 441.718C157.119 442.114 158.724 443.005 160.351 443.739C161.163 444.105 162.485 444.494 162.578 445.039C162.736 445.974 162.343 447.233 161.721 447.973C161.385 448.373 159.927 448.273 159.266 447.895C156.532 446.337 154.865 447.528 153.573 449.829C152.507 451.726 151.591 453.706 150.501 455.587C150.077 456.321 149.362 456.886 147.896 458.501Z" fill="white"/>
<path fill-rule="evenodd" clip-rule="evenodd" d="M108.847 410.525C107.509 410.963 105.699 412.014 105.289 411.622C101.054 407.564 98.4422 410.779 95.668 413.483C94.8857 414.246 94.2537 415.288 93.3254 415.74C92.4433 416.167 90.6056 416.401 90.349 415.995C89.7912 415.11 89.419 413.295 89.943 412.687C92.789 409.385 95.8809 406.283 99.019 403.245C99.5421 402.739 101.071 402.444 101.51 402.804C103.722 404.62 105.737 406.676 107.795 408.674C108.073 408.945 108.201 409.37 108.847 410.525Z" fill="white"/>
<path fill-rule="evenodd" clip-rule="evenodd" d="M210.514 40.1139C211.738 39.3814 212.921 38.5497 214.227 38.0198C214.439 37.9337 215.203 39.1903 215.71 39.826C214.377 40.565 213.044 41.3057 211.711 42.0447C211.312 41.4016 210.913 40.7569 210.514 40.1139Z" fill="#6B3BA9"/>
<path fill-rule="evenodd" clip-rule="evenodd" d="M163.896 55.5695C159.497 55.5334 156.285 51.9957 156.27 47.1678C156.255 42.609 159.826 38.8671 164.146 38.913C168.52 38.9606 172.174 43.1142 172.238 48.1135C172.298 52.7585 169.107 55.6121 163.896 55.5695Z" fill="#6B3BA9"/>
<path fill-rule="evenodd" clip-rule="evenodd" d="M191.217 38.9383C192.833 37.8991 194.368 36.1798 196.086 35.9748C198.95 35.6336 200.53 38.132 200.058 40.491C199.723 42.1684 197.692 44.4683 196.116 44.7374C193.082 45.2549 192.059 42.6531 191.217 38.9383Z" fill="#6B3BA9"/>
<path fill-rule="evenodd" clip-rule="evenodd" d="M435.126 115.921C437.351 118.183 439.356 120.43 437.156 123.334C436.776 123.835 433.449 123.173 432.729 122.167C430.94 119.672 431.786 117.351 435.126 115.921Z" fill="#6B3BA9"/>
<path fill-rule="evenodd" clip-rule="evenodd" d="M30.1931 200.67C33.2817 200.09 35.3809 199.695 38.3012 199.146C37.6278 201.683 37.1946 203.313 36.6088 205.522C34.6094 204.011 32.8617 202.687 30.1931 200.67Z" fill="#6B3BA9"/>
<path fill-rule="evenodd" clip-rule="evenodd" d="M445.635 159.989C442.47 160.175 441.18 158.024 441.975 155.599C442.549 153.85 444.663 151.735 446.393 151.42C449.252 150.896 450.284 153.581 450.274 156.033C450.266 158.824 448.556 160.203 445.635 159.989Z" fill="#6B3BA9"/>
<path fill-rule="evenodd" clip-rule="evenodd" d="M64.0568 137.006C62.3809 139.847 61.3668 141.566 60.1356 143.653C58.3393 141.316 56.882 139.421 55.4248 137.526C55.5205 137.156 55.6163 136.786 55.712 136.415C58.1858 136.59 60.6596 136.765 64.0568 137.006Z" fill="#6B3BA9"/>
<path fill-rule="evenodd" clip-rule="evenodd" d="M85.7618 105.715C85.5382 100.77 85.9037 100.373 89.8315 100.703C88.3528 102.525 87.0573 104.12 85.7618 105.715Z" fill="#6B3BA9"/>
<path fill-rule="evenodd" clip-rule="evenodd" d="M49.0877 157.524C46.5256 155.773 45.2219 154.882 43.1631 153.476C44.4404 151.862 45.5362 150.15 46.9976 148.845C47.4019 148.484 49.7536 149.325 49.7561 149.624C49.7693 151.918 49.4244 154.215 49.0877 157.524Z" fill="#6B3BA9"/>
<path fill-rule="evenodd" clip-rule="evenodd" d="M440.65 141.527C439.576 139.474 438.716 137.831 437.792 136.066C442.175 136.562 442.844 137.75 440.65 141.527Z" fill="#6B3BA9"/>
<path fill-rule="evenodd" clip-rule="evenodd" d="M134.584 64.4635C136.043 59.7554 137.744 58.8875 141.101 60.7773C139.044 61.9404 137.154 63.01 134.584 64.4635Z" fill="#6B3BA9"/>
<path fill-rule="evenodd" clip-rule="evenodd" d="M269.468 37.6252C267.844 37.813 266.222 38.0542 264.594 38.1017C264.447 38.1058 264.263 36.8591 264.096 36.1939C265.765 35.9306 267.435 35.6656 269.103 35.4023C269.225 36.143 269.346 36.8845 269.468 37.6252Z" fill="#6B3BA9"/>
<path fill-rule="evenodd" clip-rule="evenodd" d="M454.243 176.925C449.7 176.857 448.894 174.597 448.797 172.216C448.668 169.033 451.452 167.605 453.689 168.064C455.289 168.391 457.351 171.156 457.405 172.889C457.454 174.42 455.009 176.028 454.243 176.925Z" fill="#6B3BA9"/>
<path fill-rule="evenodd" clip-rule="evenodd" d="M307.819 39.7472C304.973 41.9347 303.45 44.0099 301.648 44.2822C298.764 44.7194 297.311 42.4654 297.342 39.6159C297.371 36.8485 298.617 34.4042 301.594 34.9685C303.476 35.3245 305.011 37.4948 307.819 39.7472Z" fill="#6B3BA9"/>
<path fill-rule="evenodd" clip-rule="evenodd" d="M412.247 98.427C409.462 100.623 408.014 102.646 406.269 102.939C403.469 103.411 401.293 101.102 401.725 98.541C402.014 96.8284 404.358 94.5605 406.08 94.2676C407.488 94.0281 409.335 96.3428 412.247 98.427Z" fill="#6B3BA9"/>
<path fill-rule="evenodd" clip-rule="evenodd" d="M366.367 63.4161C366.077 66.3132 365.215 68.577 361.823 68.6541C358.935 68.7198 357.588 67.2327 357.549 64.4365C357.508 61.6092 358.702 59.52 361.676 59.4897C364.09 59.4642 366.143 60.6003 366.367 63.4161Z" fill="#6B3BA9"/>
<path fill-rule="evenodd" clip-rule="evenodd" d="M342.719 443.975C340.572 445.254 338.527 446.852 336.205 447.58C335.64 447.758 334.166 445.076 333.111 443.708C334.943 442.457 336.636 440.767 338.663 440.14C339.652 439.835 341.26 441.514 342.589 442.294C342.632 442.855 342.675 443.415 342.719 443.975Z" fill="#6B3BA9"/>
<path fill-rule="evenodd" clip-rule="evenodd" d="M235.768 470.79C232.732 470.442 230.792 470.22 228.306 469.935C229.766 466.917 230.97 464.429 232.724 460.802C233.854 464.51 234.666 467.173 235.768 470.79Z" fill="#6B3BA9"/>
<path fill-rule="evenodd" clip-rule="evenodd" d="M314.745 464.069C313.417 465.611 312.285 468.101 310.783 468.344C309.209 468.6 306.382 467.116 305.696 465.655C304.291 462.664 303.567 459.202 303.357 455.884C303.268 454.471 305.059 451.831 306.195 451.716C307.803 451.555 310.343 452.791 311.152 454.19C312.746 456.951 313.424 460.234 314.745 464.069Z" fill="#6B3BA9"/>
<path fill-rule="evenodd" clip-rule="evenodd" d="M379.555 424.906C382.579 424.843 384.603 426.92 384.518 430.097C384.439 433.011 382.863 434.644 379.952 434.821C377.1 434.995 374.583 432.567 374.597 429.812C374.608 427.135 376.803 424.964 379.555 424.906Z" fill="#6B3BA9"/>
<path fill-rule="evenodd" clip-rule="evenodd" d="M401.901 415.995C401.287 418.87 399.687 420.996 396.602 420.598C393.905 420.251 391.682 418.662 391.799 415.426C391.896 412.734 394.906 410.021 397.365 410.495C400.303 411.063 401.806 412.994 401.901 415.995Z" fill="#6B3BA9"/>
<path fill-rule="evenodd" clip-rule="evenodd" d="M141.748 441.883C139.614 440.67 137.478 439.458 135.344 438.245C135.441 437.743 135.537 437.241 135.634 436.739C137.24 436.848 139.119 436.482 140.373 437.199C141.621 437.911 142.242 439.71 143.138 441.031C142.675 441.316 142.211 441.599 141.748 441.883Z" fill="#6B3BA9"/>
<path fill-rule="evenodd" clip-rule="evenodd" d="M363.09 438.941C360.921 440.132 358.753 441.323 356.584 442.514C356.196 442.161 355.809 441.807 355.42 441.453C356.582 439.972 357.512 438.156 358.996 437.138C359.881 436.531 361.636 437.177 363.001 437.259C363.03 437.82 363.061 438.381 363.09 438.941Z" fill="#6B3BA9"/>
<path fill-rule="evenodd" clip-rule="evenodd" d="M90.2499 398.129C90.1715 401.097 87.5227 403.415 84.647 403.132C81.532 402.825 80.1276 400.817 80.0591 397.884C79.9923 395.049 82.5677 392.612 85.3419 392.867C88.6582 393.171 89.9289 395.401 90.2499 398.129Z" fill="#6B3BA9"/>
<path fill-rule="evenodd" clip-rule="evenodd" d="M253.456 435.419C220.672 435.346 193.734 429.292 168.662 416.113C126.328 393.863 97.0129 360.257 81.6801 314.76C81.2141 313.379 80.1605 311.588 82.2592 310.808C84.5012 309.976 84.8239 312.124 85.3922 313.536C94.589 336.348 107.756 356.582 125.185 373.931C149.232 397.868 177.706 413.942 210.919 421.438C226.471 424.948 242.235 426.312 258.097 425.343C300.225 422.77 337.194 407.518 368.536 379.147C388.788 360.815 403.654 338.69 413.752 313.338C413.804 313.209 413.84 313.074 413.89 312.943C414.404 311.586 415.007 310.102 416.818 310.784C418.502 311.418 418.02 312.913 417.604 314.196C414.276 324.426 410.103 334.286 404.914 343.722C391.252 368.571 372.732 389.027 349.313 404.993C329.593 418.437 307.905 427.28 284.515 431.936C272.792 434.27 260.955 435.557 253.456 435.419Z" fill="white"/>
<path fill-rule="evenodd" clip-rule="evenodd" d="M249.258 65.5254C277.531 65.6511 304.519 71.6164 329.688 84.5258C372.241 106.353 401.39 140.03 417.093 185.252C417.321 185.911 417.517 186.578 417.73 187.242C418.125 188.469 418.236 189.691 416.761 190.21C415.325 190.716 414.613 189.795 414.099 188.562C412.627 185.025 411.197 181.466 409.581 177.994C396.434 149.749 377.251 126.477 351.881 108.36C330.747 93.2661 307.336 83.4299 281.868 78.4901C268.252 75.8492 254.469 74.7676 240.637 75.5484C192.326 78.2781 151.913 97.8624 119.213 133.34C104.56 149.238 93.4249 167.442 85.3671 187.516C84.8223 188.872 84.4929 190.92 82.3875 190.215C80.1053 189.449 81.2192 187.624 81.7103 186.164C96.6794 141.63 125.244 108.547 166.307 86.0766C183.332 76.7582 201.559 70.7501 220.717 67.8537C230.137 66.4302 239.695 65.9225 249.191 65C249.213 65.1743 249.236 65.3503 249.258 65.5254Z" fill="white"/>
</g>
<defs>
<clipPath id="clip0_578_10877">
<rect width="500" height="500" rx="250" fill="white"/>
</clipPath>
</defs>
</svg>
