<svg width="56" height="55" viewBox="0 0 56 55" fill="none" xmlns="http://www.w3.org/2000/svg">
<path d="M48.6204 29.7917C48.6257 28.7144 48.6257 27.5704 48.6257 26.3542C48.6257 16.0913 48.6257 10.9599 45.4375 7.77163C42.2491 4.58337 37.1176 4.58337 26.8548 4.58337C16.592 4.58337 11.4605 4.58337 8.27224 7.77163C5.08398 10.9599 5.08398 16.0913 5.08398 26.3542C5.08398 36.617 5.08398 41.7485 8.27224 44.9369C11.4605 48.125 16.592 48.125 26.8548 48.125C28.071 48.125 29.215 48.125 30.2923 48.1198" stroke="black" stroke-width="2.5" stroke-linecap="round"/>
<path d="M42.8958 34.375L43.4869 35.9723C44.2619 38.0669 44.6494 39.1142 45.4135 39.8782C46.1775 40.6422 47.2248 41.0298 49.3194 41.8048L50.9167 42.3958L49.3194 42.9869C47.2248 43.7619 46.1775 44.1494 45.4135 44.9135C44.6494 45.6775 44.2619 46.7248 43.4869 48.8194L42.8958 50.4167L42.3048 48.8194C41.5298 46.7248 41.1422 45.6775 40.3782 44.9135C39.6142 44.1494 38.5669 43.7619 36.4723 42.9869L34.875 42.3958L36.4723 41.8048C38.5669 41.0298 39.6142 40.6422 40.3782 39.8782C41.1422 39.1142 41.5298 38.0669 42.3048 35.9723L42.8958 34.375Z" stroke="black" stroke-width="2.5" stroke-linejoin="round"/>
<path d="M5.08398 20.625H48.6257" stroke="black" stroke-width="2.5" stroke-linejoin="round"/>
<path d="M15.3945 12.6041H15.4151" stroke="black" stroke-width="2.5" stroke-linecap="round" stroke-linejoin="round"/>
<path d="M24.5625 12.6041H24.5831" stroke="black" stroke-width="2.5" stroke-linecap="round" stroke-linejoin="round"/>
</svg>
