<svg width="56" height="55" viewBox="0 0 56 55" fill="none" xmlns="http://www.w3.org/2000/svg">
<path d="M27.9987 38.9583H18.832C12.3502 38.9583 9.10931 38.9583 7.09567 36.9446C5.08203 34.931 5.08203 31.6901 5.08203 25.2083V20.625C5.08203 14.1432 5.08203 10.9023 7.09567 8.88864C9.10931 6.875 12.3502 6.875 18.832 6.875H37.1654C43.6471 6.875 46.888 6.875 48.9017 8.88864C50.793 10.78 50.908 13.754 50.9149 19.4792" stroke="black" stroke-width="2.5" stroke-linecap="round" stroke-linejoin="round"/>
<path d="M37.168 32.0835V41.2502C37.168 44.491 37.168 46.1115 38.1747 47.1184C39.1817 48.1252 40.8021 48.1252 44.043 48.1252C47.2838 48.1252 48.9043 48.1252 49.9112 47.1184C50.918 46.1115 50.918 44.491 50.918 41.2502V32.0835C50.918 28.8426 50.918 27.2222 49.9112 26.2152C48.9043 25.2085 47.2838 25.2085 44.043 25.2085C40.8021 25.2085 39.1817 25.2085 38.1747 26.2152C37.168 27.2222 37.168 28.8426 37.168 32.0835Z" stroke="black" stroke-width="2.5" stroke-linecap="round" stroke-linejoin="round"/>
<path d="M23.4154 48.1252H18.832M23.4154 48.1252C25.3138 48.1252 26.8529 46.5861 26.8529 44.6877V38.9585H27.9987M23.4154 48.1252H29.1445V38.9585H27.9987M27.9987 38.9585V48.1252" stroke="black" stroke-width="2.5" stroke-linecap="round" stroke-linejoin="round"/>
</svg>
