<svg width="56" height="55" viewBox="0 0 56 55" fill="none" xmlns="http://www.w3.org/2000/svg">
<path d="M27.9993 49.2708C17.7365 49.2708 12.6051 49.2708 9.41677 46.0826C6.22852 42.8942 6.22852 37.7627 6.22852 27.5C6.22852 17.2371 6.22852 12.1057 9.41677 8.91738C12.6051 5.72913 17.7365 5.72913 27.9993 5.72913C38.2621 5.72913 43.3936 5.72913 46.582 8.91738C49.7702 12.1057 49.7702 17.2371 49.7702 27.5" stroke="black" stroke-width="2.5" stroke-linecap="round" stroke-linejoin="round"/>
<path d="M6.22852 20.625H49.7702" stroke="black" stroke-width="2.5"/>
<path d="M6.22852 29.7916H38.3118" stroke="black" stroke-width="2.5" stroke-linecap="round"/>
<path d="M6.22852 38.9584H27.9993" stroke="black" stroke-width="2.5"/>
<path d="M28 49.2708V20.625" stroke="black" stroke-width="2.5" stroke-linecap="round"/>
<path d="M43.1276 45.1073L48.2366 39.9983C48.9505 39.2846 49.3073 38.9278 49.4979 38.5428C49.8609 37.8104 49.8609 36.9506 49.4979 36.2181C49.3073 35.8331 48.9505 35.4763 48.2366 34.7627C47.523 34.0489 47.1662 33.692 46.7812 33.5014C46.0487 33.1384 45.1889 33.1384 44.4565 33.5014C44.0715 33.692 43.7147 34.0489 43.0011 34.7627L37.4307 40.3331C35.7974 41.9663 34.9807 42.7829 34.4761 43.7836C34.3202 44.0925 34.1875 44.4129 34.0794 44.7418C33.7285 45.806 33.7285 46.961 33.7285 49.2708L35.2296 49.0563C37.513 48.7302 38.6547 48.567 39.6678 48.0603C40.6812 47.5539 41.4966 46.7383 43.1276 45.1073Z" stroke="black" stroke-width="2.5" stroke-linecap="square" stroke-linejoin="round"/>
</svg>
