<svg width="169" height="66" viewBox="0 0 169 66" fill="none" xmlns="http://www.w3.org/2000/svg">
<rect width="132" height="42" rx="21" transform="matrix(1 0 0 -1 0.5 42)" fill="#FFCF91"/>
<path d="M51.3053 27H42.0173V14.13H51.1253V15.84H43.9973V19.494H50.2433V21.204H43.9973V25.29H51.3053V27ZM62.688 17.55C64.542 17.55 65.478 18.666 65.478 20.628V27H63.714V21.114C63.714 19.89 63.462 19.062 62.112 19.062C60.798 19.062 59.97 19.98 59.97 21.366V27H58.206V21.114C58.206 19.89 57.954 19.062 56.604 19.062C55.29 19.062 54.462 19.98 54.462 21.366V27H52.698V17.82H54.462V18.972H54.498C54.984 18.27 55.83 17.55 57.216 17.55C58.494 17.55 59.286 18.126 59.646 19.152H59.682C60.348 18.27 61.284 17.55 62.688 17.55ZM69.9489 27.252C68.1129 27.252 66.9429 26.19 66.9429 24.624C66.9429 22.572 68.4909 21.96 70.7769 21.528C72.2169 21.258 73.0989 21.078 73.0989 20.178C73.0989 19.512 72.7029 18.954 71.3529 18.954C69.7509 18.954 69.2649 19.458 69.1749 20.682H67.3749C67.4649 18.918 68.6169 17.532 71.4249 17.532C73.3149 17.532 74.8269 18.324 74.8269 20.7V24.912C74.8269 25.578 74.9169 25.92 75.2589 25.92C75.3129 25.92 75.3669 25.92 75.4749 25.902V26.982C75.1689 27.054 74.8629 27.09 74.5749 27.09C73.6929 27.09 73.2249 26.748 73.1169 25.704H73.0809C72.4869 26.658 71.4429 27.252 69.9489 27.252ZM70.3449 25.83C71.9289 25.83 73.0989 25.02 73.0989 23.418V22.104C72.8109 22.374 72.0189 22.572 71.0829 22.77C69.4629 23.094 68.7789 23.544 68.7789 24.498C68.7789 25.362 69.2469 25.83 70.3449 25.83ZM78.8634 16.182H76.8654V14.274H78.8634V16.182ZM78.7374 27H76.9734V17.82H78.7374V27ZM82.4815 27H80.7175V14.13H82.4815V27ZM88.0797 27.252C85.2897 27.252 83.9037 25.812 83.8497 23.94H85.6317C85.7037 25.002 86.3517 25.83 88.0617 25.83C89.6097 25.83 90.0237 25.146 90.0237 24.48C90.0237 23.328 88.7997 23.202 87.6117 22.95C86.0097 22.572 84.1737 22.104 84.1737 20.196C84.1737 18.612 85.4517 17.55 87.6657 17.55C90.1857 17.55 91.3917 18.9 91.5177 20.484H89.7357C89.6097 19.782 89.2317 18.972 87.7017 18.972C86.5137 18.972 86.0097 19.44 86.0097 20.124C86.0097 21.078 87.0357 21.168 88.3317 21.456C90.0237 21.852 91.8597 22.338 91.8597 24.39C91.8597 26.172 90.4917 27.252 88.0797 27.252Z" fill="#141219"/>
<path d="M134.544 47.8488C133.639 49.0943 134.422 50.8525 135.953 51.0134L156.624 53.186C158.155 53.3469 159.286 51.7899 158.66 50.3835L150.206 31.3958C149.58 29.9893 147.666 29.7881 146.761 31.0337L134.544 47.8488Z" fill="#FFCF91"/>
</svg>
