<svg width="56" height="55" viewBox="0 0 56 55" fill="none" xmlns="http://www.w3.org/2000/svg">
<path d="M21.125 25.2084V32.0834" stroke="#141B34" stroke-width="2.5" stroke-linecap="round" stroke-linejoin="round"/>
<path d="M26.8548 6.875C17.1617 6.875 12.3151 6.875 9.10073 9.62035C8.64427 10.0102 8.21917 10.4353 7.82933 10.8917C5.08398 14.1061 5.08398 18.9527 5.08398 28.6458C5.08398 38.3389 5.08398 43.1855 7.82933 46.3998C8.21917 46.8563 8.64427 47.2814 9.10073 47.6713C12.3151 50.4167 17.1617 50.4167 26.8548 50.4167C36.5479 50.4167 41.3945 50.4167 44.6088 47.6713C45.0653 47.2814 45.4904 46.8563 45.8802 46.3998C48.6257 43.1855 48.6257 38.3389 48.6257 28.6458" stroke="#141B34" stroke-width="2.5" stroke-linecap="round" stroke-linejoin="round"/>
<path d="M28 18.3334V38.9584" stroke="#141B34" stroke-width="2.5" stroke-linecap="round" stroke-linejoin="round"/>
<path d="M34.875 22.9166V34.375" stroke="#141B34" stroke-width="2.5" stroke-linecap="round" stroke-linejoin="round"/>
<path d="M14.25 27.5V29.7917" stroke="#141B34" stroke-width="2.5" stroke-linecap="round" stroke-linejoin="round"/>
<path d="M35.7644 11.6581C38.9908 11.2565 41.5481 8.69925 41.9496 5.47282C42.0106 4.98437 42.4036 4.58337 42.8958 4.58337C43.3881 4.58337 43.7811 4.98437 43.8421 5.47282C44.2436 8.69925 46.8008 11.2565 50.0273 11.6581C50.5156 11.7188 50.9167 12.112 50.9167 12.6042C50.9167 13.0964 50.5156 13.4896 50.0273 13.5503C46.8008 13.9519 44.2436 16.5092 43.8421 19.7356C43.7811 20.224 43.3881 20.625 42.8958 20.625C42.4036 20.625 42.0106 20.224 41.9496 19.7356C41.5481 16.5092 38.9908 13.9519 35.7644 13.5503C35.276 13.4896 34.875 13.0964 34.875 12.6042C34.875 12.112 35.276 11.7188 35.7644 11.6581Z" stroke="#141B34" stroke-width="2.5" stroke-linecap="round" stroke-linejoin="round"/>
</svg>
