<svg width="175" height="66" viewBox="0 0 175 66" fill="none" xmlns="http://www.w3.org/2000/svg">
<rect y="23.268" width="145" height="42" rx="21" fill="#8DDFC0"/>
<path d="M43.3614 39.45H41.3634V37.542H43.3614V39.45ZM43.2354 50.268H41.4714V41.088H43.2354V50.268ZM50.0396 40.818C51.7316 40.818 53.0996 41.79 53.0996 43.896V50.268H51.3356V44.382C51.3356 43.158 50.7956 42.33 49.4636 42.33C47.9516 42.33 46.9796 43.248 46.9796 44.634V50.268H45.2156V41.088H46.9796V42.24H47.0156C47.5016 41.538 48.4556 40.818 50.0396 40.818ZM59.2052 50.268H57.2252L53.9492 41.088H55.8392L58.2512 48.45H58.2692L60.6452 41.088H62.4812L59.2052 50.268ZM67.4075 50.538C64.5455 50.538 62.8175 48.558 62.8175 45.678C62.8175 42.816 64.5455 40.8 67.4255 40.8C70.2695 40.8 71.9975 42.798 71.9975 45.66C71.9975 48.54 70.2695 50.538 67.4075 50.538ZM67.4255 49.08C69.2975 49.08 70.1615 47.586 70.1615 45.678C70.1615 43.752 69.2975 42.276 67.4255 42.276C65.5175 42.276 64.6535 43.752 64.6535 45.678C64.6535 47.586 65.5175 49.08 67.4255 49.08ZM75.3888 39.45H73.3908V37.542H75.3888V39.45ZM75.2628 50.268H73.4988V41.088H75.2628V50.268ZM81.2749 50.538C78.5389 50.538 76.7569 48.558 76.7569 45.678C76.7569 42.798 78.5389 40.818 81.2569 40.818C83.6149 40.818 85.1809 42.348 85.3969 44.418H83.5789C83.4889 43.464 82.9489 42.276 81.2749 42.276C79.3129 42.276 78.5929 43.95 78.5929 45.678C78.5929 47.406 79.3129 49.062 81.2749 49.062C82.9669 49.062 83.4889 47.91 83.5789 46.866H85.3969C85.2709 48.972 83.6329 50.538 81.2749 50.538ZM95.2294 45.48C95.2294 45.732 95.2294 46.002 95.2114 46.146H88.1554C88.1914 47.676 89.0914 49.098 90.9094 49.098C92.5294 49.098 93.1594 48.054 93.3214 47.442H95.1214C94.6354 49.206 93.2854 50.538 90.8734 50.538C87.9574 50.538 86.3374 48.468 86.3374 45.66C86.3374 42.78 88.0654 40.8 90.8734 40.8C93.6634 40.8 95.2294 42.636 95.2294 45.48ZM88.1554 44.76H93.3934C93.3934 43.32 92.3854 42.24 90.8194 42.24C89.3434 42.24 88.2634 43.248 88.1554 44.76ZM100.337 50.52C97.5475 50.52 96.1615 49.08 96.1075 47.208H97.8895C97.9615 48.27 98.6095 49.098 100.319 49.098C101.867 49.098 102.281 48.414 102.281 47.748C102.281 46.596 101.057 46.47 99.8695 46.218C98.2675 45.84 96.4315 45.372 96.4315 43.464C96.4315 41.88 97.7095 40.818 99.9235 40.818C102.443 40.818 103.649 42.168 103.775 43.752H101.993C101.867 43.05 101.489 42.24 99.9595 42.24C98.7715 42.24 98.2675 42.708 98.2675 43.392C98.2675 44.346 99.2935 44.436 100.589 44.724C102.281 45.12 104.117 45.606 104.117 47.658C104.117 49.44 102.749 50.52 100.337 50.52Z" fill="#141219"/>
<path d="M140.544 17.4192C139.639 16.1737 140.422 14.4156 141.953 14.2546L162.624 12.0821C164.155 11.9211 165.286 13.4781 164.66 14.8846L156.206 33.8723C155.58 35.2788 153.666 35.4799 152.761 34.2344L140.544 17.4192Z" fill="#8DDFC0"/>
</svg>
