<svg width="116" height="116" viewBox="0 0 116 116" fill="none" xmlns="http://www.w3.org/2000/svg">
<g filter="url(#filter0_n_55_2056)">
<circle cx="58" cy="58" r="58" fill="#2786FF"/>
</g>
<path d="M72.4035 51.9369C72.4213 51.9368 72.4395 51.9368 72.4576 51.9368C78.4637 51.9368 83.3326 56.8145 83.3326 62.8318C83.3326 68.4397 79.1034 73.0579 73.6659 73.6602M72.4035 51.9369C72.4392 51.5381 72.4576 51.1343 72.4576 50.7262C72.4576 43.372 66.5068 37.4102 59.1659 37.4102C52.2138 37.4102 46.5082 42.7574 45.9236 49.5706M72.4035 51.9369C72.1562 54.6835 71.0767 57.1896 69.4194 59.2M45.9236 49.5706C39.7939 50.155 34.9993 55.3271 34.9993 61.621C34.9993 67.4776 39.1505 72.3629 44.6659 73.4845M45.9236 49.5706C46.3051 49.5343 46.6917 49.5156 47.0826 49.5156C49.8033 49.5156 52.3141 50.4165 54.3338 51.9368" stroke="white" stroke-width="3" stroke-linecap="round" stroke-linejoin="round"/>
<path d="M59.1659 61.5752V80.9085M59.1659 61.5752C57.4738 61.5752 54.3121 66.3948 53.1243 67.6169M59.1659 61.5752C60.8581 61.5752 64.0198 66.3948 65.2076 67.6169" stroke="white" stroke-width="3" stroke-linecap="round" stroke-linejoin="round"/>
<defs>
<filter id="filter0_n_55_2056" x="0" y="0" width="116" height="116" filterUnits="userSpaceOnUse" color-interpolation-filters="sRGB">
<feFlood flood-opacity="0" result="BackgroundImageFix"/>
<feBlend mode="normal" in="SourceGraphic" in2="BackgroundImageFix" result="shape"/>
<feTurbulence type="fractalNoise" baseFrequency="1 1" stitchTiles="stitch" numOctaves="3" result="noise" seed="1223" />
<feColorMatrix in="noise" type="luminanceToAlpha" result="alphaNoise" />
<feComponentTransfer in="alphaNoise" result="coloredNoise1">
<feFuncA type="discrete" tableValues="0 0 0 0 0 0 0 0 0 0 0 0 1 1 1 1 1 1 1 1 1 1 1 1 1 1 1 1 1 1 1 1 1 1 1 1 1 1 0 0 0 0 0 0 0 0 0 0 0 0 0 0 0 0 0 0 0 0 0 0 0 0 0 0 0 0 0 0 0 0 0 0 0 0 0 0 0 0 0 0 0 0 0 0 0 0 0 0 0 0 0 0 0 0 0 0 0 0 0 0 "/>
</feComponentTransfer>
<feComposite operator="in" in2="shape" in="coloredNoise1" result="noise1Clipped" />
<feComponentTransfer in="alphaNoise" result="coloredNoise2">
<feFuncA type="discrete" tableValues="0 0 0 0 0 0 0 0 0 0 0 0 0 0 0 0 0 0 0 0 0 0 0 0 0 0 0 0 0 0 0 0 0 0 0 0 0 0 0 0 0 0 0 0 0 0 0 0 0 0 0 0 0 0 0 0 0 0 0 0 0 0 1 1 1 1 1 1 1 1 1 1 1 1 1 1 1 1 1 1 1 1 1 1 1 1 1 1 0 0 0 0 0 0 0 0 0 0 0 0 "/>
</feComponentTransfer>
<feComposite operator="in" in2="shape" in="coloredNoise2" result="noise2Clipped" />
<feFlood flood-color="#0865DC" result="color1Flood" />
<feComposite operator="in" in2="noise1Clipped" in="color1Flood" result="color1" />
<feFlood flood-color="rgba(255, 255, 255, 0.25)" result="color2Flood" />
<feComposite operator="in" in2="noise2Clipped" in="color2Flood" result="color2" />
<feMerge result="effect1_noise_55_2056">
<feMergeNode in="shape" />
<feMergeNode in="color1" />
<feMergeNode in="color2" />
</feMerge>
</filter>
</defs>
</svg>
