<svg width="56" height="55" viewBox="0 0 56 55" fill="none" xmlns="http://www.w3.org/2000/svg">
<path d="M44.1511 37.7945C46.9143 35.1551 48.6237 31.5091 48.6237 27.482C48.6237 23.4546 46.9143 19.8086 44.1511 17.1694M39.457 22.3257C40.8387 23.6452 41.6935 25.4683 41.6935 27.482C41.6935 29.4956 40.8387 31.3187 39.457 32.6382" stroke="black" stroke-width="2.5" stroke-linecap="round" stroke-linejoin="round"/>
<path d="M37.1667 16.0417C37.1667 10.6402 37.1667 7.93945 35.4887 6.2614C33.8105 4.58337 31.1098 4.58337 25.7083 4.58337H18.8333C13.4318 4.58337 10.7311 4.58337 9.05303 6.2614C7.375 7.93945 7.375 10.6402 7.375 16.0417V38.9584C7.375 44.3598 7.375 47.0606 9.05303 48.7387C10.7311 50.4167 13.4318 50.4167 18.8333 50.4167H25.7083C31.1098 50.4167 33.8105 50.4167 35.4887 48.7387C37.1667 47.0606 37.1667 44.3598 37.1667 38.9584" stroke="black" stroke-width="2.5" stroke-linecap="round" stroke-linejoin="round"/>
<path d="M26.8542 4.58337H17.6875L18.8333 6.87504H25.7083L26.8542 4.58337Z" stroke="black" stroke-width="2.5" stroke-linecap="round" stroke-linejoin="round"/>
<path d="M15.3894 26.0747C18.6158 25.6732 21.1731 23.1159 21.5746 19.8894C21.6356 19.401 22.0286 19 22.5208 19C23.0131 19 23.4061 19.401 23.4671 19.8894C23.8686 23.1159 26.4258 25.6732 29.6523 26.0747C30.1406 26.1355 30.5417 26.5286 30.5417 27.0208C30.5417 27.513 30.1406 27.9062 29.6523 27.967C26.4258 28.3685 23.8686 30.9258 23.4671 34.1522C23.4061 34.6407 23.0131 35.0417 22.5208 35.0417C22.0286 35.0417 21.6356 34.6407 21.5746 34.1522C21.1731 30.9258 18.6158 28.3685 15.3894 27.967C14.901 27.9062 14.5 27.513 14.5 27.0208C14.5 26.5286 14.901 26.1355 15.3894 26.0747Z" stroke="#141B34" stroke-width="2.5" stroke-linecap="round" stroke-linejoin="round"/>
</svg>
