<svg width="132" height="115" viewBox="0 0 132 115" fill="none" xmlns="http://www.w3.org/2000/svg">
<path d="M29.7655 113.854L123.581 79.8077C124.591 79.4413 125.112 78.3269 124.746 77.3182L100.261 9.84912C99.8945 8.83948 98.7795 8.31985 97.7708 8.6859L3.95529 42.7317C2.94661 43.0978 2.42564 44.2122 2.79169 45.2209L27.2763 112.69C27.6424 113.699 28.7568 114.22 29.7655 113.854Z" fill="#CACAE5"/>
<path d="M9.9825 48.0063L107.441 12.6383L104.115 3.47289C103.55 1.91717 101.832 1.11245 100.276 1.67737L7.81236 35.2325C6.60885 35.6692 5.98702 36.9995 6.42377 38.203L9.98153 48.0066L9.9825 48.0063Z" fill="#7C55FF"/>
<path d="M108.095 12.9438L9.67748 48.6597L5.94557 38.3762C5.41374 36.9107 6.17244 35.2842 7.63891 34.752L100.102 1.19695C101.92 0.537291 103.936 1.4795 104.596 3.29819L108.095 12.9438ZM10.2889 47.3517L106.787 12.3324L103.635 3.64682C103.167 2.3579 101.738 1.68927 100.45 2.15702L7.98623 35.7121C7.04954 36.0521 6.56406 37.0906 6.90434 38.0283L10.288 47.352L10.2889 47.3517Z" fill="#01004C"/>
<path d="M21.844 39.3956C20.5647 39.8599 19.1448 39.1946 18.6798 37.9133C18.2145 36.6311 18.8772 35.21 20.1566 34.7457C21.4359 34.2815 22.8558 34.9468 23.3211 36.229C23.7861 37.5102 23.1233 38.9314 21.844 39.3956ZM20.5049 35.7055C19.7543 35.9778 19.3665 36.8126 19.6396 37.565C19.9126 38.3175 20.7452 38.7083 21.4957 38.4359C22.2462 38.1635 22.6344 37.3297 22.3614 36.5773C22.0883 35.8249 21.2554 35.4331 20.5049 35.7055Z" fill="white"/>
<path d="M29.0296 36.7882C27.7502 37.2525 26.3304 36.5871 25.8654 35.3059C25.4001 34.0237 26.0628 32.6026 27.3421 32.1383C28.6214 31.674 30.0413 32.3394 30.5066 33.6216C30.9716 34.9028 30.3089 36.3239 29.0296 36.7882ZM27.6904 33.098C26.9399 33.3704 26.5521 34.2052 26.8251 34.9576C27.0982 35.71 27.9308 36.1008 28.6813 35.8285C29.4318 35.5561 29.82 34.7223 29.5469 33.9699C29.2739 33.2174 28.4419 32.8253 27.6904 33.098Z" fill="white"/>
<path d="M14.7053 41.9855C13.426 42.4497 12.0061 41.7844 11.5412 40.5032C11.0759 39.221 11.7386 37.7998 13.0179 37.3356C14.2972 36.8713 15.7171 37.5366 16.1824 38.8188C16.6474 40.1001 15.9847 41.5212 14.7053 41.9855ZM13.3662 38.2953C12.6157 38.5677 12.2278 39.4024 12.5009 40.1549C12.774 40.9073 13.6066 41.2981 14.3571 41.0257C15.1076 40.7534 15.4958 39.9196 15.2227 39.1671C14.9496 38.4147 14.1167 38.0229 13.3662 38.2953Z" fill="white"/>
<path d="M31.5435 106.553L128.377 71.4122C128.553 71.3485 128.644 71.1549 128.58 70.9793L107.528 12.9693C107.464 12.7937 107.271 12.7032 107.095 12.767L10.261 47.9082C10.0844 47.9722 9.9949 48.1655 10.0586 48.3411L31.1106 106.351C31.1739 106.526 31.3679 106.617 31.5435 106.553Z" fill="white"/>
<path d="M128.552 71.8928L31.7174 107.034C31.2778 107.194 30.7899 106.966 30.6304 106.526L9.57849 48.5163C9.41897 48.0767 9.64704 47.5888 10.0866 47.4293L106.921 12.2881C107.36 12.1286 107.848 12.3567 108.007 12.7962L129.059 70.8062C129.22 71.2454 128.992 71.7333 128.552 71.8928ZM31.5313 106.016L128.042 70.9919L107.108 13.3064L10.5971 48.3302L31.5313 106.016Z" fill="#01004C"/>
<path d="M114.466 61.1341L93.2436 68.8358C93.1562 68.8675 93.0598 68.8232 93.0277 68.7349L81.0731 35.7931C81.0414 35.7058 81.0867 35.609 81.174 35.5773L102.396 27.8756C102.484 27.8439 102.581 27.8892 102.612 27.9765L114.567 60.9183C114.599 61.0056 114.553 61.1024 114.466 61.1341Z" fill="white"/>
<path d="M114.64 61.6131L93.4174 69.3148C93.0652 69.4426 92.6754 69.2604 92.5476 68.9081L80.5929 35.9664C80.4651 35.6141 80.6473 35.2243 80.9996 35.0965L102.222 27.3948C102.574 27.267 102.964 27.4492 103.092 27.8014L115.047 60.7432C115.174 61.0955 114.992 61.4853 114.64 61.6131ZM93.3897 68.2387L113.969 60.7704L102.248 28.4716L81.6684 35.9399L93.3897 68.2387Z" fill="#CACAE5"/>
<path d="M114.434 61.2101C114.277 61.2672 114.095 61.2452 113.951 61.1366L81.4644 36.4813C81.2397 36.3108 81.196 35.99 81.3658 35.7665C81.5356 35.5431 81.8561 35.4985 82.0805 35.6679L114.568 60.3232C114.792 60.4936 114.836 60.8145 114.666 61.0379C114.606 61.1206 114.525 61.1773 114.434 61.2101Z" fill="#CACAE5"/>
<path d="M93.4171 69.3159C93.3288 69.3479 93.2309 69.3563 93.1327 69.3344C92.8579 69.2744 92.6831 69.0023 92.745 68.7268L101.614 28.4668C101.674 28.192 101.949 28.0174 102.222 28.079C102.497 28.139 102.672 28.4112 102.61 28.6867L93.7403 68.9466C93.7033 69.1229 93.5755 69.2584 93.4171 69.3159Z" fill="#CACAE5"/>
<path d="M73.0619 41.7549L28.1992 58.0356C27.9344 58.1317 27.6414 57.9948 27.5452 57.7299C27.4491 57.465 27.5861 57.172 27.851 57.0759L72.7136 40.7951C72.9785 40.699 73.2715 40.836 73.3676 41.1009C73.4637 41.3657 73.3277 41.6584 73.0619 41.7549Z" fill="#7FD6C3"/>
<path d="M46.4268 59.1214L30.668 64.8403C30.4031 64.9364 30.1101 64.7994 30.014 64.5346C29.9179 64.2697 30.0548 63.9767 30.3197 63.8805L46.0785 58.1617C46.3434 58.0655 46.6364 58.2025 46.7325 58.4674C46.8286 58.7323 46.6917 59.0253 46.4268 59.1214Z" fill="#7C55FF"/>
<path d="M72.0492 49.8231L52.9121 56.768C52.6473 56.8641 52.3543 56.7272 52.2581 56.4623C52.162 56.1974 52.299 55.9044 52.5638 55.8083L71.7009 48.8634C71.9658 48.7673 72.2588 48.9043 72.3549 49.1691C72.451 49.434 72.315 49.7267 72.0492 49.8231Z" fill="#7FD6C3"/>
<path d="M66.9195 75.0611L38.1641 85.4965C37.8992 85.5927 37.6062 85.4557 37.5101 85.1908C37.414 84.9259 37.5509 84.6329 37.8158 84.5368L66.5713 74.1014C66.8361 74.0053 67.1291 74.1422 67.2253 74.4071C67.3214 74.672 67.1844 74.965 66.9195 75.0611Z" fill="#7C55FF"/>
<path d="M78.5237 55.5723L33.2657 71.9965C33.0008 72.0927 32.7078 71.9557 32.6116 71.6908C32.5155 71.4259 32.6525 71.1329 32.9174 71.0368L78.1754 54.6126C78.4403 54.5164 78.7333 54.6534 78.8294 54.9183C78.9255 55.1832 78.7895 55.4758 78.5237 55.5723Z" fill="#7C55FF"/>
<path d="M50.0777 73.5955L35.7383 78.7993C35.4734 78.8954 35.1804 78.7584 35.0843 78.4935C34.9882 78.2287 35.1251 77.9357 35.39 77.8395L49.7294 72.6358C49.9942 72.5396 50.2872 72.6766 50.3834 72.9415C50.4795 73.2064 50.3425 73.4994 50.0777 73.5955Z" fill="#7FD6C3"/>
<path d="M80.5977 62.5207L54.4864 71.9965C54.2215 72.0927 53.9285 71.9557 53.8323 71.6908C53.7362 71.4259 53.8732 71.1329 54.1381 71.0368L80.2495 61.5609C80.5143 61.4648 80.8073 61.6018 80.9035 61.8666C80.9996 62.1315 80.8636 62.4242 80.5977 62.5207Z" fill="#7C55FF"/>
</svg>
