<svg width="414" height="220" viewBox="0 0 414 220" fill="none" xmlns="http://www.w3.org/2000/svg">
<path d="M412.904 122.489L407.115 104.173C406.641 102.673 405.04 101.84 403.538 102.315L391.711 106.054C390.502 106.437 389.168 105.985 388.485 104.919C385.927 100.939 382.897 97.3546 379.494 94.2203C378.559 93.3599 378.343 91.9689 378.927 90.8432L384.647 79.8357C385.373 78.4395 384.83 76.72 383.433 75.9942L366.388 67.1365C364.992 66.4106 363.272 66.9543 362.546 68.3506L356.825 79.3594C356.241 80.485 354.979 81.1066 353.739 80.8361C349.216 79.8516 344.542 79.4333 339.812 79.6273C338.546 79.68 337.413 78.8486 337.031 77.6398L333.293 65.8115C332.819 64.311 331.218 63.4796 329.716 63.9534L311.401 69.7428C309.9 70.2166 309.067 71.8174 309.542 73.3178L313.281 85.1448C313.662 86.3537 313.212 87.6866 312.146 88.3728C308.166 90.9303 304.582 93.959 301.447 97.3638C300.588 98.2968 299.197 98.5146 298.07 97.9299L287.063 92.2091C285.665 91.4833 283.946 92.027 283.22 93.4232L274.362 110.468C273.636 111.864 274.18 113.584 275.576 114.31L286.587 120.031C287.712 120.615 288.332 121.877 288.063 123.116C287.079 127.639 286.66 132.313 286.854 137.041C286.907 138.307 286.074 139.442 284.867 139.823L273.039 143.562C271.537 144.036 270.705 145.636 271.181 147.137L276.97 165.453C277.444 166.953 279.045 167.785 280.545 167.311L292.373 163.572C293.581 163.19 294.915 163.641 295.6 164.707C298.158 168.687 301.186 172.272 304.591 175.406C305.524 176.266 305.742 177.657 305.157 178.783L299.436 189.79C298.71 191.187 299.254 192.906 300.65 193.632L317.695 202.49C319.093 203.216 320.813 202.672 321.538 201.276L327.259 190.267C327.844 189.141 329.105 188.521 330.345 188.79C334.867 189.775 339.543 190.193 344.271 189.999C345.537 189.946 346.67 190.778 347.053 191.986L350.792 203.815C351.265 205.317 352.866 206.148 354.367 205.673L372.683 199.883C374.184 199.41 375.016 197.809 374.541 196.308L370.802 184.481C370.421 183.273 370.872 181.94 371.937 181.253C375.918 178.696 379.501 175.667 382.637 172.262C383.496 171.329 384.887 171.112 386.014 171.698L397.022 177.417C398.418 178.143 400.137 177.599 400.863 176.203L409.721 159.158C410.447 157.762 409.903 156.042 408.507 155.316L397.498 149.596C396.372 149.011 395.752 147.749 396.021 146.51C397.004 141.989 397.424 137.313 397.229 132.585C397.177 131.319 398.009 130.184 399.216 129.803L411.046 126.064C412.545 125.589 413.378 123.988 412.904 122.489ZM351.267 164.309C331.772 169.892 312.031 156.813 309.571 136.682C307.638 120.848 317.703 105.658 333.039 101.266C352.534 95.6838 372.274 108.763 374.733 128.892C376.667 144.727 366.603 159.917 351.267 164.309Z" fill="#CACAE5"/>
<path d="M413.209 115.626L407.419 97.3106C406.945 95.8101 405.345 94.9774 403.844 95.4525L392.016 99.1911C390.808 99.5738 389.474 99.1225 388.789 98.0562C386.232 94.076 383.203 90.4918 379.798 87.3562C378.865 86.4971 378.647 85.1062 379.232 83.9805L384.953 72.973C385.679 71.5768 385.135 69.8572 383.739 69.1314L366.694 60.2737C365.296 59.5478 363.577 60.0915 362.851 61.4878L357.13 72.4966C356.545 73.6223 355.284 74.2425 354.045 73.9733C349.522 72.9888 344.846 72.5705 340.118 72.7645C338.852 72.8173 337.717 71.9859 337.336 70.777L333.597 58.9487C333.124 57.4482 331.523 56.6155 330.022 57.0906L311.706 62.88C310.205 63.3538 309.373 64.9546 309.848 66.455L313.587 78.2821C313.968 79.4909 313.517 80.8238 312.452 81.51C308.471 84.0676 304.888 87.0962 301.753 90.501C300.893 91.434 299.502 91.6518 298.375 91.0658L287.368 85.3463C285.971 84.6205 284.252 85.1642 283.526 86.5604L274.668 103.607C273.942 105.003 274.485 106.723 275.882 107.448L286.891 113.169C288.017 113.754 288.637 115.017 288.368 116.256C287.385 120.778 286.965 125.453 287.16 130.181C287.212 131.447 286.38 132.582 285.173 132.963L273.343 136.702C271.843 137.176 271.01 138.778 271.485 140.277L277.275 158.593C277.748 160.093 279.349 160.925 280.851 160.451L292.678 156.712C293.887 156.329 295.221 156.781 295.905 157.847C298.462 161.827 301.492 165.412 304.896 168.546C305.83 169.406 306.046 170.797 305.462 171.923L299.742 182.93C299.016 184.327 299.559 186.047 300.956 186.773L318.001 195.631C319.398 196.357 321.117 195.813 321.843 194.417L327.564 183.408C328.148 182.282 329.41 181.662 330.65 181.931C335.173 182.914 339.847 183.334 344.577 183.14C345.843 183.087 346.976 183.919 347.358 185.128L351.096 196.956C351.57 198.456 353.171 199.288 354.673 198.814L372.989 193.025C374.489 192.551 375.322 190.95 374.847 189.45L371.108 177.623C370.727 176.414 371.177 175.081 372.243 174.395C376.224 171.837 379.807 168.807 382.942 165.404C383.801 164.471 385.192 164.253 386.319 164.837L397.327 170.558C398.724 171.284 400.443 170.74 401.169 169.344L410.027 152.299C410.753 150.903 410.209 149.183 408.813 148.458L397.803 142.737C396.677 142.152 396.057 140.89 396.326 139.651C397.31 135.129 397.729 130.454 397.535 125.726C397.482 124.46 398.315 123.325 399.522 122.944L411.352 119.205C412.852 118.728 413.684 117.127 413.209 115.626ZM351.573 159.284C332.077 164.868 312.337 151.787 309.877 131.658C307.944 115.823 318.008 100.634 333.344 96.2416C352.838 90.6594 372.578 103.739 375.038 123.868C376.973 139.703 366.909 154.891 351.573 159.284Z" fill="#7C55FF"/>
<path d="M353.814 199.606C352.324 199.606 350.937 198.648 350.466 197.156L346.727 185.327C346.431 184.389 345.554 183.741 344.603 183.8C339.876 183.996 335.131 183.583 330.509 182.578C329.574 182.374 328.602 182.841 328.148 183.713L322.427 194.722C321.995 195.553 321.264 196.167 320.371 196.451C319.476 196.732 318.526 196.65 317.696 196.219L300.651 187.361C299.818 186.928 299.204 186.198 298.922 185.303C298.64 184.41 298.723 183.46 299.156 182.628L304.875 171.621C305.329 170.747 305.154 169.684 304.447 169.034C300.966 165.828 297.906 162.185 295.35 158.206C294.834 157.403 293.82 157.048 292.875 157.343L281.048 161.082C279.206 161.669 277.226 160.64 276.644 158.795L270.855 140.479C270.272 138.634 271.298 136.659 273.143 136.075L284.973 132.337C285.91 132.04 286.539 131.166 286.498 130.211C286.304 125.484 286.716 120.742 287.722 116.118C287.925 115.182 287.458 114.211 286.586 113.757L275.577 108.037C274.744 107.604 274.13 106.875 273.848 105.98C273.566 105.086 273.649 104.136 274.082 103.305L282.939 86.2599C283.371 85.4285 284.102 84.8148 284.995 84.5311C285.889 84.2474 286.84 84.3305 287.67 84.7634L298.678 90.4829C299.55 90.9355 300.615 90.7613 301.267 90.0566C304.471 86.5766 308.114 83.5149 312.094 80.9574C312.897 80.4401 313.254 79.4226 312.957 78.483L309.218 66.656C308.936 65.7626 309.019 64.8124 309.45 63.981C309.882 63.1496 310.613 62.5359 311.508 62.2535L329.824 56.4641C331.665 55.8821 333.644 56.9049 334.226 58.7511L337.965 70.5794C338.262 71.5177 339.145 72.138 340.091 72.1063C344.823 71.911 349.561 72.3227 354.185 73.3283C355.121 73.5329 356.091 73.0657 356.543 72.1934L362.265 61.1846C363.158 59.469 365.278 58.7973 366.998 59.6881L384.043 68.5458C385.76 69.4379 386.43 71.5613 385.538 73.2768L379.817 84.2843C379.363 85.1579 379.54 86.2203 380.245 86.8709C383.724 90.0751 386.784 93.7174 389.344 97.6989C389.861 98.5039 390.88 98.8589 391.817 98.562L403.645 94.8233C404.54 94.5409 405.489 94.624 406.32 95.0556C407.152 95.4884 407.765 96.2182 408.048 97.1116L413.837 115.428C414.421 117.272 413.395 119.248 411.55 119.83L399.721 123.569C398.784 123.866 398.154 124.741 398.195 125.695C398.389 130.423 397.977 135.165 396.97 139.788C396.767 140.723 397.234 141.695 398.107 142.147L409.117 147.868C410.834 148.76 411.504 150.883 410.612 152.599L401.754 169.644C401.323 170.475 400.592 171.089 399.698 171.373C398.802 171.654 397.855 171.573 397.023 171.141L386.014 165.42C385.138 164.963 384.076 165.143 383.428 165.847C380.222 169.327 376.58 172.389 372.6 174.945C371.795 175.463 371.44 176.48 371.737 177.42L375.475 189.245C376.059 191.09 375.032 193.066 373.187 193.649L354.871 199.439C354.52 199.553 354.165 199.606 353.814 199.606ZM344.687 182.478C346.181 182.478 347.525 183.469 347.985 184.929L351.724 196.757C352.088 197.909 353.318 198.549 354.473 198.185L372.789 192.395C373.939 192.031 374.579 190.799 374.217 189.648L370.478 177.821C370.003 176.314 370.581 174.677 371.885 173.839C375.77 171.343 379.328 168.353 382.455 164.957C383.51 163.814 385.221 163.526 386.621 164.252L397.63 169.973C398.149 170.243 398.742 170.295 399.3 170.118C399.858 169.941 400.313 169.558 400.584 169.04L409.442 151.995C409.998 150.923 409.579 149.599 408.508 149.043L397.498 143.322C396.098 142.595 395.351 141.027 395.681 139.51C396.663 134.997 397.066 130.369 396.874 125.751C396.811 124.203 397.818 122.789 399.322 122.314L411.152 118.575C412.301 118.211 412.941 116.979 412.578 115.827L406.789 97.5115C406.612 96.9533 406.229 96.498 405.711 96.2275C405.193 95.9582 404.601 95.9068 404.041 96.0823L392.213 99.821C390.715 100.297 389.072 99.718 388.232 98.4142C385.733 94.5264 382.746 90.9698 379.35 87.8422C378.209 86.7904 377.918 85.0775 378.647 83.6773L384.368 72.6698C384.924 71.5982 384.505 70.2746 383.434 69.7177L366.389 60.8599C365.318 60.303 363.994 60.7214 363.436 61.793L357.715 72.8018C356.988 74.2033 355.416 74.9489 353.904 74.619C349.391 73.6371 344.764 73.2373 340.145 73.4247C338.605 73.4827 337.182 72.4824 336.707 70.9766L332.969 59.1483C332.604 57.9975 331.373 57.3588 330.221 57.7204L311.905 63.5099C311.347 63.6867 310.892 64.0694 310.621 64.588C310.352 65.1067 310.3 65.6992 310.477 66.2575L314.216 78.0844C314.691 79.5902 314.113 81.2279 312.809 82.0659C308.924 84.5628 305.366 87.5505 302.238 90.9487C301.183 92.0916 299.467 92.3806 298.071 91.6521L287.063 85.9326C286.546 85.6634 285.952 85.6119 285.394 85.7874C284.836 85.9643 284.38 86.347 284.11 86.8656L275.252 103.911C274.983 104.429 274.931 105.022 275.108 105.58C275.284 106.137 275.667 106.594 276.185 106.863L287.194 112.584C288.594 113.312 289.341 114.88 289.011 116.396C288.031 120.911 287.628 125.54 287.819 130.155C287.883 131.704 286.875 133.118 285.371 133.593L273.542 137.332C272.391 137.696 271.751 138.928 272.114 140.079L277.903 158.395C278.268 159.547 279.504 160.183 280.652 159.823L292.479 156.084C293.984 155.607 295.621 156.187 296.462 157.491C298.958 161.375 301.944 164.931 305.342 168.062C306.485 169.114 306.774 170.827 306.046 172.228L300.326 183.236C300.057 183.755 300.005 184.348 300.182 184.906C300.358 185.463 300.741 185.92 301.259 186.189L318.304 195.047C318.823 195.317 319.415 195.37 319.974 195.192C320.532 195.015 320.987 194.632 321.258 194.114L326.978 183.105C327.706 181.703 329.28 180.96 330.791 181.288C335.304 182.27 339.935 182.671 344.55 182.482C344.595 182.479 344.641 182.478 344.687 182.478ZM342.452 161.228C335.935 161.228 329.507 159.333 323.972 155.666C315.794 150.247 310.418 141.527 309.222 131.74C307.253 115.615 317.545 100.082 333.162 95.6098C342.64 92.8939 352.766 94.4472 360.944 99.8658C369.123 105.284 374.499 114.004 375.693 123.79C377.664 139.916 367.371 155.448 351.754 159.921C348.693 160.797 345.561 161.228 342.452 161.228ZM342.462 95.6204C339.473 95.6204 336.468 96.0348 333.527 96.8781C318.527 101.174 308.643 116.093 310.533 131.58C311.681 140.983 316.846 149.362 324.701 154.565C332.555 159.769 342.28 161.26 351.391 158.652C366.391 154.357 376.275 139.438 374.384 123.95C373.236 114.547 368.072 106.171 360.216 100.965C354.899 97.4416 348.722 95.6204 342.462 95.6204Z" fill="#01004C"/>
<path d="M348.262 60.219C348.168 60.219 348.073 60.2124 347.978 60.1966L340.584 59.0128C340.117 58.9389 339.708 58.6855 339.429 58.3028C339.152 57.9201 339.041 57.4516 339.115 56.9845L339.879 52.2085C339.911 52.0092 339.812 51.8153 339.638 51.7361C337.922 50.9627 336.312 49.973 334.853 48.7945C334.706 48.6744 334.487 48.6731 334.321 48.7905L330.404 51.6265C330.022 51.9037 329.551 52.0185 329.087 51.9406C328.62 51.8654 328.209 51.6133 327.932 51.2306L323.54 45.1667C323.263 44.7827 323.152 44.3142 323.227 43.8483C323.303 43.3811 323.553 42.9707 323.937 42.6936L327.854 39.8589C328.018 39.7402 328.085 39.5303 328.017 39.3495C327.353 37.5943 326.915 35.756 326.715 33.8887C326.694 33.6986 326.54 33.5429 326.341 33.5099L321.566 32.7458C321.099 32.6706 320.69 32.4185 320.413 32.0358C320.134 31.6518 320.023 31.1833 320.1 30.7162L321.282 23.3233C321.357 22.8561 321.609 22.4457 321.992 22.1686C322.376 21.8901 322.847 21.7793 323.311 21.8545L328.085 22.6186C328.282 22.6476 328.481 22.5513 328.558 22.3758C329.33 20.6641 330.319 19.0541 331.499 17.5919C331.619 17.4428 331.621 17.2237 331.502 17.0587L328.667 13.1419C328.094 12.3514 328.273 11.2429 329.063 10.6702L335.128 6.27826C335.92 5.70419 337.029 5.88499 337.6 6.67284L340.436 10.591C340.555 10.7559 340.762 10.8206 340.944 10.7533C342.701 10.0895 344.539 9.65137 346.406 9.45209C346.598 9.43098 346.752 9.27789 346.785 9.0773L347.548 4.30401C347.623 3.83684 347.875 3.42774 348.258 3.14928C348.641 2.87347 349.106 2.75998 349.576 2.8352L356.97 4.01763C357.934 4.17204 358.592 5.08262 358.439 6.04599L357.675 10.8219C357.643 11.0212 357.741 11.2165 357.917 11.2944C359.628 12.0651 361.238 13.0548 362.701 14.2359C362.85 14.3574 363.069 14.3587 363.231 14.2399L367.15 11.4039C367.532 11.1268 368.004 11.0133 368.468 11.0898C368.935 11.165 369.345 11.4171 369.622 11.7998L374.013 17.8651C374.29 18.2478 374.402 18.7163 374.327 19.1834C374.252 19.6506 374.001 20.0597 373.618 20.3382L369.7 23.1742C369.536 23.2929 369.469 23.5014 369.538 23.6809C370.202 25.4387 370.64 27.2757 370.839 29.1431C370.86 29.3344 371.014 29.4888 371.214 29.5218L375.987 30.2859C376.95 30.4403 377.609 31.3509 377.456 32.313L376.273 39.7071C376.198 40.1743 375.946 40.5847 375.563 40.8619C375.181 41.139 374.715 41.2551 374.245 41.176L369.47 40.4119C369.282 40.3802 369.076 40.4778 368.997 40.6547C368.225 42.369 367.235 43.979 366.055 45.4385C365.935 45.5877 365.934 45.8067 366.052 45.9691L368.888 49.8859C369.461 50.6777 369.283 51.7862 368.491 52.359L362.427 56.7509C361.637 57.3236 360.528 57.1454 359.954 56.3563L357.12 52.4381C357.001 52.2745 356.794 52.2085 356.611 52.2758C354.855 52.9396 353.017 53.3778 351.148 53.577C350.957 53.5981 350.802 53.7512 350.772 53.9505L350.008 58.7264C349.933 59.1936 349.68 59.6027 349.298 59.8812C348.992 60.1029 348.633 60.219 348.262 60.219ZM334.59 47.3837C334.981 47.3837 335.368 47.5131 335.684 47.7691C337.056 48.8763 338.57 49.8067 340.181 50.5352C340.898 50.8572 341.31 51.6331 341.183 52.4197L340.42 57.1943C340.4 57.3131 340.429 57.4318 340.501 57.5295C340.572 57.6271 340.676 57.6905 340.795 57.7103L348.189 58.894C348.309 58.9125 348.428 58.8861 348.524 58.8135C348.622 58.7436 348.687 58.6393 348.705 58.5205L349.469 53.7459C349.595 52.9594 350.228 52.351 351.011 52.2679C352.766 52.0805 354.495 51.6688 356.147 51.0432C356.881 50.7648 357.721 51.0208 358.191 51.6661L361.026 55.5843C361.17 55.7835 361.453 55.8311 361.657 55.6846L367.721 51.294C367.921 51.1475 367.967 50.8651 367.821 50.6632L364.985 46.7463C364.519 46.1023 364.537 45.2248 365.03 44.6124C366.141 43.2386 367.071 41.7249 367.797 40.1136C368.123 39.397 368.907 38.9853 369.683 39.112L374.458 39.8761C374.576 39.8959 374.696 39.8668 374.793 39.7956C374.89 39.7256 374.955 39.6214 374.974 39.5026L376.156 32.1084C376.196 31.863 376.027 31.632 375.782 31.5924L371.009 30.8283C370.223 30.703 369.614 30.0695 369.531 29.2883C369.342 27.5318 368.932 25.8043 368.306 24.152C368.028 23.417 368.284 22.5763 368.931 22.1092L372.847 19.2745C372.944 19.2032 373.009 19.099 373.028 18.9802C373.048 18.8614 373.019 18.7427 372.948 18.6463L368.556 12.5797C368.486 12.4821 368.382 12.4187 368.262 12.3989C368.149 12.3818 368.025 12.4082 367.926 12.4794L364.008 15.3154C363.368 15.7826 362.487 15.7668 361.874 15.2693C360.499 14.1607 358.986 13.2303 357.377 12.5032C356.659 12.1799 356.249 11.4052 356.375 10.6187L357.138 5.84408C357.178 5.59862 357.009 5.36635 356.764 5.32676L349.37 4.14432C349.13 4.10209 348.894 4.27366 348.854 4.5178L348.09 9.29241C347.962 10.0803 347.329 10.6873 346.548 10.7705C344.794 10.9579 343.065 11.3696 341.413 11.9951C340.678 12.2736 339.838 12.0176 339.369 11.3709L336.534 7.45409C336.39 7.2535 336.108 7.20731 335.903 7.35379L329.838 11.7444C329.637 11.8895 329.592 12.1733 329.739 12.3752L332.573 16.292C333.041 16.9373 333.022 17.8149 332.527 18.4273C331.419 19.8011 330.488 21.3147 329.762 22.9247C329.439 23.6413 328.654 24.057 327.877 23.9277L323.102 23.1636C322.975 23.1438 322.863 23.1728 322.767 23.2441C322.669 23.314 322.605 23.4183 322.586 23.5371L321.404 30.9313C321.384 31.05 321.413 31.1701 321.483 31.2665C321.554 31.3641 321.658 31.4288 321.777 31.4473L326.552 32.2114C327.338 32.338 327.947 32.9715 328.03 33.7514C328.218 35.5092 328.629 37.2367 329.254 38.889C329.532 39.6267 329.276 40.466 328.63 40.9318L324.713 43.7665C324.616 43.8378 324.551 43.942 324.533 44.0608C324.513 44.1796 324.542 44.2983 324.613 44.396L329.005 50.4599C329.075 50.5576 329.179 50.6223 329.299 50.6407C329.411 50.6605 329.537 50.6315 329.634 50.5602L333.551 47.7242C333.86 47.4959 334.227 47.3837 334.59 47.3837ZM348.821 44.9212C348.016 44.9212 347.205 44.8473 346.393 44.6956C342.5 43.9631 339.143 41.5824 337.182 38.1631C335.222 34.7438 334.86 30.6436 336.195 26.9141C338.392 20.7671 344.89 17.0429 351.304 18.2491C355.195 18.9815 358.553 21.3622 360.514 24.7815C362.475 28.2008 362.835 32.3011 361.502 36.0305C359.583 41.3977 354.382 44.9212 348.821 44.9212ZM346.639 43.3983C352.417 44.4818 358.278 41.1271 360.26 35.5845C361.463 32.2193 361.138 28.5202 359.37 25.4374C357.6 22.3533 354.571 20.2062 351.058 19.545C345.275 18.4589 339.417 21.8162 337.436 27.3589C336.233 30.7241 336.558 34.4231 338.327 37.5072C340.096 40.59 343.126 42.7371 346.639 43.3983Z" fill="#2AAFEB"/>
<path d="M324.371 129.885L324.293 129.829C323.799 129.562 323.475 129.029 323.475 128.456C323.475 127.923 323.761 127.41 324.293 127.105L333.572 122.266C333.818 122.132 334.065 122.074 334.314 122.074C335.191 122.074 335.856 122.817 335.856 123.655C335.856 124.17 335.591 124.685 335.076 124.97L328.314 128.513L335.018 132.151C335.534 132.399 335.837 132.931 335.837 133.503C335.837 134.341 335.171 135.065 334.314 135.065C334.066 135.065 333.818 135.008 333.59 134.875L324.371 129.885Z" fill="#01004C"/>
<path d="M337.346 138.171C337.346 137.98 337.383 137.789 337.441 137.599L344.031 117.122C344.298 116.302 345.059 115.789 345.877 115.789C347.022 115.789 347.783 116.779 347.783 117.905C347.783 118.113 347.745 118.323 347.688 118.514L341.098 138.782C340.811 139.601 340.07 140.115 339.25 140.115C339.059 140.115 338.888 140.095 338.697 140.038C337.899 139.752 337.346 138.99 337.346 138.171Z" fill="#01004C"/>
<path d="M349.617 124.97C349.103 124.685 348.836 124.17 348.836 123.655C348.836 122.817 349.502 122.074 350.38 122.074C350.627 122.074 350.874 122.131 351.123 122.266L360.399 127.105C360.932 127.41 361.217 127.943 361.217 128.476C361.217 129.029 360.895 129.562 360.399 129.829L360.304 129.885L351.103 134.876C350.874 135.01 350.627 135.067 350.38 135.067C349.522 135.067 348.856 134.343 348.856 133.504C348.856 132.933 349.161 132.399 349.674 132.153L356.359 128.514L349.617 124.97Z" fill="#01004C"/>
<path d="M298.683 119.451C298.639 119.451 298.594 119.447 298.547 119.438C298.19 119.363 297.961 119.014 298.035 118.657C301.443 102.282 313.936 88.7552 329.862 84.1944C333.993 83.012 338.229 82.4089 342.457 82.4062C342.822 82.4062 343.117 82.7019 343.117 83.0661C343.117 83.4303 342.822 83.7259 342.457 83.7259C338.353 83.7299 334.237 84.3145 330.225 85.4626C314.764 89.8902 302.636 103.025 299.326 118.926C299.263 119.237 298.988 119.451 298.683 119.451Z" fill="white"/>
<path d="M342.451 173.109C333.622 173.109 324.911 170.54 317.409 165.57C306.329 158.229 299.044 146.411 297.425 133.151C297.381 132.79 297.637 132.461 298 132.416C298.358 132.367 298.692 132.629 298.735 132.991C300.307 145.868 307.38 157.342 318.138 164.47C328.898 171.599 342.22 173.639 354.691 170.067C375.233 164.183 388.772 143.751 386.181 122.54C384.079 105.334 372.061 90.8817 355.562 85.7231C355.214 85.6148 355.021 85.244 355.129 84.8969C355.239 84.5498 355.604 84.3545 355.957 84.4641C372.949 89.7771 385.328 104.661 387.492 122.38C390.16 144.229 376.215 165.275 355.055 171.335C350.906 172.523 346.663 173.109 342.451 173.109Z" fill="white"/>
<path d="M342.45 165.389C335.125 165.389 327.898 163.258 321.673 159.134C312.479 153.042 306.435 143.237 305.091 132.234C302.877 114.104 314.449 96.6405 332.008 91.6125C342.665 88.5587 354.049 90.306 363.244 96.3963C372.439 102.489 378.483 112.293 379.825 123.295C382.039 141.425 370.467 158.889 352.91 163.917C349.466 164.904 345.946 165.389 342.45 165.389ZM342.463 91.1321C339.059 91.1321 335.631 91.6046 332.279 92.564C315.184 97.4587 303.918 114.463 306.073 132.114C307.382 142.829 313.267 152.376 322.219 158.309C331.171 164.24 342.259 165.937 352.637 162.966C369.732 158.072 380.997 141.069 378.842 123.417C377.533 112.702 371.648 103.156 362.697 97.2238C356.635 93.208 349.598 91.1321 342.463 91.1321Z" fill="white"/>
<path d="M315.643 71.5083H315.041C313.567 71.5083 312.373 70.314 312.373 68.8413V48.4601C312.373 46.9873 313.567 45.793 315.041 45.793H315.643C317.116 45.793 318.31 46.9873 318.31 48.4601V68.8413C318.31 70.314 317.116 71.5083 315.643 71.5083Z" fill="#01004C"/>
<path d="M315.643 72.1679H315.04C313.204 72.1679 311.713 70.6753 311.713 68.8409V48.4597C311.713 46.6254 313.205 45.1328 315.04 45.1328H315.643C317.479 45.1328 318.97 46.6254 318.97 48.4597V68.8409C318.97 70.674 317.477 72.1679 315.643 72.1679ZM315.04 46.4512C313.933 46.4512 313.033 47.3525 313.033 48.4584V68.8396C313.033 69.9468 313.934 70.8468 315.04 70.8468H315.643C316.75 70.8468 317.65 69.9455 317.65 68.8396V48.4584C317.65 47.3512 316.749 46.4512 315.643 46.4512H315.04Z" fill="#01004C"/>
<path d="M195.957 200.378V19.4114C195.957 9.33164 204.129 1.16016 214.208 1.16016H207.997C197.864 1.16016 189.65 9.3752 189.65 19.5077V200.283C189.65 210.416 197.865 218.631 207.997 218.631H214.208C204.13 218.629 195.957 210.458 195.957 200.378Z" fill="#01004C"/>
<path d="M214.208 219.289H207.996C197.517 219.289 188.99 210.763 188.99 200.282V19.5074C188.99 9.02648 197.517 0.5 207.996 0.5H214.208V1.81968C204.507 1.81968 196.617 9.71139 196.617 19.4111V200.378C196.617 210.079 204.507 217.969 214.208 217.969V219.289ZM207.224 1.83552C197.829 2.24198 190.31 10.0123 190.31 19.5061V200.282C190.31 209.775 197.828 217.547 207.224 217.952C200.243 215.169 195.297 208.34 195.297 200.378V19.4111C195.297 11.4494 200.243 4.62005 207.224 1.83552Z" fill="#01004C"/>
<path d="M192.994 55.5448C192.136 55.5448 191.439 54.8493 191.439 53.9902V31.3827C191.439 30.5236 192.135 29.8281 192.994 29.8281C193.853 29.8281 194.55 30.5236 194.55 31.3827V53.9902C194.55 54.8493 193.853 55.5448 192.994 55.5448Z" fill="#CACAE5"/>
<path d="M192.995 56.2043C191.773 56.2043 190.779 55.2119 190.779 53.9899V31.3824C190.779 30.1617 191.773 29.168 192.995 29.168C194.216 29.168 195.21 30.1604 195.21 31.3824V53.9899C195.21 55.2119 194.216 56.2043 192.995 56.2043ZM192.995 30.4877C192.502 30.4877 192.099 30.8888 192.099 31.3824V53.9899C192.099 54.4834 192.502 54.8846 192.995 54.8846C193.489 54.8846 193.89 54.4834 193.89 53.9899V31.3824C193.89 30.8901 193.489 30.4877 192.995 30.4877Z" fill="#01004C"/>
<path d="M192.994 89.5956C192.136 89.5956 191.439 88.9001 191.439 88.041V65.4335C191.439 64.5757 192.135 63.8789 192.994 63.8789C193.853 63.8789 194.55 64.5744 194.55 65.4335V88.041C194.55 88.8988 193.853 89.5956 192.994 89.5956Z" fill="#CACAE5"/>
<path d="M192.995 90.2551C191.773 90.2551 190.779 89.2627 190.779 88.0407V65.4332C190.779 64.2125 191.773 63.2188 192.995 63.2188C194.216 63.2188 195.21 64.2111 195.21 65.4332V88.0407C195.21 89.2614 194.216 90.2551 192.995 90.2551ZM192.995 64.5384C192.502 64.5384 192.099 64.9396 192.099 65.4332V88.0407C192.099 88.5342 192.502 88.9354 192.995 88.9354C193.489 88.9354 193.89 88.5342 193.89 88.0407V65.4332C193.89 64.9396 193.489 64.5384 192.995 64.5384Z" fill="#01004C"/>
<path d="M296.701 1.16016H291.554H214.21C204.13 1.16016 195.959 9.33164 195.959 19.4114V200.378C195.959 210.458 204.13 218.629 214.21 218.629H291.554H296.701C306.782 218.629 314.952 210.458 314.952 200.378V19.4114C314.952 9.33164 306.782 1.16016 296.701 1.16016Z" fill="#CACAE5"/>
<path d="M296.7 219.289H214.208C203.781 219.289 195.297 210.805 195.297 200.378V19.4111C195.297 8.98293 203.781 0.5 214.208 0.5H296.7C307.127 0.5 315.611 8.98293 315.611 19.4111V200.378C315.611 210.806 307.127 219.289 296.7 219.289ZM214.208 1.81968C204.507 1.81968 196.617 9.71139 196.617 19.4111V200.378C196.617 210.079 204.507 217.969 214.208 217.969H296.7C306.401 217.969 314.291 210.079 314.291 200.378V19.4111C314.291 9.71139 306.401 1.81968 296.7 1.81968H214.208Z" fill="#01004C"/>
<path d="M255.453 16.502C253.742 16.502 252.35 15.1098 252.35 13.3994C252.35 11.6891 253.742 10.2969 255.453 10.2969C257.164 10.2969 258.556 11.6891 258.556 13.3994C258.556 15.1098 257.164 16.502 255.453 16.502ZM255.453 11.2866C254.288 11.2866 253.339 12.2342 253.339 13.3994C253.339 14.5647 254.288 15.5123 255.453 15.5123C256.619 15.5123 257.566 14.5647 257.566 13.3994C257.566 12.2342 256.619 11.2866 255.453 11.2866Z" fill="white"/>
<path d="M246.924 15.0643H234.754C233.857 15.0643 233.127 14.3345 233.127 13.4371C233.127 12.5397 233.858 11.8086 234.754 11.8086H246.924C247.822 11.8086 248.551 12.5397 248.551 13.4371C248.551 14.3345 247.822 15.0643 246.924 15.0643ZM234.755 12.7984C234.403 12.7984 234.118 13.0847 234.118 13.4371C234.118 13.7894 234.404 14.0745 234.755 14.0745H246.926C247.278 14.0745 247.563 13.7881 247.563 13.4371C247.563 13.086 247.277 12.7984 246.926 12.7984H234.755Z" fill="white"/>
<path d="M276.432 15.0643H264.263C263.365 15.0643 262.635 14.3345 262.635 13.4371C262.635 12.5397 263.366 11.8086 264.263 11.8086H276.432C277.331 11.8086 278.061 12.5397 278.061 13.4371C278.061 14.3345 277.329 15.0643 276.432 15.0643ZM264.263 12.7984C263.911 12.7984 263.625 13.0847 263.625 13.4371C263.625 13.7894 263.912 14.0745 264.263 14.0745H276.432C276.784 14.0745 277.071 13.7881 277.071 13.4371C277.071 13.086 276.783 12.7984 276.432 12.7984H264.263Z" fill="white"/>
<path d="M305.667 21.6992H205.242V200.227H305.667V21.6992Z" fill="white"/>
<path d="M305.666 200.887H205.242C204.878 200.887 204.582 200.591 204.582 200.227V21.6989C204.582 21.3347 204.878 21.0391 205.242 21.0391H305.666C306.03 21.0391 306.326 21.3347 306.326 21.6989V200.227C306.326 200.593 306.03 200.887 305.666 200.887ZM205.902 199.567H305.006V22.3587H205.902V199.567Z" fill="#01004C"/>
<path d="M304.988 22.3555H205.932V36.0749H304.988V22.3555Z" fill="#7FD6C3"/>
<path d="M280.738 31.3677C279.515 31.3677 278.52 30.3727 278.52 29.1507C278.52 27.9286 279.515 26.9336 280.738 26.9336C281.96 26.9336 282.955 27.9273 282.955 29.1507C282.955 30.374 281.96 31.3677 280.738 31.3677ZM280.738 27.9234C280.061 27.9234 279.509 28.4737 279.509 29.1507C279.509 29.8277 280.061 30.378 280.738 30.378C281.415 30.378 281.965 29.8277 281.965 29.1507C281.965 28.4737 281.415 27.9234 280.738 27.9234Z" fill="white"/>
<path d="M289.692 31.3677C288.47 31.3677 287.475 30.3727 287.475 29.1507C287.475 27.9286 288.47 26.9336 289.692 26.9336C290.914 26.9336 291.909 27.9273 291.909 29.1507C291.909 30.374 290.914 31.3677 289.692 31.3677ZM289.692 27.9234C289.015 27.9234 288.464 28.4737 288.464 29.1507C288.464 29.8277 289.015 30.378 289.692 30.378C290.369 30.378 290.919 29.8277 290.919 29.1507C290.919 28.4737 290.369 27.9234 289.692 27.9234Z" fill="white"/>
<path d="M298.801 31.3677C297.579 31.3677 296.584 30.3727 296.584 29.1507C296.584 27.9286 297.579 26.9336 298.801 26.9336C300.023 26.9336 301.018 27.9273 301.018 29.1507C301.018 30.374 300.023 31.3677 298.801 31.3677ZM298.801 27.9234C298.124 27.9234 297.574 28.4737 297.574 29.1507C297.574 29.8277 298.124 30.378 298.801 30.378C299.478 30.378 300.028 29.8277 300.028 29.1507C300.028 28.4737 299.478 27.9234 298.801 27.9234Z" fill="white"/>
<path d="M252.366 57.183H221.855C221.491 57.183 221.195 56.8874 221.195 56.5231C221.195 56.1589 221.491 55.8633 221.855 55.8633H252.366C252.73 55.8633 253.026 56.1589 253.026 56.5231C253.026 56.8874 252.732 57.183 252.366 57.183Z" fill="#7C55FF"/>
<path d="M270.891 57.183H259.988C259.624 57.183 259.328 56.8874 259.328 56.5231C259.328 56.1589 259.624 55.8633 259.988 55.8633H270.891C271.255 55.8633 271.551 56.1589 271.551 56.5231C271.551 56.8874 271.257 57.183 270.891 57.183Z" fill="#7FD6C3"/>
<path d="M289.598 57.183H279.611C279.247 57.183 278.951 56.8874 278.951 56.5231C278.951 56.1589 279.247 55.8633 279.611 55.8633H289.598C289.963 55.8633 290.258 56.1589 290.258 56.5231C290.258 56.8874 289.964 57.183 289.598 57.183Z" fill="#7FD6C3"/>
<path d="M289.597 80.8041H259.086C258.721 80.8041 258.426 80.5084 258.426 80.1442C258.426 79.78 258.721 79.4844 259.086 79.4844H289.597C289.961 79.4844 290.257 79.78 290.257 80.1442C290.257 80.5084 289.962 80.8041 289.597 80.8041Z" fill="#7C55FF"/>
<path d="M251.465 80.8041H240.56C240.196 80.8041 239.9 80.5084 239.9 80.1442C239.9 79.78 240.196 79.4844 240.56 79.4844H251.465C251.829 79.4844 252.125 79.78 252.125 80.1442C252.125 80.5084 251.829 80.8041 251.465 80.8041Z" fill="#7FD6C3"/>
<path d="M231.844 80.8041H221.855C221.491 80.8041 221.195 80.5084 221.195 80.1442C221.195 79.78 221.491 79.4844 221.855 79.4844H231.844C232.208 79.4844 232.504 79.78 232.504 80.1442C232.504 80.5084 232.208 80.8041 231.844 80.8041Z" fill="#7FD6C3"/>
<path d="M237.558 68.8744H221.855C221.491 68.8744 221.195 68.5788 221.195 68.2145C221.195 67.8503 221.491 67.5547 221.855 67.5547H237.558C237.922 67.5547 238.218 67.8503 238.218 68.2145C238.218 68.5788 237.922 68.8744 237.558 68.8744Z" fill="#7C55FF"/>
<path d="M270.891 68.8744H244.24C243.876 68.8744 243.58 68.5788 243.58 68.2145C243.58 67.8503 243.876 67.5547 244.24 67.5547H270.891C271.255 67.5547 271.551 67.8503 271.551 68.2145C271.551 68.5788 271.256 68.8744 270.891 68.8744Z" fill="#7FD6C3"/>
<path d="M289.598 68.8744H279.611C279.247 68.8744 278.951 68.5788 278.951 68.2145C278.951 67.8503 279.247 67.5547 279.611 67.5547H289.598C289.963 67.5547 290.258 67.8503 290.258 68.2145C290.258 68.5788 289.964 68.8744 289.598 68.8744Z" fill="#7C55FF"/>
<path d="M252.366 91.3041H221.855C221.491 91.3041 221.195 91.0084 221.195 90.6442C221.195 90.28 221.491 89.9844 221.855 89.9844H252.366C252.73 89.9844 253.026 90.28 253.026 90.6442C253.026 91.0084 252.732 91.3041 252.366 91.3041Z" fill="#7C55FF"/>
<path d="M270.891 91.3041H259.988C259.624 91.3041 259.328 91.0084 259.328 90.6442C259.328 90.28 259.624 89.9844 259.988 89.9844H270.891C271.255 89.9844 271.551 90.28 271.551 90.6442C271.551 91.0084 271.257 91.3041 270.891 91.3041Z" fill="#7FD6C3"/>
<path d="M252.366 129.163H221.855C221.491 129.163 221.195 128.868 221.195 128.504C221.195 128.139 221.491 127.844 221.855 127.844H252.366C252.73 127.844 253.026 128.139 253.026 128.504C253.026 128.868 252.732 129.163 252.366 129.163Z" fill="#7C55FF"/>
<path d="M270.891 129.163H259.988C259.624 129.163 259.328 128.868 259.328 128.504C259.328 128.139 259.624 127.844 259.988 127.844H270.891C271.255 127.844 271.551 128.139 271.551 128.504C271.551 128.868 271.257 129.163 270.891 129.163Z" fill="#7FD6C3"/>
<path d="M289.598 91.3041H279.611C279.247 91.3041 278.951 91.0084 278.951 90.6442C278.951 90.28 279.247 89.9844 279.611 89.9844H289.598C289.963 89.9844 290.258 90.28 290.258 90.6442C290.258 91.0084 289.964 91.3041 289.598 91.3041Z" fill="#7FD6C3"/>
<path d="M289.597 114.925H259.086C258.721 114.925 258.426 114.63 258.426 114.265C258.426 113.901 258.721 113.605 259.086 113.605H289.597C289.961 113.605 290.257 113.901 290.257 114.265C290.257 114.63 289.962 114.925 289.597 114.925Z" fill="#7C55FF"/>
<path d="M251.465 114.925H240.56C240.196 114.925 239.9 114.63 239.9 114.265C239.9 113.901 240.196 113.605 240.56 113.605H251.465C251.829 113.605 252.125 113.901 252.125 114.265C252.125 114.63 251.829 114.925 251.465 114.925Z" fill="#7FD6C3"/>
<path d="M231.844 114.925H221.855C221.491 114.925 221.195 114.63 221.195 114.265C221.195 113.901 221.491 113.605 221.855 113.605H231.844C232.208 113.605 232.504 113.901 232.504 114.265C232.504 114.63 232.208 114.925 231.844 114.925Z" fill="#7FD6C3"/>
<path d="M251.465 141.968H240.56C240.196 141.968 239.9 141.673 239.9 141.308C239.9 140.944 240.196 140.648 240.56 140.648H251.465C251.829 140.648 252.125 140.944 252.125 141.308C252.125 141.673 251.829 141.968 251.465 141.968Z" fill="#7C55FF"/>
<path d="M231.844 141.968H221.855C221.491 141.968 221.195 141.673 221.195 141.308C221.195 140.944 221.491 140.648 221.855 140.648H231.844C232.208 140.648 232.504 140.944 232.504 141.308C232.504 141.673 232.208 141.968 231.844 141.968Z" fill="#7C55FF"/>
<path d="M237.558 102.995H221.855C221.491 102.995 221.195 102.7 221.195 102.336C221.195 101.971 221.491 101.676 221.855 101.676H237.558C237.922 101.676 238.218 101.971 238.218 102.336C238.218 102.7 237.922 102.995 237.558 102.995Z" fill="#7C55FF"/>
<path d="M270.891 102.995H244.24C243.876 102.995 243.58 102.7 243.58 102.336C243.58 101.971 243.876 101.676 244.24 101.676H270.891C271.255 101.676 271.551 101.971 271.551 102.336C271.551 102.7 271.256 102.995 270.891 102.995Z" fill="#7FD6C3"/>
<path d="M289.598 102.995H279.611C279.247 102.995 278.951 102.7 278.951 102.336C278.951 101.971 279.247 101.676 279.611 101.676H289.598C289.963 101.676 290.258 101.971 290.258 102.336C290.258 102.7 289.964 102.995 289.598 102.995Z" fill="#7C55FF"/>
<path d="M248.303 154.535H221.652C221.288 154.535 220.992 154.239 220.992 153.875C220.992 153.51 221.288 153.215 221.652 153.215H248.303C248.667 153.215 248.963 153.51 248.963 153.875C248.963 154.239 248.669 154.535 248.303 154.535Z" fill="#7FD6C3"/>
<path d="M231.695 166.308H221.707C221.342 166.308 221.047 166.012 221.047 165.648C221.047 165.284 221.342 164.988 221.707 164.988H231.695C232.06 164.988 232.355 165.284 232.355 165.648C232.355 166.012 232.061 166.308 231.695 166.308Z" fill="#7C55FF"/>
<path d="M171.572 206.379H32.2395C30.7588 206.379 29.5592 205.179 29.5592 203.699V105.95C29.5592 104.469 30.7588 103.27 32.2395 103.27H171.572C173.052 103.27 174.252 104.469 174.252 105.95V203.699C174.253 205.179 173.052 206.379 171.572 206.379Z" fill="#CACAE5"/>
<path d="M166.143 112.832H21.467V99.5928C21.467 97.3111 23.3172 95.4609 25.5989 95.4609H162.945C164.711 95.4609 166.141 96.8915 166.141 98.6572V112.832H166.143Z" fill="#7C55FF"/>
<path d="M20.8075 113.491H166.803V98.6569C166.803 96.5309 165.073 94.8008 162.947 94.8008H25.6006C22.9585 94.8008 20.8088 96.9505 20.8088 99.5925L20.8075 113.491ZM165.483 112.172H22.1272V99.5925C22.1272 97.679 23.6857 96.1205 25.5992 96.1205H162.945C164.344 96.1205 165.482 97.258 165.482 98.6569V112.172H165.483Z" fill="#01004C"/>
<path d="M147.133 107.279C148.968 107.279 150.461 105.783 150.461 103.944C150.461 102.106 148.968 100.609 147.133 100.609C145.297 100.609 143.804 102.106 143.804 103.944C143.804 105.783 145.297 107.279 147.133 107.279ZM147.133 101.929C148.24 101.929 149.141 102.834 149.141 103.944C149.141 105.054 148.24 105.959 147.133 105.959C146.025 105.959 145.124 105.054 145.124 103.944C145.124 102.834 146.025 101.929 147.133 101.929Z" fill="white"/>
<path d="M136.719 107.279C138.554 107.279 140.047 105.783 140.047 103.944C140.047 102.106 138.554 100.609 136.719 100.609C134.883 100.609 133.39 102.106 133.39 103.944C133.39 105.783 134.883 107.279 136.719 107.279ZM136.719 101.929C137.826 101.929 138.727 102.834 138.727 103.944C138.727 105.054 137.826 105.959 136.719 105.959C135.611 105.959 134.71 105.054 134.71 103.944C134.71 102.834 135.61 101.929 136.719 101.929Z" fill="white"/>
<path d="M157.484 107.279C159.32 107.279 160.812 105.783 160.812 103.944C160.812 102.106 159.32 100.609 157.484 100.609C155.649 100.609 154.156 102.106 154.156 103.944C154.156 105.783 155.65 107.279 157.484 107.279ZM157.484 101.929C158.591 101.929 159.493 102.834 159.493 103.944C159.493 105.054 158.591 105.959 157.484 105.959C156.377 105.959 155.476 105.054 155.476 103.944C155.476 102.834 156.377 101.929 157.484 101.929Z" fill="white"/>
<path d="M165.739 197.858H21.9782C21.7209 197.858 21.5123 197.649 21.5123 197.392V113.303C21.5123 113.046 21.7209 112.836 21.9782 112.836H165.739C165.997 112.836 166.205 113.044 166.205 113.303V197.392C166.205 197.649 165.995 197.858 165.739 197.858Z" fill="white"/>
<path d="M21.9785 198.517H165.74C166.36 198.517 166.865 198.012 166.865 197.39V113.303C166.865 112.681 166.36 112.176 165.74 112.176H21.9785C21.3583 112.176 20.8528 112.681 20.8528 113.303V197.39C20.8528 198.012 21.3583 198.517 21.9785 198.517ZM165.546 197.198H22.1725V113.497H165.546V197.198Z" fill="#01004C"/>
<path d="M40.3738 134.109H105.414C105.779 134.109 106.074 133.813 106.074 133.449C106.074 133.085 105.779 132.789 105.414 132.789H40.3738C40.0095 132.789 39.7139 133.085 39.7139 133.449C39.7139 133.813 40.0095 134.109 40.3738 134.109Z" fill="#7FD6C3"/>
<path d="M82.568 143.976H105.414C105.779 143.976 106.074 143.68 106.074 143.316C106.074 142.952 105.779 142.656 105.414 142.656H82.568C82.2038 142.656 81.9082 142.952 81.9082 143.316C81.9082 143.68 82.2038 143.976 82.568 143.976Z" fill="#7C55FF"/>
<path d="M45.4252 143.976H73.1702C73.5345 143.976 73.8301 143.68 73.8301 143.316C73.8301 142.952 73.5345 142.656 73.1702 142.656H45.4252C45.061 142.656 44.7654 142.952 44.7654 143.316C44.7654 143.68 45.061 143.976 45.4252 143.976Z" fill="#7FD6C3"/>
<path d="M63.7256 173.921H105.414C105.779 173.921 106.074 173.626 106.074 173.261C106.074 172.897 105.779 172.602 105.414 172.602H63.7256C63.3614 172.602 63.0657 172.897 63.0657 173.261C63.0657 173.626 63.3614 173.921 63.7256 173.921Z" fill="#7C55FF"/>
<path d="M39.801 154.347H105.414C105.779 154.347 106.074 154.051 106.074 153.687C106.074 153.323 105.779 153.027 105.414 153.027H39.801C39.4368 153.027 39.1412 153.323 39.1412 153.687C39.1412 154.051 39.4355 154.347 39.801 154.347Z" fill="#7C55FF"/>
<path d="M84.6254 164.21H105.414C105.779 164.21 106.074 163.915 106.074 163.55C106.074 163.186 105.779 162.891 105.414 162.891H84.6254C84.2612 162.891 83.9656 163.186 83.9656 163.55C83.9656 163.915 84.2599 164.21 84.6254 164.21Z" fill="#7FD6C3"/>
<path d="M40.3737 164.21H78.2288C78.5931 164.21 78.8887 163.915 78.8887 163.55C78.8887 163.186 78.5931 162.891 78.2288 162.891H40.3737C40.0095 162.891 39.7139 163.186 39.7139 163.55C39.7139 163.915 40.0095 164.21 40.3737 164.21Z" fill="#7C55FF"/>
<path d="M150.022 151.887C150.022 143.846 144.208 137.177 136.556 135.822L137.19 132.082C148.127 133.935 155.492 144.305 153.638 155.242L149.781 154.588C149.927 153.708 150.022 152.809 150.022 151.887Z" fill="#7C55FF"/>
<path d="M113.755 152.591C113.709 151.256 113.797 149.897 114.029 148.531C113.797 149.897 113.71 151.258 113.755 152.591Z" fill="white"/>
<path d="M133.691 168.216C141.787 168.216 148.49 162.317 149.779 154.586L153.637 155.241C151.784 166.177 141.415 173.542 130.478 171.689L131.104 167.991C131.95 168.126 132.809 168.216 133.691 168.216Z" fill="#CACAE5"/>
<path d="M114.03 148.532C115.883 137.595 126.252 130.229 137.189 132.082L136.556 135.822C135.624 135.657 134.67 135.556 133.692 135.556C124.674 135.556 117.361 142.868 117.361 151.887C117.361 160.024 123.32 166.752 131.107 167.993L130.48 171.691C122.277 170.302 116.084 164.121 114.282 156.504C113.981 155.235 113.803 153.926 113.758 152.591C113.711 151.259 113.798 149.898 114.03 148.532Z" fill="#7FD6C3"/>
<path d="M26.7827 127.435C13.6862 127.435 3.06933 116.818 3.06933 103.721C3.06933 90.6247 13.6862 80.0078 26.7827 80.0078C39.8793 80.0078 50.4961 90.6247 50.4961 103.721C50.4961 116.818 39.8793 127.435 26.7827 127.435Z" fill="#01004C"/>
<path d="M26.783 128.095C40.2227 128.095 51.1562 117.162 51.1562 103.721C51.1562 90.2812 40.2227 79.3477 26.783 79.3477C13.3434 79.3477 2.4098 90.2812 2.4098 103.721C2.4098 117.162 13.3434 128.095 26.783 128.095ZM26.783 80.6673C39.4942 80.6673 49.8366 91.0097 49.8366 103.721C49.8366 116.433 39.4955 126.776 26.783 126.776C14.0705 126.776 3.72948 116.433 3.72948 103.721C3.72948 91.0097 14.0718 80.6673 26.783 80.6673Z" fill="#01004C"/>
<path d="M24.6499 125.13C11.5533 125.13 0.936493 114.513 0.936493 101.417C0.936493 88.32 11.5533 77.7031 24.6499 77.7031C37.7464 77.7031 48.3633 88.32 48.3633 101.417C48.3633 114.513 37.7464 125.13 24.6499 125.13Z" fill="#7FD6C3"/>
<path d="M24.6502 125.791C38.0898 125.791 49.0234 114.857 49.0234 101.418C49.0234 87.9765 38.0898 77.043 24.6502 77.043C11.2105 77.043 0.276966 87.9765 0.276966 101.418C0.276966 114.857 11.2105 125.791 24.6502 125.791ZM24.6502 78.3627C37.3614 78.3627 47.7038 88.705 47.7038 101.418C47.7038 114.129 37.3614 124.471 24.6502 124.471C11.939 124.471 1.59665 114.129 1.59665 101.418C1.59665 88.705 11.939 78.3627 24.6502 78.3627Z" fill="#01004C"/>
<path d="M13.73 112.463C13.73 106.292 18.7329 101.289 24.9037 101.289C31.0746 101.289 36.0762 106.292 36.0762 112.463C36.0775 112.504 13.73 112.518 13.73 112.463Z" fill="white"/>
<path d="M23.6991 113.159C26.679 113.159 29.7749 113.155 32.1266 113.15C36.7402 113.137 36.7402 113.137 36.7402 112.462C36.7402 105.938 31.4325 100.629 24.9079 100.629C18.3834 100.629 13.0744 105.937 13.0744 112.462C13.073 113.159 13.073 113.159 23.6991 113.159ZM35.4008 111.817C32.1464 111.846 17.6246 111.849 14.4125 111.82C14.7464 106.321 19.3257 101.95 24.9066 101.95C30.4876 101.95 35.0656 106.321 35.4008 111.817Z" fill="#01004C"/>
<path d="M24.8339 99.7462C21.3282 99.7462 18.4863 96.9042 18.4863 93.3985C18.4863 89.8927 21.3282 87.0508 24.8339 87.0508C28.3397 87.0508 31.1816 89.8927 31.1816 93.3985C31.1816 96.9042 28.3397 99.7462 24.8339 99.7462Z" fill="white"/>
<path d="M24.8343 100.406C28.6983 100.406 31.8418 97.2622 31.8418 93.3981C31.8418 89.5341 28.6983 86.3906 24.8343 86.3906C20.9702 86.3906 17.8267 89.5341 17.8267 93.3981C17.8267 97.2622 20.9702 100.406 24.8343 100.406ZM24.8343 87.7116C27.9698 87.7116 30.5221 90.2639 30.5221 93.3994C30.5221 96.535 27.9711 99.0873 24.8343 99.0873C21.6974 99.0873 19.1464 96.535 19.1464 93.3994C19.1464 90.2639 21.6974 87.7116 24.8343 87.7116Z" fill="#01004C"/>
</svg>
