<svg width="199" height="172" viewBox="0 0 199 172" fill="none" xmlns="http://www.w3.org/2000/svg">
<path d="M42.5781 170.864L169.377 127.622C170.725 127.163 171.444 125.699 170.985 124.351L140.648 35.3947C140.189 34.0473 138.725 33.3279 137.377 33.7874L10.5779 77.0295C9.23036 77.489 8.51096 78.953 8.97049 80.3005L39.3071 169.257C39.7655 170.605 41.2306 171.324 42.5781 170.864Z" fill="#CACAE5"/>
<path d="M18.4849 84.0487L150.147 39.1483L146.038 27.1001C145.33 25.0236 143.072 23.914 140.996 24.6222L16.0037 67.2479C14.3968 67.7959 13.5389 69.5417 14.0869 71.1486L18.4861 84.0483L18.4849 84.0487Z" fill="#7C55FF"/>
<path d="M150.951 39.5432L18.0878 84.8532L13.4839 71.353C12.8241 69.4182 13.8616 67.3068 15.7964 66.647L140.788 24.0213C143.193 23.2014 145.816 24.4906 146.636 26.8949L150.951 39.5432ZM18.8792 83.2427L149.34 38.7518L145.436 27.3041C144.842 25.5627 142.94 24.628 141.199 25.2219L16.2071 67.8476C14.9341 68.2817 14.2519 69.67 14.6861 70.943L18.8804 83.2422L18.8792 83.2427Z" fill="#01004C"/>
<path d="M34.0598 73.0954C32.3892 73.6651 30.5664 72.7664 29.9959 71.0935C29.4254 69.4205 30.3192 67.5954 31.9898 67.0257C33.6604 66.456 35.4831 67.3547 36.0537 69.0276C36.6242 70.7006 35.7303 72.5257 34.0598 73.0954ZM32.3994 68.2266C31.3918 68.5703 30.8524 69.6739 31.1969 70.6839C31.5413 71.6939 32.6426 72.2381 33.6502 71.8945C34.6578 71.5508 35.1971 70.4472 34.8527 69.4372C34.5082 68.4272 33.407 67.883 32.3994 68.2266Z" fill="white"/>
<path d="M43.5402 69.8611C41.8697 70.4308 40.0469 69.5321 39.4764 67.8591C38.9059 66.1861 39.7997 64.361 41.4703 63.7913C43.1408 63.2216 44.9636 64.1203 45.5341 65.7932C46.1047 67.4662 45.2108 69.2913 43.5402 69.8611ZM41.8798 64.9923C40.8722 65.3359 40.3329 66.4395 40.6774 67.4495C41.0218 68.4596 42.123 69.0037 43.1307 68.6601C44.1383 68.3164 44.6776 67.2128 44.3332 66.2028C43.9887 65.1928 42.8887 64.6482 41.8798 64.9923Z" fill="white"/>
<path d="M24.6398 76.3064C22.9693 76.8761 21.1465 75.9774 20.576 74.3044C20.0055 72.6315 20.8993 70.8063 22.5699 70.2366C24.2404 69.6669 26.0632 70.5656 26.6337 72.2386C27.2043 73.9115 26.3092 75.7371 24.6398 76.3064ZM22.9795 71.4376C21.9718 71.7812 21.4325 72.8848 21.777 73.8948C22.1214 74.9049 23.2227 75.449 24.2303 75.1054C25.2379 74.7618 25.7772 73.6581 25.4328 72.6481C25.0883 71.6381 23.9871 71.094 22.9795 71.4376Z" fill="white"/>
<path d="M45.2384 161.3L176.068 116.683C176.302 116.604 176.427 116.349 176.348 116.115L150.25 39.5897C150.171 39.3555 149.916 39.2293 149.681 39.3092L18.8517 83.9257C18.6175 84.0056 18.4924 84.2601 18.5727 84.4955L44.6699 161.021C44.7498 161.255 45.0055 161.379 45.2384 161.3Z" fill="white"/>
<path d="M176.272 117.285L45.4419 161.902C44.8774 162.094 44.2606 161.791 44.0676 161.225L17.9709 84.7014C17.778 84.1358 18.0811 83.5189 18.6455 83.3264L149.475 38.7098C150.04 38.5173 150.657 38.8205 150.85 39.3861L176.946 115.91C177.139 116.476 176.836 117.093 176.272 117.285ZM45.2088 160.64L175.686 116.144L149.709 39.9722L19.2321 84.4684L45.2088 160.64Z" fill="#01004C"/>
<path d="M139.544 64.379L80.3538 84.5646C80.0223 84.6776 79.6616 84.5003 79.5485 84.1688C79.4355 83.8374 79.6128 83.4766 79.9442 83.3636L139.134 63.1781C139.466 63.065 139.827 63.2423 139.94 63.5738C140.053 63.9052 139.876 64.266 139.544 64.379Z" fill="#FF9C40"/>
<path d="M104.208 86.4527L83.4163 93.5431C83.0848 93.6561 82.7241 93.4788 82.611 93.1474C82.498 92.8159 82.6753 92.4551 83.0067 92.3421L103.798 85.2517C104.13 85.1386 104.49 85.3159 104.603 85.6474C104.716 85.9788 104.539 86.3396 104.208 86.4527Z" fill="#7C55FF"/>
<path d="M138.009 74.9265L112.76 83.5372C112.429 83.6503 112.068 83.473 111.955 83.1415C111.842 82.81 112.019 82.4493 112.35 82.3362L137.6 73.7255C137.931 73.6125 138.292 73.7897 138.405 74.1212C138.518 74.4527 138.341 74.8134 138.009 74.9265Z" fill="#FF9C40"/>
<path d="M130.648 107.857L92.7093 120.795C92.3778 120.908 92.017 120.731 91.904 120.399C91.791 120.068 91.9682 119.707 92.2997 119.594L130.239 106.656C130.57 106.543 130.931 106.72 131.044 107.052C131.157 107.383 130.98 107.744 130.648 107.857Z" fill="#7C55FF"/>
<path d="M146.347 82.6193L86.6351 102.983C86.3036 103.096 85.9428 102.918 85.8298 102.587C85.7167 102.255 85.894 101.895 86.2255 101.782L145.937 81.4183C146.268 81.3052 146.629 81.4825 146.742 81.814C146.855 82.1455 146.679 82.5058 146.347 82.6193Z" fill="#7C55FF"/>
<path d="M108.617 105.507L89.6976 111.959C89.3661 112.072 89.0053 111.895 88.8923 111.563C88.7792 111.232 88.9565 110.871 89.288 110.758L108.207 104.306C108.538 104.193 108.899 104.37 109.012 104.702C109.125 105.033 108.949 105.394 108.617 105.507Z" fill="#FF9C40"/>
<path d="M148.886 91.7751L114.436 103.524C114.104 103.637 113.744 103.459 113.631 103.128C113.518 102.796 113.695 102.436 114.026 102.323L148.476 90.5741C148.808 90.4611 149.169 90.6384 149.282 90.9698C149.395 91.3013 149.217 91.6621 148.886 91.7751Z" fill="#7C55FF"/>
<path d="M45.2752 114.586C42.7797 107.268 46.0017 99.395 52.5443 95.7869L50.8071 92.5799C41.4284 97.6606 37.9442 109.384 43.026 118.762L46.3333 116.969C45.9268 116.213 45.5615 115.425 45.2752 114.586Z" fill="#7C55FF"/>
<path d="M78.4979 103.972C78.1259 102.744 77.6236 101.534 76.9883 100.363C77.6236 101.534 78.1251 102.745 78.4979 103.972Z" fill="white"/>
<path d="M65.2058 124.38C57.8378 126.892 49.9073 123.604 46.3347 116.969L43.0274 118.762C48.1076 128.139 59.8295 131.624 69.2082 126.543L67.4901 123.373C66.762 123.758 66.0081 124.106 65.2058 124.38Z" fill="#CACAE5"/>
<path d="M76.9866 100.363C71.9059 90.984 60.184 87.4993 50.8054 92.58L52.5425 95.7869C53.3392 95.3477 54.176 94.9591 55.0659 94.6556C63.2734 91.8566 72.1974 96.2418 74.9964 104.449C77.5218 111.855 74.1874 119.826 67.4858 123.373L69.2039 126.544C76.2379 122.733 79.9561 115.187 79.2314 107.696C79.1112 106.447 78.867 105.201 78.4938 103.973C78.1234 102.745 77.6219 101.534 76.9866 100.363Z" fill="#FF9C40"/>
<path d="M149.838 54.0845C161.757 50.0199 168.124 37.0631 164.059 25.1446C159.995 13.2261 147.038 6.85915 135.119 10.9237C123.201 14.9882 116.834 27.9451 120.899 39.8636C124.963 51.7821 137.92 58.149 149.838 54.0845Z" fill="#01004C"/>
<path d="M150.042 54.6873C137.812 58.8584 124.468 52.3015 120.297 40.0695C116.126 27.8388 122.683 14.4954 134.913 10.3244C147.144 6.15335 160.487 12.7102 164.658 24.941C168.83 37.1729 162.273 50.5163 150.042 54.6873ZM135.323 11.5254C123.755 15.4703 117.553 28.0921 121.498 39.66C125.443 51.229 138.064 57.4317 149.633 53.4863C161.202 49.541 167.403 36.9196 163.457 25.3505C159.513 13.7827 146.891 7.58041 135.323 11.5254Z" fill="#01004C"/>
<path d="M151.063 51.3286C162.982 47.264 169.348 34.3072 165.284 22.3887C161.219 10.4702 148.263 4.10329 136.344 8.16783C124.426 12.2324 118.059 25.1892 122.123 37.1077C126.188 49.0262 139.145 55.3931 151.063 51.3286Z" fill="#FF9C40"/>
<path d="M151.267 51.9295C139.036 56.1005 125.693 49.5437 121.522 37.3129C117.35 25.081 123.907 11.7376 136.138 7.56656C148.369 3.39553 161.712 9.95238 165.883 22.1844C170.055 34.4151 163.498 47.7585 151.267 51.9295ZM136.547 8.76754C124.98 12.7125 118.777 25.3343 122.723 36.9034C126.668 48.4712 139.29 54.6735 150.857 50.7285C162.425 46.7836 168.627 34.1617 164.683 22.5939C160.737 11.0249 148.115 4.82259 136.547 8.76754Z" fill="#01004C"/>
<path d="M157.072 36.4112C155.156 30.7954 149.051 27.7952 143.435 29.7103C137.819 31.6255 134.82 37.7306 136.735 43.3464C136.747 43.384 157.089 36.4616 157.072 36.4112Z" fill="white"/>
<path d="M148.216 40.1372C145.504 41.062 142.685 42.0193 140.544 42.7443C136.341 44.1641 136.341 44.1641 136.132 43.5504C134.107 37.6128 137.289 31.134 143.227 29.1091C149.165 27.0842 155.643 30.2668 157.669 36.2056C157.886 36.8393 157.886 36.8394 148.216 40.1372ZM137.15 42.5474C140.121 41.5639 153.337 37.0594 156.251 36.0361C154.241 31.1352 148.717 28.5788 143.638 30.3108C138.559 32.0429 135.749 37.4413 137.15 42.5474Z" fill="#01004C"/>
<path d="M143.018 28.2846C146.208 27.1966 147.912 23.7282 146.824 20.5378C145.736 17.3475 142.268 15.6431 139.078 16.7311C135.887 17.8192 134.183 21.2875 135.271 24.4779C136.359 27.6683 139.827 29.3726 143.018 28.2846Z" fill="white"/>
<path d="M143.223 28.8843C139.706 30.0835 135.87 28.1983 134.671 24.6819C133.472 21.1654 135.357 17.3291 138.873 16.1299C142.39 14.9307 146.226 16.8158 147.425 20.3323C148.625 23.8487 146.739 27.6851 143.223 28.8843ZM139.283 17.332C136.43 18.3052 134.899 21.42 135.872 24.2735C136.845 27.127 139.959 28.658 142.814 27.6845C145.668 26.711 147.198 23.5965 146.225 20.743C145.252 17.8895 142.138 16.3585 139.283 17.332Z" fill="#01004C"/>
</svg>
