<svg width="320" height="133" viewBox="0 0 320 133" fill="none" xmlns="http://www.w3.org/2000/svg">
<path fill-rule="evenodd" clip-rule="evenodd" d="M0.455182 69.3554C0.352016 65.6145 1.60533 62.1679 2.8331 58.7579C5.27128 51.9816 9.24875 46.1594 13.9862 40.8632C14.9627 39.7725 16.1231 38.8539 17.1986 37.8561C18.2415 37.8821 18.8268 37.3738 18.9381 36.3092L18.93 36.3207C20.1567 36.4292 20.7778 35.6798 21.2047 34.6496L21.1475 34.6339C22.7399 34.2905 23.8584 33.301 24.6929 31.9211L24.6398 31.918C26.077 31.9555 26.6337 30.2229 28.0157 30.1623C29.7031 30.0893 28.5795 29.5914 28.1607 29.1968C30.6684 27.2669 33.175 25.339 35.6826 23.408C37.5253 23.3569 38.4487 22.2024 38.9645 20.5574L38.9553 20.5835C39.0912 20.4447 39.227 20.3059 39.3629 20.1681L39.3404 20.19C39.4762 20.0501 39.6121 19.9103 39.7469 19.7715L39.7234 19.7882C40.2811 19.7871 40.5569 19.5283 40.4681 18.9364L40.467 18.998C40.6019 18.8467 40.7377 18.6974 40.8726 18.546L40.8256 18.5784C41.0819 18.5471 41.2219 18.401 41.2444 18.139L41.2158 18.188C41.3577 18.045 41.4987 17.9031 41.6407 17.7601L41.5661 17.7799C42.0247 17.7142 42.0544 17.3707 42.0452 17.0033L42.0186 17.0284C43.5875 16.399 44.1575 15.0734 44.3802 13.5035C44.7745 12.8021 45.1677 12.0996 45.562 11.3993C45.6876 11.0726 45.8122 10.7438 45.9379 10.416L45.9471 10.367C47.6457 9.18539 47.8326 7.19908 48.1268 5.44657C48.4373 3.59698 48.991 2.44463 50.9787 2.49786C50.9552 3.33185 51.4996 3.72329 52.1329 4.04478L52.1023 4.01866C52.2514 4.1533 52.3995 4.28798 52.5486 4.42263L52.5047 4.39966C53.329 5.90688 53.3116 7.95581 55.2013 8.77831L55.184 8.75222C55.188 9.15095 55.1931 9.54967 55.1982 9.94839C55.1982 10.8544 55.1982 11.7604 55.1982 12.6393C55.661 12.9201 55.7641 11.7959 56.3392 12.4963C55.6712 13.5975 55.7927 15.0891 56.2708 15.9397C57.283 17.7403 57.5139 17.6087 56.5741 19.6347C56.4076 19.9927 56.5149 20.3601 56.7478 20.5125C58.6007 21.7192 57.95 23.4894 57.5884 25.028C57.1819 26.7575 56.4883 28.5789 56.3464 30.2041C56.1145 32.8355 54.9562 34.9376 54.1288 37.2527C53.5568 38.8529 52.0737 40.0198 52.0757 41.8757C51.3944 43.7472 49.755 44.8682 48.6008 46.3619C47.4424 47.8618 46.3679 49.4358 45.136 50.8783C44.3005 51.5651 43.465 52.2519 42.6284 52.9408C41.9798 52.85 41.4987 53.0337 41.3465 53.7571L41.3863 53.7028C40.7673 53.9032 40.32 54.2696 40.226 54.972C40.226 54.972 40.3138 54.9063 40.3118 54.9063C39.4701 55.6777 38.6683 56.498 37.7868 57.2162C33.5887 60.6335 29.6663 64.3369 26.2986 68.6268C26.2854 68.8805 26.2721 69.1352 26.2578 69.3877V69.3867C25.6848 69.3815 25.3027 69.7353 25.0127 70.1654C22.7512 73.5086 20.5949 76.9134 19.3355 80.814C19.314 80.9414 19.2895 81.0677 19.2609 81.1929C19.1547 81.4581 19.0485 81.7242 18.9412 81.9893C18.9351 82.1344 18.929 82.2785 18.9228 82.4246C18.8922 82.5185 18.8789 82.6156 18.884 82.7127C18.0219 83.3097 18.1966 84.2324 18.169 85.0915C17.7134 85.6802 17.5735 86.3826 17.4744 87.1008C17.4274 87.869 17.3794 88.6372 17.3324 89.4054C17.2405 89.6445 17.0832 89.8783 17.0648 90.1236C16.3631 99.5834 18.4775 108.256 23.887 116.052C24.4539 116.868 25.4825 117.618 25.1087 118.91C23.5448 117.74 22.0627 116.487 20.6337 115.135C18.6848 113.289 16.5 111.704 14.7319 109.648C10.3652 104.572 5.70846 99.7045 3.30909 93.2027C2.47662 90.9482 1.64005 88.6936 1.27846 86.2939C1.8423 85.6979 2.16813 85.0414 1.80859 84.198C1.04455 82.4069 0.522602 80.5855 1.11197 78.6148C1.28358 78.0428 1.01595 77.7578 0.479698 77.6691C0.470505 74.8968 0.462332 72.1266 0.455182 69.3554Z" fill="#338CFB"/>
<path fill-rule="evenodd" clip-rule="evenodd" d="M42.4977 131.172C41.0156 130.591 39.8287 129.539 38.5724 128.598C38.6388 127.701 38.0095 127.709 37.4151 127.672L37.4243 127.694C37.5172 126.678 36.8492 125.973 36.3385 125.275C35.1475 123.646 34.1281 121.924 33.1628 120.151C30.6807 115.595 29.2844 110.663 28.2027 105.614C28.2241 100.74 27.9167 95.8475 28.9923 91.0304C29.8819 88.6715 30.8421 86.3386 31.6439 83.9483C32.6827 80.8535 34.8237 78.3526 35.9564 75.3183C36.5019 75.2954 36.652 74.833 36.9064 74.4614C38.7327 71.7956 40.5601 69.1308 42.415 66.4848C46.3649 60.8525 51.3342 55.8747 53.1943 48.9043C53.4649 48.5077 53.7346 48.1111 54.0053 47.7144L53.9563 47.7363C54.0982 47.5933 54.2402 47.4514 54.3822 47.3094L54.3618 47.3564C54.4997 47.1852 54.6376 47.014 54.7755 46.8429C57.7765 43.7126 60.7979 40.5948 62.9776 36.7714C64.757 33.6505 66.0256 30.3114 66.901 26.6289C70.2421 29.0547 71.6159 32.6964 73.2686 36.1388C73.2084 36.9948 73.4178 37.7995 73.6701 38.6084C74.8774 42.4652 75.1981 46.4399 75.1951 50.4658C75.1951 51.5221 74.2676 52.5628 75.1338 53.6264C74.0092 60.0582 71.0858 65.4702 66.8193 70.352C65.0328 72.3968 62.6201 73.8716 61.374 76.4091C56.6396 79.53 52.3403 83.1759 48.5957 87.4888C46.1351 89.6777 44.0422 92.213 42.1423 94.9008C41.3037 96.0865 40.3354 97.266 40.0963 98.8076C39.5948 99.221 39.2394 99.7053 38.9523 100.331C36.9115 104.774 36.1495 109.474 36.7154 114.286C37.2915 119.185 38.7828 123.824 42.0248 127.677C42.2883 127.94 42.5509 128.203 42.8134 128.466L42.7991 128.48C43.1076 128.793 43.4794 129.064 43.7092 129.428C44.1668 130.15 45.5304 130.707 45.0197 131.523C44.4211 132.479 43.5978 131.114 42.8083 131.044C42.7102 131.038 42.6019 131.128 42.4977 131.172Z" fill="#338CFB"/>
<path fill-rule="evenodd" clip-rule="evenodd" d="M73.3325 70.8918C76.402 68.3909 79.7002 66.1874 82.6573 63.1406C83.0669 65.2866 83.5623 67.1227 83.5755 69.0495C82.6011 69.2489 82.8534 70.0651 82.9535 70.6193C83.7522 75.069 82.9637 79.3892 82.0229 83.7011C81.9157 84.1948 81.5439 84.6635 82.073 85.1196C80.7533 90.2143 78.2896 94.6107 74.4531 98.17C74.3172 98.2775 73.7523 97.9331 74.0843 98.5354C73.9689 98.6836 73.8524 98.8307 73.738 98.9779C72.738 99.4664 71.7983 100.007 71.7585 101.338L71.784 101.324C69.781 101.801 68.7667 103.493 67.543 104.927L67.5951 104.923C67.1089 104.805 66.8065 104.969 66.7463 105.503C61.3612 110.451 55.3255 114.575 49.8333 119.391C48.6923 119.051 48.724 121.175 47.4584 120.572C46.8527 117.447 47.0744 114.29 47.1326 111.141C47.8159 107.435 49.0182 103.949 50.7924 100.605C51.6841 98.9226 53.1611 97.4738 53.2929 95.3967C56.4093 92.2131 58.7412 88.3115 62.0997 85.3513C64.8229 82.9506 67.1988 80.2472 69.1375 77.144C70.3172 75.2558 70.5603 72.7998 72.5001 71.3771L72.5052 71.375C72.7574 71.1684 73.4684 71.7873 73.3325 70.8918Z" fill="#338CFB"/>
<path fill-rule="evenodd" clip-rule="evenodd" d="M28.2017 105.617C29.2844 110.666 30.6797 115.598 33.1618 120.154C34.1281 121.927 35.1475 123.65 36.3375 125.278C36.8482 125.976 37.5162 126.682 37.4233 127.697C33.2047 124.935 29.0015 122.148 25.1067 118.91C25.4796 117.618 24.451 116.868 23.8841 116.052C18.4745 108.256 16.3601 99.5831 17.0619 90.1233C17.0803 89.8791 17.2376 89.6442 17.3305 89.4062C18.0935 90.307 17.3479 91.2569 17.3652 92.1775C17.451 96.6334 17.3918 96.6344 21.639 98.1959C22.0782 98.3577 22.6706 98.721 22.5889 99.0592C22.1629 100.831 24.1905 101.655 24.0679 103.3C24.0465 103.578 24.596 104.19 24.737 104.147C26.3141 103.671 26.9995 105.275 28.2017 105.617Z" fill="#115BB7"/>
<path fill-rule="evenodd" clip-rule="evenodd" d="M72.502 71.3773C70.5623 72.7999 70.3181 75.257 69.1394 77.1442C67.2007 80.2484 64.8248 82.9508 62.1017 85.3515C58.7432 88.3116 56.4122 92.2133 53.2948 95.3969C52.4828 95.4626 51.8965 95.2121 51.3408 94.5002C50.398 93.2926 49.4593 91.7833 48.1743 91.2259C46.5094 90.5026 47.4082 89.9525 47.9057 89.3241C48.35 88.7636 49.3153 88.488 48.5982 87.4902C52.3438 83.1783 56.6421 79.5324 61.3764 76.4114C64.974 75.3823 68.1537 73.4054 71.4652 71.7322C71.8064 71.56 72.0893 71.3 72.502 71.3773Z" fill="#1F71DB"/>
<path fill-rule="evenodd" clip-rule="evenodd" d="M52.0723 41.8735C52.0702 40.0187 53.5534 38.8507 54.1254 37.2506C54.9538 34.9355 56.111 32.8333 56.3429 30.2019C56.4859 28.5767 57.1785 26.7553 57.585 25.0258C57.9466 23.4862 58.5972 21.717 56.7443 20.5104C56.5115 20.358 56.4042 19.9906 56.5707 19.6326C57.5104 17.6066 57.2796 17.7381 56.2673 15.9376C55.7893 15.0879 55.6677 13.5953 56.3358 12.4941C55.7607 11.7937 55.6575 12.9168 55.1948 12.6371C55.1948 11.7582 55.1948 10.8523 55.1948 9.94625C55.3031 9.75419 55.4124 9.56315 55.5217 9.37109C55.7934 9.64978 55.9486 9.97754 55.9282 10.3794C56.0998 10.6445 55.5993 11.1946 56.2796 11.2426C58.3991 15.6077 58.5462 20.3016 58.204 24.9871C57.7515 31.1778 55.729 36.856 52.0723 41.8735Z" fill="#1F71DB"/>
<path fill-rule="evenodd" clip-rule="evenodd" d="M47.4602 120.573C48.7258 121.176 48.6941 119.052 49.8351 119.393C46.83 122.151 46.641 126.045 45.9944 129.694C45.3652 133.247 45.5041 133.273 42.498 131.173C42.6033 131.129 42.7105 131.038 42.8106 131.046C43.5992 131.116 44.4235 132.482 45.022 131.526C45.5328 130.709 44.1691 130.154 43.7115 129.431C43.4817 129.065 43.1099 128.796 42.8014 128.483C44.496 128.481 44.2345 126.879 44.6124 125.925C45.3724 126.032 44.8995 127.031 45.8862 126.986C45.7626 125.271 46.5103 123.607 46.5144 122.002C46.5184 120.913 46.8913 120.873 47.4602 120.573Z" fill="#115BB7"/>
<path fill-rule="evenodd" clip-rule="evenodd" d="M75.1354 53.6282C74.2692 52.5635 75.1967 51.5229 75.1967 50.4676C75.1987 46.4417 74.879 42.467 73.6717 38.6102C73.4184 37.8013 73.21 36.9965 73.2702 36.1406C75.6359 41.776 76.4469 47.5836 75.1354 53.6282Z" fill="#1F71DB"/>
<path fill-rule="evenodd" clip-rule="evenodd" d="M0.478105 77.668C1.01436 77.7567 1.28198 78.0416 1.11038 78.6136C0.519987 80.5843 1.04297 82.4057 1.80701 84.1968C2.16656 85.0402 1.84174 85.6967 1.27688 86.2927C0.0664776 81.4736 -0.19604 76.5772 0.126735 71.6328C0.123671 73.6995 0.110399 75.7704 0.127764 77.8381C0.129807 78.0615 0.317748 78.099 0.43317 77.8569C0.459728 77.7995 0.462783 77.7316 0.478105 77.668Z" fill="#1F71DB"/>
<path fill-rule="evenodd" clip-rule="evenodd" d="M82.0744 85.1248C81.5443 84.6676 81.9171 84.199 82.0244 83.7063C82.9641 79.3944 83.7537 75.0731 82.9549 70.6245C82.8548 70.0703 82.6025 69.2541 83.577 69.0547C83.8783 74.4907 83.9437 79.9017 82.0744 85.1248Z" fill="#1F71DB"/>
<path fill-rule="evenodd" clip-rule="evenodd" d="M50.9769 2.49829C48.9892 2.44505 48.4356 3.5974 48.1251 5.44699C47.8299 7.1995 47.644 9.18581 45.9453 10.3674C46.9882 7.6598 47.741 4.86141 48.4816 2.05676C49.1659 1.96491 48.9177 0.771893 49.79 0.900278L49.7859 0.895054C49.7747 1.40442 50.0229 1.67161 50.5152 1.71128L50.5367 1.73841C50.646 1.85949 50.7553 1.98058 50.8646 2.10375C50.981 2.23735 51.0975 2.37201 51.2129 2.50561C51.1332 2.50457 51.0546 2.50246 50.9769 2.49829Z" fill="#1F71DB"/>
<path fill-rule="evenodd" clip-rule="evenodd" d="M54.0059 47.7188C53.7352 48.1154 53.4656 48.512 53.1949 48.9087C52.2358 49.4327 51.152 49.8522 51.249 51.2781C51.2695 51.5724 51.1428 51.8918 50.8915 51.7906C49.344 51.1716 48.1285 52.4408 46.7118 52.5035L46.6699 52.4586C49.1653 50.9566 51.343 48.9462 54.0059 47.7188Z" fill="#1562C2"/>
<path fill-rule="evenodd" clip-rule="evenodd" d="M42.6367 54.7578C43.7634 54.0157 44.891 53.2746 46.0177 52.5335C46.2353 52.5074 46.4528 52.4803 46.6704 52.4531L46.7123 52.498C46.555 53.4061 46.2067 54.0846 45.1372 54.0762C44.7971 54.0731 44.2302 54.2056 44.7583 54.7296C45.5274 55.4926 44.6357 55.5198 44.3936 55.4645C43.7858 55.3277 43.22 55.0052 42.6367 54.7578Z" fill="#1562C2"/>
<path fill-rule="evenodd" clip-rule="evenodd" d="M67.543 104.931C68.7667 103.497 69.7799 101.805 71.784 101.328C70.5787 102.784 69.3193 104.175 67.543 104.931Z" fill="#1F71DB"/>
<path fill-rule="evenodd" clip-rule="evenodd" d="M28.1596 29.1953C28.5784 29.5899 29.702 30.0867 28.0145 30.1608C26.6325 30.2213 26.0758 31.954 24.6387 31.9165C25.558 30.665 26.9083 29.998 28.1596 29.1953Z" fill="#1F71DB"/>
<path fill-rule="evenodd" clip-rule="evenodd" d="M55.1986 8.77709C53.3089 7.95459 53.3263 5.90566 52.502 4.39844C53.7563 5.62906 54.6102 7.11747 55.1986 8.77709Z" fill="#1A69CE"/>
<path fill-rule="evenodd" clip-rule="evenodd" d="M38.9635 20.5586C38.4477 22.2036 37.5233 23.3591 35.6816 23.4092C36.6561 22.3163 37.7827 21.4041 38.9635 20.5586Z" fill="#1F71DB"/>
<path fill-rule="evenodd" clip-rule="evenodd" d="M0.477507 77.6692C0.463207 77.7329 0.460144 77.8007 0.433586 77.8581C0.317142 78.1003 0.130223 78.0627 0.12818 77.8394C0.110815 75.7716 0.123081 73.7008 0.127167 71.6341C0.0985663 70.8554 0.162908 70.0882 0.456061 69.3555C0.461168 72.1278 0.469336 74.898 0.477507 77.6692Z" fill="#1562C2"/>
<path fill-rule="evenodd" clip-rule="evenodd" d="M24.6919 31.9219C23.8584 33.3007 22.7389 34.2913 21.1465 34.6347C22.0208 33.3101 23.2701 32.498 24.6919 31.9219Z" fill="#1F71DB"/>
<path fill-rule="evenodd" clip-rule="evenodd" d="M44.3772 13.5039C44.1545 15.0738 43.5846 16.3994 42.0156 17.0288C42.8032 15.8545 43.5907 14.6792 44.3772 13.5039Z" fill="#1F71DB"/>
<path fill-rule="evenodd" clip-rule="evenodd" d="M71.7598 101.34C71.7996 100.011 72.7393 99.469 73.7393 98.9805C73.5677 100.196 72.6413 100.749 71.7598 101.34Z" fill="#1F71DB"/>
<path fill-rule="evenodd" clip-rule="evenodd" d="M21.2044 34.6484C20.7785 35.6776 20.1564 36.4281 18.9297 36.3196C19.4945 35.4866 20.2065 34.8645 21.2044 34.6484Z" fill="#1F71DB"/>
<path fill-rule="evenodd" clip-rule="evenodd" d="M49.7889 0.899742C48.9166 0.771356 49.1648 1.96542 48.4805 2.05622C48.5479 1.37672 48.6153 0.697248 48.6837 0C49.2762 0.0636709 49.5489 0.461352 49.7889 0.899742Z" fill="#1A69CE"/>
<path fill-rule="evenodd" clip-rule="evenodd" d="M18.9368 36.3086C18.8265 37.3743 18.2402 37.8826 17.1973 37.8555C17.5497 37.0737 18.2116 36.6541 18.9368 36.3086Z" fill="#1F71DB"/>
<path fill-rule="evenodd" clip-rule="evenodd" d="M50.9774 2.49609C51.056 2.50027 51.1336 2.50238 51.2123 2.50342C51.5657 2.98774 52.2215 3.28415 52.1306 4.04403C51.4983 3.7215 50.9528 3.33008 50.9774 2.49609Z" fill="#1A69CE"/>
<path fill-rule="evenodd" clip-rule="evenodd" d="M37.416 127.676C38.0105 127.712 38.6397 127.703 38.5733 128.602C38.1872 128.293 37.8021 127.985 37.416 127.676Z" fill="#115BB7"/>
<path fill-rule="evenodd" clip-rule="evenodd" d="M73.3331 70.8945C73.468 71.7891 72.7581 71.1711 72.5078 71.3768C72.7836 71.216 73.0584 71.0553 73.3331 70.8945Z" fill="#1F71DB"/>
<path fill-rule="evenodd" clip-rule="evenodd" d="M45.9364 10.4141C45.8108 10.7418 45.6862 11.0706 45.5605 11.3973C45.6862 11.0696 45.8108 10.7418 45.9364 10.4141Z" fill="#1F71DB"/>
<path fill-rule="evenodd" clip-rule="evenodd" d="M40.4673 18.9375C40.5562 19.5293 40.2804 19.7882 39.7227 19.7892C39.8238 19.3717 40.0567 19.0732 40.4673 18.9375Z" fill="#1F71DB"/>
<path fill-rule="evenodd" clip-rule="evenodd" d="M66.748 105.506C66.8083 104.973 67.1107 104.809 67.5969 104.927C67.5631 105.502 67.1709 105.527 66.748 105.506Z" fill="#1F71DB"/>
<path fill-rule="evenodd" clip-rule="evenodd" d="M56.2798 11.2421C55.5995 11.1941 56.1011 10.644 55.9285 10.3789C56.1593 10.6179 56.3329 10.882 56.2798 11.2421Z" fill="#1A69CE"/>
<path fill-rule="evenodd" clip-rule="evenodd" d="M55.5228 9.37105C55.4145 9.56311 55.3052 9.75415 55.1959 9.9462C55.1919 9.54748 55.1867 9.14873 55.1816 8.75C55.295 8.95667 55.4084 9.16438 55.5228 9.37105Z" fill="#1A69CE"/>
<path fill-rule="evenodd" clip-rule="evenodd" d="M50.5149 1.71075C50.0226 1.67109 49.7733 1.4039 49.7856 0.894531C50.137 1.06571 50.4025 1.3162 50.5149 1.71075Z" fill="#1A69CE"/>
<path fill-rule="evenodd" clip-rule="evenodd" d="M42.0435 17C42.0527 17.3685 42.0231 17.7108 41.5645 17.7766C41.4378 17.333 41.7443 17.1691 42.0435 17Z" fill="#1F71DB"/>
<path fill-rule="evenodd" clip-rule="evenodd" d="M74.0874 98.5398C73.7554 97.9386 74.3203 98.282 74.4561 98.1744C74.3325 98.2955 74.2099 98.4166 74.0874 98.5398Z" fill="#1F71DB"/>
<path fill-rule="evenodd" clip-rule="evenodd" d="M54.7768 46.8438C54.6389 47.0149 54.501 47.1861 54.3631 47.3573C54.3263 47.04 54.5674 46.9554 54.7768 46.8438Z" fill="#1562C2"/>
<path fill-rule="evenodd" clip-rule="evenodd" d="M40.8723 18.5469C40.7375 18.6982 40.6016 18.8475 40.4668 18.9988C40.478 18.7327 40.5822 18.5521 40.8723 18.5469Z" fill="#1F71DB"/>
<path fill-rule="evenodd" clip-rule="evenodd" d="M52.546 4.42351C52.3968 4.28886 52.2487 4.15419 52.0996 4.01954C52.4438 3.92873 52.499 4.16987 52.546 4.42351Z" fill="#1A69CE"/>
<path fill-rule="evenodd" clip-rule="evenodd" d="M54.3826 47.3125C54.2406 47.4545 54.0986 47.5964 53.9566 47.7394C53.9372 47.4305 54.1007 47.3104 54.3826 47.3125Z" fill="#1562C2"/>
<path fill-rule="evenodd" clip-rule="evenodd" d="M39.7464 19.7734C39.6105 19.9133 39.4747 20.0532 39.3398 20.192C39.4757 20.0521 39.6115 19.9123 39.7464 19.7734Z" fill="#1F71DB"/>
<path fill-rule="evenodd" clip-rule="evenodd" d="M41.243 18.1412C41.2205 18.4031 41.0806 18.5493 40.8242 18.5806C40.8324 18.304 40.9437 18.1297 41.243 18.1412Z" fill="#1F71DB"/>
<path fill-rule="evenodd" clip-rule="evenodd" d="M41.6384 17.7577C41.4974 17.9007 41.3554 18.0427 41.2134 18.1857C41.2063 17.8892 41.2635 17.6586 41.6384 17.7577Z" fill="#1F71DB"/>
<path fill-rule="evenodd" clip-rule="evenodd" d="M39.3626 20.168C39.2268 20.3068 39.0909 20.4456 38.9551 20.5834C38.9765 20.3276 39.1114 20.1888 39.3626 20.168Z" fill="#1F71DB"/>
<path fill-rule="evenodd" clip-rule="evenodd" d="M42.6367 54.7608C43.2189 55.0082 43.7858 55.3308 44.3926 55.4675C44.6346 55.5228 45.5264 55.4957 44.7572 54.7327C44.2291 54.2087 44.796 54.0761 45.1362 54.0792C46.2056 54.0876 46.5539 53.4091 46.7112 52.501C48.128 52.4384 49.3435 51.1702 50.891 51.7882C51.1422 51.8894 51.2679 51.57 51.2485 51.2757C51.1514 49.8509 52.2352 49.4302 53.1943 48.9062C51.3343 55.8766 46.365 60.8545 42.4151 66.4867C40.5601 69.1317 38.7338 71.7975 36.9064 74.4633C36.6511 74.8349 36.5019 75.2973 35.9555 75.3203C35.5377 75.3244 35.2394 75.505 35.0474 75.8985C34.7543 76.4987 34.3988 77.1333 33.6123 76.7586C32.978 76.4569 32.6766 75.744 32.8809 75.1167C33.4488 73.3663 32.2936 72.9363 31.1087 72.6043C30.455 72.4206 30.0086 72.2202 30.1792 71.4697C30.6613 69.3571 29.5173 69.6243 28.3039 70.1598C27.3171 70.5961 26.5929 70.6013 26.2559 69.3853V69.3863C26.5388 69.3456 26.9157 69.3686 26.8514 68.9417C26.8309 68.8102 26.4898 68.7298 26.2967 68.6244C29.6634 64.3355 33.5857 60.6321 37.7849 57.2137C38.6664 56.4956 39.4682 55.6752 40.3099 54.9038C40.4569 55.1575 40.3548 55.7472 40.9585 55.3568C41.4661 55.028 41.9983 54.7264 42.6367 54.7608Z" fill="#1F71DB"/>
<path fill-rule="evenodd" clip-rule="evenodd" d="M26.2558 69.3829C26.5938 70.5989 27.3181 70.5937 28.3037 70.1574C29.5172 69.6219 30.6612 69.3537 30.1791 71.4673C30.0085 72.2178 30.4549 72.4182 31.1086 72.6019C32.2935 72.9338 33.4487 73.3639 32.8808 75.1143C32.6776 75.7426 32.9779 76.4545 33.6122 76.7562C34.3987 77.1298 34.7541 76.4963 35.0473 75.8961C35.2393 75.5026 35.5366 75.322 35.9554 75.3178C34.8226 78.3511 32.6816 80.853 31.6428 83.9478C30.841 86.3381 29.8809 88.671 28.9912 91.031C28.5816 91.1708 28.1005 92.5288 27.7941 90.936C27.6163 90.0122 26.9074 89.3724 26.4519 88.5969C25.8114 87.5072 25.1587 86.9393 24.1281 88.2284C23.5724 88.9236 22.9136 88.767 22.6756 87.9455C22.028 85.7118 20.2507 84.3737 18.882 82.7089C18.8769 82.6107 18.8891 82.5137 18.9208 82.4198C19.1782 82.2851 19.2405 82.1431 18.9392 81.9855C19.0454 81.7204 19.1516 81.4542 19.2589 81.1891C19.5551 81.1181 19.6307 81.0012 19.3324 80.8102C20.5919 76.9096 22.7481 73.5048 25.0096 70.1615C25.3007 69.7315 25.6827 69.3777 26.2558 69.3829Z" fill="#1A69CE"/>
<path fill-rule="evenodd" clip-rule="evenodd" d="M18.8826 82.7109C20.2513 84.3758 22.0286 85.7139 22.6762 87.9476C22.9142 88.7691 23.572 88.9267 24.1287 88.2305C25.1604 86.9414 25.812 87.5092 26.4525 88.5989C26.908 89.3744 27.6169 90.0143 27.7947 90.9381C28.1011 92.5298 28.5822 91.1729 28.9918 91.033C27.9152 95.848 28.2237 100.741 28.2022 105.616C27 105.273 26.3136 103.669 24.7385 104.145C24.5975 104.189 24.048 103.576 24.0695 103.299C24.1931 101.655 22.1645 100.831 22.5904 99.0577C22.6721 98.7195 22.0797 98.3562 21.6405 98.1945C17.3943 96.6329 17.4536 96.6319 17.3668 92.176C17.3484 91.2553 18.094 90.3055 17.332 89.4047C17.378 88.6355 17.426 87.8672 17.473 87.099C18.666 86.7765 18.0103 85.7859 18.1686 85.0897C18.1951 84.2307 18.0205 83.308 18.8826 82.7109Z" fill="#1562C2"/>
<path fill-rule="evenodd" clip-rule="evenodd" d="M18.1683 85.0898C18.0099 85.786 18.6657 86.7766 17.4727 87.0991C17.5728 86.381 17.7127 85.6785 18.1683 85.0898Z" fill="#115BB7"/>
<path fill-rule="evenodd" clip-rule="evenodd" d="M41.384 53.7031C41.3728 54.4849 40.905 54.8304 40.2227 54.9713C40.3177 54.2699 40.764 53.9035 41.384 53.7031Z" fill="#1F71DB"/>
<path fill-rule="evenodd" clip-rule="evenodd" d="M42.6256 52.9394C42.2344 53.2703 41.9791 53.8246 41.3438 53.7557C41.4949 53.0323 41.977 52.8486 42.6256 52.9394Z" fill="#1F71DB"/>
<path fill-rule="evenodd" clip-rule="evenodd" d="M26.2967 68.625C26.4908 68.7304 26.8319 68.8108 26.8514 68.9423C26.9157 69.3692 26.5388 69.3463 26.2559 69.387C26.2702 69.1344 26.2834 68.8797 26.2967 68.625Z" fill="#1A69CE"/>
<path fill-rule="evenodd" clip-rule="evenodd" d="M19.3333 80.8125C19.6316 81.0046 19.555 81.1204 19.2598 81.1914C19.2863 81.0661 19.3119 80.9398 19.3333 80.8125Z" fill="#1562C2"/>
<path fill-rule="evenodd" clip-rule="evenodd" d="M18.9403 81.9883C19.2416 82.1459 19.1793 82.2879 18.9219 82.4225C18.928 82.2774 18.9341 82.1334 18.9403 81.9883Z" fill="#1562C2"/>
<path fill-rule="evenodd" clip-rule="evenodd" d="M47.4599 120.575C46.891 120.875 46.5192 120.916 46.5151 122.003C46.511 123.609 45.7633 125.273 45.8869 126.987C44.9002 127.032 45.3731 126.033 44.6132 125.926C44.2352 126.88 44.4957 128.482 42.8021 128.484L42.8164 128.47C42.8348 127.912 42.984 127.22 42.0279 127.68C38.7858 123.828 37.2945 119.189 36.7184 114.29C36.1526 109.478 36.9146 104.778 38.9554 100.334C39.2424 99.7091 39.5979 99.2248 40.0994 98.8125C41.272 99.9982 42.9033 100.874 42.6724 102.995C42.653 103.17 43.2546 103.419 43.5693 103.631C45.5805 104.985 46.9788 106.672 46.7091 109.356C46.6479 109.961 46.4865 110.676 47.1351 111.143C47.0748 114.294 46.8532 117.45 47.4599 120.575Z" fill="#145FBD"/>
<path fill-rule="evenodd" clip-rule="evenodd" d="M47.1333 111.142C46.4847 110.676 46.6451 109.961 46.7074 109.355C46.9771 106.672 45.5787 104.984 43.5675 103.63C43.2529 103.418 42.6513 103.17 42.6707 102.994C42.9025 100.873 41.2713 99.9978 40.0977 98.812C40.3367 97.2683 41.305 96.0898 42.1436 94.9041C44.0435 92.2174 46.1374 89.681 48.5971 87.4922C49.3151 88.489 48.3489 88.7645 47.9045 89.3251C47.4071 89.9545 46.5072 90.5035 48.1732 91.2268C49.4571 91.7842 50.3958 93.2925 51.3396 94.5012C51.8953 95.2141 52.4816 95.4635 53.2937 95.3978C53.1629 97.4749 51.6859 98.9237 50.7942 100.606C49.0189 103.951 47.8167 107.436 47.1333 111.142Z" fill="#1A69CE"/>
<path fill-rule="evenodd" clip-rule="evenodd" d="M42.0273 127.682C42.9834 127.221 42.8353 127.913 42.8159 128.471C42.5534 128.207 42.2909 127.944 42.0273 127.682Z" fill="#115BB7"/>
<path fill-rule="evenodd" clip-rule="evenodd" d="M141.473 61.1516L141.514 61.2727C141.491 61.4887 141.469 61.7037 141.446 61.9177C141.362 62.6765 141.595 63.2809 142.138 63.8373C142.976 64.6973 142.775 65.2986 141.575 65.4478C140.318 65.6023 139.054 65.7056 137.796 65.8528C136.112 66.049 135.042 65.5323 134.16 63.831C133.47 62.4991 132.496 60.8593 130.497 60.9491L130.5 60.9533C130.546 60.4251 130.212 60.3792 129.827 60.3969L129.846 60.422C129.655 59.4043 129.005 59.0536 128.056 58.7394C124.583 57.5902 121.165 58.2791 117.721 58.7791C116.771 58.9168 116.751 59.4231 117.008 60.1495L116.952 60.1777C116.711 60.0734 116.538 60.1537 116.423 60.3844L116.447 60.3698C114.291 60.3907 111.876 62.639 112.062 64.4531L111.996 64.5449C111.447 64.4124 111.458 64.785 111.467 65.1566L111.491 65.1326C110.313 65.1326 110.723 66.0428 110.647 66.6742L110.654 66.6555C109.536 66.8162 109.923 67.6502 109.943 68.3192L109.967 68.2953C109.738 68.3683 109.342 68.3892 109.303 68.5207C108.2 72.1959 107.618 75.893 109.06 79.6287C109.101 79.7403 109.119 79.8562 109.112 79.9741C109.35 83.045 110.721 85.5166 112.955 87.5259C116.153 90.4036 119.881 92.0758 124.138 91.7188C125.446 91.6082 127.291 91.7126 128.202 90.0665L128.218 90.0832C129.545 90.4026 130.666 90.2993 131.027 88.6469L131.005 88.6668C132.13 88.7388 132.857 88.3077 132.95 87.0688L132.928 87.0917C133.522 87.1063 133.76 86.8109 133.661 86.2191L133.633 86.2452C135.07 85.2797 136.593 85.1638 138.275 85.4885C139.24 85.6753 140.448 85.0532 141.262 85.4332C142.388 85.9592 140.958 87.3537 141.626 88.2587C141.664 88.3119 141.688 88.3735 141.718 88.4319L141.657 88.5655C140.721 88.4518 140.638 88.9048 140.971 89.6365L140.883 89.7565C139.938 89.5937 139.902 90.1166 140.111 90.8243L140.091 90.8504C139.505 90.6239 139.206 90.8514 139.151 91.4662C138.477 92.247 137.803 93.0277 137.13 93.8085C136.806 93.8617 136.532 93.9546 136.675 94.3888L136.612 94.4452C134.344 94.6278 132.79 96.1184 131.2 97.5369L131.188 97.5243C130.5 97.2937 129.833 97.3542 129.129 97.5296C125.045 98.5431 120.953 98.5337 116.917 97.3271C115.558 96.921 114.305 96.1194 112.803 96.4753L112.652 96.3783C112.74 95.6956 112.391 95.895 112.054 96.0693C111.967 96.0703 111.906 96.0297 111.872 95.9472C112.077 95.6247 112.638 95.3992 111.918 94.941C111.014 94.3669 110.176 93.7145 109.029 93.8575L109.048 93.8784C108.919 92.3743 108.139 91.5873 106.637 91.5946C106.668 91.5612 106.699 91.5278 106.729 91.4934C106.7 91.5278 106.669 91.5612 106.641 91.5967C106.782 90.1605 105.938 89.3526 104.865 88.6898C104.681 88.6052 104.499 88.5217 104.316 88.4372L104.359 88.3004L104.33 88.4403C104.462 87.1596 104.07 86.1554 102.883 85.5688L102.901 85.5991C102.884 85.1451 102.964 84.6618 102.836 84.2453C101.577 80.1767 101.202 76.0057 101.395 71.7669C102.935 70.9548 102.206 69.2607 102.487 68.0896C102.999 65.954 104.564 64.189 104.459 61.8927L104.445 61.9115C105.876 61.4167 108.23 58.4106 108.228 57.0798L108.208 57.1007C109.679 56.8836 110.804 56.2343 111.16 54.6279L111.241 54.5643C111.783 54.8482 112.3 54.9369 112.854 54.534C116.755 51.6949 121.259 51.3139 125.75 51.8076C127.918 52.0466 130.188 52.5331 132.282 53.7449C133.403 54.3941 134.604 55.6216 136.211 55.2939C136.315 55.3085 136.377 55.369 136.395 55.4755C136.262 55.8095 135.401 56.132 135.859 56.2844C136.61 56.5339 137.109 57.4858 138.049 57.1612L138.014 57.1299C138.117 57.3574 138.264 57.4524 138.496 57.3021C138.568 57.3115 138.62 57.3491 138.651 57.4148C138.665 59.3907 139.723 60.5441 141.473 61.1516Z" fill="white"/>
<path fill-rule="evenodd" clip-rule="evenodd" d="M260.134 92.7908C260.15 92.9359 260.089 93.0225 259.948 93.0486C259.86 93.1478 259.772 93.2469 259.684 93.3482L259.655 93.3816C259.338 93.2584 259.216 92.5768 258.789 92.9108C258.332 93.2688 258.597 93.8461 258.669 94.3367L258.572 94.2375L258.678 94.3241C256.829 93.965 256.142 95.2594 255.516 96.6445L255.542 96.6173C254.587 96.5526 253.762 96.7384 252.817 97.135C250.317 98.184 247.598 98.6381 244.938 97.8866C243.196 97.3939 241.426 97.0453 239.689 96.5557C239.375 96.0996 238.919 96.1601 238.468 96.2008L238.488 96.2238C238.535 94.9692 237.991 94.511 236.805 94.9243C236.741 94.9003 236.692 94.8565 236.659 94.7938C236.877 94.2281 236.487 94.2584 236.142 94.2458L236.178 94.2772C236.029 94.1321 235.879 93.987 235.73 93.8419C235.623 93.7334 235.518 93.6269 235.412 93.5183C235.268 93.3586 235.123 93.1968 234.977 93.0382C234.863 92.916 234.747 92.7929 234.632 92.6697L234.737 92.5518C234.78 92.5194 234.824 92.486 234.868 92.4537C234.8 92.3743 234.734 92.295 234.667 92.2146C234.528 91.9276 234.277 91.8462 233.99 91.8337C233.877 91.7877 233.832 91.7022 233.858 91.579C233.825 90.9224 234.104 90.053 232.939 90.1636C232.87 90.126 232.833 90.0665 232.833 89.9851C233.306 89.148 233.469 88.2608 232.981 87.3986C230.418 82.8905 231.521 78.4388 233.306 74.0841C233.666 73.2052 233.93 72.4527 233.829 71.5414C233.837 71.2617 233.894 71.0164 234.212 70.9444C234.547 71.0436 235.079 71.46 235.194 71.1114C235.568 69.9831 236.749 69.3391 236.843 68.0823C238.57 68.575 239.264 66.9279 240.434 66.2672C243.363 65.236 246.284 64.3404 249.467 65.0251C250.65 65.2787 251.922 65.1013 253.152 65.1211C253.292 65.1681 253.431 65.2151 253.569 65.261C254.203 66.9884 255.509 67.4195 257.154 67.1972L257.24 67.2442C257.458 68.767 258.272 69.6511 259.812 69.7586C259.913 69.8787 260.013 69.9987 260.114 70.1187C260.079 70.7502 260.048 71.3786 260.959 71.3035L260.932 71.2774C260.859 71.8619 260.784 72.4433 261.139 72.9766C263.064 75.869 263.364 79.1172 263.186 82.4908C263.119 83.7892 263.203 85.096 263.218 86.4007L263.243 86.3726C261.853 87.3663 261.38 88.7159 261.745 90.3943L261.768 90.3755C260.3 90.5268 260.006 91.509 260.134 92.7908ZM243.529 90.6625C243.831 91.1395 244.291 91.0487 244.737 91.0185L244.714 90.9955C245.31 91.7616 248.862 92.3576 250.037 91.6844C250.604 91.3598 251.559 91.2345 251.598 90.2304L251.58 90.244C253.256 90.3984 253.956 89.363 254.313 87.908C257.109 84.8413 257.111 77.849 254.319 74.5173C254.287 74.2605 254.351 73.8921 254.209 73.7626C252.032 71.792 249.465 70.7461 246.578 71.1135C245.227 71.2847 243.403 71.0926 242.932 73.1395C242.896 73.1082 242.862 73.0768 242.828 73.0455C242.859 73.08 242.89 73.1134 242.922 73.1489C241.215 72.8754 240.827 73.9056 240.847 75.3398L240.857 75.321C239.997 75.3586 240.044 75.9556 240.122 76.5714L240.15 76.5255C238.899 77.2081 238.421 78.2707 238.508 79.7132C238.587 81.0096 238.608 82.3227 238.501 83.6149C238.385 84.9958 238.911 85.8423 240.148 86.2943L240.115 86.2505C240.476 86.9414 238.94 88.8171 241.312 88.2545C241.418 88.3756 241.521 88.4956 241.626 88.6178C241.326 90.3202 242.376 90.364 243.552 90.2555L243.537 90.244C243.533 90.3838 243.53 90.5237 243.529 90.6625Z" fill="white"/>
<path fill-rule="evenodd" clip-rule="evenodd" d="M147.685 97.3596C147.68 82.2686 147.675 67.1775 147.67 52.0875C149.334 52.0886 150.998 52.0802 152.662 52.0938C153.835 52.1032 154.57 52.4863 154.567 53.9215C154.536 67.6556 154.548 81.3907 154.549 95.1249C154.549 96.6686 153.777 97.3732 152.293 97.3606C150.758 97.3439 149.22 97.3575 147.685 97.3596Z" fill="white"/>
<path fill-rule="evenodd" clip-rule="evenodd" d="M206.931 72.9048C206.833 72.9549 206.731 72.9758 206.623 72.9706C206.269 72.9612 205.945 73.0081 205.8 73.41L205.829 73.3735C204.068 73.696 203.316 75.0571 203.109 76.5988C202.39 81.9753 202.26 87.3925 202.303 92.815C202.341 97.4995 202.313 97.4494 197.715 97.3826C196.264 97.3617 195.763 96.7167 195.764 95.3775C195.766 85.8749 195.762 76.3712 195.771 66.8676C195.772 66.3697 195.642 65.6265 196.318 65.5806C198.092 65.4605 199.961 65.0462 201.624 65.804C202.964 66.4146 202.082 67.9249 202.299 69.0115C202.375 69.3904 202.247 69.8768 202.436 70.1565C202.894 70.8308 203.264 70.5271 203.486 69.8935L203.489 69.8016C203.542 69.6242 203.594 69.4468 203.646 69.2693L203.674 69.2359C204.4 69.3121 204.563 68.8267 204.624 68.2412C205.115 68.2088 205.374 67.9406 205.4 67.4375C205.526 67.4333 205.652 67.4291 205.776 67.426C205.826 67.3895 205.924 67.33 205.919 67.3185C205.876 67.2235 205.815 67.1369 205.76 67.0481C205.638 66.9156 205.518 66.782 205.395 66.6505L205.392 66.6525C206.135 66.735 206.665 66.3832 207.284 65.9678C209.165 64.6996 211.474 64.5932 213.355 65.3311C214.623 65.829 213.771 67.9353 213.837 69.31C213.945 71.528 213.465 71.8141 211.24 71.48C209.607 71.2337 207.94 71.0876 206.931 72.9048Z" fill="white"/>
<path fill-rule="evenodd" clip-rule="evenodd" d="M266.352 90.6781C268.045 88.7189 269.889 88.219 271.948 89.1584C273.629 89.9266 274.923 92.0329 274.727 93.6884C274.488 95.7311 272.522 97.8166 270.39 98.0504C269.102 98.1923 267.901 97.7226 266.999 96.6757C266.855 96.5191 266.712 96.3626 266.568 96.206L266.604 96.2436C266.476 96.0912 266.349 95.9409 266.221 95.7874L266.237 95.8125C265.938 94.1988 266.059 92.5809 266.185 90.9631L266.158 90.9902C266.356 90.9745 266.525 90.938 266.352 90.6781Z" fill="white"/>
<path fill-rule="evenodd" clip-rule="evenodd" d="M226.637 81.6363C226.637 86.6789 226.606 91.7214 226.661 96.7629C226.673 97.8286 226.476 98.2638 225.331 98.1887C223.671 98.0801 221.993 98.0728 220.335 98.1887C219.074 98.2774 218.894 97.7753 218.901 96.6178C218.949 86.5985 218.951 76.5792 218.905 66.5599C218.898 65.2322 219.165 64.6748 220.592 64.8137C222.114 64.9629 223.672 64.9347 225.2 64.8095C226.412 64.7093 226.699 65.107 226.683 66.3115C226.618 71.4188 226.655 76.527 226.655 81.6353C226.65 81.6364 226.643 81.6363 226.637 81.6363ZM226.192 81.0101C226.192 76.4216 226.202 71.8331 226.179 67.2446C226.176 66.5276 226.47 65.417 225.25 65.513C223.535 65.6487 221.713 64.8345 220.119 66.0464C220.013 66.1278 220.021 66.4222 220.039 66.6121C220.265 68.9773 219.636 71.2893 219.64 73.642C219.654 80.197 219.618 86.7519 219.654 93.3059C219.68 97.552 219.108 97.2357 223.577 97.3422C225.882 97.3985 226.186 97.028 226.191 94.5772C226.196 90.0545 226.191 85.5328 226.192 81.0101Z" fill="white"/>
<path fill-rule="evenodd" clip-rule="evenodd" d="M203.487 69.892C203.263 70.5256 202.894 70.8283 202.437 70.1551C202.248 69.8753 202.375 69.39 202.3 69.01C202.082 67.9234 202.964 66.4131 201.625 65.8025C199.962 65.0447 198.093 65.4591 196.318 65.5791C195.642 65.625 195.773 66.3693 195.772 66.8661C195.763 76.3698 195.767 85.8734 195.765 95.376C195.764 96.7152 196.264 97.3602 197.716 97.3811C202.313 97.4479 202.342 97.498 202.304 92.8135C202.261 87.3911 202.391 81.9738 203.11 76.5973C203.316 75.0556 204.069 73.6945 205.83 73.372C203.225 76.3218 203.131 79.976 203.104 83.6335C203.07 88.0194 203.046 92.4054 203.109 96.7903C203.126 97.926 202.789 98.2266 201.722 98.1744C199.555 98.07 196.704 98.9332 195.4 97.8331C194.051 96.6954 195.029 93.6715 195.016 91.4764C194.969 83.2274 195.044 74.9784 194.958 66.7304C194.94 65.1449 195.385 64.6992 196.869 64.8192C198.46 64.9497 200.073 64.9215 201.67 64.8338C202.802 64.7723 202.995 65.2326 203.064 66.2951C203.14 67.4913 202.471 68.8128 203.487 69.892Z" fill="white"/>
<path fill-rule="evenodd" clip-rule="evenodd" d="M226.655 52.4518C226.762 52.5739 226.868 52.695 226.975 52.8182C226.983 53.1668 227.009 53.5039 227.41 53.6333L227.389 53.5979C227.555 55.6739 227.088 57.5674 225.829 59.2322L225.869 59.1884C225.733 59.3387 225.595 59.489 225.459 59.6393L225.492 59.609C224.782 59.7103 223.829 59.0777 223.491 60.3021C223.24 60.3021 222.988 60.301 222.735 60.301C222.024 59.0735 220.948 58.6435 219.601 58.8011L219.631 58.8272C219.497 58.6811 219.363 58.536 219.23 58.3899L219.246 58.4118C218.614 56.534 218.795 54.6448 219.158 52.7513L219.125 52.7879C219.396 52.742 219.523 52.5864 219.486 52.3025L219.48 52.2973C219.847 52.3109 220.388 52.4914 220.553 52.3109C221.855 50.8955 223.476 51.1147 225.096 51.2567L225.064 51.2358C225.17 51.4717 225.327 51.551 225.555 51.3997L225.696 51.4936C225.274 52.5917 226.057 52.4257 226.655 52.4518Z" fill="white"/>
<path fill-rule="evenodd" clip-rule="evenodd" d="M147.685 97.3604C149.22 97.3583 150.757 97.3447 152.293 97.3604C153.777 97.374 154.549 96.6684 154.549 95.1246C154.548 81.3915 154.536 67.6564 154.566 53.9212C154.569 52.486 153.835 52.103 152.661 52.0936C150.997 52.08 149.333 52.0883 147.67 52.0873C147.628 51.7136 147.727 51.4537 148.154 51.4537C150.269 51.4537 152.383 51.4642 154.498 51.4454C155.044 51.4412 155.353 51.6072 155.327 52.2126C155.313 52.5393 155.323 52.8681 155.323 53.1948C155.323 67.6032 155.296 82.0115 155.367 96.4199C155.375 97.9731 154.915 98.2748 153.552 98.1756C151.893 98.0545 150.221 98.1464 148.555 98.1474C148.034 98.1485 147.46 98.2153 147.685 97.3604Z" fill="white"/>
<path fill-rule="evenodd" clip-rule="evenodd" d="M165.09 80.5783C168.159 78.9239 171.544 78.7757 174.886 78.4688C176.093 78.3582 177.317 78.4396 178.533 78.4407C180.935 78.4427 180.935 78.4448 180.719 76.0065C180.499 73.4973 179.277 72.3241 176.146 71.6174C172.595 70.8158 169.752 72.156 168.335 75.3782C168.054 76.0191 167.751 76.2539 167.063 76.2258C165.53 76.1642 163.976 76.0598 162.46 76.2383C160.768 76.4376 160.841 75.5024 161.139 74.4231C161.534 72.9994 161.916 71.5517 162.793 70.3242C162.864 70.4202 162.942 70.5121 163.027 70.5966C162.933 70.9066 162.868 71.2271 162.746 71.5256C161.55 74.4377 161.96 75.1402 164.97 75.3135C165.224 75.3302 165.496 75.3083 165.731 75.3907C166.785 75.7634 167.231 75.3866 167.754 74.3396C168.392 73.062 169.167 71.631 170.849 71.3815C172.928 71.0715 174.965 70.82 177.109 71.2855C180.36 71.9922 181.527 73.2061 181.505 76.6078C181.487 79.0993 181.335 79.3456 178.859 79.2266C174.255 79.0043 169.767 79.6306 165.332 80.8257C165.255 80.738 165.174 80.6566 165.09 80.5783Z" fill="white"/>
<path fill-rule="evenodd" clip-rule="evenodd" d="M311.312 81.4101C311.313 76.5002 311.361 71.5891 311.283 66.6813C311.261 65.3055 311.47 64.602 313.012 64.8379C313.952 64.9809 314.93 64.8609 315.891 64.8599C319.031 64.8578 319.027 64.8578 319.027 67.9724C319.024 77.4646 318.997 86.9568 319.056 96.4479C319.065 97.785 318.817 98.31 317.415 98.1754C315.953 98.0355 314.457 98.0157 313.001 98.1827C311.452 98.3601 311.257 97.7088 311.279 96.3331C311.36 91.3616 311.31 86.3848 311.312 81.4101ZM318.634 86.7313C318.634 85.938 318.634 85.1448 318.635 84.3536C318.316 78.4551 319.032 72.5348 318.262 66.6468C318.646 66.3838 318.644 66.1229 318.26 65.8619C317.224 65.0603 316.035 65.5269 314.924 65.4924C312.386 65.4173 311.837 65.9861 311.73 68.6248C311.675 69.9963 311.705 71.372 311.724 72.7446C311.761 75.2069 311.91 77.6733 311.851 80.1335C311.725 85.4151 311.439 90.6946 312.125 95.9594C312.248 96.9051 312.803 97.6065 313.719 97.6618C315.102 97.7453 316.53 98.0449 317.867 97.3456C318.802 97.2203 318.634 96.4813 318.637 95.8634C318.649 94.1255 318.637 92.3876 318.635 90.6497C318.147 89.3439 318.146 88.0381 318.634 86.7313Z" fill="white"/>
<path fill-rule="evenodd" clip-rule="evenodd" d="M301.115 67.1016C303.714 69.1954 305.155 71.9103 305.185 75.3099C305.249 82.5235 305.244 89.7392 305.32 96.9528C305.33 97.9099 305.093 98.2387 304.155 98.1646C303.198 98.0884 302.231 98.1458 301.268 98.1458C297.366 98.1468 297.366 98.1468 297.474 94.1867L297.466 94.1752C298.59 94.5593 297.764 95.41 297.797 95.9893C297.856 97.0404 298.264 97.6406 299.234 97.6803C300.504 97.7335 301.782 97.6824 303.051 97.5874C304.314 97.4934 304.823 96.8787 304.804 95.4341C304.71 88.7747 304.746 82.1133 304.774 75.4518C304.78 74.0312 304.54 72.5522 303.707 71.5794C302.601 70.2882 301.766 68.8749 300.912 67.4418C300.981 67.3312 301.049 67.2164 301.115 67.1016Z" fill="white"/>
<path fill-rule="evenodd" clip-rule="evenodd" d="M295.719 72.5132C293.566 71.5999 291.398 71.0091 289.046 71.7575C287.237 72.3337 285.749 73.2919 285.23 75.2135C285.004 76.0495 284.695 76.2301 283.954 76.2134C282.229 76.1769 280.494 76.1122 278.777 76.2385C277.626 76.323 277.635 75.7406 277.807 74.965C278.571 71.5049 279.981 68.4675 283.175 66.6367C283.312 66.6451 283.449 66.6524 283.585 66.6597C283.51 66.9029 283.51 67.2588 283.347 67.3757C281.095 68.98 279.892 71.3223 278.866 73.82C278.515 74.6718 278.537 75.4337 279.534 75.25C281.43 74.9024 284.226 76.823 284.961 73.2073C284.985 73.0862 285.294 73.0455 285.434 72.9234C287.504 71.0968 290.01 70.743 292.56 71.0446C293.679 71.1772 295.132 70.7816 295.92 72.1552C295.851 72.2752 295.785 72.3942 295.719 72.5132Z" fill="white"/>
<path fill-rule="evenodd" clip-rule="evenodd" d="M278.521 83.9134C280.002 81.0201 282.615 79.8771 285.524 79.2456C289.11 78.468 292.749 78.3125 296.396 78.4764C297.43 78.5223 297.691 78.2457 297.635 77.1988C297.536 75.3774 297.201 73.7177 295.719 72.5143C295.786 72.3953 295.852 72.2752 295.919 72.1562C297.983 72.7877 298.79 74.1353 298.423 76.4452C298.238 77.6153 299.027 79.4241 296.777 79.3625C293.25 79.2634 289.744 78.9763 286.234 79.947C284.957 80.3009 283.72 80.7685 282.459 81.0963C280.707 81.5503 280.374 83.7318 278.607 83.9938L278.521 83.9134Z" fill="white"/>
<path fill-rule="evenodd" clip-rule="evenodd" d="M206.931 72.9043C207.939 71.0871 209.607 71.2332 211.24 71.4795C213.465 71.8135 213.945 71.5275 213.838 69.3095C213.772 67.9359 214.624 65.8285 213.356 65.3306C211.473 64.5926 209.165 64.7001 207.284 65.9673C206.666 66.3827 206.135 66.7345 205.393 66.652C207.712 63.9382 210.825 64.1887 213.895 64.2816C214.467 64.2993 214.648 64.6198 214.645 65.1709C214.632 67.7104 214.639 70.2499 214.639 72.8605C211.948 72.3062 209.434 72.2404 206.931 72.9043Z" fill="white"/>
<path fill-rule="evenodd" clip-rule="evenodd" d="M136.204 55.2934C134.598 55.6201 133.396 54.3936 132.275 53.7444C130.181 52.5326 127.911 52.0461 125.743 51.8071C121.253 51.3134 116.748 51.6954 112.847 54.5335C112.294 54.9374 111.777 54.8487 111.234 54.5638C118.759 49.4117 128.681 49.7018 136.204 55.2934Z" fill="white"/>
<path fill-rule="evenodd" clip-rule="evenodd" d="M128.199 90.065C127.288 91.7111 125.443 91.6067 124.135 91.7173C119.878 92.0754 116.15 90.4022 112.952 87.5245C110.718 85.5141 109.348 83.0435 109.109 79.9727C109.884 81.5112 110.562 83.1103 111.449 84.5757C114.196 89.1152 120.661 92.6452 128.199 90.065Z" fill="white"/>
<path fill-rule="evenodd" clip-rule="evenodd" d="M283.537 98.1943C277.749 96.2748 275.296 89.2867 278.52 83.9102L278.605 83.9905C278.571 85.0343 278.926 86.361 278.432 87.0686C276.925 89.2262 278.364 91.1436 278.813 92.9619C279.148 94.3198 280.576 95.7143 281.868 96.3959C282.75 96.8604 283.227 97.3186 283.602 98.114L283.537 98.1943Z" fill="white"/>
<path fill-rule="evenodd" clip-rule="evenodd" d="M233.829 71.543C233.931 72.4531 233.666 73.2068 233.306 74.0856C231.521 78.4403 230.418 82.892 232.981 87.4001C233.47 88.2612 233.306 89.1495 232.833 89.9867C229.865 83.6519 230.201 77.5051 233.829 71.543Z" fill="white"/>
<path fill-rule="evenodd" clip-rule="evenodd" d="M130.494 60.9488C132.493 60.8591 133.467 62.4978 134.157 63.8308C135.039 65.5321 136.108 66.0488 137.793 65.8525C139.051 65.7054 140.315 65.6031 141.572 65.4476C142.772 65.2983 142.974 64.6971 142.134 63.837C141.591 63.2807 141.359 62.6763 141.443 61.9175C141.594 61.9102 141.746 61.9029 141.898 61.8956C142.791 63.1481 144.047 64.6606 143.598 65.9643C143.311 66.7993 141.176 66.1396 139.876 66.2638C136.917 66.5456 134.155 66.5342 132.683 63.0928C132.31 62.2191 131.244 61.6555 130.494 60.9488Z" fill="white"/>
<path fill-rule="evenodd" clip-rule="evenodd" d="M239.69 96.5547C241.427 97.0453 243.198 97.3939 244.939 97.8855C247.599 98.6381 250.318 98.183 252.819 97.134C253.764 96.7373 254.589 96.5515 255.543 96.6163C250.961 99.7069 243.767 99.6902 239.252 96.5797C239.397 96.5724 239.543 96.563 239.69 96.5547Z" fill="white"/>
<path fill-rule="evenodd" clip-rule="evenodd" d="M112.799 96.4755C114.301 96.1195 115.554 96.9222 116.913 97.3272C120.949 98.5338 125.042 98.5432 129.125 97.5297C129.829 97.3544 130.496 97.2938 131.184 97.5245C124.915 99.7613 118.791 99.3438 112.799 96.4755Z" fill="white"/>
<path fill-rule="evenodd" clip-rule="evenodd" d="M141.716 88.4318C141.685 88.3733 141.661 88.3118 141.624 88.2585C140.956 87.3536 142.386 85.9591 141.26 85.433C140.446 85.0531 139.238 85.6741 138.272 85.4883C136.591 85.1627 135.068 85.2796 133.631 86.2451C134.064 84.9017 134.905 84.3892 136.34 84.4936C138.296 84.6376 140.275 84.6199 142.234 84.503C143.635 84.4195 143.564 84.9372 143.04 85.8954C142.583 86.7315 142.156 87.5853 141.716 88.4318Z" fill="white"/>
<path fill-rule="evenodd" clip-rule="evenodd" d="M164.518 68.183C167.77 64.704 171.965 64.1915 176.315 64.4285C178.137 64.5287 180.009 64.7594 181.696 65.6539C181.632 65.7238 181.567 65.7958 181.504 65.8668C180.451 65.9691 179.513 65.4075 178.501 65.3157C175.287 65.0234 172.16 64.6946 168.994 66.2488C167.583 66.9408 166.256 68.0734 164.587 68.2498L164.518 68.183Z" fill="white"/>
<path fill-rule="evenodd" clip-rule="evenodd" d="M163.597 96.5084C159.869 93.1495 159.139 88.3334 161.647 83.6562C161.722 83.7638 161.797 83.8692 161.873 83.9756C161.655 87.7886 160.023 91.8166 163.486 95.0711C163.802 95.3665 163.775 95.7735 163.802 96.1597C163.733 96.2766 163.665 96.3936 163.597 96.5084Z" fill="white"/>
<path fill-rule="evenodd" clip-rule="evenodd" d="M178.081 96.6038C174.393 99.8531 167.728 99.8092 163.596 96.5088C163.663 96.394 163.733 96.276 163.8 96.1602C164.445 96.7708 165.386 96.3752 166.101 96.9649C167.99 98.5243 173.784 98.7331 175.735 97.2572C176.479 96.6935 177.179 96.5203 178.016 96.5359L178.081 96.6038Z" fill="white"/>
<path fill-rule="evenodd" clip-rule="evenodd" d="M297.027 94.1288C294.482 98.402 290.013 99.9343 284.36 98.4699C284.358 98.3592 284.356 98.2465 284.355 98.1348C285.251 98.1369 286.15 98.1087 287.045 98.1474C290.696 98.3071 294.007 97.734 295.985 94.0578C296.072 93.8939 296.445 93.8908 296.687 93.8125C296.801 93.9179 296.914 94.0234 297.027 94.1288Z" fill="white"/>
<path fill-rule="evenodd" clip-rule="evenodd" d="M263.218 86.4007C263.203 85.096 263.118 83.7892 263.186 82.4907C263.364 79.1172 263.065 75.8679 261.139 72.9766C260.784 72.4432 260.859 71.8619 260.932 71.2773C264.085 75.9399 264.751 80.996 263.218 86.4007Z" fill="white"/>
<path fill-rule="evenodd" clip-rule="evenodd" d="M253.153 65.1213C251.922 65.1015 250.65 65.279 249.468 65.0253C246.285 64.3416 243.364 65.2362 240.436 66.2674C240.314 66.1411 240.192 66.0158 240.068 65.8906C244.319 63.6506 248.672 63.2696 253.153 65.1213Z" fill="white"/>
<path fill-rule="evenodd" clip-rule="evenodd" d="M117.006 60.1499C116.748 59.4245 116.77 58.9172 117.719 58.7794C121.163 58.2795 124.581 57.5906 128.054 58.7398C129.002 59.055 129.653 59.4057 129.843 60.4224C125.607 58.2628 121.328 58.1177 117.006 60.1499Z" fill="white"/>
<path fill-rule="evenodd" clip-rule="evenodd" d="M311.541 52.2891C313.512 50.3278 315.725 50.0481 317.825 51.4937C319.859 52.8945 320.497 55.0029 319.61 57.3911C319.542 57.3253 319.471 57.2585 319.401 57.1938C319.536 55.3943 319.23 53.6742 317.783 52.5365C316.182 51.2777 314.42 50.7526 312.653 52.4081C312.471 52.5793 312.035 52.4686 311.717 52.4885C311.658 52.4217 311.6 52.3559 311.541 52.2891Z" fill="white"/>
<path fill-rule="evenodd" clip-rule="evenodd" d="M283.583 66.6597C283.447 66.6513 283.31 66.644 283.174 66.6367C287.624 63.9542 292.271 63.593 297.101 65.4186L297.076 65.5031C294.572 64.9385 292.029 65.0815 289.494 65.0752C288.206 65.0721 286.881 65.2276 285.865 65.9917C285.113 66.5553 284.407 66.6617 283.583 66.6597Z" fill="white"/>
<path fill-rule="evenodd" clip-rule="evenodd" d="M183.236 66.3984C186.753 68.4599 188.327 71.6445 188.393 75.7027C188.273 75.6996 188.152 75.6996 188.031 75.7027C187.568 73.9293 187.432 72.0224 186.265 70.5162C185.238 69.1916 184.12 67.9401 183.043 66.6563C183.119 66.578 183.182 66.4924 183.236 66.3984Z" fill="white"/>
<path fill-rule="evenodd" clip-rule="evenodd" d="M109.058 79.6264C107.616 75.8907 108.199 72.1946 109.301 68.5184C109.341 68.3869 109.736 68.366 109.965 68.293C108.673 71.989 108.725 75.7967 109.058 79.6264Z" fill="white"/>
<path fill-rule="evenodd" clip-rule="evenodd" d="M101.389 71.7656C101.196 76.0055 101.571 80.1754 102.829 84.2441C102.958 84.6595 102.878 85.1438 102.895 85.5979C100.666 81.2098 100.762 76.5023 101.073 71.7667H101.231L101.389 71.7656Z" fill="white"/>
<path fill-rule="evenodd" clip-rule="evenodd" d="M101.389 71.7648L101.232 71.7659H101.074C101.444 68.2045 102.503 64.8884 104.452 61.8906C104.557 64.1859 102.992 65.952 102.481 68.0876C102.2 69.2587 102.928 70.9528 101.389 71.7648Z" fill="white"/>
<path fill-rule="evenodd" clip-rule="evenodd" d="M188.029 75.7016C188.151 75.6984 188.271 75.6984 188.392 75.7016C188.396 82.6553 188.401 89.609 188.406 96.5616C188.287 96.5616 188.167 96.5679 188.048 96.5814L188.041 96.5647C188.039 96.427 188.038 96.2892 188.036 96.1514C188.036 95.3748 188.037 94.5972 188.038 93.8196C188.038 92.4981 188.038 91.1788 188.038 89.8574C188.038 87.2417 188.041 84.6249 188.041 82.0092C188.041 80.9518 188.041 79.8955 188.041 78.8371C188.037 77.7923 188.033 76.7474 188.029 75.7016Z" fill="white"/>
<path fill-rule="evenodd" clip-rule="evenodd" d="M318.54 58.9974C315.967 61.0547 313.848 61.0004 311.658 58.8231L311.731 58.75C313.901 59.0308 316.07 60.3512 318.243 58.7615C318.336 58.8481 318.433 58.9264 318.54 58.9974Z" fill="white"/>
<path fill-rule="evenodd" clip-rule="evenodd" d="M108.222 57.0781C108.224 58.409 105.87 61.415 104.439 61.9098C105.323 59.9903 106.672 58.4528 108.222 57.0781Z" fill="white"/>
<path fill-rule="evenodd" clip-rule="evenodd" d="M311.659 58.8242C309.68 56.5248 309.65 54.814 311.542 52.2891C311.601 52.3548 311.659 52.4216 311.718 52.4884C312.048 53.6053 310.997 54.289 310.882 55.3265C310.736 56.65 311.935 57.4975 311.732 58.7501L311.659 58.8242Z" fill="white"/>
<path fill-rule="evenodd" clip-rule="evenodd" d="M112.061 64.4544C111.875 62.6403 114.291 60.3909 116.446 60.3711C114.782 61.5046 113.224 62.7593 112.061 64.4544Z" fill="white"/>
<path fill-rule="evenodd" clip-rule="evenodd" d="M131.197 97.537C132.789 96.1185 134.341 94.628 136.609 94.4453C134.969 95.7751 133.233 96.9316 131.197 97.537Z" fill="white"/>
<path fill-rule="evenodd" clip-rule="evenodd" d="M180.746 97.3483C180.75 97.0884 180.755 96.8285 180.76 96.5676C181.424 95.8651 181.003 94.9894 181.125 94.1992C181.468 94.4675 181.558 94.8599 181.497 95.2482C181.219 97.0174 181.99 97.5404 183.638 97.3807C185.089 97.2408 186.561 97.3306 188.024 97.3191C185.601 98.0727 183.174 97.9214 180.746 97.3483Z" fill="white"/>
<path fill-rule="evenodd" clip-rule="evenodd" d="M225.092 51.2612C223.472 51.1182 221.851 50.899 220.55 52.3154C220.385 52.496 219.844 52.3154 219.477 52.3019C221.372 50.3917 222.716 50.1423 225.092 51.2612Z" fill="white"/>
<path fill-rule="evenodd" clip-rule="evenodd" d="M161.646 83.6573C162.496 82.2837 163.668 81.2837 165.092 80.5781C165.176 80.6564 165.256 80.7378 165.334 80.8224C165.142 82.9747 162.624 82.4643 161.872 83.9767C161.798 83.8702 161.722 83.7638 161.646 83.6573Z" fill="white"/>
<path fill-rule="evenodd" clip-rule="evenodd" d="M297.102 65.4189C298.698 65.3386 299.889 66.2644 301.117 67.1036C301.051 67.2174 300.982 67.3333 300.915 67.447C299.22 67.6548 298.173 66.5264 297.076 65.5035L297.102 65.4189Z" fill="white"/>
<path fill-rule="evenodd" clip-rule="evenodd" d="M141.473 61.1508C139.724 60.5433 138.665 59.3889 138.646 57.4141C139.755 58.5299 140.776 59.7114 141.473 61.1508Z" fill="white"/>
<path fill-rule="evenodd" clip-rule="evenodd" d="M225.828 59.232C227.087 57.5661 227.554 55.6737 227.388 53.5977C228.461 56.0777 227.92 58.0348 225.828 59.232Z" fill="white"/>
<path fill-rule="evenodd" clip-rule="evenodd" d="M180.745 97.349C183.173 97.922 185.6 98.0734 188.024 97.3208C188.035 97.1976 188.044 97.0734 188.047 96.9492C188.166 96.9555 188.286 96.9586 188.406 96.9597C188.444 97.5087 188.74 98.1694 187.74 98.1579C185.563 98.1318 183.384 98.1516 181.206 98.1433C180.646 98.1422 180.624 97.7811 180.745 97.349Z" fill="white"/>
<path fill-rule="evenodd" clip-rule="evenodd" d="M261.745 90.3928C261.381 88.7154 261.853 87.3658 263.244 86.3711C263.034 87.824 262.699 89.229 261.745 90.3928Z" fill="white"/>
<path fill-rule="evenodd" clip-rule="evenodd" d="M219.157 52.7539C218.794 54.6463 218.613 56.5366 219.245 58.4144C217.721 56.0951 217.703 55.0127 219.157 52.7539Z" fill="white"/>
<path fill-rule="evenodd" clip-rule="evenodd" d="M240.067 65.8906C240.191 66.0159 240.313 66.1412 240.435 66.2675C239.265 66.9282 238.571 68.5753 236.842 68.0847C237.759 67.1098 238.839 66.3843 240.067 65.8906Z" fill="white"/>
<path fill-rule="evenodd" clip-rule="evenodd" d="M109.023 93.8559C110.171 93.7129 111.009 94.3653 111.913 94.9393C112.633 95.3965 112.071 95.623 111.867 95.9456C110.816 95.3965 109.784 94.8193 109.023 93.8559Z" fill="white"/>
<path fill-rule="evenodd" clip-rule="evenodd" d="M236.845 68.082C236.75 69.3408 235.569 69.9849 235.196 71.1132C235.08 71.4618 234.548 71.0454 234.213 70.9462C234.878 69.7866 235.695 68.7751 236.845 68.082Z" fill="white"/>
<path fill-rule="evenodd" clip-rule="evenodd" d="M257.156 67.198C255.511 67.4203 254.205 66.9892 253.57 65.2617C254.868 65.7116 256.059 66.3629 257.156 67.198Z" fill="white"/>
<path fill-rule="evenodd" clip-rule="evenodd" d="M255.518 96.6463C256.143 95.2623 256.83 93.9679 258.68 94.326C257.778 95.3165 256.786 96.1797 255.518 96.6463Z" fill="white"/>
<path fill-rule="evenodd" clip-rule="evenodd" d="M219.6 58.8007C220.946 58.6431 222.022 59.0732 222.733 60.3006C221.432 60.3591 220.39 59.855 219.6 58.8007Z" fill="white"/>
<path fill-rule="evenodd" clip-rule="evenodd" d="M104.86 88.6875C105.932 89.3503 106.776 90.1582 106.635 91.5944C105.755 90.749 104.956 89.8398 104.469 88.6885C104.599 88.6885 104.73 88.6875 104.86 88.6875Z" fill="white"/>
<path fill-rule="evenodd" clip-rule="evenodd" d="M106.633 91.5938C108.134 91.5855 108.915 92.3725 109.043 93.8776C108.048 93.3275 107.255 92.5551 106.633 91.5938Z" fill="white"/>
<path fill-rule="evenodd" clip-rule="evenodd" d="M259.812 69.7567C258.272 69.6481 257.458 68.7651 257.24 67.2422C258.174 68 259.132 68.7296 259.812 69.7567Z" fill="white"/>
<path fill-rule="evenodd" clip-rule="evenodd" d="M111.155 54.625C110.799 56.2314 109.674 56.8806 108.203 57.0977C109.024 56.0706 110.05 55.2982 111.155 54.625Z" fill="white"/>
<path fill-rule="evenodd" clip-rule="evenodd" d="M266.185 90.9609C266.059 92.5798 265.938 94.1977 266.237 95.8104C265.084 94.2071 265.052 92.5903 266.185 90.9609Z" fill="white"/>
<path fill-rule="evenodd" clip-rule="evenodd" d="M162.795 70.3233C163.255 69.5134 163.698 68.6909 164.518 68.1836L164.585 68.2493C164.612 69.409 164.376 70.387 163.03 70.5947C162.944 70.5112 162.866 70.4194 162.795 70.3233Z" fill="white"/>
<path fill-rule="evenodd" clip-rule="evenodd" d="M131.024 88.6445C130.662 90.2968 129.542 90.4002 128.215 90.0808C129.152 89.6017 130.088 89.1236 131.024 88.6445Z" fill="white"/>
<path fill-rule="evenodd" clip-rule="evenodd" d="M138.043 57.1623C137.104 57.4879 136.604 56.535 135.854 56.2855C135.396 56.1331 136.257 55.8106 136.39 55.4766C137.013 55.9661 137.879 56.2051 138.043 57.1623Z" fill="white"/>
<path fill-rule="evenodd" clip-rule="evenodd" d="M180.109 94.3727C179.667 95.3393 178.936 96.0313 178.082 96.6075L178.018 96.5407C178.238 95.3894 178.907 94.6274 179.956 94.1953C180.009 94.2538 180.06 94.3132 180.109 94.3727Z" fill="white"/>
<path fill-rule="evenodd" clip-rule="evenodd" d="M260.134 92.7903C260.007 91.5085 260.301 90.5263 261.771 90.375C261.45 91.3384 260.865 92.115 260.134 92.7903Z" fill="white"/>
<path fill-rule="evenodd" clip-rule="evenodd" d="M102.877 85.5703C104.065 86.1569 104.456 87.161 104.324 88.4418C103.565 87.6297 103.158 86.6329 102.877 85.5703Z" fill="white"/>
<path fill-rule="evenodd" clip-rule="evenodd" d="M236.805 94.9254C237.991 94.512 238.534 94.9703 238.487 96.2249C237.926 95.7917 237.365 95.3596 236.805 94.9254Z" fill="white"/>
<path fill-rule="evenodd" clip-rule="evenodd" d="M132.947 87.0664C132.854 88.3064 132.127 88.7375 131.002 88.6644C131.435 87.8586 132.321 87.628 132.947 87.0664Z" fill="white"/>
<path fill-rule="evenodd" clip-rule="evenodd" d="M258.669 94.3374C258.598 93.8468 258.332 93.2695 258.789 92.9115C259.216 92.5775 259.338 93.2591 259.655 93.3823C259.326 93.7017 258.998 94.0201 258.669 94.3374Z" fill="white"/>
<path fill-rule="evenodd" clip-rule="evenodd" d="M223.49 60.3032C223.828 59.0788 224.781 59.7113 225.491 59.6101C224.921 60.132 224.278 60.4336 223.49 60.3032Z" fill="white"/>
<path fill-rule="evenodd" clip-rule="evenodd" d="M319.612 57.3936C319.385 58.0209 319.105 58.6096 318.54 59C318.434 58.9301 318.337 58.8508 318.244 58.7631C318.681 58.2798 318.424 57.2611 319.402 57.1953C319.473 57.2611 319.542 57.3268 319.612 57.3936Z" fill="white"/>
<path fill-rule="evenodd" clip-rule="evenodd" d="M181.696 65.6562C182.21 65.9047 182.722 66.1531 183.235 66.4015C183.181 66.4954 183.118 66.581 183.042 66.6583C182.435 66.5863 181.639 66.9025 181.504 65.8692C181.567 65.7971 181.632 65.7262 181.696 65.6562Z" fill="white"/>
<path fill-rule="evenodd" clip-rule="evenodd" d="M204.626 68.2393C204.564 68.8259 204.402 69.3102 203.676 69.234C203.877 68.686 204.03 68.1077 204.548 67.7539L204.658 67.8583C204.635 67.9846 204.623 68.1109 204.626 68.2393Z" fill="white"/>
<path fill-rule="evenodd" clip-rule="evenodd" d="M109.942 68.32C109.922 67.651 109.535 66.818 110.653 66.6562C110.507 67.2523 110.368 67.8493 109.942 68.32Z" fill="white"/>
<path fill-rule="evenodd" clip-rule="evenodd" d="M110.645 66.6745C110.721 66.044 110.311 65.1328 111.489 65.1328C111.207 65.6464 110.926 66.1599 110.645 66.6745Z" fill="white"/>
<path fill-rule="evenodd" clip-rule="evenodd" d="M181.127 94.1987C181.005 94.9889 181.426 95.8646 180.762 96.5671C180.762 95.7717 180.762 94.9784 180.761 94.1831L180.758 94.1758C180.88 94.1758 181.004 94.1841 181.127 94.1987Z" fill="white"/>
<path fill-rule="evenodd" clip-rule="evenodd" d="M232.939 90.1657C234.105 90.0561 233.825 90.9256 233.859 91.5811C233.552 91.1093 233.246 90.6375 232.939 90.1657Z" fill="white"/>
<path fill-rule="evenodd" clip-rule="evenodd" d="M260.96 71.3019C260.048 71.377 260.08 70.7497 260.115 70.1172C260.581 70.374 260.818 70.8019 260.96 71.3019Z" fill="white"/>
<path fill-rule="evenodd" clip-rule="evenodd" d="M140.969 89.6355C140.636 88.9038 140.719 88.4498 141.655 88.5646C141.426 88.9205 141.197 89.2785 140.969 89.6355Z" fill="white"/>
<path fill-rule="evenodd" clip-rule="evenodd" d="M226.656 52.4522C226.058 52.4261 225.275 52.5921 225.695 51.4961C226.016 51.8155 226.334 52.1338 226.656 52.4522Z" fill="white"/>
<path fill-rule="evenodd" clip-rule="evenodd" d="M140.108 90.8246C139.898 90.1159 139.936 89.5929 140.88 89.7568C140.624 90.1117 140.366 90.4687 140.108 90.8246Z" fill="white"/>
<path fill-rule="evenodd" clip-rule="evenodd" d="M139.148 91.4673C139.205 90.8525 139.504 90.6249 140.088 90.8514C139.945 91.3274 139.59 91.4662 139.148 91.4673Z" fill="white"/>
<path fill-rule="evenodd" clip-rule="evenodd" d="M233.99 91.8359C234.277 91.8495 234.529 91.9299 234.667 92.2169C234.673 92.3328 234.695 92.4455 234.737 92.553L234.632 92.671C234.419 92.3933 234.205 92.1146 233.99 91.8359Z" fill="white"/>
<path fill-rule="evenodd" clip-rule="evenodd" d="M180.76 94.1855C180.435 93.8525 180.323 94.2961 180.109 94.3723C180.059 94.3118 180.008 94.2533 179.957 94.1938C180.2 92.9977 180.487 94.0059 180.757 94.1782L180.76 94.1855Z" fill="white"/>
<path fill-rule="evenodd" clip-rule="evenodd" d="M205.777 67.4229C205.652 67.4261 205.526 67.4303 205.401 67.4344C205.27 67.4365 205.14 67.4375 205.011 67.4407C204.953 67.3812 204.896 67.3259 204.836 67.2705C205.023 67.0628 205.208 66.8562 205.395 66.6484C205.517 66.78 205.638 66.9136 205.76 67.0461C205.77 67.1714 205.775 67.2966 205.777 67.4229Z" fill="white"/>
<path fill-rule="evenodd" clip-rule="evenodd" d="M239.69 96.5542C239.542 96.5625 239.397 96.5719 239.251 96.5792C238.939 96.5615 238.579 96.6512 238.469 96.1993C238.921 96.1586 239.378 96.0991 239.69 96.5542Z" fill="white"/>
<path fill-rule="evenodd" clip-rule="evenodd" d="M133.656 86.2188C133.755 86.8106 133.517 87.106 132.924 87.0914C133.168 86.8012 133.412 86.5089 133.656 86.2188Z" fill="white"/>
<path fill-rule="evenodd" clip-rule="evenodd" d="M236.145 94.2461C236.489 94.2597 236.879 94.2283 236.661 94.7941C236.489 94.6125 236.316 94.4288 236.145 94.2461Z" fill="white"/>
<path fill-rule="evenodd" clip-rule="evenodd" d="M136.672 94.3889C136.528 93.9547 136.803 93.8618 137.127 93.8086C137.193 94.1802 136.867 94.2324 136.672 94.3889Z" fill="white"/>
<path fill-rule="evenodd" clip-rule="evenodd" d="M111.465 65.1585C111.456 64.788 111.445 64.4143 111.994 64.5468C111.818 64.7525 111.641 64.956 111.465 65.1585Z" fill="white"/>
<path fill-rule="evenodd" clip-rule="evenodd" d="M227.41 53.6355C227.008 53.5061 226.983 53.1689 226.975 52.8203C227.332 52.9727 227.372 53.3046 227.41 53.6355Z" fill="white"/>
<path fill-rule="evenodd" clip-rule="evenodd" d="M112.051 96.0706C112.388 95.8962 112.737 95.6969 112.648 96.3795C112.449 96.2772 112.25 96.1739 112.051 96.0706Z" fill="white"/>
<path fill-rule="evenodd" clip-rule="evenodd" d="M205.801 73.4092C205.946 73.0074 206.27 72.9604 206.624 72.9698C206.516 73.4426 206.114 73.3414 205.801 73.4092Z" fill="white"/>
<path fill-rule="evenodd" clip-rule="evenodd" d="M284.355 98.136C284.356 98.2477 284.357 98.3604 284.359 98.471C284.039 98.5295 283.695 98.6526 283.537 98.1965L283.602 98.1172C283.854 98.1224 284.104 98.1297 284.355 98.136Z" fill="white"/>
<path fill-rule="evenodd" clip-rule="evenodd" d="M129.826 60.3975C130.21 60.3798 130.545 60.4257 130.499 60.9539C130.275 60.7681 130.051 60.5823 129.826 60.3975Z" fill="white"/>
<path fill-rule="evenodd" clip-rule="evenodd" d="M234.979 93.0391C235.125 93.1977 235.27 93.3595 235.414 93.5192C235.27 93.3595 235.125 93.1988 234.979 93.0391Z" fill="white"/>
<path fill-rule="evenodd" clip-rule="evenodd" d="M266.351 90.6758C266.525 90.9357 266.355 90.9712 266.156 90.9879C266.163 90.8459 266.23 90.7426 266.351 90.6758Z" fill="white"/>
<path fill-rule="evenodd" clip-rule="evenodd" d="M297.021 94.1401L297.027 94.1266C296.913 94.0212 296.799 93.9157 296.686 93.8093C296.81 93.5348 296.94 93.5431 297.075 93.8009C297.011 93.9063 296.993 94.0191 297.021 94.1401Z" fill="white"/>
<path fill-rule="evenodd" clip-rule="evenodd" d="M235.73 93.8438C235.88 93.9888 236.03 94.1339 236.179 94.279C236.03 94.1339 235.88 93.9878 235.73 93.8438Z" fill="white"/>
<path fill-rule="evenodd" clip-rule="evenodd" d="M297.476 94.1909C297.346 93.9592 297.186 94.0385 297.022 94.1429C296.995 94.0218 297.012 93.9091 297.077 93.8047C297.207 93.9299 297.338 94.0542 297.469 94.1794L297.476 94.1909Z" fill="white"/>
<path fill-rule="evenodd" clip-rule="evenodd" d="M225.554 51.4021C225.324 51.5535 225.168 51.4731 225.062 51.2383C225.225 51.2936 225.389 51.3489 225.554 51.4021Z" fill="white"/>
<path fill-rule="evenodd" clip-rule="evenodd" d="M219.484 52.3047C219.52 52.5876 219.394 52.7441 219.123 52.79C219.244 52.6283 219.364 52.4665 219.484 52.3047Z" fill="white"/>
<path fill-rule="evenodd" clip-rule="evenodd" d="M141.898 61.8966C141.747 61.9049 141.595 61.9122 141.443 61.9185C141.466 61.7045 141.488 61.4895 141.511 61.2734C141.641 61.4812 141.769 61.6899 141.898 61.8966Z" fill="white"/>
<path fill-rule="evenodd" clip-rule="evenodd" d="M204.549 67.7557C204.646 67.596 204.741 67.4331 204.838 67.2734C204.898 67.3288 204.955 67.3841 205.013 67.4436C204.895 67.5814 204.778 67.7212 204.659 67.859L204.549 67.7557Z" fill="white"/>
<path fill-rule="evenodd" clip-rule="evenodd" d="M138.49 57.305C138.258 57.4554 138.111 57.3604 138.008 57.1328C138.168 57.1892 138.33 57.2466 138.49 57.305Z" fill="white"/>
<path fill-rule="evenodd" clip-rule="evenodd" d="M188.409 96.9591C188.29 96.9581 188.17 96.955 188.05 96.9487C188.05 96.8266 188.05 96.7045 188.049 96.5823C188.167 96.5688 188.287 96.5625 188.407 96.5625C188.407 96.6951 188.408 96.8266 188.409 96.9591Z" fill="white"/>
<path fill-rule="evenodd" clip-rule="evenodd" d="M203.647 69.2695C203.594 69.447 203.542 69.6244 203.49 69.8018C203.543 69.6234 203.595 69.447 203.647 69.2695Z" fill="white"/>
<path fill-rule="evenodd" clip-rule="evenodd" d="M219.229 58.3906C219.362 58.5368 219.496 58.6818 219.63 58.828C219.496 58.6818 219.362 58.5357 219.229 58.3906Z" fill="white"/>
<path fill-rule="evenodd" clip-rule="evenodd" d="M104.86 88.6901C104.73 88.6901 104.6 88.6911 104.469 88.6911C104.35 88.6494 104.297 88.5659 104.311 88.4375C104.493 88.522 104.676 88.6056 104.86 88.6901Z" fill="white"/>
<path fill-rule="evenodd" clip-rule="evenodd" d="M225.457 59.6384C225.594 59.4881 225.732 59.3378 225.867 59.1875C225.731 59.3378 225.594 59.4881 225.457 59.6384Z" fill="white"/>
<path fill-rule="evenodd" clip-rule="evenodd" d="M116.422 60.3847C116.537 60.153 116.71 60.0737 116.951 60.178C116.775 60.2469 116.599 60.3148 116.422 60.3847Z" fill="white"/>
<path fill-rule="evenodd" clip-rule="evenodd" d="M254.294 87.4628C255.489 84.653 256.28 81.8222 255.505 78.6856C255.096 77.0302 254.101 75.7244 253.477 74.2109C253.756 74.3132 254.037 74.4145 254.318 74.5168C257.111 77.8485 257.109 84.8408 254.312 87.9075C254.306 87.7582 254.3 87.6121 254.294 87.4628Z" fill="white"/>
<path fill-rule="evenodd" clip-rule="evenodd" d="M254.319 74.5146C254.038 74.4123 253.757 74.311 253.477 74.2087L253.476 74.2223C253.331 74.0772 253.188 73.9321 253.044 73.787C249.82 71.1859 246.446 70.996 242.932 73.1368C243.403 71.0909 245.227 71.283 246.578 71.1118C249.465 70.7444 252.032 71.7903 254.208 73.761C254.35 73.8893 254.287 74.2578 254.319 74.5146Z" fill="white"/>
<path fill-rule="evenodd" clip-rule="evenodd" d="M240.15 76.5273C238.979 79.7829 238.965 83.0395 240.147 86.2961C238.911 85.8431 238.384 84.9977 238.5 83.6168C238.606 82.3245 238.586 81.0115 238.507 79.7151C238.419 78.2726 238.899 77.21 240.15 76.5273Z" fill="white"/>
<path fill-rule="evenodd" clip-rule="evenodd" d="M244.713 90.9945C247.056 91.1928 249.398 91.3839 251.596 90.2305C251.558 91.2346 250.601 91.3598 250.036 91.6845C248.861 92.3567 245.308 91.7607 244.713 90.9945Z" fill="white"/>
<path fill-rule="evenodd" clip-rule="evenodd" d="M254.294 87.4609C254.3 87.6102 254.306 87.7563 254.312 87.9056C253.956 89.3617 253.255 90.3971 251.58 90.2415C252.485 89.3147 253.389 88.3889 254.294 87.4609Z" fill="white"/>
<path fill-rule="evenodd" clip-rule="evenodd" d="M242.921 73.1493C242.228 73.88 241.538 74.6085 240.846 75.3402C240.826 73.9061 241.214 72.8769 242.921 73.1493Z" fill="white"/>
<path fill-rule="evenodd" clip-rule="evenodd" d="M241.624 88.6172C242.266 89.1631 242.908 89.71 243.55 90.2549C242.374 90.3634 241.324 90.3196 241.624 88.6172Z" fill="white"/>
<path fill-rule="evenodd" clip-rule="evenodd" d="M240.114 86.25C240.514 86.918 240.912 87.585 241.311 88.254C238.938 88.8166 240.475 86.941 240.114 86.25Z" fill="white"/>
<path fill-rule="evenodd" clip-rule="evenodd" d="M240.856 75.3203C240.611 75.7368 240.367 76.1533 240.121 76.5697C240.043 75.956 239.996 75.3589 240.856 75.3203Z" fill="white"/>
<path fill-rule="evenodd" clip-rule="evenodd" d="M243.885 90.4141C244.212 90.5518 244.61 90.5863 244.737 91.0184C244.291 91.0487 243.831 91.1395 243.529 90.6625C243.648 90.581 243.767 90.4986 243.885 90.4141Z" fill="white"/>
<path fill-rule="evenodd" clip-rule="evenodd" d="M243.885 90.4113C243.767 90.4948 243.648 90.5772 243.529 90.6597C243.53 90.5209 243.533 90.381 243.535 90.2422C243.651 90.2996 243.768 90.356 243.885 90.4113Z" fill="white"/>
<path fill-rule="evenodd" clip-rule="evenodd" d="M234.737 92.5509C234.696 92.4424 234.673 92.3307 234.668 92.2148C234.734 92.2942 234.801 92.3735 234.868 92.4539C234.824 92.4862 234.78 92.5186 234.737 92.5509Z" fill="white"/>
<path fill-rule="evenodd" clip-rule="evenodd" d="M204.658 67.8592C204.776 67.7204 204.893 67.5805 205.012 67.4437C205.142 67.4406 205.271 67.4396 205.402 67.4375C205.377 67.9396 205.118 68.2078 204.626 68.2412C204.622 68.1118 204.634 67.9855 204.658 67.8592Z" fill="white"/>
<path fill-rule="evenodd" clip-rule="evenodd" d="M205.778 67.4237C205.776 67.2974 205.771 67.1721 205.762 67.0469C205.817 67.1356 205.877 67.2222 205.92 67.3172C205.926 67.3277 205.828 67.3871 205.778 67.4237Z" fill="white"/>
<path fill-rule="evenodd" clip-rule="evenodd" d="M226.19 81.0113C226.189 85.534 226.194 90.0556 226.188 94.5784C226.184 97.0302 225.879 97.3997 223.574 97.3433C219.105 97.2358 219.678 97.5532 219.652 93.307C219.615 86.7531 219.652 80.1981 219.637 73.6432C219.633 71.2905 220.262 68.9775 220.037 66.6133C220.018 66.4233 220.011 66.129 220.116 66.0475C221.711 64.8357 223.533 65.6499 225.247 65.5142C226.468 65.4181 226.174 66.5298 226.177 67.2458C226.199 71.8343 226.19 76.4228 226.19 81.0113Z" fill="white"/>
<path fill-rule="evenodd" clip-rule="evenodd" d="M188.049 96.5811C188.05 96.7022 188.05 96.8243 188.05 96.9475C188.046 97.0717 188.037 97.1959 188.027 97.3191C186.563 97.3305 185.092 97.2408 183.64 97.3807C181.994 97.5404 181.221 97.0174 181.499 95.2482C181.56 94.8599 181.471 94.4675 181.127 94.1992C181.006 94.1836 180.882 94.1762 180.759 94.1762C180.488 94.004 180.202 92.9947 179.959 94.1919C178.91 94.624 178.24 95.387 178.02 96.5373C177.183 96.5216 176.483 96.6949 175.738 97.2585C173.787 98.7345 167.994 98.5257 166.105 96.9663C165.39 96.3765 164.448 96.7711 163.804 96.1615C163.778 95.7753 163.804 95.3683 163.488 95.0729C160.024 91.8183 161.657 87.7904 161.875 83.9774C162.626 82.466 165.144 82.9754 165.337 80.8242C169.771 79.628 174.259 79.0027 178.864 79.2251C181.34 79.3441 181.491 79.0977 181.509 76.6062C181.532 73.2045 180.364 71.9906 177.113 71.284C174.969 70.8184 172.932 71.07 170.854 71.38C169.171 71.6295 168.396 73.0605 167.759 74.3381C167.235 75.385 166.789 75.7618 165.735 75.3892C165.5 75.3067 165.229 75.3276 164.974 75.3119C161.965 75.1387 161.554 74.4362 162.751 71.524C162.872 71.2266 162.939 70.9051 163.031 70.5951C164.378 70.3873 164.615 69.4093 164.587 68.2497C166.257 68.0733 167.584 66.9408 168.994 66.2487C172.16 64.6956 175.286 65.0234 178.501 65.3156C179.513 65.4075 180.451 65.969 181.504 65.8667C181.639 66.9001 182.436 66.5838 183.043 66.6558C184.12 67.9397 185.238 69.1922 186.264 70.5157C187.432 72.0209 187.567 73.9289 188.03 75.7023C188.034 76.7482 188.038 77.793 188.042 78.8389C187.476 79.8973 187.476 80.9536 188.042 82.0109C188.042 84.6267 188.04 87.2434 188.04 89.8602C187.468 91.1806 187.469 92.4999 188.04 93.8214C188.039 94.599 188.038 95.3766 188.038 96.1532C187.99 96.1949 187.896 96.2502 187.905 96.2753C187.933 96.3765 187.994 96.4694 188.042 96.5655L188.049 96.5811ZM179.077 90.5773C179.225 90.4332 179.371 90.2902 179.52 90.1462L179.476 90.1859C181.158 90.8654 181.018 89.212 181.171 88.5294C181.508 87.0221 182.345 85.3239 180.7 83.9847C180.452 83.9586 180.205 83.9315 179.956 83.9044C179.926 83.6528 179.898 83.3564 179.585 83.3553C179.271 83.3532 179.244 83.6507 179.213 83.9023C178.821 83.8991 178.431 83.897 178.04 83.8939C178.362 83.1549 177.888 83.2186 177.402 83.1737C174.824 82.9347 172.429 84.0035 169.914 84.2665C168.492 84.4158 167.765 85.6151 167.606 87.2006C167.45 88.7621 167.645 90.2902 167.669 91.833C167.563 92.1868 167.356 92.6001 167.989 92.6147C168.661 92.6304 169.333 92.6022 170.006 92.5939L169.984 92.5709C170.006 92.9028 170.102 93.3141 170.43 93.3172C172.073 93.3287 173.751 93.8067 175.351 93.0239C175.353 92.8715 175.355 92.717 175.357 92.5646L175.451 92.5532C178.507 92.7358 178.8 92.574 179.109 90.5397L179.077 90.5773Z" fill="white"/>
<path fill-rule="evenodd" clip-rule="evenodd" d="M317.865 97.3482C316.528 98.0475 315.1 97.748 313.717 97.6645C312.802 97.6092 312.247 96.9078 312.123 95.9621C311.437 90.6972 311.723 85.4167 311.849 80.1362C311.908 77.676 311.759 75.2095 311.722 72.7472C311.702 71.3747 311.673 69.999 311.728 68.6274C311.835 65.9888 312.384 65.4199 314.922 65.495C316.033 65.5284 317.222 65.0629 318.258 65.8645C318.259 66.1265 318.259 66.3875 318.26 66.6495C319.03 72.5375 318.315 78.4578 318.633 84.3562C317.462 85.1485 317.464 85.9417 318.632 86.734C318.144 88.0408 318.145 89.3466 318.632 90.6534C317.718 90.8047 317.885 91.5354 317.878 92.1522C317.865 93.8839 317.869 95.6166 317.865 97.3482Z" fill="white"/>
<path fill-rule="evenodd" clip-rule="evenodd" d="M317.865 97.3443C317.869 95.6127 317.865 93.88 317.88 92.1473C317.886 91.5304 317.72 90.7998 318.633 90.6484C318.635 92.3863 318.647 94.1242 318.635 95.8621C318.632 96.4801 318.8 97.219 317.865 97.3443Z" fill="white"/>
<path fill-rule="evenodd" clip-rule="evenodd" d="M318.633 86.7332C317.464 85.9399 317.462 85.1467 318.634 84.3555C318.633 85.1477 318.633 85.9399 318.633 86.7332Z" fill="white"/>
<path fill-rule="evenodd" clip-rule="evenodd" d="M318.26 66.6482C318.259 66.3862 318.259 66.1253 318.258 65.8633C318.642 66.1242 318.644 66.3852 318.26 66.6482Z" fill="white"/>
<path fill-rule="evenodd" clip-rule="evenodd" d="M297.468 94.1792C297.337 94.0539 297.206 93.9297 297.076 93.8044C296.941 93.5466 296.811 93.5383 296.687 93.8128C296.445 93.8911 296.072 93.8942 295.984 94.0581C294.006 97.7332 290.695 98.3073 287.044 98.1476C286.149 98.109 285.251 98.1372 284.355 98.1351C284.103 98.1288 283.853 98.1215 283.603 98.1163C283.228 97.3209 282.751 96.8638 281.868 96.3983C280.575 95.7167 279.148 94.3222 278.813 92.9642C278.365 91.1459 276.926 89.2285 278.432 87.071C278.927 86.3633 278.572 85.0366 278.606 83.9929C280.373 83.7309 280.707 81.5483 282.458 81.0953C283.718 80.7686 284.955 80.2999 286.233 79.9461C289.744 78.9754 293.248 79.2635 296.775 79.3616C299.026 79.4242 298.238 77.6143 298.422 76.4442C298.788 74.1333 297.982 72.7868 295.917 72.1553C295.13 70.7817 293.676 71.1762 292.558 71.0447C290.008 70.7431 287.503 71.0969 285.431 72.9235C285.291 73.0456 284.984 73.0864 284.958 73.2074C284.224 76.8231 281.428 74.9025 279.531 75.2501C278.533 75.4338 278.512 74.6719 278.863 73.8201C279.89 71.3224 281.092 68.9801 283.344 67.3758C283.508 67.2599 283.508 66.904 283.582 66.6598C284.406 66.6619 285.112 66.5554 285.863 65.9907C286.879 65.2277 288.205 65.0711 289.493 65.0743C292.026 65.0805 294.57 64.9375 297.074 65.5022C298.171 66.5251 299.218 67.6545 300.912 67.4458C301.766 68.8789 302.601 70.2921 303.707 71.5833C304.539 72.5561 304.78 74.0351 304.774 75.4557C304.747 82.1172 304.71 88.7786 304.804 95.438C304.824 96.8826 304.315 97.4973 303.051 97.5913C301.783 97.6863 300.504 97.7374 299.234 97.6842C298.264 97.6445 297.855 97.0444 297.797 95.9933C297.766 95.414 298.593 94.5633 297.468 94.1792ZM295.456 91.0029C296.034 91.0582 296.292 90.7806 296.253 90.1971L296.232 90.2201C298.003 90.7629 298.231 88.978 298.281 88.2369C298.377 86.8372 298.936 85.1274 297.444 83.9782L297.449 83.9803C297.387 83.5555 297.212 83.2173 296.742 83.2142C294.571 83.2017 292.307 82.8061 290.251 83.304C287.701 83.9219 284.884 84.5471 284.364 88.1983C284.011 90.6762 285.076 92.9965 287.512 93.3326C288.893 93.5237 290.327 93.4996 291.716 93.3587C292.612 93.2669 293.622 93.0278 293.984 91.9047C294.078 91.8254 294.185 91.7962 294.305 91.815C294.91 91.8473 295.521 91.8912 295.479 90.9768L295.456 91.0029Z" fill="white"/>
<path fill-rule="evenodd" clip-rule="evenodd" d="M319.402 57.1951C318.424 57.2608 318.681 58.2796 318.244 58.7629C316.07 60.3525 313.902 59.0321 311.731 58.7514C311.935 57.4988 310.735 56.6502 310.882 55.3277C310.996 54.2902 312.048 53.6076 311.717 52.4897C312.036 52.4688 312.471 52.5805 312.654 52.4093C314.421 50.7539 316.183 51.2789 317.783 52.5377C319.232 53.6754 319.536 55.3966 319.402 57.1951Z" fill="white"/>
<path fill-rule="evenodd" clip-rule="evenodd" d="M188.04 93.8205C187.469 92.4991 187.468 91.1798 188.04 89.8594C188.04 91.1798 188.04 92.4991 188.04 93.8205Z" fill="white"/>
<path fill-rule="evenodd" clip-rule="evenodd" d="M188.042 82.0119C187.475 80.9546 187.475 79.8982 188.042 78.8398C188.042 79.8972 188.042 80.9546 188.042 82.0119Z" fill="white"/>
<path fill-rule="evenodd" clip-rule="evenodd" d="M188.043 96.5685C187.995 96.4715 187.934 96.3786 187.905 96.2784C187.897 96.2533 187.991 96.198 188.039 96.1562C188.041 96.293 188.042 96.4308 188.043 96.5685Z" fill="white"/>
<path fill-rule="evenodd" clip-rule="evenodd" d="M253.043 73.7891C253.187 73.9341 253.33 74.0792 253.475 74.2243C253.33 74.0792 253.186 73.9331 253.043 73.7891Z" fill="white"/>
<path fill-rule="evenodd" clip-rule="evenodd" d="M178.038 83.8965C176.265 83.9247 174.495 84.0468 172.761 84.4465C168.393 85.4517 167.278 87.5747 168.853 91.8198C168.458 91.825 168.064 91.8292 167.668 91.8344C167.645 90.2907 167.449 88.7636 167.604 87.2021C167.763 85.6166 168.491 84.4173 169.913 84.2681C172.427 84.005 174.823 82.9362 177.401 83.1752C177.887 83.2211 178.361 83.1575 178.038 83.8965Z" fill="white"/>
<path fill-rule="evenodd" clip-rule="evenodd" d="M179.473 90.1855C180.658 88.2785 180.939 86.1857 180.697 83.9844C182.342 85.3236 181.505 87.0218 181.168 88.529C181.015 89.2117 181.156 90.865 179.473 90.1855Z" fill="white"/>
<path fill-rule="evenodd" clip-rule="evenodd" d="M169.98 92.5703C171.515 92.6027 173.048 92.6361 174.582 92.6705C174.759 92.9649 175.044 93.015 175.347 93.0233C173.748 93.8061 172.069 93.3281 170.426 93.3166C170.099 93.3135 170.003 92.9022 169.98 92.5703Z" fill="white"/>
<path fill-rule="evenodd" clip-rule="evenodd" d="M175.447 92.5525C176.667 91.8803 177.886 91.2113 179.105 90.5391C178.797 92.5734 178.503 92.7352 175.447 92.5525Z" fill="white"/>
<path fill-rule="evenodd" clip-rule="evenodd" d="M167.666 91.8359C168.062 91.8307 168.457 91.8265 168.852 91.8213C169.415 91.8025 169.8 92.0593 170.003 92.5968C169.331 92.6052 168.659 92.6323 167.986 92.6177C167.354 92.6031 167.559 92.1897 167.666 91.8359Z" fill="white"/>
<path fill-rule="evenodd" clip-rule="evenodd" d="M179.954 83.9084C179.706 83.9074 179.458 83.9074 179.209 83.9063C179.241 83.6548 179.269 83.3573 179.582 83.3594C179.895 83.3604 179.924 83.6569 179.954 83.9084Z" fill="white"/>
<path fill-rule="evenodd" clip-rule="evenodd" d="M175.347 93.0228C175.044 93.0144 174.759 92.9644 174.582 92.67C174.838 92.6345 175.096 92.599 175.353 92.5625C175.351 92.7159 175.349 92.8704 175.347 93.0228Z" fill="white"/>
<path fill-rule="evenodd" clip-rule="evenodd" d="M179.076 90.5795C179.224 90.4355 179.37 90.2925 179.518 90.1484C179.37 90.2914 179.223 90.4355 179.076 90.5795Z" fill="white"/>
<path fill-rule="evenodd" clip-rule="evenodd" d="M297.447 83.9806C294.146 83.9942 290.819 83.6977 287.662 85.1225C286.198 85.7832 285.247 86.755 285.11 88.4438C284.886 91.2276 286.026 92.5449 288.75 92.6586C290.541 92.7348 292.304 92.6409 293.983 91.9061C293.621 93.0281 292.611 93.2682 291.715 93.3601C290.326 93.501 288.891 93.5239 287.511 93.334C285.075 92.9979 284.01 90.6775 284.363 88.1996C284.883 84.5484 287.7 83.9222 290.25 83.3053C292.305 82.8074 294.57 83.203 296.74 83.2155C297.21 83.2176 297.387 83.5558 297.447 83.9806Z" fill="white"/>
<path fill-rule="evenodd" clip-rule="evenodd" d="M296.23 90.2184C297.599 88.3323 297.621 86.1748 297.443 83.9766C298.934 85.1258 298.376 86.8355 298.279 88.2352C298.229 88.9753 298.002 90.7601 296.23 90.2184Z" fill="white"/>
<path fill-rule="evenodd" clip-rule="evenodd" d="M294.303 91.8147C294.695 91.535 295.087 91.2563 295.477 90.9766C295.52 91.8909 294.908 91.8471 294.303 91.8147Z" fill="white"/>
<path fill-rule="evenodd" clip-rule="evenodd" d="M295.455 91.0001C295.721 90.7308 295.987 90.4625 296.253 90.1953C296.293 90.7777 296.034 91.0554 295.455 91.0001Z" fill="white"/>
</svg>
