<svg width="424" height="280" viewBox="0 0 424 280" fill="none" xmlns="http://www.w3.org/2000/svg">
<path d="M254.541 218.594H192.738V262.543H254.541V218.594Z" fill="white"/>
<path d="M254.541 263.042H192.738C192.462 263.042 192.238 262.818 192.238 262.542V218.594C192.238 218.318 192.462 218.094 192.738 218.094H254.541C254.817 218.094 255.041 218.318 255.041 218.594V262.542C255.041 262.818 254.817 263.042 254.541 263.042ZM193.238 262.042H254.041V219.094H193.238V262.042Z" fill="#01004C"/>
<path d="M347.254 218.267H100.027C95.3486 218.267 91.5566 214.299 91.5566 209.405V49.0495C91.5566 44.1555 95.3486 40.1875 100.027 40.1875H347.254C351.932 40.1875 355.724 44.1545 355.724 49.0495V209.405C355.724 214.299 351.932 218.267 347.254 218.267Z" fill="#01004C"/>
<path d="M347.254 218.767H100.027C95.0806 218.767 91.0566 214.567 91.0566 209.405V49.0495C91.0566 43.8875 95.0806 39.6875 100.027 39.6875H347.254C352.2 39.6875 356.224 43.8875 356.224 49.0495V209.405C356.224 214.567 352.2 218.767 347.254 218.767ZM100.027 40.6875C95.6316 40.6875 92.0566 44.4385 92.0566 49.0495V209.405C92.0566 214.015 95.6316 217.766 100.027 217.766H347.254C351.649 217.766 355.224 214.015 355.224 209.405V49.0495C355.224 44.4385 351.649 40.6875 347.254 40.6875H100.027Z" fill="#01004C"/>
<path d="M347.254 223.161H100.027C95.3486 223.161 91.5566 219.193 91.5566 214.299V53.944C91.5566 49.05 95.3486 45.082 100.027 45.082H347.254C351.932 45.082 355.724 49.05 355.724 53.944V214.299C355.724 219.193 351.932 223.161 347.254 223.161Z" fill="white"/>
<path d="M347.254 223.661H100.027C95.0806 223.661 91.0566 219.461 91.0566 214.299V53.944C91.0566 48.782 95.0806 44.582 100.027 44.582H347.254C352.2 44.582 356.224 48.782 356.224 53.944V214.299C356.224 219.461 352.2 223.661 347.254 223.661ZM100.027 45.582C95.6316 45.582 92.0566 49.333 92.0566 53.944V214.299C92.0566 218.91 95.6316 222.661 100.027 222.661H347.254C351.649 222.661 355.224 218.91 355.224 214.299V53.944C355.224 49.333 351.649 45.582 347.254 45.582H100.027Z" fill="#01004C"/>
<path d="M340.115 102.813V65.3983C340.115 63.8153 338.878 62.5312 337.353 62.5312H109.465C107.94 62.5312 106.703 63.8143 106.703 65.3983V204.862H340.115V167.873" fill="#CACAE5"/>
<path d="M340.115 205.36H106.703C106.427 205.36 106.203 205.136 106.203 204.86V65.3972C106.203 63.5412 107.667 62.0312 109.466 62.0312H337.353C339.152 62.0312 340.615 63.5412 340.615 65.3972V102.812C340.615 103.088 340.391 103.312 340.115 103.312C339.839 103.312 339.615 103.088 339.615 102.812V65.3972C339.615 64.0922 338.6 63.0312 337.353 63.0312H109.466C108.218 63.0312 107.203 64.0922 107.203 65.3972V204.361H339.615V167.873C339.615 167.597 339.839 167.373 340.115 167.373C340.391 167.373 340.615 167.597 340.615 167.873V204.861C340.615 205.137 340.392 205.36 340.115 205.36Z" fill="#01004C"/>
<path d="M340.348 147.516C340.072 147.516 339.848 147.292 339.848 147.016V120.211C339.848 119.935 340.072 119.711 340.348 119.711C340.624 119.711 340.848 119.935 340.848 120.211V147.016C340.848 147.292 340.624 147.516 340.348 147.516Z" fill="#01004C"/>
<path d="M223.641 56.3245C222.073 56.3245 220.801 55.0535 220.801 53.4845C220.801 51.9165 222.072 50.6445 223.641 50.6445C225.209 50.6445 226.481 51.9155 226.481 53.4845C226.48 55.0535 225.209 56.3245 223.641 56.3245Z" fill="white"/>
<path d="M223.641 56.8235C221.799 56.8235 220.301 55.3255 220.301 53.4845C220.301 51.6425 221.799 50.1445 223.641 50.1445C225.483 50.1445 226.981 51.6425 226.981 53.4845C226.981 55.3255 225.482 56.8235 223.641 56.8235ZM223.641 51.1445C222.351 51.1445 221.301 52.1945 221.301 53.4845C221.301 54.7745 222.351 55.8235 223.641 55.8235C224.931 55.8235 225.981 54.7745 225.981 53.4845C225.981 52.1945 224.931 51.1445 223.641 51.1445Z" fill="#01004C"/>
<path d="M336.594 216.637C335.026 216.637 333.754 215.365 333.754 213.797C333.754 212.229 335.025 210.957 336.594 210.957C338.162 210.957 339.434 212.228 339.434 213.797C339.434 215.366 338.163 216.637 336.594 216.637Z" fill="#2AAFEB"/>
<path d="M336.596 217.136C334.754 217.136 333.256 215.638 333.256 213.796C333.256 211.955 334.754 210.457 336.596 210.457C338.437 210.457 339.935 211.955 339.935 213.796C339.935 215.638 338.436 217.136 336.596 217.136ZM336.596 211.457C335.306 211.457 334.256 212.506 334.256 213.796C334.256 215.086 335.306 216.136 336.596 216.136C337.886 216.136 338.935 215.086 338.935 213.796C338.935 212.506 337.886 211.457 336.596 211.457Z" fill="#01004C"/>
<path d="M325.623 215.423C324.726 215.423 323.996 214.693 323.996 213.795C323.996 212.898 324.725 212.168 325.623 212.168C326.52 212.168 327.25 212.897 327.25 213.795C327.25 214.692 326.52 215.423 325.623 215.423ZM325.623 213.168C325.277 213.168 324.996 213.449 324.996 213.795C324.996 214.142 325.277 214.423 325.623 214.423C325.969 214.423 326.25 214.142 326.25 213.795C326.25 213.449 325.969 213.168 325.623 213.168Z" fill="#01004C"/>
<path d="M319.152 215.423C318.255 215.423 317.525 214.693 317.525 213.795C317.525 212.898 318.254 212.168 319.152 212.168C320.049 212.168 320.779 212.897 320.779 213.795C320.779 214.692 320.05 215.423 319.152 215.423ZM319.152 213.168C318.806 213.168 318.525 213.449 318.525 213.795C318.525 214.142 318.806 214.423 319.152 214.423C319.498 214.423 319.779 214.142 319.779 213.795C319.779 213.449 319.498 213.168 319.152 213.168Z" fill="#01004C"/>
<path d="M254.429 223.172H192.855V234.502H254.429V223.172Z" fill="#01004C"/>
<path d="M254.429 235.002H192.854C192.578 235.002 192.354 234.778 192.354 234.502V223.172C192.354 222.896 192.578 222.672 192.854 222.672H254.428C254.704 222.672 254.928 222.896 254.928 223.172V234.502C254.929 234.778 254.705 235.002 254.429 235.002ZM193.354 234.002H253.928V223.672H193.354V234.002Z" fill="#01004C"/>
<path d="M331.779 263.694C331.549 263.537 331.306 263.393 331.068 263.243C327.306 260.875 322.661 259.457 317.615 259.457H288.081H223.627H221.053H194.093H127.064C126.762 259.457 126.464 259.474 126.165 259.488C119.351 259.806 113.343 263.699 110.91 269.475L107.055 278.624H201.043H246.241H340.229C340.229 272.586 336.927 267.207 331.779 263.694Z" fill="white"/>
<path d="M340.228 279.124H107.054C106.886 279.124 106.73 279.04 106.637 278.9C106.545 278.76 106.529 278.584 106.593 278.429L110.447 269.28C112.944 263.356 119.104 259.316 126.14 258.988L126.275 258.981C126.537 258.968 126.797 258.957 127.062 258.957H317.613C322.574 258.957 327.318 260.293 331.333 262.82L331.524 262.939C331.705 263.05 331.885 263.163 332.059 263.281C337.568 267.04 340.727 272.632 340.727 278.624C340.728 278.9 340.504 279.124 340.228 279.124ZM107.807 278.124H339.72C339.548 272.657 336.573 267.571 331.495 264.107C331.334 263.998 331.166 263.893 330.999 263.79L330.801 263.667C326.946 261.239 322.386 259.957 317.613 259.957H127.063C126.815 259.957 126.569 259.969 126.323 259.98L126.187 259.986C119.535 260.298 113.717 264.097 111.37 269.669L107.807 278.124Z" fill="#01004C"/>
<path d="M148.143 269.492H131.652V267.208C131.652 265.386 133.129 263.91 134.95 263.91H144.845C146.667 263.91 148.143 265.387 148.143 267.208V269.492Z" fill="white"/>
<path d="M148.143 269.991H131.652C131.376 269.991 131.152 269.767 131.152 269.491V267.208C131.152 265.114 132.856 263.41 134.95 263.41H144.845C146.939 263.41 148.643 265.114 148.643 267.208V269.491C148.643 269.768 148.419 269.991 148.143 269.991ZM132.151 268.991H147.642V267.208C147.642 265.665 146.387 264.41 144.844 264.41H134.949C133.406 264.41 132.151 265.665 132.151 267.208V268.991Z" fill="#01004C"/>
<path d="M168.568 269.492H152.076V267.208C152.076 265.386 153.553 263.91 155.374 263.91H165.269C167.091 263.91 168.567 265.387 168.567 267.208V269.492H168.568Z" fill="white"/>
<path d="M168.567 269.991H152.076C151.8 269.991 151.576 269.767 151.576 269.491V267.208C151.576 265.114 153.28 263.41 155.375 263.41H165.27C167.364 263.41 169.068 265.114 169.068 267.208V269.491C169.067 269.768 168.844 269.991 168.567 269.991ZM152.576 268.991H168.067V267.208C168.067 265.665 166.812 264.41 165.269 264.41H155.374C153.831 264.41 152.575 265.665 152.575 267.208V268.991H152.576Z" fill="#01004C"/>
<path d="M189.499 269.492H173.008V267.208C173.008 265.386 174.485 263.91 176.306 263.91H186.201C188.023 263.91 189.499 265.387 189.499 267.208V269.492Z" fill="white"/>
<path d="M189.499 269.991H173.008C172.732 269.991 172.508 269.767 172.508 269.491V267.208C172.508 265.114 174.212 263.41 176.306 263.41H186.202C188.296 263.41 190 265.114 190 267.208V269.491C189.999 269.768 189.775 269.991 189.499 269.991ZM173.508 268.991H188.999V267.208C188.999 265.665 187.744 264.41 186.201 264.41H176.305C174.762 264.41 173.507 265.665 173.507 267.208V268.991H173.508Z" fill="#01004C"/>
<path d="M209.923 269.492H193.432V267.208C193.432 265.386 194.909 263.91 196.73 263.91H206.625C208.447 263.91 209.923 265.387 209.923 267.208V269.492Z" fill="white"/>
<path d="M209.923 269.991H193.432C193.156 269.991 192.932 269.767 192.932 269.491V267.208C192.932 265.114 194.636 263.41 196.731 263.41H206.626C208.72 263.41 210.424 265.114 210.424 267.208V269.491C210.423 269.768 210.199 269.991 209.923 269.991ZM193.932 268.991H209.423V267.208C209.423 265.665 208.168 264.41 206.625 264.41H196.73C195.187 264.41 193.931 265.665 193.931 267.208V268.991H193.932Z" fill="#01004C"/>
<path d="M230.6 269.492H222.418H214.109V267.208C214.109 265.386 215.586 263.91 217.407 263.91H227.302C229.124 263.91 230.6 265.387 230.6 267.208V269.492Z" fill="white"/>
<path d="M230.6 269.991H214.109C213.833 269.991 213.609 269.767 213.609 269.491V267.208C213.609 265.114 215.313 263.41 217.408 263.41H227.303C229.397 263.41 231.101 265.114 231.101 267.208V269.491C231.1 269.768 230.876 269.991 230.6 269.991ZM214.608 268.991H230.099V267.208C230.099 265.665 228.844 264.41 227.301 264.41H217.406C215.863 264.41 214.607 265.665 214.607 267.208V268.991H214.608Z" fill="#01004C"/>
<path d="M251.025 269.492H234.533V267.208C234.533 265.386 236.01 263.91 237.831 263.91H247.726C249.548 263.91 251.024 265.387 251.024 267.208V269.492H251.025Z" fill="white"/>
<path d="M251.025 269.991H234.533C234.257 269.991 234.033 269.767 234.033 269.491V267.208C234.033 265.114 235.737 263.41 237.832 263.41H247.727C249.822 263.41 251.526 265.114 251.526 267.208V269.491C251.525 269.768 251.302 269.991 251.025 269.991ZM235.033 268.991H250.525V267.208C250.525 265.665 249.269 264.41 247.726 264.41H237.831C236.288 264.41 235.032 265.665 235.032 267.208V268.991H235.033Z" fill="#01004C"/>
<path d="M271.956 269.492H255.465V267.208C255.465 265.386 256.942 263.91 258.763 263.91H268.658C270.48 263.91 271.956 265.387 271.956 267.208V269.492Z" fill="white"/>
<path d="M271.956 269.991H255.465C255.189 269.991 254.965 269.767 254.965 269.491V267.208C254.965 265.114 256.669 263.41 258.764 263.41H268.659C270.753 263.41 272.457 265.114 272.457 267.208V269.491C272.456 269.768 272.233 269.991 271.956 269.991ZM255.965 268.991H271.456V267.208C271.456 265.665 270.201 264.41 268.658 264.41H258.763C257.22 264.41 255.964 265.665 255.964 267.208V268.991H255.965Z" fill="#01004C"/>
<path d="M292.38 269.492H275.889V267.208C275.889 265.386 277.366 263.91 279.187 263.91H289.082C290.904 263.91 292.38 265.387 292.38 267.208V269.492Z" fill="white"/>
<path d="M292.381 269.991H275.889C275.613 269.991 275.389 269.767 275.389 269.491V267.208C275.389 265.114 277.093 263.41 279.188 263.41H289.083C291.178 263.41 292.882 265.114 292.882 267.208V269.491C292.881 269.768 292.657 269.991 292.381 269.991ZM276.389 268.991H291.881V267.208C291.881 265.665 290.625 264.41 289.082 264.41H279.187C277.644 264.41 276.388 265.665 276.388 267.208V268.991H276.389Z" fill="#01004C"/>
<path d="M313.819 269.492H297.328V267.208C297.328 265.386 298.805 263.91 300.626 263.91H310.521C312.343 263.91 313.819 265.387 313.819 267.208V269.492Z" fill="white"/>
<path d="M313.819 269.991H297.328C297.052 269.991 296.828 269.767 296.828 269.491V267.208C296.828 265.114 298.532 263.41 300.626 263.41H310.521C312.616 263.41 314.32 265.114 314.32 267.208V269.491C314.319 269.768 314.096 269.991 313.819 269.991ZM297.828 268.991H313.319V267.208C313.319 265.665 312.063 264.41 310.52 264.41H300.625C299.082 264.41 297.827 265.665 297.827 267.208L297.828 268.991Z" fill="#01004C"/>
<path d="M138.445 273.297H121.953V271.013C121.953 269.191 123.43 267.715 125.251 267.715H135.146C136.968 267.715 138.444 269.192 138.444 271.013V273.297H138.445Z" fill="white"/>
<path d="M138.446 273.796H121.955C121.679 273.796 121.455 273.572 121.455 273.296V271.013C121.455 268.919 123.159 267.215 125.253 267.215H135.148C137.242 267.215 138.946 268.919 138.946 271.013V273.296C138.946 273.572 138.723 273.796 138.446 273.796ZM122.455 272.796H137.946V271.013C137.946 269.47 136.691 268.215 135.148 268.215H125.253C123.71 268.215 122.455 269.47 122.455 271.013V272.796Z" fill="#01004C"/>
<path d="M158.87 273.297H142.379V271.013C142.379 269.191 143.856 267.715 145.677 267.715H155.572C157.394 267.715 158.87 269.192 158.87 271.013V273.297Z" fill="white"/>
<path d="M158.87 273.796H142.379C142.103 273.796 141.879 273.572 141.879 273.296V271.013C141.879 268.919 143.583 267.215 145.677 267.215H155.573C157.667 267.215 159.371 268.919 159.371 271.013V273.296C159.37 273.572 159.146 273.796 158.87 273.796ZM142.879 272.796H158.37V271.013C158.37 269.47 157.115 268.215 155.572 268.215H145.676C144.133 268.215 142.878 269.47 142.878 271.013L142.879 272.796Z" fill="#01004C"/>
<path d="M179.802 273.297H163.311V271.013C163.311 269.191 164.788 267.715 166.609 267.715H176.504C178.326 267.715 179.802 269.192 179.802 271.013V273.297Z" fill="white"/>
<path d="M179.802 273.796H163.311C163.035 273.796 162.811 273.572 162.811 273.296V271.013C162.811 268.919 164.515 267.215 166.609 267.215H176.505C178.599 267.215 180.303 268.919 180.303 271.013V273.296C180.302 273.572 180.078 273.796 179.802 273.796ZM163.811 272.796H179.302V271.013C179.302 269.47 178.047 268.215 176.504 268.215H166.608C165.065 268.215 163.81 269.47 163.81 271.013V272.796H163.811Z" fill="#01004C"/>
<path d="M200.226 273.297H183.734V271.013C183.734 269.191 185.211 267.715 187.032 267.715H196.927C198.749 267.715 200.225 269.192 200.225 271.013V273.297H200.226Z" fill="white"/>
<path d="M200.226 273.796H183.734C183.458 273.796 183.234 273.572 183.234 273.296V271.013C183.234 268.919 184.938 267.215 187.032 267.215H196.928C199.022 267.215 200.726 268.919 200.726 271.013V273.296C200.726 273.572 200.502 273.796 200.226 273.796ZM184.234 272.796H199.725V271.013C199.725 269.47 198.47 268.215 196.927 268.215H187.031C185.488 268.215 184.233 269.47 184.233 271.013V272.796H184.234Z" fill="#01004C"/>
<path d="M220.905 273.297H212.723H204.414V271.013C204.414 269.191 205.891 267.715 207.712 267.715H217.607C219.429 267.715 220.905 269.192 220.905 271.013V273.297Z" fill="white"/>
<path d="M220.903 273.796H204.412C204.136 273.796 203.912 273.572 203.912 273.296V271.013C203.912 268.919 205.616 267.215 207.71 267.215H217.606C219.7 267.215 221.404 268.919 221.404 271.013V273.296C221.403 273.572 221.18 273.796 220.903 273.796ZM204.912 272.796H220.403V271.013C220.403 269.47 219.148 268.215 217.605 268.215H207.709C206.166 268.215 204.911 269.47 204.911 271.013V272.796H204.912Z" fill="#01004C"/>
<path d="M241.329 273.297H224.838V271.013C224.838 269.191 226.315 267.715 228.136 267.715H238.031C239.853 267.715 241.329 269.192 241.329 271.013V273.297Z" fill="white"/>
<path d="M241.327 273.796H224.836C224.56 273.796 224.336 273.572 224.336 273.296V271.013C224.336 268.919 226.04 267.215 228.135 267.215H238.03C240.124 267.215 241.828 268.919 241.828 271.013V273.296C241.827 273.572 241.604 273.796 241.327 273.796ZM225.336 272.796H240.827V271.013C240.827 269.47 239.572 268.215 238.029 268.215H228.134C226.591 268.215 225.335 269.47 225.335 271.013V272.796H225.336Z" fill="#01004C"/>
<path d="M262.259 273.297H245.768V271.013C245.768 269.191 247.245 267.715 249.066 267.715H258.961C260.783 267.715 262.259 269.192 262.259 271.013V273.297Z" fill="white"/>
<path d="M262.259 273.796H245.768C245.492 273.796 245.268 273.572 245.268 273.296V271.013C245.268 268.919 246.972 267.215 249.066 267.215H258.962C261.056 267.215 262.76 268.919 262.76 271.013V273.296C262.759 273.572 262.535 273.796 262.259 273.796ZM246.268 272.796H261.759V271.013C261.759 269.47 260.504 268.215 258.961 268.215H249.065C247.522 268.215 246.267 269.47 246.267 271.013V272.796H246.268Z" fill="#01004C"/>
<path d="M282.681 273.297H266.189V271.013C266.189 269.191 267.666 267.715 269.487 267.715H279.382C281.204 267.715 282.68 269.192 282.68 271.013V273.297H282.681Z" fill="white"/>
<path d="M282.682 273.796H266.191C265.915 273.796 265.691 273.572 265.691 273.296V271.013C265.691 268.919 267.395 267.215 269.49 267.215H279.385C281.479 267.215 283.183 268.919 283.183 271.013V273.296C283.182 273.572 282.958 273.796 282.682 273.796ZM266.69 272.796H282.181V271.013C282.181 269.47 280.926 268.215 279.383 268.215H269.488C267.945 268.215 266.689 269.47 266.689 271.013V272.796H266.69Z" fill="#01004C"/>
<path d="M304.121 273.297H287.629V271.013C287.629 269.191 289.106 267.715 290.927 267.715H300.822C302.644 267.715 304.12 269.192 304.12 271.013V273.297H304.121Z" fill="white"/>
<path d="M304.122 273.796H287.631C287.355 273.796 287.131 273.572 287.131 273.296V271.013C287.131 268.919 288.835 267.215 290.929 267.215H300.824C302.919 267.215 304.623 268.919 304.623 271.013V273.296C304.622 273.572 304.398 273.796 304.122 273.796ZM288.131 272.796H303.622V271.013C303.622 269.47 302.366 268.215 300.823 268.215H290.928C289.385 268.215 288.13 269.47 288.13 271.013V272.796H288.131Z" fill="#01004C"/>
<path d="M324.547 273.297H308.055V271.013C308.055 269.191 309.532 267.715 311.353 267.715H321.248C323.07 267.715 324.546 269.192 324.546 271.013V273.297H324.547Z" fill="white"/>
<path d="M324.546 273.796H308.055C307.779 273.796 307.555 273.572 307.555 273.296V271.013C307.555 268.919 309.259 267.215 311.353 267.215H321.248C323.342 267.215 325.046 268.919 325.046 271.013V273.296C325.046 273.572 324.822 273.796 324.546 273.796ZM308.555 272.796H324.046V271.013C324.046 269.47 322.791 268.215 321.248 268.215H311.353C309.81 268.215 308.555 269.47 308.555 271.013V272.796Z" fill="#01004C"/>
<path d="M252.128 192.648H127.588C125.375 192.648 123.58 190.854 123.58 188.64V80.9299C123.58 78.7169 125.374 76.9219 127.588 76.9219H252.128C254.341 76.9219 256.136 78.7159 256.136 80.9299V188.641C256.135 190.854 254.341 192.648 252.128 192.648Z" fill="#F2F1F6"/>
<path d="M252.128 193.148H127.588C125.103 193.148 123.08 191.125 123.08 188.64V80.9299C123.08 78.4439 125.103 76.4219 127.588 76.4219H252.128C254.613 76.4219 256.636 78.4439 256.636 80.9299V188.64C256.636 191.125 254.613 193.148 252.128 193.148ZM127.588 77.4209C125.653 77.4209 124.08 78.9949 124.08 80.9289V188.639C124.08 190.574 125.653 192.147 127.588 192.147H252.128C254.063 192.147 255.636 190.574 255.636 188.639V80.9289C255.636 78.9949 254.063 77.4209 252.128 77.4209H127.588Z" fill="#01004C"/>
<path d="M252.128 76.9219H127.588C125.375 76.9219 123.58 78.7159 123.58 80.9299V87.5039H256.136V80.9299C256.135 78.7169 254.341 76.9219 252.128 76.9219Z" fill="#7FD6C3"/>
<path d="M256.636 88.0039H123.08V80.9299C123.08 78.4439 125.103 76.4219 127.588 76.4219H252.128C254.613 76.4219 256.636 78.4439 256.636 80.9299V88.0039ZM124.08 87.0039H255.636V80.9299C255.636 78.9959 254.063 77.4219 252.128 77.4219H127.588C125.653 77.4219 124.08 78.9959 124.08 80.9299V87.0039Z" fill="#01004C"/>
<path d="M139.28 84.8003C138.025 84.8003 137.004 83.7773 137.004 82.5193C137.004 81.2613 138.026 80.2383 139.28 80.2383C140.535 80.2383 141.556 81.2613 141.556 82.5193C141.556 83.7773 140.535 84.8003 139.28 84.8003ZM139.28 81.2383C138.576 81.2383 138.004 81.8133 138.004 82.5193C138.004 83.2253 138.576 83.8003 139.28 83.8003C139.984 83.8003 140.556 83.2253 140.556 82.5193C140.557 81.8133 139.984 81.2383 139.28 81.2383Z" fill="white"/>
<path d="M146.214 84.8003C144.959 84.8003 143.938 83.7773 143.938 82.5193C143.938 81.2613 144.96 80.2383 146.214 80.2383C147.469 80.2383 148.49 81.2613 148.49 82.5193C148.49 83.7773 147.469 84.8003 146.214 84.8003ZM146.214 81.2383C145.51 81.2383 144.938 81.8133 144.938 82.5193C144.938 83.2253 145.51 83.8003 146.214 83.8003C146.918 83.8003 147.49 83.2253 147.49 82.5193C147.49 81.8133 146.918 81.2383 146.214 81.2383Z" fill="white"/>
<path d="M132.389 84.8003C131.134 84.8003 130.113 83.7773 130.113 82.5193C130.113 81.2613 131.135 80.2383 132.389 80.2383C133.644 80.2383 134.665 81.2613 134.665 82.5193C134.665 83.7773 133.644 84.8003 132.389 84.8003ZM132.389 81.2383C131.685 81.2383 131.113 81.8133 131.113 82.5193C131.113 83.2253 131.685 83.8003 132.389 83.8003C133.093 83.8003 133.665 83.2253 133.665 82.5193C133.665 81.8133 133.093 81.2383 132.389 81.2383Z" fill="white"/>
<path d="M217.211 106.48H136.979C136.703 106.48 136.479 106.256 136.479 105.98C136.479 105.704 136.703 105.48 136.979 105.48H217.211C217.487 105.48 217.711 105.704 217.711 105.98C217.711 106.256 217.487 106.48 217.211 106.48Z" fill="#7FD6C3"/>
<path d="M165.162 121.062H136.979C136.703 121.062 136.479 120.839 136.479 120.562C136.479 120.287 136.703 120.062 136.979 120.062H165.162C165.438 120.062 165.662 120.287 165.662 120.562C165.662 120.839 165.439 121.062 165.162 121.062Z" fill="#7C55FF"/>
<path d="M210.982 121.062H176.756C176.48 121.062 176.256 120.839 176.256 120.562C176.256 120.287 176.48 120.062 176.756 120.062H210.982C211.258 120.062 211.482 120.287 211.482 120.562C211.482 120.839 211.258 121.062 210.982 121.062Z" fill="#7FD6C3"/>
<path d="M188.405 165.328H136.979C136.703 165.328 136.479 165.104 136.479 164.828C136.479 164.552 136.703 164.328 136.979 164.328H188.405C188.681 164.328 188.905 164.552 188.905 164.828C188.905 165.105 188.682 165.328 188.405 165.328Z" fill="#7C55FF"/>
<path d="M217.918 136.395H136.979C136.703 136.395 136.479 136.171 136.479 135.895C136.479 135.619 136.703 135.395 136.979 135.395H217.918C218.194 135.395 218.418 135.619 218.418 135.895C218.418 136.172 218.194 136.395 217.918 136.395Z" fill="#7C55FF"/>
<path d="M162.625 150.977H136.979C136.703 150.977 136.479 150.753 136.479 150.477C136.479 150.201 136.703 149.977 136.979 149.977H162.625C162.901 149.977 163.125 150.201 163.125 150.477C163.125 150.753 162.901 150.977 162.625 150.977Z" fill="#7FD6C3"/>
<path d="M217.211 150.977H170.514C170.238 150.977 170.014 150.753 170.014 150.477C170.014 150.201 170.238 149.977 170.514 149.977H217.211C217.487 149.977 217.711 150.201 217.711 150.477C217.711 150.753 217.487 150.977 217.211 150.977Z" fill="#7C55FF"/>
<path d="M323.974 191.856H265.786C265.331 191.856 264.961 191.487 264.961 191.031V94.493C264.961 94.038 265.33 93.668 265.786 93.668H323.974C324.429 93.668 324.799 94.037 324.799 94.493V191.031C324.799 191.487 324.429 191.856 323.974 191.856Z" fill="#2AAFEB"/>
<path d="M323.974 192.356H265.786C265.056 192.356 264.461 191.761 264.461 191.031V94.493C264.461 93.763 265.056 93.168 265.786 93.168H323.974C324.704 93.168 325.299 93.762 325.299 94.493V191.031C325.299 191.761 324.704 192.356 323.974 192.356ZM265.786 94.167C265.606 94.167 265.461 94.313 265.461 94.492V191.03C265.461 191.21 265.606 191.355 265.786 191.355H323.974C324.154 191.355 324.299 191.209 324.299 191.03V94.492C324.299 94.313 324.153 94.167 323.974 94.167H265.786Z" fill="#01004C"/>
<path d="M293 113.32H274.113C273.837 113.32 273.613 113.096 273.613 112.82C273.613 112.544 273.837 112.32 274.113 112.32H293C293.276 112.32 293.5 112.544 293.5 112.82C293.5 113.096 293.276 113.32 293 113.32Z" fill="#7C55FF"/>
<path d="M304.468 113.32H297.719C297.443 113.32 297.219 113.096 297.219 112.82C297.219 112.544 297.443 112.32 297.719 112.32H304.468C304.744 112.32 304.968 112.544 304.968 112.82C304.968 113.096 304.744 113.32 304.468 113.32Z" fill="white"/>
<path d="M316.047 113.32H309.863C309.587 113.32 309.363 113.096 309.363 112.82C309.363 112.544 309.587 112.32 309.863 112.32H316.047C316.323 112.32 316.547 112.544 316.547 112.82C316.547 113.096 316.323 113.32 316.047 113.32Z" fill="white"/>
<path d="M316.048 126.312H297.16C296.884 126.312 296.66 126.089 296.66 125.812C296.66 125.537 296.884 125.312 297.16 125.312H316.048C316.324 125.312 316.548 125.537 316.548 125.812C316.548 126.09 316.324 126.312 316.048 126.312Z" fill="#7C55FF"/>
<path d="M292.441 126.312H285.691C285.415 126.312 285.191 126.089 285.191 125.812C285.191 125.537 285.415 125.312 285.691 125.312H292.441C292.717 125.312 292.941 125.537 292.941 125.812C292.941 126.09 292.718 126.312 292.441 126.312Z" fill="white"/>
<path d="M280.296 126.312H274.113C273.837 126.312 273.613 126.089 273.613 125.812C273.613 125.537 273.837 125.312 274.113 125.312H280.296C280.572 125.312 280.796 125.537 280.796 125.812C280.796 126.09 280.572 126.312 280.296 126.312Z" fill="white"/>
<path d="M283.834 119.75H274.113C273.837 119.75 273.613 119.526 273.613 119.25C273.613 118.974 273.837 118.75 274.113 118.75H283.834C284.11 118.75 284.334 118.974 284.334 119.25C284.334 119.526 284.11 119.75 283.834 119.75Z" fill="#7C55FF"/>
<path d="M304.468 119.75H287.971C287.695 119.75 287.471 119.526 287.471 119.25C287.471 118.974 287.695 118.75 287.971 118.75H304.468C304.744 118.75 304.968 118.974 304.968 119.25C304.968 119.526 304.744 119.75 304.468 119.75Z" fill="white"/>
<path d="M316.047 119.75H309.863C309.587 119.75 309.363 119.526 309.363 119.25C309.363 118.974 309.587 118.75 309.863 118.75H316.047C316.323 118.75 316.547 118.974 316.547 119.25C316.547 119.526 316.323 119.75 316.047 119.75Z" fill="#7C55FF"/>
<path d="M293 132.086H274.113C273.837 132.086 273.613 131.862 273.613 131.586C273.613 131.31 273.837 131.086 274.113 131.086H293C293.276 131.086 293.5 131.31 293.5 131.586C293.5 131.862 293.276 132.086 293 132.086Z" fill="#7C55FF"/>
<path d="M304.468 132.086H297.719C297.443 132.086 297.219 131.862 297.219 131.586C297.219 131.31 297.443 131.086 297.719 131.086H304.468C304.744 131.086 304.968 131.31 304.968 131.586C304.968 131.862 304.744 132.086 304.468 132.086Z" fill="white"/>
<path d="M293 152.906H274.113C273.837 152.906 273.613 152.682 273.613 152.406C273.613 152.13 273.837 151.906 274.113 151.906H293C293.276 151.906 293.5 152.13 293.5 152.406C293.5 152.683 293.276 152.906 293 152.906Z" fill="#7C55FF"/>
<path d="M304.468 152.906H297.719C297.443 152.906 297.219 152.682 297.219 152.406C297.219 152.13 297.443 151.906 297.719 151.906H304.468C304.744 151.906 304.968 152.13 304.968 152.406C304.968 152.683 304.744 152.906 304.468 152.906Z" fill="white"/>
<path d="M316.047 132.086H309.863C309.587 132.086 309.363 131.862 309.363 131.586C309.363 131.31 309.587 131.086 309.863 131.086H316.047C316.323 131.086 316.547 131.31 316.547 131.586C316.547 131.862 316.323 132.086 316.047 132.086Z" fill="white"/>
<path d="M316.048 145.078H297.16C296.884 145.078 296.66 144.854 296.66 144.578C296.66 144.302 296.884 144.078 297.16 144.078H316.048C316.324 144.078 316.548 144.302 316.548 144.578C316.548 144.855 316.324 145.078 316.048 145.078Z" fill="#7C55FF"/>
<path d="M292.441 145.078H285.691C285.415 145.078 285.191 144.854 285.191 144.578C285.191 144.302 285.415 144.078 285.691 144.078H292.441C292.717 144.078 292.941 144.302 292.941 144.578C292.941 144.855 292.718 145.078 292.441 145.078Z" fill="white"/>
<path d="M280.296 145.078H274.113C273.837 145.078 273.613 144.854 273.613 144.578C273.613 144.302 273.837 144.078 274.113 144.078H280.296C280.572 144.078 280.796 144.302 280.796 144.578C280.796 144.855 280.572 145.078 280.296 145.078Z" fill="white"/>
<path d="M292.441 159.953H285.691C285.415 159.953 285.191 159.729 285.191 159.453C285.191 159.177 285.415 158.953 285.691 158.953H292.441C292.717 158.953 292.941 159.177 292.941 159.453C292.941 159.729 292.718 159.953 292.441 159.953Z" fill="#7C55FF"/>
<path d="M280.296 159.949H274.113C273.837 159.949 273.613 159.725 273.613 159.449C273.613 159.173 273.837 158.949 274.113 158.949H280.296C280.572 158.949 280.796 159.173 280.796 159.449C280.796 159.725 280.572 159.949 280.296 159.949Z" fill="#7C55FF"/>
<path d="M283.834 138.516H274.113C273.837 138.516 273.613 138.292 273.613 138.016C273.613 137.74 273.837 137.516 274.113 137.516H283.834C284.11 137.516 284.334 137.74 284.334 138.016C284.334 138.292 284.11 138.516 283.834 138.516Z" fill="#7C55FF"/>
<path d="M304.466 138.516H287.969C287.693 138.516 287.469 138.292 287.469 138.016C287.469 137.74 287.693 137.516 287.969 137.516H304.466C304.742 137.516 304.966 137.74 304.966 138.016C304.966 138.292 304.742 138.516 304.466 138.516Z" fill="white"/>
<path d="M316.047 138.516H309.863C309.587 138.516 309.363 138.292 309.363 138.016C309.363 137.74 309.587 137.516 309.863 137.516H316.047C316.323 137.516 316.547 137.74 316.547 138.016C316.547 138.292 316.323 138.516 316.047 138.516Z" fill="#7C55FF"/>
<path d="M290.483 166.859H273.986C273.71 166.859 273.486 166.635 273.486 166.359C273.486 166.083 273.71 165.859 273.986 165.859H290.483C290.759 165.859 290.983 166.083 290.983 166.359C290.983 166.636 290.76 166.859 290.483 166.859Z" fill="white"/>
<path d="M280.204 173.336H274.02C273.744 173.336 273.52 173.112 273.52 172.836C273.52 172.56 273.744 172.336 274.02 172.336H280.204C280.48 172.336 280.704 172.56 280.704 172.836C280.704 173.112 280.481 173.336 280.204 173.336Z" fill="#7C55FF"/>
<path d="M263.971 182.572H170.28C167.597 182.572 165.422 180.397 165.422 177.714V98.9439C165.422 96.2609 167.597 94.0859 170.28 94.0859H263.971C266.654 94.0859 268.829 96.2609 268.829 98.9439V177.714C268.829 180.397 266.654 182.572 263.971 182.572Z" fill="#01004C"/>
<path d="M269.553 178.767H175.862C173.179 178.767 171.004 176.592 171.004 173.909V95.1393C171.004 92.4563 173.179 90.2812 175.862 90.2812H269.553C272.236 90.2812 274.411 92.4563 274.411 95.1393V173.909C274.411 176.592 272.236 178.767 269.553 178.767Z" fill="white"/>
<path d="M269.553 179.267H175.862C172.907 179.267 170.504 176.864 170.504 173.909V95.1393C170.504 92.1843 172.907 89.7812 175.862 89.7812H269.553C272.508 89.7812 274.911 92.1843 274.911 95.1393V173.909C274.911 176.863 272.508 179.267 269.553 179.267ZM175.861 90.7802C173.458 90.7802 171.503 92.7352 171.503 95.1382V173.908C171.503 176.311 173.458 178.266 175.861 178.266H269.552C271.955 178.266 273.91 176.311 273.91 173.908V95.1382C273.91 92.7352 271.955 90.7802 269.552 90.7802H175.861Z" fill="#01004C"/>
<path d="M254.451 118.017C231.739 117.16 224.53 103.87 223.504 101.707H223.35C222.324 103.87 215.114 117.16 192.403 118.017C192.403 118.017 187.586 164.787 222.734 173.186H224.121C259.267 164.787 254.451 118.017 254.451 118.017Z" fill="#01004C"/>
<path d="M224.119 173.687H222.732C222.693 173.687 222.654 173.682 222.616 173.673C187.448 165.269 191.855 118.438 191.904 117.966C191.929 117.718 192.134 117.527 192.383 117.518C214.585 116.68 221.697 104.022 222.897 101.494C222.98 101.32 223.155 101.209 223.347 101.208L223.501 101.207H223.503C223.696 101.207 223.872 101.318 223.955 101.493C225.153 104.022 232.26 116.68 254.468 117.518C254.717 117.527 254.921 117.719 254.947 117.966C254.996 118.438 259.403 165.269 224.236 173.673C224.197 173.682 224.158 173.687 224.119 173.687ZM222.791 172.687H224.061C256.53 164.878 254.344 123.208 253.989 118.499C233.205 117.561 225.439 106.37 223.426 102.657C221.412 106.369 213.643 117.562 192.862 118.499C192.507 123.209 190.321 164.879 222.791 172.687Z" fill="#01004C"/>
<path d="M254.451 111.896C231.739 111.039 224.53 97.7479 223.504 95.5859H223.35C222.324 97.7489 215.114 111.039 192.403 111.896C192.403 111.896 187.586 158.666 222.734 167.065H224.121C259.267 158.666 254.451 111.896 254.451 111.896Z" fill="#7C55FF"/>
<path d="M224.119 167.565H222.732C222.693 167.565 222.654 167.56 222.616 167.551C187.448 159.147 191.855 112.316 191.904 111.844C191.929 111.597 192.134 111.405 192.383 111.396C214.587 110.558 221.697 97.8999 222.897 95.3719C222.98 95.1979 223.155 95.0869 223.347 95.0859H223.501H223.503C223.696 95.0859 223.872 95.1969 223.955 95.3719C225.153 97.9009 232.26 110.559 254.468 111.397C254.717 111.406 254.921 111.598 254.947 111.845C254.996 112.317 259.403 159.148 224.236 167.552C224.197 167.56 224.158 167.565 224.119 167.565ZM222.792 166.565H224.06C256.53 158.756 254.344 117.086 253.989 112.377C233.205 111.439 225.439 100.248 223.426 96.5349C221.413 100.247 213.644 111.44 192.862 112.377C192.507 117.087 190.321 158.757 222.792 166.565Z" fill="#01004C"/>
<path d="M215.395 127.076H218.371V123.022C218.371 120.116 220.734 117.753 223.64 117.753C226.545 117.753 228.909 120.116 228.909 123.022V127.076H231.885V123.022C231.885 118.476 228.186 114.777 223.64 114.777C219.094 114.777 215.395 118.476 215.395 123.022V127.076Z" fill="#CACAE5"/>
<path d="M231.884 127.576H228.907C228.631 127.576 228.407 127.352 228.407 127.076V123.022C228.407 120.393 226.267 118.253 223.639 118.253C221.011 118.253 218.87 120.393 218.87 123.022V127.076C218.87 127.352 218.646 127.576 218.37 127.576H215.393C215.117 127.576 214.893 127.352 214.893 127.076V123.022C214.893 118.2 218.816 114.277 223.638 114.277C228.46 114.277 232.383 118.2 232.383 123.022V127.076C232.384 127.352 232.16 127.576 231.884 127.576ZM229.407 126.576H231.384V123.022C231.384 118.751 227.909 115.277 223.639 115.277C219.369 115.277 215.894 118.751 215.894 123.022V126.576H217.871V123.022C217.871 119.841 220.459 117.253 223.64 117.253C226.821 117.253 229.408 119.841 229.408 123.022V126.576H229.407Z" fill="#01004C"/>
<path d="M212.059 147.618H235.216C235.587 147.618 235.888 147.317 235.888 146.946V127.77C235.888 127.399 235.587 127.098 235.216 127.098H212.059C211.688 127.098 211.387 127.399 211.387 127.77V146.946C211.387 147.318 211.688 147.618 212.059 147.618Z" fill="white"/>
<path d="M235.218 148.118H212.061C211.415 148.118 210.889 147.593 210.889 146.947V127.77C210.889 127.123 211.414 126.598 212.061 126.598H235.218C235.864 126.598 236.389 127.123 236.389 127.77V146.947C236.389 147.593 235.863 148.118 235.218 148.118ZM212.061 127.599C211.966 127.599 211.889 127.676 211.889 127.771V146.948C211.889 147.042 211.966 147.119 212.061 147.119H235.218C235.313 147.119 235.389 147.042 235.389 146.948V127.771C235.389 127.676 235.313 127.599 235.218 127.599H212.061Z" fill="#01004C"/>
<path d="M222.649 137.379C221.904 137.012 221.387 136.252 221.387 135.365C221.387 134.121 222.395 133.113 223.639 133.113C224.883 133.113 225.891 134.121 225.891 135.365C225.891 136.215 225.414 136.947 224.718 137.33L225.668 140.737C225.79 141.174 225.461 141.606 225.008 141.606H222.373C221.92 141.606 221.592 141.174 221.713 140.737L222.649 137.379Z" fill="#02014F"/>
<path d="M225.008 142.106H222.372C221.998 142.106 221.654 141.935 221.429 141.638C221.203 141.34 221.131 140.962 221.232 140.602L222.065 137.613C221.33 137.103 220.887 136.274 220.887 135.365C220.887 133.847 222.121 132.613 223.639 132.613C225.157 132.613 226.391 133.847 226.391 135.365C226.391 136.226 225.981 137.032 225.298 137.549L226.148 140.604C226.249 140.963 226.176 141.341 225.951 141.639C225.726 141.935 225.382 142.106 225.008 142.106ZM223.639 133.613C222.673 133.613 221.887 134.399 221.887 135.365C221.887 136.032 222.264 136.632 222.869 136.93C223.085 137.036 223.194 137.281 223.13 137.512L222.194 140.87C222.173 140.948 222.204 141.006 222.224 141.032C222.246 141.059 222.291 141.105 222.371 141.105H225.007C225.087 141.105 225.133 141.059 225.154 141.032C225.175 141.006 225.206 140.948 225.184 140.871L224.235 137.463C224.172 137.24 224.272 137.003 224.475 136.891C225.038 136.582 225.389 135.996 225.389 135.365C225.391 134.399 224.605 133.613 223.639 133.613Z" fill="#01004C"/>
<path d="M1.972 226.096H103.248C104.337 226.096 105.221 225.213 105.221 224.123V151.289C105.221 150.2 104.338 149.316 103.248 149.316H1.972C0.883 149.316 0 150.199 0 151.289V224.123C0 225.213 0.883 226.096 1.972 226.096Z" fill="#CACAE5"/>
<path d="M5.89648 156.436H111.105V146.541C111.105 144.862 109.744 143.5 108.064 143.5H8.24849C6.94949 143.5 5.89648 144.553 5.89648 145.852V156.436Z" fill="#2AAFEB"/>
<path d="M111.604 156.936H5.39648V145.853C5.39648 144.28 6.67648 143 8.24948 143H108.065C110.017 143 111.605 144.588 111.605 146.541V156.936H111.604ZM6.39648 155.936H110.604V146.541C110.604 145.14 109.465 144 108.064 144H8.24849C7.22749 144 6.39549 144.831 6.39549 145.853L6.39648 155.936Z" fill="#01004C"/>
<path d="M95.4948 152.312C94.1238 152.312 93.0078 151.194 93.0078 149.82C93.0078 148.446 94.1238 147.328 95.4948 147.328C96.8658 147.328 97.9818 148.446 97.9818 149.82C97.9818 151.194 96.8658 152.312 95.4948 152.312ZM95.4948 148.328C94.6748 148.328 94.0078 148.997 94.0078 149.82C94.0078 150.643 94.6748 151.312 95.4948 151.312C96.3148 151.312 96.9818 150.643 96.9818 149.82C96.9818 148.997 96.3148 148.328 95.4948 148.328Z" fill="white"/>
<path d="M103.251 152.312C101.879 152.312 100.764 151.194 100.764 149.82C100.764 148.446 101.88 147.328 103.251 147.328C104.622 147.328 105.738 148.446 105.738 149.82C105.738 151.194 104.622 152.312 103.251 152.312ZM103.251 148.328C102.431 148.328 101.764 148.997 101.764 149.82C101.764 150.643 102.431 151.312 103.251 151.312C104.071 151.312 104.738 150.643 104.738 149.82C104.738 148.997 104.071 148.328 103.251 148.328Z" fill="white"/>
<path d="M87.7858 152.312C86.4138 152.312 85.2988 151.194 85.2988 149.82C85.2988 148.446 86.4148 147.328 87.7858 147.328C89.1568 147.328 90.2728 148.446 90.2728 149.82C90.2728 151.194 89.1568 152.312 87.7858 152.312ZM87.7858 148.328C86.9658 148.328 86.2988 148.997 86.2988 149.82C86.2988 150.643 86.9658 151.312 87.7858 151.312C88.6058 151.312 89.2728 150.643 89.2728 149.82C89.2728 148.997 88.6058 148.328 87.7858 148.328Z" fill="white"/>
<path d="M6.1965 219.75H110.732C110.921 219.75 111.075 219.596 111.075 219.407V156.784C111.075 156.595 110.921 156.441 110.732 156.441H6.1965C6.0065 156.441 5.85352 156.595 5.85352 156.784V219.407C5.85352 219.596 6.0065 219.75 6.1965 219.75Z" fill="white"/>
<path d="M110.732 220.25H6.1965C5.7315 220.25 5.35352 219.872 5.35352 219.407V156.784C5.35352 156.319 5.7315 155.941 6.1965 155.941H110.733C111.198 155.941 111.576 156.319 111.576 156.784V219.407C111.575 219.872 111.197 220.25 110.732 220.25ZM6.35352 219.25H110.575V156.941H6.35352V219.25Z" fill="#01004C"/>
<path d="M101.019 205.127H78.1085C78.0145 205.127 77.9375 205.05 77.9375 204.956V169.394C77.9375 169.3 78.0145 169.223 78.1085 169.223H101.019C101.114 169.223 101.189 169.3 101.189 169.394V204.956C101.189 205.051 101.114 205.127 101.019 205.127Z" fill="white"/>
<path d="M101.019 205.628H78.1085C77.7385 205.628 77.4375 205.327 77.4375 204.957V169.394C77.4375 169.024 77.7385 168.723 78.1085 168.723H101.019C101.389 168.723 101.691 169.024 101.691 169.394V204.957C101.69 205.328 101.389 205.628 101.019 205.628ZM78.4375 204.628H100.689V169.724H78.4375V204.628Z" fill="#CACAE5"/>
<path d="M100.963 205.172C100.799 205.172 100.638 205.091 100.542 204.943L78.0882 170.178C77.9382 169.946 78.0042 169.636 78.2362 169.487C78.4672 169.336 78.7782 169.404 78.9272 169.635L101.382 204.4C101.532 204.632 101.465 204.942 101.234 205.091C101.15 205.147 101.056 205.172 100.963 205.172Z" fill="#CACAE5"/>
<path d="M78.1071 205.627C78.0161 205.627 77.9231 205.602 77.8401 205.549C77.6071 205.402 77.5371 205.093 77.6851 204.86L100.082 169.525C100.23 169.292 100.539 169.222 100.772 169.371C101.005 169.518 101.075 169.827 100.927 170.06L78.5291 205.395C78.4351 205.545 78.2731 205.627 78.1071 205.627Z" fill="#CACAE5"/>
<path d="M68.2318 172.289H19.8008C19.5248 172.289 19.3008 172.065 19.3008 171.789C19.3008 171.513 19.5248 171.289 19.8008 171.289H68.2318C68.5078 171.289 68.7318 171.513 68.7318 171.789C68.7318 172.066 68.5078 172.289 68.2318 172.289Z" fill="#7FD6C3"/>
<path d="M36.8128 179.637H19.8008C19.5248 179.637 19.3008 179.413 19.3008 179.137C19.3008 178.861 19.5248 178.637 19.8008 178.637H36.8128C37.0888 178.637 37.3128 178.861 37.3128 179.137C37.3128 179.413 37.0888 179.637 36.8128 179.637Z" fill="#7C55FF"/>
<path d="M64.4705 179.637H43.8105C43.5345 179.637 43.3105 179.413 43.3105 179.137C43.3105 178.861 43.5345 178.637 43.8105 178.637H64.4705C64.7465 178.637 64.9705 178.861 64.9705 179.137C64.9705 179.413 64.7475 179.637 64.4705 179.637Z" fill="#7FD6C3"/>
<path d="M50.8438 201.934H19.8008C19.5248 201.934 19.3008 201.71 19.3008 201.434C19.3008 201.158 19.5248 200.934 19.8008 200.934H50.8438C51.1198 200.934 51.3438 201.158 51.3438 201.434C51.3438 201.71 51.1198 201.934 50.8438 201.934Z" fill="#7C55FF"/>
<path d="M68.6588 187.359H19.8008C19.5248 187.359 19.3008 187.135 19.3008 186.859C19.3008 186.583 19.5248 186.359 19.8008 186.359H68.6588C68.9348 186.359 69.1588 186.583 69.1588 186.859C69.1588 187.135 68.9358 187.359 68.6588 187.359Z" fill="#7C55FF"/>
<path d="M35.2827 194.707H19.8027C19.5267 194.707 19.3027 194.483 19.3027 194.207C19.3027 193.931 19.5267 193.707 19.8027 193.707H35.2827C35.5587 193.707 35.7827 193.931 35.7827 194.207C35.7827 194.483 35.5587 194.707 35.2827 194.707Z" fill="#7FD6C3"/>
<path d="M68.231 194.707H40.043C39.767 194.707 39.543 194.483 39.543 194.207C39.543 193.931 39.767 193.707 40.043 193.707H68.231C68.507 193.707 68.731 193.931 68.731 194.207C68.731 194.483 68.507 194.707 68.231 194.707Z" fill="#7C55FF"/>
<path d="M45.0477 186.043C45.0817 185.05 45.0167 184.038 44.8438 183.02C45.0167 184.039 45.0817 185.05 45.0477 186.043Z" fill="white"/>
<path d="M315.986 84.8937H393.241C394.062 84.8937 394.727 84.2287 394.727 83.4077V29.2087C394.727 28.3877 394.062 27.7227 393.241 27.7227H315.986C315.165 27.7227 314.5 28.3877 314.5 29.2087V83.4077C314.5 84.2287 315.165 84.8937 315.986 84.8937Z" fill="#01004C"/>
<path d="M393.241 85.3937H315.986C314.891 85.3937 314 84.5027 314 83.4077V29.2087C314 28.1137 314.891 27.2227 315.986 27.2227H393.241C394.336 27.2227 395.227 28.1137 395.227 29.2087V83.4077C395.227 84.5037 394.336 85.3937 393.241 85.3937ZM315.986 28.2227C315.443 28.2227 315 28.6647 315 29.2087V83.4077C315 83.9517 315.442 84.3937 315.986 84.3937H393.241C393.785 84.3937 394.227 83.9517 394.227 83.4077V29.2087C394.227 28.6647 393.785 28.2227 393.241 28.2227H315.986Z" fill="#01004C"/>
<path d="M318.996 33.0265H399.214V25.6855C399.214 24.4205 398.188 23.3945 396.923 23.3945H320.769C319.79 23.3945 318.997 24.1875 318.997 25.1665L318.996 33.0265Z" fill="#7C55FF"/>
<path d="M399.714 33.5265H318.496V25.1665C318.496 23.9135 319.516 22.8945 320.768 22.8945H396.923C398.462 22.8945 399.714 24.1465 399.714 25.6865V33.5265ZM319.496 32.5265H398.714V25.6855C398.714 24.6975 397.911 23.8935 396.923 23.8935H320.768C320.066 23.8935 319.496 24.4645 319.496 25.1655V32.5265Z" fill="#01004C"/>
<path d="M329.538 30.0832C328.447 30.0832 327.559 29.1932 327.559 28.1002C327.559 27.0062 328.447 26.1172 329.538 26.1172C330.629 26.1172 331.517 27.0072 331.517 28.1002C331.518 29.1932 330.629 30.0832 329.538 30.0832ZM329.538 27.1162C328.998 27.1162 328.559 27.5572 328.559 28.0992C328.559 28.6412 328.998 29.0822 329.538 29.0822C330.078 29.0822 330.517 28.6412 330.517 28.0992C330.518 27.5572 330.078 27.1162 329.538 27.1162Z" fill="white"/>
<path d="M335.314 30.0832C334.222 30.0832 333.334 29.1932 333.334 28.1002C333.334 27.0062 334.222 26.1172 335.314 26.1172C336.405 26.1172 337.293 27.0072 337.293 28.1002C337.293 29.1932 336.405 30.0832 335.314 30.0832ZM335.314 27.1162C334.774 27.1162 334.334 27.5572 334.334 28.0992C334.334 28.6412 334.773 29.0822 335.314 29.0822C335.854 29.0822 336.293 28.6412 336.293 28.0992C336.293 27.5572 335.854 27.1162 335.314 27.1162Z" fill="white"/>
<path d="M323.797 30.0832C322.706 30.0832 321.818 29.1932 321.818 28.1002C321.818 27.0062 322.706 26.1172 323.797 26.1172C324.888 26.1172 325.776 27.0072 325.776 28.1002C325.777 29.1932 324.889 30.0832 323.797 30.0832ZM323.797 27.1162C323.257 27.1162 322.818 27.5572 322.818 28.0992C322.818 28.6412 323.257 29.0822 323.797 29.0822C324.337 29.0822 324.776 28.6412 324.776 28.0992C324.777 27.5572 324.337 27.1162 323.797 27.1162Z" fill="white"/>
<path d="M319.221 80.1723H398.932C399.075 80.1723 399.19 80.0563 399.19 79.9133V33.2893C399.19 33.1463 399.074 33.0312 398.932 33.0312H319.221C319.078 33.0312 318.963 33.1473 318.963 33.2893V79.9133C318.962 80.0563 319.078 80.1723 319.221 80.1723Z" fill="white"/>
<path d="M398.932 80.6723H319.221C318.803 80.6723 318.463 80.3313 318.463 79.9133V33.2892C318.463 32.8712 318.803 32.5312 319.221 32.5312H398.932C399.35 32.5312 399.69 32.8712 399.69 33.2892V79.9133C399.69 80.3313 399.35 80.6723 398.932 80.6723ZM319.462 79.6723H398.689V33.5302H319.462V79.6723Z" fill="#01004C"/>
<path d="M388.758 44.957H355.709C355.433 44.957 355.209 44.733 355.209 44.457C355.209 44.181 355.433 43.957 355.709 43.957H388.758C389.034 43.957 389.258 44.181 389.258 44.457C389.258 44.734 389.034 44.957 388.758 44.957Z" fill="#7FD6C3"/>
<path d="M367.318 50.4258H355.709C355.433 50.4258 355.209 50.2018 355.209 49.9258C355.209 49.6498 355.433 49.4258 355.709 49.4258H367.318C367.594 49.4258 367.818 49.6498 367.818 49.9258C367.818 50.2028 367.594 50.4258 367.318 50.4258Z" fill="#7C55FF"/>
<path d="M386.193 50.4258H372.094C371.818 50.4258 371.594 50.2018 371.594 49.9258C371.594 49.6498 371.818 49.4258 372.094 49.4258H386.193C386.469 49.4258 386.693 49.6498 386.693 49.9258C386.693 50.2028 386.469 50.4258 386.193 50.4258Z" fill="#7FD6C3"/>
<path d="M376.892 67.0312H355.709C355.433 67.0312 355.209 66.8073 355.209 66.5312C355.209 66.2553 355.433 66.0312 355.709 66.0312H376.892C377.168 66.0312 377.392 66.2553 377.392 66.5312C377.392 66.8073 377.168 67.0312 376.892 67.0312Z" fill="#7C55FF"/>
<path d="M389.049 56.1797H355.709C355.433 56.1797 355.209 55.9557 355.209 55.6797C355.209 55.4037 355.433 55.1797 355.709 55.1797H389.049C389.325 55.1797 389.549 55.4037 389.549 55.6797C389.549 55.9557 389.326 56.1797 389.049 56.1797Z" fill="#7C55FF"/>
<path d="M366.272 61.6484H355.709C355.433 61.6484 355.209 61.4244 355.209 61.1484C355.209 60.8724 355.433 60.6484 355.709 60.6484H366.272C366.548 60.6484 366.772 60.8724 366.772 61.1484C366.772 61.4244 366.549 61.6484 366.272 61.6484Z" fill="#7FD6C3"/>
<path d="M388.757 61.6484H369.521C369.245 61.6484 369.021 61.4244 369.021 61.1484C369.021 60.8724 369.245 60.6484 369.521 60.6484H388.756C389.032 60.6484 389.256 60.8724 389.256 61.1484C389.256 61.4244 389.033 61.6484 388.757 61.6484Z" fill="#7C55FF"/>
<path d="M337.165 53.7783V41.6133C330.447 41.6133 325 47.0593 325 53.7783C325 60.4963 330.446 65.9423 337.165 65.9423C343.883 65.9423 349.33 60.4963 349.33 53.7783H337.165Z" fill="#01004C"/>
<path d="M337.165 66.4433C330.182 66.4433 324.5 60.7623 324.5 53.7783C324.5 46.7943 330.181 41.1133 337.165 41.1133C337.441 41.1133 337.665 41.3373 337.665 41.6133V53.2783H349.33C349.606 53.2783 349.83 53.5023 349.83 53.7783C349.829 60.7613 344.148 66.4433 337.165 66.4433ZM336.665 42.1243C330.464 42.3873 325.5 47.5143 325.5 53.7783C325.5 60.2103 330.733 65.4433 337.165 65.4433C343.429 65.4433 348.556 60.4793 348.819 54.2783H337.165C336.889 54.2783 336.665 54.0543 336.665 53.7783V42.1243Z" fill="#01004C"/>
<path d="M336.11 53.9345V41.7695C329.392 41.7695 323.945 47.2155 323.945 53.9345C323.945 60.6525 329.391 66.0985 336.11 66.0985C342.828 66.0985 348.275 60.6525 348.275 53.9345H336.11Z" fill="#7FD6C3"/>
<path d="M336.11 66.5995C329.127 66.5995 323.445 60.9185 323.445 53.9345C323.445 46.9505 329.126 41.2695 336.11 41.2695H336.61V53.4345H348.775V53.9345C348.775 60.9185 343.093 66.5995 336.11 66.5995ZM335.61 42.2815C329.409 42.5445 324.445 47.6715 324.445 53.9355C324.445 60.3675 329.678 65.6005 336.11 65.6005C342.375 65.6005 347.502 60.6365 347.764 54.4355H335.61V42.2815Z" fill="#01004C"/>
<path d="M411.662 36.8208C417.959 29.0785 416.788 17.6972 409.046 11.3999C401.303 5.10268 389.922 6.27413 383.625 14.0164C377.328 21.7588 378.499 33.1401 386.241 39.4373C393.984 45.7346 405.365 44.5631 411.662 36.8208Z" fill="#02014F"/>
<path d="M397.642 44.0072C387.402 44.0072 379.072 35.6762 379.072 25.4372C379.072 15.1982 387.403 6.86719 397.642 6.86719C407.881 6.86719 416.212 15.1982 416.212 25.4372C416.212 35.6762 407.881 44.0072 397.642 44.0072ZM397.642 7.86618C387.953 7.86618 380.072 15.7482 380.072 25.4362C380.072 35.1242 387.954 43.0062 397.642 43.0062C407.33 43.0062 415.212 35.1242 415.212 25.4362C415.212 15.7482 407.33 7.86618 397.642 7.86618Z" fill="#02014F"/>
<path d="M402.597 41.3492C412.446 39.7415 419.127 30.4539 417.519 20.6049C415.911 10.7558 406.624 4.07493 396.775 5.68267C386.926 7.29042 380.245 16.578 381.852 26.427C383.46 36.2761 392.748 42.957 402.597 41.3492Z" fill="#2AAFEB"/>
<path d="M399.691 42.097C389.451 42.097 381.121 33.766 381.121 23.527C381.121 13.288 389.452 4.95703 399.691 4.95703C409.93 4.95703 418.261 13.288 418.261 23.527C418.261 33.766 409.93 42.097 399.691 42.097ZM399.691 5.95604C390.003 5.95604 382.121 13.838 382.121 23.526C382.121 33.214 390.003 41.096 399.691 41.096C409.379 41.096 417.261 33.214 417.261 23.526C417.261 13.838 409.379 5.95604 399.691 5.95604Z" fill="#02014F"/>
<path d="M399.576 42.097C395.752 42.097 393.688 32.529 393.688 23.527C393.688 14.525 395.751 4.95703 399.576 4.95703C403.401 4.95703 405.464 14.524 405.464 23.527C405.464 32.529 403.399 42.097 399.576 42.097ZM399.576 5.95604C397.264 5.95604 394.688 13.172 394.688 23.526C394.688 33.88 397.264 41.096 399.576 41.096C401.888 41.096 404.464 33.88 404.464 23.526C404.464 13.172 401.888 5.95604 399.576 5.95604Z" fill="#02014F"/>
<path d="M416.633 17.2383H382.453V18.2383H416.633V17.2383Z" fill="#02014F"/>
<path d="M416.633 29.457H382.453V30.457H416.633V29.457Z" fill="#02014F"/>
</svg>
