<svg width="214" height="58" viewBox="0 0 214 58" fill="none" xmlns="http://www.w3.org/2000/svg">
<path d="M31.6536 43.4839C27.4935 41.9387 23.2146 41.701 19.2922 42.7708C16.5584 43.4839 13.9435 44.9102 11.5663 46.6931L9.90219 48.1195L9.42676 48.5949L10.4965 49.5458C10.6154 49.5458 10.6154 49.6647 10.7342 49.7835C10.9719 50.0212 11.2097 50.1401 11.5663 50.3778L12.2794 50.8532L12.9926 50.2589C13.1114 50.1401 13.3491 49.9024 13.5869 49.7835C15.7264 48.0006 18.1035 46.812 20.5996 46.2177C23.8088 45.3857 27.2558 45.5045 30.7027 46.812C33.5554 47.8817 39.3795 49.1892 46.3923 46.2177L46.63 46.0988L46.9866 45.7423C46.9866 45.6234 47.1055 45.6234 47.2243 45.5045C47.8186 44.7914 48.4129 44.0782 48.8884 43.2462L51.2656 39.5615L47.462 41.701C41.8756 44.7914 36.7646 45.3857 31.6536 43.4839Z" fill="#323232"/>
<path d="M15.3703 30.6477C18.5795 29.8157 22.0265 29.9345 25.4734 31.242C29.277 32.6683 39.0235 34.6889 49.9586 24.8235L51.7416 23.0406L51.8604 22.9218L52.3359 22.4463L52.0981 21.852C51.9793 21.3766 51.7415 20.7823 51.5038 20.188L50.9095 18.5239L49.7209 19.7125C49.6021 19.9502 49.3643 20.0691 49.1266 20.3068C43.8968 25.6555 35.8143 31.1231 26.5432 27.795C22.3831 26.2499 18.1041 26.0121 14.1817 27.0819C10.3782 28.1516 7.05009 30.1722 3.95972 33.0249V32.906L2.17682 34.8078C2.17682 34.9267 2.05798 34.9267 1.93912 35.0455L1.58252 35.4021L1.70139 35.8775C1.82025 36.4718 2.05796 37.0661 2.17682 37.6604L2.88999 39.5622L4.07859 38.017C4.19745 37.7793 4.43517 37.6605 4.55403 37.4227C7.05009 35.1644 10.497 31.9551 15.3703 30.6477Z" fill="#323232"/>
<path d="M3.84096 28.5084C6.57474 25.6557 9.66509 23.8728 12.9932 22.9219C16.2024 22.0899 19.6493 22.2087 23.0963 23.5162C33.7937 27.4386 43.0648 21.0201 47.1061 17.5732L48.6512 16.028L49.2455 15.5526L48.7701 14.8394C48.4135 14.4828 48.1758 14.0074 47.8192 13.532L47.1061 12.5811L46.274 13.4131C46.1552 13.532 45.9175 13.7697 45.7986 13.8885C40.8065 18.6429 33.0806 23.5162 24.2849 20.1881C20.1248 18.643 15.8458 18.4052 11.9234 19.475C9.42737 20.1881 7.05016 21.3767 4.67296 22.9219L2.17688 24.9425C1.93916 25.1803 1.8203 25.2991 1.58258 25.5368L1.34488 25.7745V26.1312C1.22602 26.9632 1.22601 27.7952 1.10715 28.5084L0.988281 31.4799L3.00892 29.3404C3.24664 29.1026 3.48438 28.7461 3.84096 28.5084Z" fill="#323232"/>
<path d="M35.1017 51.567L34.864 52.2802L35.1017 51.567C34.7452 51.4481 34.5075 51.3293 34.1509 51.2104C29.9908 49.6652 25.7118 49.4275 21.7894 50.4973C20.9574 50.735 20.1254 50.9727 19.2933 51.3293L16.4407 52.6367L15.7275 52.9933L18.1047 53.8253C18.8179 54.0631 19.5311 54.3008 20.2442 54.5385L20.6008 54.6574L20.9574 54.5385C21.314 54.4196 21.6705 54.1819 22.0271 54.1819C22.2648 54.1819 22.5026 54.0631 22.7403 53.9442C25.5929 53.231 28.6833 53.231 32.0114 54.3008C32.368 54.4196 32.6057 54.5385 32.9623 54.6574L33.5566 54.8951L33.9131 54.7762C34.7452 54.5385 35.6961 54.3008 36.4092 53.9442L39.7373 52.7556L36.2903 51.9236C35.9338 51.8047 35.4583 51.6859 35.1017 51.567Z" fill="#323232"/>
<path d="M53.2867 26.9629L51.5038 28.7458C51.2661 28.9835 51.0284 29.2212 50.7907 29.459C45.9174 34.0945 38.0727 39.0866 29.277 35.7585C25.1169 34.2134 20.8379 33.9757 16.9155 35.0454C13.2309 36.1152 9.90275 38.0169 6.93125 40.8696L5.38608 42.5336L4.91064 43.1279L5.38608 43.8411C5.74266 44.3165 5.98039 44.6731 6.21811 45.1485L6.93125 46.2183L7.76328 45.1485C7.88214 45.0297 8.11986 44.7919 8.23872 44.6731C11.0914 41.5827 14.1817 39.6809 17.7475 38.73C20.9568 37.898 24.4037 38.0169 27.8507 39.3243C30.8222 40.3941 33.9125 40.7507 37.0029 40.3941C42.4705 39.7998 47.9381 36.7095 51.9793 33.2625C52.217 33.0248 52.4547 32.9059 52.6924 32.6682L53.049 32.3116V31.955C53.049 31.2419 53.1679 30.4099 53.1679 29.6967L53.2867 26.9629Z" fill="#323232"/>
<path d="M8.12025 16.028L7.76369 15.3148L8.12025 16.028C8.83342 15.6714 9.66547 15.4336 10.3786 15.1959C13.5879 14.3639 17.0348 14.4828 20.4817 15.7902C22.7401 16.6222 24.9984 16.9788 27.4945 16.9788C32.4866 16.9788 37.4787 15.1959 42.1143 11.749L43.8972 10.3226L44.4915 9.8472L43.4218 9.01517C43.0652 8.65859 42.5897 8.30202 42.1143 8.0643L41.4011 7.58887L40.8068 8.0643C40.5691 8.18316 40.4502 8.42087 40.2125 8.53973C33.9129 13.2941 27.6134 14.6016 21.6704 12.3433C17.3914 10.7981 13.1124 10.4415 8.83342 11.749C8.47684 11.8678 8.12026 11.9867 7.64482 12.1055L7.40712 12.2244L7.05052 12.581C7.05052 12.6998 6.93168 12.6999 6.81282 12.8187C6.33738 13.5319 5.74306 14.1262 5.26761 14.8393L3.00928 18.2863L6.69395 16.3845C7.28825 16.3845 7.76367 16.1468 8.12025 16.028Z" fill="#323232"/>
<path d="M17.8665 7.94511L18.2231 8.06398C19.7683 8.65828 22.1455 9.25258 25.117 9.25258C28.2074 9.25258 31.1789 8.53941 34.1504 7.35081L37.835 5.5679L35.339 4.7359C34.6258 4.49818 33.9126 4.26046 33.0806 4.1416H32.7241L32.3675 4.26043C32.0109 4.37929 31.6543 4.61704 31.2977 4.7359C27.7319 6.04337 24.1661 6.28109 20.7192 5.3302C20.3626 5.21134 20.006 5.09246 19.6494 4.9736L19.2929 4.85473L18.9363 4.9736C18.2231 5.21132 17.51 5.44906 16.7968 5.80564L14.063 6.99424L16.9157 7.82624C17.1534 7.70738 17.5099 7.82625 17.8665 7.94511Z" fill="#323232"/>
<path d="M73.8256 41.2521H68.3418L76.6975 17.0478H83.2922L91.636 41.2521H86.1523L80.0894 22.5789H79.9003L73.8256 41.2521ZM73.4828 31.7382H86.4359V35.7328H73.4828V31.7382Z" fill="#323232"/>
<path d="M99.4894 17.0478V41.2521H94.4548V17.0478H99.4894Z" fill="#323232"/>
<path d="M113.178 23.0989V26.8808H102.246V23.0989H113.178ZM104.728 18.7497H109.763V35.6737C109.763 36.1386 109.834 36.501 109.975 36.761C110.117 37.0132 110.314 37.1905 110.566 37.2929C110.826 37.3953 111.126 37.4465 111.465 37.4465C111.701 37.4465 111.937 37.4268 112.174 37.3874C112.41 37.3402 112.591 37.3047 112.717 37.2811L113.509 41.0275C113.257 41.1063 112.902 41.1969 112.445 41.2993C111.988 41.4097 111.433 41.4766 110.779 41.5003C109.566 41.5475 108.502 41.386 107.588 41.0157C106.682 40.6454 105.977 40.0702 105.473 39.2902C104.968 38.5102 104.72 37.5253 104.728 36.3356V18.7497Z" fill="#323232"/>
<path d="M123.091 39.9402V23.2052H127.322V39.9402H123.091ZM116.839 33.6882V29.4572H133.574V33.6882H116.839Z" fill="#323232"/>
<path d="M151.751 24.0089C151.656 23.0555 151.25 22.3149 150.533 21.787C149.816 21.2591 148.843 20.9952 147.614 20.9952C146.779 20.9952 146.074 21.1134 145.499 21.3497C144.924 21.5782 144.482 21.8973 144.175 22.307C143.876 22.7167 143.726 23.1816 143.726 23.7016C143.71 24.135 143.801 24.5132 143.998 24.8362C144.203 25.1592 144.482 25.4389 144.837 25.6753C145.192 25.9038 145.601 26.1047 146.066 26.278C146.531 26.4435 147.027 26.5853 147.555 26.7035L149.73 27.2235C150.786 27.4599 151.755 27.7751 152.637 28.169C153.52 28.563 154.284 29.0475 154.93 29.6227C155.576 30.1978 156.076 30.8754 156.431 31.6555C156.793 32.4355 156.979 33.3297 156.986 34.3383C156.979 35.8195 156.6 37.1038 155.852 38.1911C155.111 39.2705 154.04 40.1096 152.637 40.7084C151.243 41.2993 149.56 41.5948 147.591 41.5948C145.637 41.5948 143.935 41.2954 142.485 40.6966C141.043 40.0978 139.917 39.2114 139.105 38.0374C138.301 36.8556 137.88 35.394 137.84 33.6528H142.792C142.848 34.4643 143.08 35.1419 143.49 35.6856C143.907 36.2213 144.463 36.6271 145.156 36.9029C145.857 37.1708 146.649 37.3047 147.532 37.3047C148.398 37.3047 149.151 37.1786 149.789 36.9265C150.435 36.6744 150.935 36.3238 151.29 35.8747C151.644 35.4256 151.822 34.9095 151.822 34.3264C151.822 33.7828 151.66 33.3258 151.337 32.9555C151.022 32.5852 150.557 32.27 149.943 32.01C149.336 31.75 148.591 31.5136 147.709 31.3009L145.073 30.6391C143.033 30.1427 141.421 29.3666 140.24 28.3108C139.058 27.255 138.471 25.8329 138.479 24.0443C138.471 22.5789 138.861 21.2985 139.649 20.2033C140.444 19.1082 141.536 18.2533 142.922 17.6387C144.309 17.0242 145.885 16.7169 147.65 16.7169C149.446 16.7169 151.014 17.0242 152.354 17.6387C153.701 18.2533 154.749 19.1082 155.497 20.2033C156.246 21.2985 156.632 22.567 156.655 24.0089H151.751Z" fill="#323232"/>
<path d="M165.369 30.7573V41.2521H160.334V17.0478H165.227V26.3017H165.44C165.849 25.2301 166.511 24.391 167.425 23.7843C168.339 23.1698 169.485 22.8625 170.864 22.8625C172.125 22.8625 173.224 23.1383 174.162 23.6898C175.107 24.2334 175.84 25.0174 176.36 26.0417C176.888 27.0581 177.148 28.2754 177.14 29.6936V41.2521H172.105V30.5918C172.113 29.473 171.829 28.6023 171.254 27.9799C170.687 27.3575 169.891 27.0462 168.867 27.0462C168.181 27.0462 167.575 27.192 167.047 27.4835C166.527 27.7751 166.117 28.2005 165.818 28.7599C165.526 29.3115 165.377 29.9772 165.369 30.7573Z" fill="#323232"/>
<path d="M181.102 41.2521V23.0989H186.137V41.2521H181.102ZM183.631 20.7588C182.883 20.7588 182.241 20.5106 181.705 20.0142C181.177 19.51 180.913 18.9072 180.913 18.206C180.913 17.5127 181.177 16.9178 181.705 16.4214C182.241 15.9172 182.883 15.665 183.631 15.665C184.38 15.665 185.018 15.9172 185.546 16.4214C186.082 16.9178 186.349 17.5127 186.349 18.206C186.349 18.9072 186.082 19.51 185.546 20.0142C185.018 20.5106 184.38 20.7588 183.631 20.7588Z" fill="#323232"/>
<path d="M201.731 23.0989V26.8808H188.728V23.0989H201.731ZM191.293 41.2521V21.787C191.293 20.4712 191.549 19.38 192.061 18.5133C192.581 17.6466 193.29 16.9966 194.188 16.5632C195.086 16.1299 196.107 15.9132 197.249 15.9132C198.021 15.9132 198.726 15.9723 199.365 16.0905C200.011 16.2087 200.491 16.3151 200.806 16.4096L199.908 20.1915C199.711 20.1285 199.467 20.0694 199.175 20.0142C198.892 19.9591 198.6 19.9315 198.301 19.9315C197.56 19.9315 197.044 20.1049 196.753 20.4515C196.461 20.7903 196.315 21.267 196.315 21.8816V41.2521H191.293Z" fill="#323232"/>
<path d="M212.663 23.0989V26.8808H201.731V23.0989H212.663ZM204.213 18.7497H209.248V35.6737C209.248 36.1386 209.319 36.501 209.46 36.761C209.602 37.0132 209.799 37.1905 210.051 37.2929C210.311 37.3953 210.611 37.4465 210.95 37.4465C211.186 37.4465 211.422 37.4268 211.659 37.3874C211.895 37.3402 212.076 37.3047 212.202 37.2811L212.994 41.0275C212.742 41.1063 212.388 41.1969 211.931 41.2993C211.474 41.4097 210.918 41.4766 210.264 41.5003C209.051 41.5475 207.987 41.386 207.073 41.0157C206.167 40.6454 205.462 40.0702 204.958 39.2902C204.453 38.5102 204.205 37.5253 204.213 36.3356V18.7497Z" fill="#323232"/>
</svg>
