<svg width="197" height="58" viewBox="0 0 197 58" fill="none" xmlns="http://www.w3.org/2000/svg">
<path d="M19.1633 39.733C29.4789 39.733 37.8414 31.3705 37.8414 21.0549C37.8414 19.8858 37.734 18.7418 37.5285 17.6322C36.4189 17.4267 35.2749 17.3193 34.1058 17.3193C23.7902 17.3193 15.4277 25.6818 15.4277 35.9974C15.4277 37.1665 15.5351 38.3105 15.7406 39.4201C16.8502 39.6256 17.9942 39.733 19.1633 39.733Z" fill="#323232"/>
<path opacity="0.8" fill-rule="evenodd" clip-rule="evenodd" d="M15.7407 39.4206C7.05972 37.8129 0.485352 30.202 0.485352 21.0555C0.485352 10.7399 8.8478 2.37744 19.1634 2.37744C28.3099 2.37744 35.9209 8.95181 37.5285 17.6328C36.4189 17.4273 35.2749 17.3199 34.1058 17.3199C23.7902 17.3199 15.4278 25.6823 15.4278 35.9979C15.4278 37.167 15.5352 38.311 15.7407 39.4206Z" fill="#323232"/>
<path opacity="0.6" fill-rule="evenodd" clip-rule="evenodd" d="M19.1639 39.7331C29.4795 39.7331 37.842 31.3706 37.842 21.055C37.842 19.8859 37.7346 18.7419 37.5291 17.6323C46.21 19.24 52.7844 26.851 52.7844 35.9975C52.7844 46.3131 44.422 54.6755 34.1064 54.6755C24.9599 54.6755 17.3489 48.1011 15.7412 39.4202C16.8508 39.6257 17.9948 39.7331 19.1639 39.7331Z" fill="#323232"/>
<path d="M80.7762 40.6979C87.159 40.6979 91.7589 37.0964 92.2225 31.7477H86.8738C86.4459 34.3151 83.9855 36.0623 80.7762 36.0623C76.7469 36.0623 73.6446 33.281 73.6446 27.9323C73.6446 22.5836 76.7469 19.7666 80.7762 19.7666C83.9141 19.7666 86.3746 21.5138 86.7311 24.1169H92.3295C91.652 18.7325 87.0521 15.1667 80.7762 15.1667C74.1082 15.1667 68.2603 19.517 68.2603 27.9323C68.2603 36.3476 74.0012 40.6979 80.7762 40.6979Z" fill="#323232"/>
<path d="M102.149 22.1557C97.228 22.1557 94.304 25.044 94.0901 28.6455H98.5117C98.583 27.1478 99.6884 25.7928 101.864 25.7928C103.896 25.7928 105.073 26.8269 105.073 28.3245C105.073 29.0734 104.609 29.6439 103.718 29.6439H100.687C96.7644 29.6439 94.1257 31.7834 94.1257 35.3135C94.1257 38.3801 96.5148 40.6979 100.009 40.6979C102.47 40.6979 104.467 39.5925 105.073 37.9166V40.4126H109.994V28.8594C109.994 24.7944 106.677 22.1557 102.149 22.1557ZM101.257 37.0964C99.8667 37.0964 98.8683 36.2763 98.8683 35.0996C98.8683 33.7089 99.938 32.7818 101.436 32.7818H105.073V33.0314C105.073 35.3135 103.682 37.0964 101.257 37.0964Z" fill="#323232"/>
<path d="M113.325 47.6869H118.281V38.808C119.244 40.0204 120.991 40.6979 123.024 40.6979C128.194 40.6979 131.688 37.0251 131.688 31.4268C131.688 25.8285 128.479 22.1557 123.451 22.1557C121.134 22.1557 119.351 23.0115 118.281 24.4021V22.441H113.325V47.6869ZM122.417 36.4189C119.743 36.4189 117.996 34.4221 117.996 31.4268C117.996 28.3959 119.743 26.399 122.417 26.399C125.02 26.399 126.803 28.3959 126.803 31.4268C126.803 34.4221 125.02 36.4189 122.417 36.4189Z" fill="#323232"/>
<path d="M140.416 40.6979C144.623 40.6979 147.405 38.4514 147.405 35.0283C147.405 26.8982 137.563 31.0702 137.563 27.3974C137.563 26.2564 138.526 25.6502 139.917 25.6502C141.272 25.6502 142.662 26.4703 142.876 28.0036H147.191C147.013 24.4735 144.089 22.1557 139.774 22.1557C136.101 22.1557 133.355 24.4021 133.355 27.5757C133.355 35.1352 143.019 31.5338 143.019 35.2065C143.019 36.205 141.949 36.9538 140.416 36.9538C138.562 36.9538 137.314 35.9554 137.135 34.3507H132.856C133.035 38.2375 136.03 40.6979 140.416 40.6979Z" fill="#323232"/>
<path d="M166.981 22.441H161.989V32.2826C161.989 34.5647 160.456 36.2763 158.281 36.2763C156.248 36.2763 154.822 34.7073 154.822 32.5322V22.441H149.865V33.6376C149.865 37.7383 152.504 40.6979 156.533 40.6979C158.994 40.6979 160.991 39.6281 161.989 37.9166V40.4126H166.981V22.441Z" fill="#323232"/>
<path d="M170.547 40.4126H175.504V14.6318H170.547V40.4126Z" fill="#323232"/>
<path d="M191.081 34.3151C190.688 35.8484 189.369 36.6329 187.372 36.6329C184.876 36.6329 183.271 35.0639 182.915 32.5322H195.823C195.859 32.14 195.894 31.6051 195.894 30.9276C195.894 26.8269 193.363 22.1557 187.016 22.1557C180.918 22.1557 178.137 26.8269 178.137 31.3911C178.137 35.9197 181.275 40.6979 187.372 40.6979C191.794 40.6979 195.217 38.2018 195.93 34.3151H191.081ZM187.016 25.7928C189.405 25.7928 190.795 27.3974 190.938 29.3943H182.986C183.414 26.8982 184.769 25.7928 187.016 25.7928Z" fill="#323232"/>
</svg>
