<svg width="191" height="58" viewBox="0 0 191 58" fill="none" xmlns="http://www.w3.org/2000/svg">
<path opacity="0.8" d="M26.4578 2.37744C12.016 2.37744 0.308594 14.0849 0.308594 28.5267C0.308594 42.9685 12.016 54.6759 26.4578 54.6759C39.4148 54.6759 50.1707 45.2523 52.2455 32.8849H52.0579C50.1227 40.4038 43.2972 45.9595 35.1743 45.9595C25.5464 45.9595 17.7414 38.1546 17.7414 28.5267C17.7414 18.8988 25.5464 11.0939 35.1743 11.0939C43.2972 11.0939 50.1227 16.6496 52.0579 24.1685H52.2455C50.1707 11.8011 39.4148 2.37744 26.4578 2.37744Z" fill="#323232"/>
<path d="M0.308594 28.5267C0.308594 14.0849 12.016 2.37744 26.4578 2.37744C39.4148 2.37744 50.1707 11.8011 52.2455 24.1685H34.6251C32.6898 16.6496 25.8644 11.0939 17.7414 11.0939C8.11354 11.0939 0.308594 18.8988 0.308594 28.5267Z" fill="#323232"/>
<path d="M0.308594 28.5265C0.308594 42.9684 12.016 54.6758 26.4578 54.6758C39.4148 54.6758 50.1707 45.2521 52.2455 32.8847H34.6251C32.6898 40.4036 25.8644 45.9594 17.7414 45.9594C8.11354 45.9594 0.308594 38.1544 0.308594 28.5265Z" fill="#323232"/>
<path d="M89.9759 24.3749C89.2314 18.9975 85.0949 15.8774 79.7293 15.8774C73.4064 15.8774 68.6436 20.4867 68.6436 28.3105C68.6436 36.1225 73.3473 40.7435 79.7293 40.7435C85.4849 40.7435 89.3023 37.0207 89.9759 32.3997L85.5558 32.3761C85.0003 35.2125 82.6839 36.808 79.7884 36.808C75.8647 36.808 73.0519 33.8652 73.0519 28.3105C73.0519 22.8504 75.841 19.813 79.8002 19.813C82.743 19.813 85.0476 21.4794 85.5558 24.3749H89.9759Z" fill="#323232"/>
<path d="M99.0259 40.779C101.874 40.779 103.576 39.4435 104.356 37.9189H104.498V40.4126H108.611V28.2632C108.611 23.4649 104.699 22.0231 101.236 22.0231C97.4186 22.0231 94.4876 23.7249 93.5422 27.0341L97.5368 27.6014C97.9623 26.3604 99.1677 25.2968 101.26 25.2968C103.245 25.2968 104.332 26.3132 104.332 28.0978V28.1687C104.332 29.3978 103.044 29.4569 99.8414 29.7996C96.3195 30.1778 92.9512 31.2297 92.9512 35.3189C92.9512 38.888 95.5631 40.779 99.0259 40.779ZM100.137 37.6353C98.3523 37.6353 97.0759 36.8198 97.0759 35.2479C97.0759 33.6052 98.5059 32.9197 100.421 32.6479C101.543 32.4942 103.789 32.2106 104.344 31.7615V33.9006C104.344 35.9216 102.713 37.6353 100.137 37.6353Z" fill="#323232"/>
<path d="M121.977 22.2594H118.396V17.9102H114.118V22.2594H111.542V25.5686H114.118V35.6616C114.094 39.0771 116.576 40.7554 119.791 40.6608C121.008 40.6254 121.847 40.389 122.308 40.2354L121.587 36.8907C121.351 36.9498 120.866 37.0562 120.335 37.0562C119.259 37.0562 118.396 36.678 118.396 34.9525V25.5686H121.977V22.2594Z" fill="#323232"/>
<path d="M130.779 40.779C133.628 40.779 135.329 39.4435 136.109 37.9189H136.251V40.4126H140.364V28.2632C140.364 23.4649 136.452 22.0231 132.989 22.0231C129.172 22.0231 126.241 23.7249 125.295 27.0341L129.29 27.6014C129.716 26.3604 130.921 25.2968 133.013 25.2968C134.998 25.2968 136.086 26.3132 136.086 28.0978V28.1687C136.086 29.3978 134.798 29.4569 131.595 29.7996C128.073 30.1778 124.705 31.2297 124.705 35.3189C124.705 38.888 127.316 40.779 130.779 40.779ZM131.89 37.6353C130.106 37.6353 128.829 36.8198 128.829 35.2479C128.829 33.6052 130.259 32.9197 132.174 32.6479C133.297 32.4942 135.542 32.2106 136.098 31.7615V33.9006C136.098 35.9216 134.467 37.6353 131.89 37.6353Z" fill="#323232"/>
<path d="M148.944 16.2084H144.666V40.4126H148.944V16.2084Z" fill="#323232"/>
<path d="M161.262 40.7672C166.58 40.7672 169.96 37.0207 169.96 31.4069C169.96 25.7813 166.58 22.0231 161.262 22.0231C155.944 22.0231 152.564 25.7813 152.564 31.4069C152.564 37.0207 155.944 40.7672 161.262 40.7672ZM161.286 37.3398C158.343 37.3398 156.901 34.7161 156.901 31.3951C156.901 28.0741 158.343 25.415 161.286 25.415C164.181 25.415 165.623 28.0741 165.623 31.3951C165.623 34.7161 164.181 37.3398 161.286 37.3398Z" fill="#323232"/>
<path d="M181.486 47.5983C186.391 47.5983 190.008 45.3528 190.008 40.7081V22.2594H185.788V25.2613H185.552C184.902 23.9495 183.543 22.0231 180.34 22.0231C176.145 22.0231 172.847 25.3086 172.847 31.2769C172.847 37.198 176.145 40.1526 180.328 40.1526C183.437 40.1526 184.89 38.4862 185.552 37.1507H185.765V40.5899C185.765 43.2609 183.992 44.36 181.557 44.36C178.981 44.36 177.846 43.1427 177.326 42.079L173.474 43.0127C174.254 45.5537 176.865 47.5983 181.486 47.5983ZM181.522 36.7962C178.697 36.7962 177.208 34.5979 177.208 31.2533C177.208 27.9559 178.674 25.5331 181.522 25.5331C184.276 25.5331 185.788 27.8141 185.788 31.2533C185.788 34.7161 184.252 36.7962 181.522 36.7962Z" fill="#323232"/>
</svg>
