<svg width="257" height="58" viewBox="0 0 257 58" fill="none" xmlns="http://www.w3.org/2000/svg">
<path opacity="0.8" d="M24.6579 38.1904C34.2858 38.1904 42.0908 30.3854 42.0908 20.7575C42.0908 11.1297 34.2858 3.32471 24.6579 3.32471H0.251953V38.1904H24.6579Z" fill="#323232"/>
<path opacity="0.6" d="M0.251953 3.32471L42.0908 55.6232H14.1982L0.251953 38.1904V3.32471Z" fill="#323232"/>
<path d="M27.9033 37.8888C26.8518 38.0868 25.7669 38.1904 24.6579 38.1904H0.251953V3.32471L27.9033 37.8888Z" fill="#323232"/>
<path d="M70.7831 41.6926C68.3426 41.6926 66.2459 41.2045 64.4931 40.2282C62.7625 39.2298 61.4312 37.832 60.4994 36.0348C59.5675 34.2155 59.1016 32.0744 59.1016 29.6116C59.1016 27.1489 59.5675 25.0189 60.4994 23.2217C61.4312 21.4245 62.7625 20.0378 64.4931 19.0616C66.2459 18.0632 68.3426 17.564 70.7831 17.564C72.3584 17.564 73.845 17.808 75.2428 18.2961C76.6628 18.7843 77.8276 19.4832 78.7373 20.3928L77.3395 23.7875C76.3411 22.9444 75.3204 22.3342 74.2776 21.957C73.2348 21.5577 72.1144 21.358 70.9163 21.358C68.5422 21.358 66.734 22.0791 65.4915 23.5212C64.249 24.9412 63.6278 26.9714 63.6278 29.6116C63.6278 32.2519 64.249 34.2931 65.4915 35.7353C66.734 37.1775 68.5422 37.8986 70.9163 37.8986C72.1144 37.8986 73.2348 37.71 74.2776 37.3328C75.3204 36.9334 76.3411 36.3122 77.3395 35.4691L78.7373 38.8637C77.8276 39.7512 76.6628 40.4501 75.2428 40.9604C73.845 41.4485 72.3584 41.6926 70.7831 41.6926Z" fill="#323232"/>
<path d="M88.3073 41.6926C86.6211 41.6926 85.1568 41.3487 83.9143 40.6609C82.6718 39.9731 81.7066 38.9968 81.0188 37.7322C80.331 36.4453 79.9871 34.9366 79.9871 33.206C79.9871 31.4754 80.331 29.9777 81.0188 28.7131C81.7066 27.4484 82.6718 26.4721 83.9143 25.7843C85.1568 25.0965 86.6211 24.7526 88.3073 24.7526C89.9936 24.7526 91.4579 25.0965 92.7004 25.7843C93.9429 26.4721 94.908 27.4484 95.5958 28.7131C96.2837 29.9777 96.6276 31.4754 96.6276 33.206C96.6276 34.9366 96.2837 36.4453 95.5958 37.7322C94.908 38.9968 93.9429 39.9731 92.7004 40.6609C91.4579 41.3487 89.9936 41.6926 88.3073 41.6926ZM88.3073 38.5309C89.5498 38.5309 90.5483 38.0872 91.3026 37.1997C92.057 36.29 92.4342 34.9588 92.4342 33.206C92.4342 31.431 92.057 30.1109 91.3026 29.2456C90.5483 28.3581 89.5498 27.9143 88.3073 27.9143C87.0649 27.9143 86.0664 28.3581 85.3121 29.2456C84.5577 30.1109 84.1805 31.431 84.1805 33.206C84.1805 34.9588 84.5577 36.29 85.3121 37.1997C86.0664 38.0872 87.0649 38.5309 88.3073 38.5309Z" fill="#323232"/>
<path d="M100.128 41.3598V25.0854H104.188V27.5815C104.676 26.694 105.353 26.0062 106.218 25.5181C107.083 25.0078 108.082 24.7526 109.213 24.7526C111.654 24.7526 113.252 25.8176 114.006 27.9476C114.516 26.9492 115.248 26.1726 116.202 25.6179C117.156 25.0411 118.244 24.7526 119.464 24.7526C123.125 24.7526 124.955 26.9825 124.955 31.4421V41.3598H120.795V31.6085C120.795 30.366 120.584 29.4563 120.163 28.8795C119.763 28.3026 119.076 28.0142 118.099 28.0142C117.012 28.0142 116.158 28.4024 115.537 29.179C114.916 29.9334 114.605 30.9872 114.605 32.3407V41.3598H110.445V31.6085C110.445 30.366 110.234 29.4563 109.813 28.8795C109.413 28.3026 108.736 28.0142 107.782 28.0142C106.695 28.0142 105.841 28.4024 105.22 29.179C104.598 29.9334 104.288 30.9872 104.288 32.3407V41.3598H100.128Z" fill="#323232"/>
<path d="M129.314 41.3598V25.0854H133.374V27.5815C133.862 26.694 134.539 26.0062 135.404 25.5181C136.269 25.0078 137.268 24.7526 138.399 24.7526C140.84 24.7526 142.437 25.8176 143.192 27.9476C143.702 26.9492 144.434 26.1726 145.388 25.6179C146.342 25.0411 147.429 24.7526 148.65 24.7526C152.311 24.7526 154.141 26.9825 154.141 31.4421V41.3598H149.981V31.6085C149.981 30.366 149.77 29.4563 149.349 28.8795C148.949 28.3026 148.261 28.0142 147.285 28.0142C146.198 28.0142 145.344 28.4024 144.723 29.179C144.101 29.9334 143.791 30.9872 143.791 32.3407V41.3598H139.631V31.6085C139.631 30.366 139.42 29.4563 138.998 28.8795C138.599 28.3026 137.922 28.0142 136.968 28.0142C135.881 28.0142 135.027 28.4024 134.406 29.179C133.784 29.9334 133.474 30.9872 133.474 32.3407V41.3598H129.314Z" fill="#323232"/>
<path d="M163.791 41.6926C162.615 41.6926 161.561 41.4707 160.629 41.027C159.72 40.561 158.998 39.9398 158.466 39.1632C157.956 38.3867 157.701 37.5103 157.701 36.5341C157.701 35.3359 158.011 34.393 158.632 33.7052C159.254 32.9952 160.263 32.4849 161.661 32.1743C163.059 31.8636 164.934 31.7083 167.285 31.7083H168.45V31.0094C168.45 29.9001 168.206 29.1013 167.718 28.6132C167.23 28.1251 166.409 27.881 165.255 27.881C164.346 27.881 163.414 28.0253 162.46 28.3137C161.506 28.5799 160.541 29.0015 159.564 29.5784L158.366 26.7495C158.943 26.3501 159.62 26.0062 160.396 25.7178C161.195 25.4072 162.027 25.1742 162.892 25.0189C163.78 24.8414 164.612 24.7526 165.388 24.7526C167.762 24.7526 169.526 25.3073 170.68 26.4167C171.834 27.5039 172.411 29.2012 172.411 31.5086V41.3598H168.517V38.7639C168.14 39.6736 167.541 40.3946 166.72 40.9271C165.899 41.4374 164.922 41.6926 163.791 41.6926ZM164.656 38.8304C165.743 38.8304 166.642 38.4533 167.352 37.6989C168.084 36.9445 168.45 35.9905 168.45 34.8367V34.1046H167.319C165.233 34.1046 163.78 34.271 162.959 34.6038C162.16 34.9144 161.761 35.4913 161.761 36.3344C161.761 37.0666 162.016 37.6656 162.526 38.1315C163.037 38.5975 163.747 38.8304 164.656 38.8304Z" fill="#323232"/>
<path d="M176.633 41.3598V25.0854H180.693V27.6148C181.248 26.6829 181.991 25.9729 182.923 25.4848C183.877 24.9967 184.942 24.7526 186.118 24.7526C189.957 24.7526 191.876 26.9825 191.876 31.4421V41.3598H187.716V31.6418C187.716 30.3771 187.472 29.4563 186.984 28.8795C186.518 28.3026 185.785 28.0142 184.787 28.0142C183.567 28.0142 182.59 28.4024 181.858 29.179C181.148 29.9334 180.793 30.9429 180.793 32.2075V41.3598H176.633Z" fill="#323232"/>
<path d="M202.358 41.6926C200.938 41.6926 199.684 41.3487 198.597 40.6609C197.532 39.9731 196.7 38.9968 196.101 37.7322C195.502 36.4453 195.203 34.9366 195.203 33.206C195.203 31.4532 195.502 29.9555 196.101 28.7131C196.7 27.4484 197.532 26.4721 198.597 25.7843C199.684 25.0965 200.938 24.7526 202.358 24.7526C203.512 24.7526 204.555 25.0078 205.486 25.5181C206.418 26.0284 207.117 26.7051 207.583 27.5482V17.8968H211.743V41.3598H207.683V38.664C207.239 39.5959 206.54 40.3392 205.586 40.8939C204.632 41.4263 203.556 41.6926 202.358 41.6926ZM203.523 38.5309C204.765 38.5309 205.764 38.0872 206.518 37.1997C207.272 36.29 207.65 34.9588 207.65 33.206C207.65 31.431 207.272 30.1109 206.518 29.2456C205.764 28.3581 204.765 27.9143 203.523 27.9143C202.28 27.9143 201.282 28.3581 200.528 29.2456C199.773 30.1109 199.396 31.431 199.396 33.206C199.396 34.9588 199.773 36.29 200.528 37.1997C201.282 38.0872 202.28 38.5309 203.523 38.5309Z" fill="#323232"/>
<path d="M222.347 40.0285V33.2725H215.757V30.3438H222.347V23.7875H225.409V30.3438H231.998V33.2725H225.409V40.0285H222.347Z" fill="#323232"/>
<path d="M236.412 41.3598V17.8968H246.596C249.169 17.8968 251.155 18.518 252.553 19.7605C253.951 20.9808 254.65 22.7003 254.65 24.919C254.65 26.6718 254.195 28.1251 253.285 29.2788C252.375 30.4104 251.066 31.1758 249.358 31.5752C250.489 31.9302 251.421 32.7844 252.153 34.1378L256.081 41.3598H251.388L247.328 33.8716C246.928 33.1394 246.451 32.6402 245.897 32.374C245.364 32.1077 244.676 31.9746 243.833 31.9746H240.672V41.3598H236.412ZM240.672 28.8129H245.863C248.97 28.8129 250.523 27.5482 250.523 25.0189C250.523 22.5117 248.97 21.2581 245.863 21.2581H240.672V28.8129Z" fill="#323232"/>
</svg>
