<svg width="236" height="58" viewBox="0 0 236 58" fill="none" xmlns="http://www.w3.org/2000/svg">
<path d="M37.1576 3.32471H17.1204L0.989746 19.4553V39.4926L17.1204 55.6232H37.1576L53.2883 39.4926V19.4553L37.1576 3.32471ZM19.8928 39.7446L9.55916 29.4109L19.8928 19.0773C23.7995 15.1706 30.2265 15.1706 34.1332 19.0773L44.4668 29.4109L34.1332 39.7446C30.2265 43.6513 23.9255 43.6513 19.8928 39.7446Z" fill="#323232"/>
<path d="M76.2757 41.6452C79.4849 41.6452 82.1236 40.0049 82.9437 37.5445V41.3599H87.6862V31.7322C87.6862 29.5571 85.9747 27.7028 83.6569 27.7028H76.8818V31.7322H81.6957C82.3019 31.7322 82.6941 32.1244 82.6941 32.7306C82.6941 35.0484 79.6275 37.2949 76.5253 37.2949C72.3889 37.2949 69.1084 34.05 69.1084 28.8796C69.1084 23.7091 72.3889 20.7139 76.6322 20.7139C79.8415 20.7139 82.0523 22.4611 82.4445 25.1355H87.7576C87.4366 19.7868 82.9437 16.114 76.6679 16.114C70.0711 16.114 64.0093 20.3573 64.0093 28.8796C64.0093 37.4018 69.8929 41.6452 76.2757 41.6452Z" fill="#323232"/>
<path d="M89.7221 41.3599H94.6786V15.5791H89.7221V41.3599Z" fill="#323232"/>
<path d="M105.37 41.6452C110.897 41.6452 114.855 37.7228 114.855 32.3741C114.855 27.0253 110.897 23.103 105.37 23.103C99.8431 23.103 95.8851 27.0253 95.8851 32.3741C95.8851 37.7228 99.8431 41.6452 105.37 41.6452ZM105.37 37.3662C102.696 37.3662 100.877 35.3337 100.877 32.3741C100.877 29.3788 102.696 27.3463 105.37 27.3463C108.044 27.3463 109.863 29.3788 109.863 32.3741C109.863 35.3337 108.044 37.3662 105.37 37.3662Z" fill="#323232"/>
<path d="M125.946 41.6452C131.259 41.6452 134.433 37.9724 134.433 32.3741C134.433 26.7757 131.259 23.103 126.017 23.103C123.771 23.103 122.024 23.9587 121.025 25.2781V15.5791H116.069V41.3599H121.025V39.3987C122.024 40.7894 123.878 41.6452 125.946 41.6452ZM125.161 37.3662C122.487 37.3662 120.74 35.3693 120.74 32.3741C120.74 29.3431 122.487 27.3463 125.161 27.3463C127.765 27.3463 129.547 29.3431 129.547 32.3741C129.547 35.3693 127.765 37.3662 125.161 37.3662Z" fill="#323232"/>
<path d="M142.729 23.103C137.809 23.103 134.885 25.9913 134.671 29.5927H139.092C139.164 28.0951 140.269 26.7401 142.444 26.7401C144.477 26.7401 145.653 27.7742 145.653 29.2718C145.653 30.0206 145.19 30.5912 144.298 30.5912H141.268C137.345 30.5912 134.706 32.7306 134.706 36.2608C134.706 39.3274 137.096 41.6452 140.59 41.6452C143.05 41.6452 145.047 40.5398 145.653 38.8638V41.3599H150.574V29.8067C150.574 25.7417 147.258 23.103 142.729 23.103ZM141.838 38.0437C140.447 38.0437 139.449 37.2236 139.449 36.0468C139.449 34.6562 140.519 33.7291 142.016 33.7291H145.653V33.9787C145.653 36.2608 144.263 38.0437 141.838 38.0437Z" fill="#323232"/>
<path d="M152.479 41.3599H157.435V15.5791H152.479V41.3599Z" fill="#323232"/>
<path d="M160.068 41.3599H170.266C175.544 41.3599 179.181 38.6499 179.181 33.9074C179.181 30.6268 177.255 28.63 174.973 27.7385C176.435 26.954 177.897 25.1711 177.897 22.8177C177.897 18.6457 174.51 16.3992 169.981 16.3992H160.068V41.3599ZM165.346 25.9199V20.6425H169.482C171.871 20.6425 172.941 21.6053 172.941 23.2812C172.941 24.9572 171.871 25.9199 169.589 25.9199H165.346ZM165.346 36.7243V30.4485H169.803C172.763 30.4485 174.082 31.5896 174.082 33.6221C174.082 35.6546 172.763 36.7243 169.803 36.7243H165.346Z" fill="#323232"/>
<path d="M187.804 23.103C182.883 23.103 179.959 25.9913 179.745 29.5927H184.166C184.238 28.0951 185.343 26.7401 187.518 26.7401C189.551 26.7401 190.727 27.7742 190.727 29.2718C190.727 30.0206 190.264 30.5912 189.372 30.5912H186.342C182.419 30.5912 179.78 32.7306 179.78 36.2608C179.78 39.3274 182.17 41.6452 185.664 41.6452C188.124 41.6452 190.121 40.5398 190.727 38.8638V41.3599H195.648V29.8067C195.648 25.7417 192.332 23.103 187.804 23.103ZM186.912 38.0437C185.521 38.0437 184.523 37.2236 184.523 36.0468C184.523 34.6562 185.593 33.7291 187.09 33.7291H190.727V33.9787C190.727 36.2608 189.337 38.0437 186.912 38.0437Z" fill="#323232"/>
<path d="M197.268 41.3599H202.26V31.5183C202.26 29.2005 203.793 27.5246 205.968 27.5246C208.036 27.5246 209.427 29.0935 209.427 31.2687V41.3599H214.419V30.1633C214.419 26.0269 211.781 23.103 207.715 23.103C205.255 23.103 203.258 24.137 202.26 25.8843V23.3882H197.268V41.3599Z" fill="#323232"/>
<path d="M228.647 41.3599H234.638L226.9 30.4485L234.067 23.3882H227.791L221.551 29.5214V15.5791H216.559V41.3599H221.551V35.7259L223.548 33.7647L228.647 41.3599Z" fill="#323232"/>
</svg>
