<svg width="232" height="58" viewBox="0 0 232 58" fill="none" xmlns="http://www.w3.org/2000/svg">
<path d="M40.8756 28.5264C36.6508 33.2467 30.5112 36.2174 23.6778 36.2174C16.8444 36.2174 10.7048 33.2467 6.47998 28.5264C10.7048 23.8061 16.8444 20.8354 23.6778 20.8354C30.5112 20.8354 36.6508 23.8061 40.8756 28.5264Z" fill="#323232"/>
<path opacity="0.6" fill-rule="evenodd" clip-rule="evenodd" d="M0.604492 43.9083C0.604492 31.1655 10.9346 20.8354 23.6774 20.8354C16.8439 20.8354 10.7044 23.8061 6.47961 28.5264C10.7044 33.2467 16.844 36.2174 23.6774 36.2174C30.5108 36.2174 36.6504 33.2467 40.8752 28.5264C44.5287 32.6085 46.7502 37.999 46.7502 43.9083V52.6247C46.7502 53.7574 45.832 54.6757 44.6993 54.6757H2.65541C1.52272 54.6757 0.604492 53.7574 0.604492 52.6247V43.9083ZM40.8752 28.5264C40.8752 28.5264 40.8752 28.5264 40.8752 28.5264V28.5264Z" fill="#323232"/>
<path opacity="0.8" fill-rule="evenodd" clip-rule="evenodd" d="M15.023 34.5397C11.7285 33.2057 8.81221 31.1329 6.47961 28.5267C10.7044 23.8064 16.844 20.8357 23.6774 20.8357C30.5108 20.8357 36.6504 23.8064 40.8752 28.5267C40.8751 28.5267 40.8752 28.5267 40.8752 28.5267C44.5287 24.4446 46.7502 19.0542 46.7502 13.1448V4.42837C46.7502 3.29568 45.832 2.37745 44.6993 2.37745L2.65541 2.37744C1.52272 2.37744 0.604493 3.29567 0.604493 4.42836L0.604492 13.1448C0.604491 22.827 6.56836 31.1164 15.023 34.5397Z" fill="#323232"/>
<path d="M82.7901 17.183V40.413H78.1308V30.5286H68.1798V40.413H63.5205V17.183H68.1798V26.7346H78.1308V17.183H82.7901Z" fill="#323232"/>
<path d="M95.5632 40.7125C93.7882 40.7125 92.1907 40.3243 90.7708 39.5477C89.3508 38.749 88.2303 37.6285 87.4094 36.1863C86.6107 34.7442 86.2113 33.0801 86.2113 31.1942C86.2113 29.3083 86.6217 27.6442 87.4427 26.2021C88.2858 24.7599 89.4284 23.6505 90.8706 22.874C92.3128 22.0752 93.9213 21.6759 95.6963 21.6759C97.4713 21.6759 99.0799 22.0752 100.522 22.874C101.964 23.6505 103.096 24.7599 103.917 26.2021C104.76 27.6442 105.181 29.3083 105.181 31.1942C105.181 33.0801 104.749 34.7442 103.883 36.1863C103.04 37.6285 101.887 38.749 100.422 39.5477C98.98 40.3243 97.3604 40.7125 95.5632 40.7125ZM95.5632 36.6523C96.4063 36.6523 97.194 36.4526 97.9261 36.0532C98.6805 35.6316 99.2796 35.0104 99.7233 34.1895C100.167 33.3685 100.389 32.3701 100.389 31.1942C100.389 29.4414 99.923 28.0991 98.9911 27.1672C98.0815 26.2132 96.961 25.7361 95.6298 25.7361C94.2985 25.7361 93.1781 26.2132 92.2684 27.1672C91.3809 28.0991 90.9372 29.4414 90.9372 31.1942C90.9372 32.947 91.3698 34.3004 92.2351 35.2545C93.1226 36.1863 94.232 36.6523 95.5632 36.6523Z" fill="#323232"/>
<path d="M126.005 21.9754V40.413H121.312V38.0833C120.713 38.8821 119.926 39.5144 118.949 39.9803C117.995 40.4241 116.953 40.646 115.821 40.646C114.379 40.646 113.103 40.3464 111.994 39.7474C110.884 39.1261 110.008 38.2276 109.365 37.0516C108.743 35.8535 108.433 34.4335 108.433 32.7917V21.9754H113.092V32.1261C113.092 33.5904 113.458 34.722 114.19 35.5207C114.923 36.2973 115.921 36.6855 117.186 36.6855C118.472 36.6855 119.482 36.2973 120.214 35.5207C120.946 34.722 121.312 33.5904 121.312 32.1261V21.9754H126.005Z" fill="#323232"/>
<path d="M135.262 24.8376C135.861 23.8613 136.637 23.0959 137.591 22.5412C138.567 21.9865 139.677 21.7091 140.919 21.7091V26.6014H139.688C138.224 26.6014 137.114 26.9453 136.36 27.6331C135.628 28.321 135.262 29.5191 135.262 31.2275V40.413H130.602V21.9754H135.262V24.8376Z" fill="#323232"/>
<path d="M151.28 21.6759C152.655 21.6759 153.864 21.9532 154.907 22.5079C155.95 23.0404 156.771 23.7393 157.37 24.6046V21.9754H162.062V40.5461C162.062 42.2545 161.719 43.7744 161.031 45.1056C160.343 46.459 159.311 47.524 157.936 48.3006C156.56 49.0993 154.896 49.4987 152.944 49.4987C150.325 49.4987 148.173 48.8885 146.487 47.6682C144.823 46.4479 143.88 44.7839 143.658 42.6761H148.284C148.528 43.5192 149.05 44.1848 149.848 44.673C150.669 45.1833 151.657 45.4384 152.81 45.4384C154.164 45.4384 155.262 45.0279 156.105 44.207C156.948 43.4083 157.37 42.188 157.37 40.5461V37.684C156.771 38.5493 155.939 39.2704 154.874 39.8472C153.831 40.4241 152.633 40.7125 151.28 40.7125C149.726 40.7125 148.306 40.3132 147.02 39.5144C145.733 38.7157 144.712 37.5952 143.958 36.153C143.226 34.6887 142.859 33.0136 142.859 31.1276C142.859 29.2639 143.226 27.611 143.958 26.1688C144.712 24.7266 145.722 23.6173 146.986 22.8407C148.273 22.0641 149.704 21.6759 151.28 21.6759ZM157.37 31.1942C157.37 30.0626 157.148 29.0975 156.704 28.2988C156.261 27.4778 155.661 26.8566 154.907 26.435C154.153 25.9913 153.343 25.7694 152.478 25.7694C151.612 25.7694 150.814 25.9802 150.081 26.4018C149.349 26.8233 148.75 27.4446 148.284 28.2655C147.84 29.0642 147.619 30.0183 147.619 31.1276C147.619 32.237 147.84 33.2132 148.284 34.0564C148.75 34.8773 149.349 35.5096 150.081 35.9534C150.836 36.3971 151.634 36.619 152.478 36.619C153.343 36.619 154.153 36.4082 154.907 35.9866C155.661 35.5429 156.261 34.9217 156.704 34.1229C157.148 33.302 157.37 32.3257 157.37 31.1942Z" fill="#323232"/>
<path d="M171.272 15.7852V40.413H166.613V15.7852H171.272Z" fill="#323232"/>
<path d="M174.678 31.1276C174.678 29.2639 175.044 27.611 175.776 26.1688C176.53 24.7266 177.54 23.6173 178.805 22.8407C180.091 22.0641 181.523 21.6759 183.098 21.6759C184.473 21.6759 185.672 21.9532 186.692 22.5079C187.735 23.0626 188.567 23.7615 189.188 24.6046V21.9754H193.881V40.413H189.188V37.7172C188.589 38.5826 187.757 39.3036 186.692 39.8805C185.649 40.4352 184.44 40.7125 183.065 40.7125C181.511 40.7125 180.091 40.3132 178.805 39.5144C177.54 38.7157 176.53 37.5952 175.776 36.153C175.044 34.6887 174.678 33.0136 174.678 31.1276ZM189.188 31.1942C189.188 30.0626 188.966 29.0975 188.523 28.2988C188.079 27.4778 187.48 26.8566 186.725 26.435C185.971 25.9913 185.161 25.7694 184.296 25.7694C183.431 25.7694 182.632 25.9802 181.9 26.4018C181.168 26.8233 180.568 27.4446 180.103 28.2655C179.659 29.0642 179.437 30.0183 179.437 31.1276C179.437 32.237 179.659 33.2132 180.103 34.0564C180.568 34.8773 181.168 35.5096 181.9 35.9534C182.654 36.3971 183.453 36.619 184.296 36.619C185.161 36.619 185.971 36.4082 186.725 35.9866C187.48 35.5429 188.079 34.9217 188.523 34.1229C188.966 33.302 189.188 32.3257 189.188 31.1942Z" fill="#323232"/>
<path d="M205.487 40.7125C203.978 40.7125 202.625 40.4463 201.427 39.9138C200.229 39.3591 199.275 38.6158 198.565 37.684C197.877 36.7521 197.5 35.7204 197.433 34.5888H202.126C202.214 35.2988 202.558 35.8868 203.157 36.3527C203.779 36.8187 204.544 37.0516 205.454 37.0516C206.341 37.0516 207.029 36.8741 207.517 36.5191C208.027 36.1641 208.283 35.7093 208.283 35.1546C208.283 34.5556 207.972 34.1118 207.351 33.8234C206.752 33.5128 205.786 33.18 204.455 32.825C203.08 32.4922 201.948 32.1482 201.061 31.7933C200.195 31.4383 199.441 30.8947 198.798 30.1625C198.176 29.4303 197.866 28.443 197.866 27.2005C197.866 26.1799 198.154 25.248 198.731 24.4049C199.33 23.5618 200.173 22.8962 201.26 22.408C202.37 21.9199 203.668 21.6759 205.154 21.6759C207.351 21.6759 209.104 22.2306 210.413 23.3399C211.722 24.4271 212.443 25.9025 212.576 27.7663H208.116C208.05 27.0341 207.739 26.4572 207.184 26.0357C206.652 25.5919 205.931 25.37 205.021 25.37C204.178 25.37 203.523 25.5254 203.057 25.836C202.614 26.1466 202.392 26.5793 202.392 27.1339C202.392 27.7552 202.702 28.2322 203.324 28.565C203.945 28.8756 204.91 29.1973 206.219 29.5302C207.55 29.863 208.649 30.2069 209.514 30.5619C210.379 30.9169 211.123 31.4715 211.744 32.2259C212.387 32.9581 212.72 33.9343 212.742 35.1546C212.742 36.2196 212.443 37.1737 211.844 38.0168C211.267 38.8599 210.424 39.5255 209.314 40.0136C208.227 40.4796 206.951 40.7125 205.487 40.7125Z" fill="#323232"/>
<path d="M223.622 40.7125C222.114 40.7125 220.76 40.4463 219.562 39.9138C218.364 39.3591 217.41 38.6158 216.7 37.684C216.012 36.7521 215.635 35.7204 215.568 34.5888H220.261C220.35 35.2988 220.694 35.8868 221.293 36.3527C221.914 36.8187 222.679 37.0516 223.589 37.0516C224.477 37.0516 225.164 36.8741 225.653 36.5191C226.163 36.1641 226.418 35.7093 226.418 35.1546C226.418 34.5556 226.107 34.1118 225.486 33.8234C224.887 33.5128 223.922 33.18 222.591 32.825C221.215 32.4922 220.084 32.1482 219.196 31.7933C218.331 31.4383 217.576 30.8947 216.933 30.1625C216.312 29.4303 216.001 28.443 216.001 27.2005C216.001 26.1799 216.29 25.248 216.866 24.4049C217.465 23.5618 218.309 22.8962 219.396 22.408C220.505 21.9199 221.803 21.6759 223.29 21.6759C225.486 21.6759 227.239 22.2306 228.548 23.3399C229.857 24.4271 230.578 25.9025 230.711 27.7663H226.252C226.185 27.0341 225.874 26.4572 225.32 26.0357C224.787 25.5919 224.066 25.37 223.156 25.37C222.313 25.37 221.659 25.5254 221.193 25.836C220.749 26.1466 220.527 26.5793 220.527 27.1339C220.527 27.7552 220.838 28.2322 221.459 28.565C222.08 28.8756 223.046 29.1973 224.355 29.5302C225.686 29.863 226.784 30.2069 227.649 30.5619C228.515 30.9169 229.258 31.4715 229.879 32.2259C230.523 32.9581 230.855 33.9343 230.878 35.1546C230.878 36.2196 230.578 37.1737 229.979 38.0168C229.402 38.8599 228.559 39.5255 227.45 40.0136C226.363 40.4796 225.087 40.7125 223.622 40.7125Z" fill="#323232"/>
</svg>
