<svg width="174" height="58" viewBox="0 0 174 58" fill="none" xmlns="http://www.w3.org/2000/svg">
<path opacity="0.7" d="M16.2348 27.475C17.2121 23.828 20.9608 20.0793 24.6078 19.1019L47.3445 13.0087C50.9915 12.0314 53.1556 14.1955 52.1783 17.8425L46.0851 40.5792C45.1077 44.2262 41.359 47.9749 37.712 48.9523L14.9753 55.0455C11.3283 56.0228 9.1642 53.8587 10.1415 50.2117L16.2348 27.475Z" fill="#323232"/>
<path d="M7.11952 18.3597C8.09687 14.7128 11.8456 10.9641 15.4926 9.98671L38.2293 3.89349C41.8763 2.91615 44.0404 5.08029 43.0631 8.72725L36.9699 31.464C35.9925 35.1109 32.2438 38.8597 28.5968 39.837L5.86006 45.9302C2.21311 46.9076 0.0489623 44.7434 1.02631 41.0965L7.11952 18.3597Z" fill="#323232"/>
<path d="M73.5807 36.8583H81.0356V41.2514H67.8896V17.8882H73.5807V36.8583Z" fill="#323232"/>
<path d="M81.9529 31.9327C81.9529 30.0246 82.3079 28.3495 83.0179 26.9073C83.7501 25.4651 84.7374 24.3558 85.9799 23.5792C87.2224 22.8027 88.6091 22.4144 90.14 22.4144C91.449 22.4144 92.5917 22.6806 93.5679 23.2131C94.5663 23.7456 95.3318 24.4445 95.8643 25.3098V22.6806H101.555V41.2514H95.8643V38.6222C95.3096 39.4875 94.5331 40.1864 93.5346 40.7189C92.5584 41.2514 91.4158 41.5176 90.1067 41.5176C88.598 41.5176 87.2224 41.1293 85.9799 40.3528C84.7374 39.554 83.7501 38.4336 83.0179 36.9914C82.3079 35.527 81.9529 33.8408 81.9529 31.9327ZM95.8643 31.966C95.8643 30.546 95.4649 29.4256 94.6662 28.6046C93.8896 27.7837 92.9356 27.3732 91.804 27.3732C90.6725 27.3732 89.7073 27.7837 88.9086 28.6046C88.132 29.4034 87.7438 30.5127 87.7438 31.9327C87.7438 33.3527 88.132 34.4842 88.9086 35.3274C89.7073 36.1483 90.6725 36.5588 91.804 36.5588C92.9356 36.5588 93.8896 36.1483 94.6662 35.3274C95.4649 34.5064 95.8643 33.386 95.8643 31.966Z" fill="#323232"/>
<path d="M123.977 22.6806L112.329 50.0708H106.205L110.465 40.619L102.91 22.6806H109.267L113.56 34.2957L117.82 22.6806H123.977Z" fill="#323232"/>
<path d="M142.875 31.6665C142.875 32.199 142.842 32.7536 142.775 33.3305H129.896C129.984 34.4842 130.35 35.3717 130.994 35.993C131.659 36.592 132.469 36.8916 133.423 36.8916C134.843 36.8916 135.831 36.2925 136.385 35.0944H142.442C142.132 36.3147 141.566 37.413 140.745 38.3892C139.946 39.3654 138.937 40.1309 137.717 40.6856C136.496 41.2403 135.132 41.5176 133.623 41.5176C131.804 41.5176 130.184 41.1293 128.764 40.3528C127.344 39.5762 126.235 38.4669 125.436 37.0247C124.637 35.5825 124.238 33.8963 124.238 31.966C124.238 30.0357 124.626 28.3495 125.403 26.9073C126.201 25.4651 127.311 24.3558 128.731 23.5792C130.151 22.8027 131.781 22.4144 133.623 22.4144C135.42 22.4144 137.018 22.7916 138.415 23.5459C139.813 24.3003 140.9 25.3764 141.677 26.7742C142.476 28.172 142.875 29.8027 142.875 31.6665ZM137.051 30.1688C137.051 29.1926 136.718 28.416 136.053 27.8392C135.387 27.2623 134.555 26.9739 133.556 26.9739C132.602 26.9739 131.793 27.2512 131.127 27.8059C130.484 28.3606 130.084 29.1482 129.929 30.1688H137.051Z" fill="#323232"/>
<path d="M150.903 25.7758C151.568 24.7551 152.4 23.9564 153.399 23.3795C154.397 22.7805 155.507 22.4809 156.727 22.4809V28.5048H155.163C153.743 28.5048 152.678 28.8154 151.968 29.4366C151.258 30.0357 150.903 31.1007 150.903 32.6316V41.2514H145.212V22.6806H150.903V25.7758Z" fill="#323232"/>
<path d="M166.336 41.5176C164.717 41.5176 163.274 41.2403 162.01 40.6856C160.745 40.1309 159.747 39.3765 159.014 38.4225C158.282 37.4462 157.872 36.3591 157.783 35.161H163.408C163.474 35.8044 163.774 36.3258 164.306 36.7252C164.839 37.1245 165.493 37.3242 166.27 37.3242C166.98 37.3242 167.523 37.1911 167.9 36.9248C168.3 36.6364 168.5 36.2703 168.5 35.8266C168.5 35.2941 168.222 34.9058 167.668 34.6617C167.113 34.3955 166.214 34.1071 164.972 33.7964C163.641 33.4858 162.531 33.1641 161.644 32.8313C160.756 32.4763 159.991 31.9327 159.347 31.2005C158.704 30.4462 158.382 29.4366 158.382 28.172C158.382 27.107 158.671 26.1418 159.247 25.2765C159.847 24.389 160.712 23.6901 161.843 23.1798C162.997 22.6695 164.362 22.4144 165.937 22.4144C168.267 22.4144 170.097 22.9913 171.428 24.145C172.782 25.2987 173.558 26.8296 173.758 28.7377H168.5C168.411 28.0943 168.122 27.584 167.634 27.2068C167.168 26.8296 166.547 26.6411 165.77 26.6411C165.105 26.6411 164.595 26.7742 164.24 27.0404C163.885 27.2845 163.707 27.6284 163.707 28.0721C163.707 28.6046 163.984 29.004 164.539 29.2702C165.116 29.5365 166.003 29.8027 167.202 30.069C168.577 30.424 169.698 30.779 170.563 31.134C171.428 31.4668 172.183 32.0215 172.826 32.798C173.492 33.5524 173.836 34.573 173.858 35.8599C173.858 36.947 173.547 37.9233 172.926 38.7886C172.327 39.6317 171.45 40.2973 170.297 40.7854C169.165 41.2735 167.845 41.5176 166.336 41.5176Z" fill="#323232"/>
</svg>
