<svg width="200" height="58" viewBox="0 0 200 58" fill="none" xmlns="http://www.w3.org/2000/svg">
<path fill-rule="evenodd" clip-rule="evenodd" d="M24.3053 4.09845C23.705 3.97499 23.0859 3.97499 22.4856 4.09845C21.7917 4.24117 21.1715 4.58855 20.6784 4.86472L20.544 4.9398L3.83288 14.2238C3.78668 14.2494 3.73907 14.2757 3.69029 14.3025C3.16834 14.59 2.51205 14.9515 2.00807 15.4984C1.57233 15.9712 1.24258 16.5317 1.04086 17.1422C0.807543 17.8483 0.810272 18.5976 0.812443 19.1935C0.812646 19.2492 0.812844 19.3035 0.812844 19.3564V37.6869C0.812844 37.7398 0.812646 37.7941 0.812443 37.8498C0.810272 38.4457 0.807543 39.1949 1.04086 39.9011C1.24258 40.5116 1.57233 41.0721 2.00807 41.5449C2.51205 42.0918 3.16834 42.4533 3.69029 42.7408C3.73908 42.7676 3.78668 42.7938 3.83288 42.8195L20.544 52.1035L20.6784 52.1786C21.1715 52.4547 21.7917 52.8021 22.4856 52.9448C23.0859 53.0683 23.705 53.0683 24.3053 52.9448C24.9992 52.8021 25.6194 52.4547 26.1125 52.1786L26.2469 52.1035L42.958 42.8195C42.9785 42.8082 42.9992 42.7967 43.0201 42.7851C43.0466 42.7705 43.0734 42.7557 43.1006 42.7408C43.6226 42.4533 44.2789 42.0918 44.7829 41.5449C45.2186 41.072 45.5483 40.5116 45.7501 39.9011C45.9834 39.1949 45.9806 38.4457 45.9785 37.8498C45.9783 37.7941 45.9781 37.7398 45.9781 37.6869V19.3564C45.9781 19.3035 45.9783 19.2492 45.9785 19.1935C45.9806 18.5976 45.9834 17.8483 45.7501 17.1422C45.5483 16.5317 45.2186 15.9712 44.7829 15.4984C44.2789 14.9515 43.6226 14.59 43.1006 14.3025L43.0988 14.3015C43.0506 14.275 43.0037 14.2491 42.958 14.2238L26.2469 4.9398L26.1125 4.86472C25.6194 4.58855 24.9992 4.24117 24.3053 4.09845ZM22.7374 8.88795C23.0797 8.69783 23.2543 8.60177 23.3847 8.53891L23.3955 8.53374L23.4063 8.53891C23.5366 8.60176 23.7113 8.69783 24.0535 8.88795L39.0697 17.2303L23.3954 25.9382L7.72118 17.2303L22.7374 8.88795ZM5.32937 21.0683L21.1371 29.8503L21.1372 47.2663L6.0263 38.8714C5.66508 38.6707 5.48066 38.5672 5.35128 38.4847L5.34035 38.4777L5.33953 38.4648C5.33031 38.3116 5.32937 38.1001 5.32937 37.6869V21.0683Z" fill="#323232"/>
<path d="M66.5312 36.0684H73.7199V40.3045H61.0435V17.7758H66.5312V36.0684Z" fill="#323232"/>
<path d="M78.7764 20.5357C77.8137 20.5357 77.0221 20.2576 76.4016 19.7013C75.8026 19.1236 75.503 18.4176 75.503 17.5832C75.503 16.7274 75.8026 16.0214 76.4016 15.4651C77.0221 14.8875 77.8137 14.5986 78.7764 14.5986C79.7178 14.5986 80.488 14.8875 81.0871 15.4651C81.7075 16.0214 82.0178 16.7274 82.0178 17.5832C82.0178 18.4176 81.7075 19.1236 81.0871 19.7013C80.488 20.2576 79.7178 20.5357 78.7764 20.5357ZM81.5043 22.3971V40.3045H76.0165V22.3971H81.5043Z" fill="#323232"/>
<path d="M91.9639 22.1403C93.2262 22.1403 94.328 22.3971 95.2694 22.9105C96.2321 23.424 96.9702 24.0979 97.4837 24.9323V22.3971H102.972V40.2724C102.972 41.9198 102.64 43.4068 101.977 44.7333C101.335 46.0811 100.34 47.1509 98.9921 47.9425C97.6656 48.7341 96.0075 49.1299 94.0178 49.1299C91.3648 49.1299 89.2146 48.4988 87.5672 47.2365C85.9198 45.9956 84.9784 44.3054 84.7431 42.1659H90.1667C90.3378 42.8505 90.7443 43.3854 91.3862 43.7705C92.028 44.177 92.8196 44.3803 93.761 44.3803C94.8949 44.3803 95.7935 44.0486 96.4568 43.3854C97.1414 42.7436 97.4837 41.7059 97.4837 40.2724V37.7372C96.9489 38.5716 96.2107 39.2562 95.2694 39.7911C94.328 40.3045 93.2262 40.5613 91.9639 40.5613C90.4876 40.5613 89.1504 40.1869 87.9523 39.438C86.7542 38.6678 85.8021 37.5874 85.0961 36.1967C84.4115 34.7847 84.0692 33.1587 84.0692 31.3187C84.0692 29.4787 84.4115 27.8634 85.0961 26.4728C85.8021 25.0821 86.7542 24.0124 87.9523 23.2635C89.1504 22.5147 90.4876 22.1403 91.9639 22.1403ZM97.4837 31.3508C97.4837 29.9815 97.0986 28.9011 96.3284 28.1095C95.5796 27.3179 94.6596 26.9221 93.5685 26.9221C92.4773 26.9221 91.5467 27.3179 90.7764 28.1095C90.0276 28.8797 89.6532 29.9494 89.6532 31.3187C89.6532 32.688 90.0276 33.7791 90.7764 34.5921C91.5467 35.3837 92.4773 35.7795 93.5685 35.7795C94.6596 35.7795 95.5796 35.3837 96.3284 34.5921C97.0986 33.8005 97.4837 32.7201 97.4837 31.3508Z" fill="#323232"/>
<path d="M117.628 22.2045C119.682 22.2045 121.33 22.8891 122.571 24.2584C123.811 25.6063 124.432 27.4676 124.432 29.8425V40.3045H118.976V30.5806C118.976 29.3825 118.666 28.4518 118.046 27.7886C117.425 27.1253 116.591 26.7937 115.542 26.7937C114.494 26.7937 113.66 27.1253 113.039 27.7886C112.419 28.4518 112.109 29.3825 112.109 30.5806V40.3045H106.621V16.5563H112.109V24.804C112.665 24.0124 113.424 23.3812 114.387 22.9105C115.35 22.4398 116.43 22.2045 117.628 22.2045Z" fill="#323232"/>
<path d="M137.905 35.6512V40.3045H135.113C133.123 40.3045 131.572 39.8232 130.46 38.8604C129.347 37.8762 128.791 36.2823 128.791 34.0786V26.9542H126.609V22.3971H128.791V18.0325H134.279V22.3971H137.873V26.9542H134.279V34.1428C134.279 34.6777 134.407 35.0628 134.664 35.2981C134.921 35.5335 135.349 35.6512 135.948 35.6512H137.905Z" fill="#323232"/>
<path d="M146.129 24.9323C146.642 24.0979 147.38 23.424 148.343 22.9105C149.306 22.3971 150.408 22.1403 151.649 22.1403C153.125 22.1403 154.462 22.5147 155.66 23.2635C156.858 24.0124 157.8 25.0821 158.484 26.4728C159.19 27.8634 159.543 29.4787 159.543 31.3187C159.543 33.1587 159.19 34.7847 158.484 36.1967C157.8 37.5874 156.858 38.6678 155.66 39.438C154.462 40.1869 153.125 40.5613 151.649 40.5613C150.386 40.5613 149.285 40.3152 148.343 39.8232C147.402 39.3097 146.664 38.6357 146.129 37.8013V40.3045H140.641V16.5563H146.129V24.9323ZM153.959 31.3187C153.959 29.9494 153.574 28.8797 152.804 28.1095C152.055 27.3179 151.125 26.9221 150.012 26.9221C148.921 26.9221 147.99 27.3179 147.22 28.1095C146.471 28.9011 146.097 29.9815 146.097 31.3508C146.097 32.7201 146.471 33.8005 147.22 34.5921C147.99 35.3837 148.921 35.7795 150.012 35.7795C151.103 35.7795 152.034 35.3837 152.804 34.5921C153.574 33.7791 153.959 32.688 153.959 31.3187Z" fill="#323232"/>
<path d="M170.253 40.5613C168.499 40.5613 166.915 40.1869 165.503 39.438C164.113 38.6892 163.011 37.6195 162.198 36.2288C161.406 34.8382 161.01 33.2121 161.01 31.3508C161.01 29.5108 161.417 27.8955 162.23 26.5049C163.043 25.0928 164.155 24.0124 165.567 23.2635C166.98 22.5147 168.563 22.1403 170.317 22.1403C172.071 22.1403 173.655 22.5147 175.067 23.2635C176.479 24.0124 177.591 25.0928 178.404 26.5049C179.217 27.8955 179.624 29.5108 179.624 31.3508C179.624 33.1908 179.207 34.8168 178.372 36.2288C177.559 37.6195 176.436 38.6892 175.003 39.438C173.591 40.1869 172.007 40.5613 170.253 40.5613ZM170.253 35.8116C171.301 35.8116 172.189 35.4265 172.917 34.6563C173.665 33.8861 174.04 32.7843 174.04 31.3508C174.04 29.9173 173.676 28.8155 172.949 28.0453C172.243 27.2751 171.365 26.89 170.317 26.89C169.247 26.89 168.359 27.2751 167.653 28.0453C166.947 28.7941 166.594 29.8959 166.594 31.3508C166.594 32.7843 166.937 33.8861 167.621 34.6563C168.327 35.4265 169.205 35.8116 170.253 35.8116Z" fill="#323232"/>
<path d="M192.805 40.3045L189.371 35.3302L186.483 40.3045H180.546L186.451 31.1582L180.385 22.3971H186.547L189.981 27.3393L192.869 22.3971H198.806L192.805 31.415L198.966 40.3045H192.805Z" fill="#323232"/>
</svg>
