<svg width="209" height="58" viewBox="0 0 209 58" fill="none" xmlns="http://www.w3.org/2000/svg">
<path d="M18.3718 23.1182C25.2192 19.8433 30.5781 14.286 33.6545 7.33935C31.6697 5.25535 29.0895 3.76678 26.3108 2.87363L24.8223 2.37744C24.723 2.57592 24.6238 2.87364 24.6238 3.07212C22.2421 9.82031 17.3794 15.2784 10.8297 18.3548C6.26474 20.538 2.89064 24.5076 1.30283 29.271L0.806641 30.7596C1.00512 30.8588 1.30284 30.958 1.50131 30.958C3.38684 31.6527 5.27236 32.5458 7.05865 33.6375C9.5396 29.1717 13.5091 25.4007 18.3718 23.1182Z" fill="#323232"/>
<path opacity="0.8" d="M47.151 23.5151C43.4792 29.0725 38.4181 33.5382 32.1661 36.5153C27.1049 38.8971 23.2346 43.3628 21.4483 48.7216L20.9521 50.4087C22.8377 52.0957 25.1201 53.3858 27.6011 54.1797L29.0897 54.6759C29.1889 54.4775 29.2881 54.1797 29.2881 53.9813C31.6699 47.2331 36.5325 41.775 43.0823 38.6986C47.6472 36.5153 51.1205 32.5458 52.6091 27.7824L53.1053 26.2938C51.0213 25.6984 49.0365 24.706 47.151 23.5151Z" fill="#323232"/>
<path opacity="0.9" d="M16.9826 45.248C19.4636 39.2937 24.0285 34.431 29.8836 31.6524C35.2424 29.0722 39.7082 25.1026 42.7845 20.24C40.5021 18.0567 38.6165 15.5758 37.2272 12.5986C33.5554 19.3468 27.7996 24.8049 20.7537 28.179C16.6849 30.0646 13.4101 33.3394 11.4253 37.309C13.6085 39.393 15.3948 41.9731 16.7842 44.851C16.7842 44.851 16.8834 45.0495 16.9826 45.248Z" fill="#323232"/>
<path d="M64.9321 40.4126H81.6558V35.7771H70.3165V15.452H64.9321V40.4126Z" fill="#323232"/>
<path d="M99.1279 22.441H94.1358V32.2826C94.1358 34.5647 92.6025 36.2763 90.4274 36.2763C88.3949 36.2763 86.9685 34.7073 86.9685 32.5322V22.441H82.0121V33.6376C82.0121 37.7383 84.6508 40.6979 88.6801 40.6979C91.1405 40.6979 93.1374 39.6281 94.1358 37.9166V40.4126H99.1279V22.441Z" fill="#323232"/>
<path d="M100.982 40.4126H105.975V30.2144C105.975 27.8966 107.294 26.3633 109.362 26.3633C111.288 26.3633 112.5 27.8966 112.5 30.2144V40.4126H117.492V30.2144C117.492 27.8966 118.811 26.3633 120.88 26.3633C122.805 26.3633 124.053 27.8966 124.053 30.2144V40.4126H129.01V28.6455C129.01 25.044 126.478 22.1557 122.556 22.1557C119.667 22.1557 117.421 23.689 116.565 25.4362C115.709 23.2967 113.891 22.1557 111.074 22.1557C108.649 22.1557 106.937 23.3324 105.975 24.9727V22.441H100.982V40.4126Z" fill="#323232"/>
<path d="M130.71 14.6318V19.8736H135.988V14.6318H130.71ZM130.853 40.4126H135.845V22.441H130.853V40.4126Z" fill="#323232"/>
<path d="M137.706 40.4126H142.698V30.571C142.698 28.2532 144.232 26.5773 146.407 26.5773C148.475 26.5773 149.865 28.1462 149.865 30.3214V40.4126H154.858V29.216C154.858 25.0797 152.219 22.1557 148.154 22.1557C145.693 22.1557 143.697 23.1898 142.698 24.937V22.441H137.706V40.4126Z" fill="#323232"/>
<path d="M165.27 40.6979C170.797 40.6979 174.755 36.7755 174.755 31.4268C174.755 26.0781 170.797 22.1557 165.27 22.1557C159.743 22.1557 155.785 26.0781 155.785 31.4268C155.785 36.7755 159.743 40.6979 165.27 40.6979ZM165.27 36.4189C162.596 36.4189 160.777 34.3864 160.777 31.4268C160.777 28.4315 162.596 26.399 165.27 26.399C167.944 26.399 169.763 28.4315 169.763 31.4268C169.763 34.3864 167.944 36.4189 165.27 36.4189Z" fill="#323232"/>
<path d="M192.835 22.441H187.843V32.2826C187.843 34.5647 186.309 36.2763 184.134 36.2763C182.102 36.2763 180.675 34.7073 180.675 32.5322V22.441H175.719V33.6376C175.719 37.7383 178.358 40.6979 182.387 40.6979C184.847 40.6979 186.844 39.6281 187.843 37.9166V40.4126H192.835V22.441Z" fill="#323232"/>
<path d="M201.25 40.6979C205.458 40.6979 208.239 38.4514 208.239 35.0283C208.239 26.8982 198.398 31.0702 198.398 27.3974C198.398 26.2564 199.361 25.6502 200.751 25.6502C202.106 25.6502 203.497 26.4703 203.711 28.0036H208.025C207.847 24.4735 204.923 22.1557 200.609 22.1557C196.936 22.1557 194.19 24.4021 194.19 27.5757C194.19 35.1352 203.853 31.5338 203.853 35.2065C203.853 36.205 202.784 36.9538 201.25 36.9538C199.396 36.9538 198.148 35.9554 197.97 34.3507H193.691C193.869 38.2375 196.865 40.6979 201.25 40.6979Z" fill="#323232"/>
</svg>
