<svg width="198" height="58" viewBox="0 0 198 58" fill="none" xmlns="http://www.w3.org/2000/svg">
<circle cx="26.2938" cy="29.7708" r="24.3664" stroke="#323232" stroke-width="3.56581"/>
<path d="M43.5238 12.5417C45.9144 14.9325 46.6555 18.9696 45.3675 23.9783C44.091 28.9423 40.8797 34.5166 35.9597 39.4366C31.0396 44.3567 25.4654 47.568 20.5014 48.8445C15.4927 50.1324 11.4556 49.3913 9.06478 47.0008C6.67401 44.61 5.93236 40.5723 7.22036 35.5634C8.49685 30.5995 11.7089 25.0258 16.6289 20.1058C21.5488 15.1859 27.1226 11.9739 32.0865 10.6973C37.0954 9.40931 41.133 10.151 43.5238 12.5417Z" stroke="#323232" stroke-width="3.56581"/>
<path d="M9.06419 12.5416C11.455 10.151 15.4921 9.40994 20.5008 10.6979C25.4648 11.9744 31.0391 15.1857 35.9591 20.1057C40.8791 25.0258 44.0905 30.6 45.3669 35.564C46.6549 40.5728 45.9138 44.6099 43.5232 47.0007C41.1324 49.3914 37.0948 50.1331 32.0859 48.8451C27.1219 47.5686 21.5483 44.3565 16.6283 39.4365C11.7083 34.5166 8.49632 28.9429 7.21977 23.9789C5.93177 18.9701 6.67342 14.9324 9.06419 12.5416Z" stroke="#323232" stroke-width="3.56581"/>
<path d="M74.8479 41.6452C80.4462 41.6452 84.226 38.7212 84.226 34.05C84.226 24.1727 71.1038 28.3804 71.1038 23.1743C71.1038 21.7123 72.4232 20.7139 74.527 20.7139C76.9161 20.7139 78.4137 21.9976 78.592 23.9587H83.6911C83.5485 19.2162 79.9114 16.114 74.527 16.114C69.4635 16.114 65.8977 19.0379 65.8977 23.1743C65.8977 32.9802 78.8416 29.2361 78.8416 34.1213C78.8416 36.0112 77.237 37.0096 74.8479 37.0096C72.2092 37.0096 70.5333 35.405 70.3193 32.8733H65.1846C65.3985 38.1863 69.1783 41.6452 74.8479 41.6452Z" fill="#323232"/>
<path d="M85.4386 48.6341H90.3951V39.7553C91.3579 40.9676 93.1051 41.6452 95.1376 41.6452C100.308 41.6452 103.803 37.9724 103.803 32.3741C103.803 26.7757 100.593 23.103 95.5655 23.103C93.2478 23.103 91.4649 23.9587 90.3951 25.3494V23.3882H85.4386V48.6341ZM94.5314 37.3662C91.8571 37.3662 90.1098 35.3693 90.1098 32.3741C90.1098 29.3431 91.8571 27.3463 94.5314 27.3463C97.1345 27.3463 98.9174 29.3431 98.9174 32.3741C98.9174 35.3693 97.1345 37.3662 94.5314 37.3662Z" fill="#323232"/>
<path d="M105.002 41.3599H109.958V31.5183C109.958 29.2005 111.492 27.5246 113.667 27.5246C115.735 27.5246 117.161 29.0935 117.161 31.2687V41.3599H122.118V30.1633C122.118 26.0269 119.479 23.103 115.45 23.103C112.954 23.103 110.992 24.137 109.958 25.8843V15.5791H105.002V41.3599Z" fill="#323232"/>
<path d="M135.983 35.2624C135.591 36.7957 134.272 37.5801 132.275 37.5801C129.779 37.5801 128.174 36.0112 127.817 33.4795H140.726C140.761 33.0872 140.797 32.5523 140.797 31.8748C140.797 27.7742 138.265 23.103 131.918 23.103C125.821 23.103 123.039 27.7742 123.039 32.3384C123.039 36.867 126.177 41.6452 132.275 41.6452C136.696 41.6452 140.119 39.1491 140.833 35.2624H135.983ZM131.918 26.7401C134.307 26.7401 135.698 28.3447 135.84 30.3415H127.889C128.317 27.8455 129.672 26.7401 131.918 26.7401Z" fill="#323232"/>
<path d="M153.796 27.5246V23.3882H151.239C149.064 23.3882 147.708 24.137 146.746 26.3835V23.3882H141.754V41.3599H146.746V32.6237C146.746 29.5571 147.851 27.5246 150.312 27.5246H153.796Z" fill="#323232"/>
<path d="M170.912 23.3882H165.92V33.2298C165.92 35.512 164.386 37.2236 162.211 37.2236C160.179 37.2236 158.752 35.6546 158.752 33.4795V23.3882H153.796V34.5849C153.796 38.6855 156.435 41.6452 160.464 41.6452C162.924 41.6452 164.921 40.5754 165.92 38.8638V41.3599H170.912V23.3882Z" fill="#323232"/>
<path d="M173.052 41.3599H178.008V15.5791H173.052V41.3599Z" fill="#323232"/>
<path d="M192.159 35.2624C191.766 36.7957 190.447 37.5801 188.45 37.5801C185.954 37.5801 184.349 36.0112 183.993 33.4795H196.901C196.937 33.0872 196.972 32.5523 196.972 31.8748C196.972 27.7742 194.441 23.103 188.093 23.103C181.996 23.103 179.215 27.7742 179.215 32.3384C179.215 36.867 182.353 41.6452 188.45 41.6452C192.872 41.6452 196.295 39.1491 197.008 35.2624H192.159ZM188.093 26.7401C190.483 26.7401 191.873 28.3447 192.016 30.3415H184.064C184.492 27.8455 185.847 26.7401 188.093 26.7401Z" fill="#323232"/>
</svg>
