<svg width="1079" height="565" viewBox="0 0 1079 565" fill="none" xmlns="http://www.w3.org/2000/svg">
<g opacity="0.4" filter="url(#filter0_di_136_21516)">
<path d="M2 28.8603C33.8891 24.194 66.1255 20.949 98.2202 19.3993C126.104 18.1568 154.158 17.9368 181.114 21.5909C207.43 24.8855 236.758 35.6432 224.142 54.5368C200.615 114.258 198.464 177.455 214.542 239.98C223.375 270.151 240.565 305.755 278.423 320.371C316.673 334.048 352.42 320.083 380.797 304.931C482.67 250.287 579.87 180.15 680.595 144.898C694.358 140.557 710.105 139.367 713.602 141.476C714.433 141.848 714.427 141.902 714.664 142.125C714.865 142.327 715.41 143.118 715.897 144.65C716.991 147.985 717.47 153.692 716.929 160.646C712.078 220.027 694.366 281.837 689.514 348.408C688.345 381.123 685.395 420.224 714.958 454.605C747.923 487.721 790.451 482.038 822.689 476.415C878.367 465.663 931.321 445.925 981.966 425.318C1007.23 415.53 1032.76 404.205 1056.49 402.922C1080.14 400.392 1094.85 422.476 1102.19 448.033C1108.23 467.845 1114.29 487.623 1120.37 507.364C1129.88 538.298 1139.44 569.104 1149 600C1142.61 568.295 1136.05 536.708 1129.38 505.033C1125.13 484.819 1120.82 464.582 1116.47 444.328C1113.38 430.512 1109.16 416.049 1099.65 403.169C1090.45 389.894 1072.47 381.724 1056.78 381.567C1025.12 381.187 999.142 391.68 972.731 399.677C920.536 416.924 869.275 432.535 816.433 440.022C787.284 444.501 757.453 442.173 745.438 426.849C732.217 411.824 731.061 381.07 733.954 351.945C739.922 292.133 758.788 231.334 765.235 164.587C766.033 153.78 766.279 143.458 762.405 130.201C759.076 117.511 747.29 102.143 732.886 96.5757C704.468 86.2048 685.167 93.3774 666.901 97.8507C549.144 139.64 458.812 210.406 359.697 267.752C251.381 349.265 212.685 158.149 245.558 63.3741C248.579 55.3733 250.644 45.1794 246.884 34.9126C243.089 24.5981 234.671 18.3307 227.25 14.6652C212.123 7.5061 197.294 6.06378 182.726 5.0598C153.653 3.55461 125.4 6.32747 97.357 10.1294C65.1655 14.642 33.2649 20.9885 2 28.8603Z" fill="url(#paint0_linear_136_21516)"/>
</g>
<defs>
<filter id="filter0_di_136_21516" x="0" y="0.642868" width="1159" height="607.357" filterUnits="userSpaceOnUse" color-interpolation-filters="sRGB">
<feFlood flood-opacity="0" result="BackgroundImageFix"/>
<feColorMatrix in="SourceAlpha" type="matrix" values="0 0 0 0 0 0 0 0 0 0 0 0 0 0 0 0 0 0 127 0" result="hardAlpha"/>
<feOffset dx="4" dy="2"/>
<feGaussianBlur stdDeviation="3"/>
<feColorMatrix type="matrix" values="0 0 0 0 0.282353 0 0 0 0 0.392157 0 0 0 0 0.490196 0 0 0 0.17 0"/>
<feBlend mode="normal" in2="BackgroundImageFix" result="effect1_dropShadow_136_21516"/>
<feBlend mode="normal" in="SourceGraphic" in2="effect1_dropShadow_136_21516" result="shape"/>
<feColorMatrix in="SourceAlpha" type="matrix" values="0 0 0 0 0 0 0 0 0 0 0 0 0 0 0 0 0 0 127 0" result="hardAlpha"/>
<feOffset dx="-2" dy="-2"/>
<feGaussianBlur stdDeviation="3"/>
<feComposite in2="hardAlpha" operator="arithmetic" k2="-1" k3="1"/>
<feColorMatrix type="matrix" values="0 0 0 0 0.842837 0 0 0 0 0.810401 0 0 0 0 0.987325 0 0 0 1 0"/>
<feBlend mode="normal" in2="shape" result="effect2_innerShadow_136_21516"/>
</filter>
<linearGradient id="paint0_linear_136_21516" x1="575.5" y1="12" x2="575.5" y2="600" gradientUnits="userSpaceOnUse">
<stop stop-color="#4F9CFE"/>
<stop offset="1" stop-color="#2C85F8"/>
</linearGradient>
</defs>
</svg>
